<svg width="605" height="361" viewBox="0 0 605 361" fill="none" xmlns="http://www.w3.org/2000/svg">
<rect x="1" y="10" width="65" height="342" rx="5" fill="#F0E1D7" stroke="#F5AC7F" stroke-width="2" stroke-dasharray="4 4"/>
<circle cx="34.5" cy="39.5" r="14.5" fill="#F0E1D7" stroke="#F5AC7F" stroke-width="2" stroke-dasharray="4 4"/>
<circle cx="34.5" cy="86.5" r="14.5" fill="#F0E1D7" stroke="#F5AC7F" stroke-width="2" stroke-dasharray="4 4"/>
<circle cx="34.5" cy="133.5" r="14.5" fill="#F0E1D7" stroke="#F5AC7F" stroke-width="2" stroke-dasharray="4 4"/>
<circle cx="34.5" cy="180.5" r="14.5" fill="#F0E1D7" stroke="#F5AC7F" stroke-width="2" stroke-dasharray="4 4"/>
<circle cx="34.5" cy="227.5" r="15.5" fill="#F5AC7F"/>
<circle cx="34.5" cy="274.5" r="15.5" fill="#F5AC7F"/>
<circle cx="34.5" cy="321.5" r="15.5" fill="#F5AC7F"/>
<path d="M120.25 20.5C120.25 19.125 120.51 17.8958 121.031 16.8125C122.135 14.5417 124.083 13.4062 126.875 13.4062C128 13.4062 129.042 13.6458 130 14.125C131.354 14.8125 132.031 15.6875 132.031 16.75C132.031 16.875 132.01 17.0104 131.969 17.1562C131.781 17.7812 131.333 18.0729 130.625 18.0312C130.375 18.0104 130.146 17.9479 129.938 17.8438C129.604 17.6354 129.375 17.1146 129.25 16.2812C129.188 15.9271 129.135 15.6667 129.094 15.5C128.865 14.625 128.188 14.1875 127.062 14.1875C126.333 14.1875 125.667 14.375 125.062 14.75C123.625 15.6667 122.906 17.4896 122.906 20.2188C122.906 21.7604 123.219 23.0938 123.844 24.2188C124.677 25.6979 125.833 26.4375 127.312 26.4375C127.479 26.4375 127.646 26.4271 127.812 26.4062C129.583 26.2396 130.854 25.3333 131.625 23.6875L132.438 23.9688C132.292 24.3229 132.094 24.6771 131.844 25.0312C130.74 26.5521 129.104 27.3125 126.938 27.3125C125.479 27.3125 124.177 26.9271 123.031 26.1562C121.177 24.9062 120.25 23.0208 120.25 20.5ZM136.5 20.3438C136.5 21.2396 136.573 22.0521 136.719 22.7812C137.26 25.2812 138.583 26.5312 140.688 26.5312C141.083 26.5312 141.469 26.4792 141.844 26.375C143.76 25.7708 144.719 23.7188 144.719 20.2188C144.719 19.6146 144.688 19.0625 144.625 18.5625C144.25 15.6458 142.906 14.1875 140.594 14.1875C140.094 14.1875 139.615 14.2708 139.156 14.4375C137.385 15.1458 136.5 17.1146 136.5 20.3438ZM140.688 13.4062C142.062 13.4062 143.323 13.7708 144.469 14.5C146.406 15.7708 147.375 17.7188 147.375 20.3438C147.375 22.2812 146.771 23.8958 145.562 25.1875C144.25 26.6042 142.594 27.3125 140.594 27.3125C139.177 27.3125 137.885 26.9167 136.719 26.125C134.802 24.8125 133.844 22.8438 133.844 20.2188C133.844 18.3229 134.458 16.7396 135.688 15.4688C137.021 14.0938 138.688 13.4062 140.688 13.4062ZM156.031 26.2188C156.156 26.2188 156.26 26.2292 156.344 26.25C156.656 26.2917 156.812 26.5417 156.812 27H149.656V26.2188C150.365 26.2188 150.875 26.1667 151.188 26.0625C151.729 25.875 152 25.3021 152 24.3438V7.46875H149.656V6.6875H154.344V26.2188H156.031ZM170.844 27H162.25V26.1875H165.219V9.0625H163.531C161.927 9.1875 160.792 10.2708 160.125 12.3125L159.625 14.4062H158.75L158.906 8.25H174.344L174.5 14.4062H173.625L173.125 12.3125C173.104 12.2708 173.094 12.2083 173.094 12.125C172.531 10.0833 171.406 9.0625 169.719 9.0625H167.906V26.1875H170.031C170.135 26.1875 170.24 26.1979 170.344 26.2188C170.677 26.2812 170.844 26.5417 170.844 27ZM179.5 20.3438C179.5 21.2396 179.573 22.0521 179.719 22.7812C180.26 25.2812 181.583 26.5312 183.688 26.5312C184.083 26.5312 184.469 26.4792 184.844 26.375C186.76 25.7708 187.719 23.7188 187.719 20.2188C187.719 19.6146 187.688 19.0625 187.625 18.5625C187.25 15.6458 185.906 14.1875 183.594 14.1875C183.094 14.1875 182.615 14.2708 182.156 14.4375C180.385 15.1458 179.5 17.1146 179.5 20.3438ZM183.688 13.4062C185.062 13.4062 186.323 13.7708 187.469 14.5C189.406 15.7708 190.375 17.7188 190.375 20.3438C190.375 22.2812 189.771 23.8958 188.562 25.1875C187.25 26.6042 185.594 27.3125 183.594 27.3125C182.177 27.3125 180.885 26.9167 179.719 26.125C177.802 24.8125 176.844 22.8438 176.844 20.2188C176.844 18.3229 177.458 16.7396 178.688 15.4688C180.021 14.0938 181.688 13.4062 183.688 13.4062ZM197.125 32.1562H199.312C199.438 32.1562 199.542 32.1667 199.625 32.1875C199.938 32.2292 200.094 32.4792 200.094 32.9375H192.438V32.1562C193.146 32.1562 193.656 32.1042 193.969 32C194.51 31.8125 194.781 31.2396 194.781 30.2812V14.5H192.438V13.7188H196.938L197.094 17.125C197.26 16.6667 197.469 16.2292 197.719 15.8125C198.719 14.2083 200.229 13.4062 202.25 13.4062C203.562 13.4062 204.677 13.8229 205.594 14.6562C206.906 15.8854 207.562 17.6875 207.562 20.0625C207.562 22.1458 206.958 23.8646 205.75 25.2188C204.5 26.6146 202.948 27.3125 201.094 27.3125C199.594 27.2292 198.271 26.6875 197.125 25.6875V32.1562ZM201.25 14.6562C200.5 14.6562 199.812 14.8854 199.188 15.3438C197.792 16.3854 197.094 18.2604 197.094 20.9688C197.094 22.1354 197.25 23.1458 197.562 24C198.167 25.6875 199.271 26.5312 200.875 26.5312C201.438 26.5312 201.958 26.4167 202.438 26.1875C204.083 25.375 204.906 23.4375 204.906 20.375C204.906 19.5208 204.833 18.75 204.688 18.0625C204.208 15.7917 203.062 14.6562 201.25 14.6562Z" fill="#161616"/>
<path d="M117.25 343.5C117.25 342.125 117.51 340.896 118.031 339.812C119.135 337.542 121.083 336.406 123.875 336.406C125 336.406 126.042 336.646 127 337.125C128.354 337.812 129.031 338.688 129.031 339.75C129.031 339.875 129.01 340.01 128.969 340.156C128.781 340.781 128.333 341.073 127.625 341.031C127.375 341.01 127.146 340.948 126.938 340.844C126.604 340.635 126.375 340.115 126.25 339.281C126.188 338.927 126.135 338.667 126.094 338.5C125.865 337.625 125.188 337.188 124.062 337.188C123.333 337.188 122.667 337.375 122.062 337.75C120.625 338.667 119.906 340.49 119.906 343.219C119.906 344.76 120.219 346.094 120.844 347.219C121.677 348.698 122.833 349.438 124.312 349.438C124.479 349.438 124.646 349.427 124.812 349.406C126.583 349.24 127.854 348.333 128.625 346.688L129.438 346.969C129.292 347.323 129.094 347.677 128.844 348.031C127.74 349.552 126.104 350.312 123.938 350.312C122.479 350.312 121.177 349.927 120.031 349.156C118.177 347.906 117.25 346.021 117.25 343.5ZM133.5 343.344C133.5 344.24 133.573 345.052 133.719 345.781C134.26 348.281 135.583 349.531 137.688 349.531C138.083 349.531 138.469 349.479 138.844 349.375C140.76 348.771 141.719 346.719 141.719 343.219C141.719 342.615 141.688 342.062 141.625 341.562C141.25 338.646 139.906 337.188 137.594 337.188C137.094 337.188 136.615 337.271 136.156 337.438C134.385 338.146 133.5 340.115 133.5 343.344ZM137.688 336.406C139.062 336.406 140.323 336.771 141.469 337.5C143.406 338.771 144.375 340.719 144.375 343.344C144.375 345.281 143.771 346.896 142.562 348.188C141.25 349.604 139.594 350.312 137.594 350.312C136.177 350.312 134.885 349.917 133.719 349.125C131.802 347.812 130.844 345.844 130.844 343.219C130.844 341.323 131.458 339.74 132.688 338.469C134.021 337.094 135.688 336.406 137.688 336.406ZM153.031 349.219C153.156 349.219 153.26 349.229 153.344 349.25C153.656 349.292 153.812 349.542 153.812 350H146.656V349.219C147.365 349.219 147.875 349.167 148.188 349.062C148.729 348.875 149 348.302 149 347.344V330.469H146.656V329.688H151.344V349.219H153.031ZM170.469 335.5C170.469 335.958 170.365 336.438 170.156 336.938C169.594 338.271 168.562 339.219 167.062 339.781C167.958 339.948 168.75 340.229 169.438 340.625C170.917 341.542 171.656 342.833 171.656 344.5C171.656 345.562 171.333 346.542 170.688 347.438C169.438 349.146 167.469 350 164.781 350H155.906V349.188H158.406V332.062H155.906V331.25H164.688C166.062 331.25 167.24 331.49 168.219 331.969C169.719 332.74 170.469 333.917 170.469 335.5ZM163.938 332.062H161.094V339.406H163.875C164.708 339.406 165.438 339.208 166.062 338.812C167.125 338.125 167.656 337.104 167.656 335.75C167.656 335.458 167.635 335.177 167.594 334.906C167.302 333.01 166.083 332.062 163.938 332.062ZM164.469 340.25H161.094V349.188H164.625C165.583 349.188 166.406 348.896 167.094 348.312C168.135 347.417 168.656 346.167 168.656 344.562C168.656 343.875 168.531 343.24 168.281 342.656C167.635 341.052 166.365 340.25 164.469 340.25ZM176.969 343.344C176.969 344.24 177.042 345.052 177.188 345.781C177.729 348.281 179.052 349.531 181.156 349.531C181.552 349.531 181.938 349.479 182.312 349.375C184.229 348.771 185.188 346.719 185.188 343.219C185.188 342.615 185.156 342.062 185.094 341.562C184.719 338.646 183.375 337.188 181.062 337.188C180.562 337.188 180.083 337.271 179.625 337.438C177.854 338.146 176.969 340.115 176.969 343.344ZM181.156 336.406C182.531 336.406 183.792 336.771 184.938 337.5C186.875 338.771 187.844 340.719 187.844 343.344C187.844 345.281 187.24 346.896 186.031 348.188C184.719 349.604 183.062 350.312 181.062 350.312C179.646 350.312 178.354 349.917 177.188 349.125C175.271 347.812 174.312 345.844 174.312 343.219C174.312 341.323 174.927 339.74 176.156 338.469C177.49 337.094 179.156 336.406 181.156 336.406ZM189.719 337.5V336.719H191.906V333.75L194.25 333.094V336.719H199.094V337.5H194.25V347C194.271 348.562 194.844 349.365 195.969 349.406C196.969 349.26 197.729 348.323 198.25 346.594L199.094 346.75C199.094 346.771 199.094 346.792 199.094 346.812C198.615 349.167 197.417 350.344 195.5 350.344C193.25 350.26 192.052 348.917 191.906 346.312V337.5H189.719ZM199.875 337.5V336.719H202.062V333.75L204.406 333.094V336.719H209.25V337.5H204.406V347C204.427 348.562 205 349.365 206.125 349.406C207.125 349.26 207.885 348.323 208.406 346.594L209.25 346.75C209.25 346.771 209.25 346.792 209.25 346.812C208.771 349.167 207.573 350.344 205.656 350.344C203.406 350.26 202.208 348.917 202.062 346.312V337.5H199.875ZM213.312 343.344C213.312 344.24 213.385 345.052 213.531 345.781C214.073 348.281 215.396 349.531 217.5 349.531C217.896 349.531 218.281 349.479 218.656 349.375C220.573 348.771 221.531 346.719 221.531 343.219C221.531 342.615 221.5 342.062 221.438 341.562C221.062 338.646 219.719 337.188 217.406 337.188C216.906 337.188 216.427 337.271 215.969 337.438C214.198 338.146 213.312 340.115 213.312 343.344ZM217.5 336.406C218.875 336.406 220.135 336.771 221.281 337.5C223.219 338.771 224.188 340.719 224.188 343.344C224.188 345.281 223.583 346.896 222.375 348.188C221.062 349.604 219.406 350.312 217.406 350.312C215.99 350.312 214.698 349.917 213.531 349.125C211.615 347.812 210.656 345.844 210.656 343.219C210.656 341.323 211.271 339.74 212.5 338.469C213.833 337.094 215.5 336.406 217.5 336.406ZM232.469 349.219C232.573 349.219 232.677 349.229 232.781 349.25C233.094 349.312 233.25 349.562 233.25 350H226.375V349.219C227.083 349.219 227.594 349.167 227.906 349.062C228.448 348.875 228.719 348.302 228.719 347.344V337.5H226.375V336.719H230.906L231.031 339.844C231.24 339.281 231.521 338.771 231.875 338.312C232.854 337.042 234.094 336.406 235.594 336.406C235.99 336.406 236.375 336.479 236.75 336.625C238.021 337.104 238.844 338.167 239.219 339.812C239.385 339.396 239.594 339 239.844 338.625C240.802 337.146 242.073 336.406 243.656 336.406C244.385 336.406 245.062 336.594 245.688 336.969C247.083 337.823 247.781 339.323 247.781 341.469V349.219H249.375C249.5 349.219 249.604 349.229 249.688 349.25C250 349.292 250.156 349.542 250.156 350H243.25V349.219C243.958 349.219 244.458 349.167 244.75 349.062C245.208 348.875 245.438 348.302 245.438 347.344V341.156C245.438 340.49 245.333 339.896 245.125 339.375C244.688 338.271 243.938 337.719 242.875 337.719C242.479 337.719 242.062 337.823 241.625 338.031C240.479 338.635 239.74 339.698 239.406 341.219V341.469V349.219H240.812C240.938 349.219 241.042 349.229 241.125 349.25C241.438 349.292 241.594 349.542 241.594 350H234.875V349.219C235.583 349.219 236.083 349.167 236.375 349.062C236.833 348.875 237.062 348.302 237.062 347.344V341.156C237.062 340.531 236.979 339.969 236.812 339.469C236.417 338.323 235.698 337.75 234.656 337.75C234.094 337.75 233.531 337.958 232.969 338.375C231.76 339.271 231.125 340.635 231.062 342.469V349.219H232.469Z" fill="#161616"/>
<path d="M136.906 237L136.656 233.688C135.635 236.062 133.99 237.271 131.719 237.312C130.615 237.312 129.604 236.99 128.688 236.344C127.062 235.156 126.25 233.271 126.25 230.688C126.25 229.125 126.604 227.719 127.312 226.469C128.479 224.427 130.208 223.406 132.5 223.406C134.229 223.406 135.604 223.969 136.625 225.094V217.469H133.656V216.688H138.969L139.031 236.219H140.594C140.719 236.219 140.823 236.229 140.906 236.25C141.219 236.292 141.375 236.542 141.375 237H136.906ZM128.906 230.312C128.906 231.292 129.01 232.167 129.219 232.938C129.74 235.021 130.854 236.062 132.562 236.062C133.417 236.062 134.177 235.76 134.844 235.156C136.094 234.031 136.719 232.219 136.719 229.719C136.719 228.531 136.542 227.5 136.188 226.625C135.542 225 134.458 224.188 132.938 224.188C132.333 224.188 131.781 224.323 131.281 224.594C129.698 225.469 128.906 227.375 128.906 230.312ZM149.469 236.219C149.573 236.219 149.677 236.229 149.781 236.25C150.094 236.292 150.25 236.542 150.25 237H143.062V236.219C143.771 236.219 144.281 236.177 144.594 236.094C145.24 235.885 145.562 235.302 145.562 234.344V224.5H143.062V223.719H147.906V236.219H149.469ZM148.281 219.156C148.281 219.406 148.229 219.646 148.125 219.875C147.833 220.542 147.323 220.875 146.594 220.875C146.365 220.875 146.135 220.833 145.906 220.75C145.219 220.458 144.875 219.927 144.875 219.156C144.875 218.906 144.927 218.667 145.031 218.438C145.344 217.771 145.865 217.438 146.594 217.438C146.823 217.438 147.062 217.49 147.312 217.594C147.958 217.906 148.281 218.427 148.281 219.156ZM157.125 236.469C158.562 236.469 159.531 236.031 160.031 235.156C160.219 234.844 160.312 234.5 160.312 234.125C160.312 233.25 159.677 232.5 158.406 231.875C158.135 231.729 157.688 231.521 157.062 231.25C155.354 230.542 154.219 229.875 153.656 229.25C153.052 228.562 152.75 227.76 152.75 226.844C152.75 225.406 153.542 224.396 155.125 223.812C155.854 223.542 156.646 223.406 157.5 223.406C158.875 223.406 160.062 223.698 161.062 224.281C161.062 223.677 161.208 223.333 161.5 223.25C161.625 223.229 161.76 223.219 161.906 223.219V227.125H161.094C161.052 225.208 159.99 224.24 157.906 224.219C156.344 224.219 155.375 224.677 155 225.594C154.896 225.844 154.844 226.104 154.844 226.375C154.844 227.271 155.49 228.031 156.781 228.656C157.073 228.802 157.531 229 158.156 229.25C159.844 229.938 160.969 230.594 161.531 231.219C162.135 231.885 162.438 232.677 162.438 233.594C162.438 235.281 161.542 236.406 159.75 236.969C159.062 237.198 158.312 237.312 157.5 237.312C156 237.292 154.698 236.917 153.594 236.188C153.594 236.729 153.458 237.042 153.188 237.125C153.062 237.146 152.917 237.156 152.75 237.156V232.406H153.625C153.667 235.094 154.833 236.448 157.125 236.469ZM164.938 230.5C164.938 229.125 165.198 227.896 165.719 226.812C166.823 224.542 168.771 223.406 171.562 223.406C172.688 223.406 173.729 223.646 174.688 224.125C176.042 224.812 176.719 225.688 176.719 226.75C176.719 226.875 176.698 227.01 176.656 227.156C176.469 227.781 176.021 228.073 175.312 228.031C175.062 228.01 174.833 227.948 174.625 227.844C174.292 227.635 174.062 227.115 173.938 226.281C173.875 225.927 173.823 225.667 173.781 225.5C173.552 224.625 172.875 224.188 171.75 224.188C171.021 224.188 170.354 224.375 169.75 224.75C168.312 225.667 167.594 227.49 167.594 230.219C167.594 231.76 167.906 233.094 168.531 234.219C169.365 235.698 170.521 236.438 172 236.438C172.167 236.438 172.333 236.427 172.5 236.406C174.271 236.24 175.542 235.333 176.312 233.688L177.125 233.969C176.979 234.323 176.781 234.677 176.531 235.031C175.427 236.552 173.792 237.312 171.625 237.312C170.167 237.312 168.865 236.927 167.719 236.156C165.865 234.906 164.938 233.021 164.938 230.5ZM186.188 237H178.531V236.188H181.031V219.062H178.531V218.25H186.188V219.062H183.719V226.875H193.312V219.062H190.812V218.25H198.469V219.062H196V236.188H197.656C197.76 236.188 197.865 236.198 197.969 236.219C198.302 236.281 198.469 236.542 198.469 237H190.812V236.188H193.312V227.781H183.719V236.188H185.375C185.479 236.188 185.583 236.198 185.688 236.219C186.021 236.281 186.188 236.542 186.188 237ZM207.5 224.188C206.958 224.188 206.448 224.312 205.969 224.562C204.51 225.292 203.729 226.854 203.625 229.25L206.938 229.344C207.896 229.365 208.635 229.323 209.156 229.219C210.156 228.99 210.656 228.354 210.656 227.312C210.656 226.854 210.573 226.427 210.406 226.031C209.927 224.802 208.958 224.188 207.5 224.188ZM212.938 234C212.812 234.292 212.667 234.583 212.5 234.875C211.438 236.5 209.781 237.312 207.531 237.312C206.115 237.312 204.854 236.948 203.75 236.219C201.896 234.969 200.969 233.052 200.969 230.469C200.969 229.052 201.26 227.781 201.844 226.656C202.969 224.49 204.833 223.406 207.438 223.406C208.771 223.406 209.948 223.708 210.969 224.312C212.406 225.146 213.125 226.271 213.125 227.688C213.125 228.458 212.844 229.052 212.281 229.469C211.552 229.99 209.917 230.229 207.375 230.188L203.625 230.125C203.646 231 203.74 231.802 203.906 232.531C204.469 235.135 205.844 236.438 208.031 236.438C208.219 236.438 208.417 236.427 208.625 236.406C210.25 236.198 211.427 235.302 212.156 233.719L212.938 234ZM221.562 236.219C221.667 236.219 221.771 236.229 221.875 236.25C222.188 236.292 222.344 236.542 222.344 237H215.156V236.219C215.865 236.219 216.375 236.177 216.688 236.094C217.333 235.885 217.656 235.302 217.656 234.344V224.5H215.156V223.719H220V236.219H221.562ZM220.375 219.156C220.375 219.406 220.323 219.646 220.219 219.875C219.927 220.542 219.417 220.875 218.688 220.875C218.458 220.875 218.229 220.833 218 220.75C217.312 220.458 216.969 219.927 216.969 219.156C216.969 218.906 217.021 218.667 217.125 218.438C217.438 217.771 217.958 217.438 218.688 217.438C218.917 217.438 219.156 217.49 219.406 217.594C220.052 217.906 220.375 218.427 220.375 219.156ZM227.344 228.344C227.365 231.156 228.406 232.583 230.469 232.625C232.49 232.604 233.521 231.177 233.562 228.344C233.542 225.615 232.51 224.229 230.469 224.188C228.427 224.208 227.385 225.594 227.344 228.344ZM230.5 223.406C231.583 223.406 232.594 223.646 233.531 224.125C233.656 223.729 233.833 223.365 234.062 223.031C234.667 222.156 235.458 221.719 236.438 221.719C236.667 221.719 236.896 221.76 237.125 221.844C237.729 222.073 238.031 222.51 238.031 223.156C237.948 223.698 237.646 224.031 237.125 224.156C236.938 224.156 236.729 224.052 236.5 223.844C236.167 223.531 235.854 223.375 235.562 223.375C235.479 223.375 235.396 223.385 235.312 223.406C234.792 223.531 234.438 223.927 234.25 224.594C235.438 225.531 236.042 226.781 236.062 228.344C236.062 229.573 235.667 230.635 234.875 231.531C233.771 232.781 232.292 233.406 230.438 233.406L227.688 233.375C227.521 233.375 227.365 233.385 227.219 233.406C226.531 233.552 226.188 233.896 226.188 234.438C226.208 235.208 226.698 235.625 227.656 235.688L233.344 235.812C233.635 235.812 233.917 235.833 234.188 235.875C236.25 236.146 237.281 237.177 237.281 238.969C237.281 239.552 237.115 240.104 236.781 240.625C235.76 242.167 233.667 242.938 230.5 242.938C229.25 242.938 228.198 242.75 227.344 242.375C225.99 241.812 225.312 240.958 225.312 239.812C225.312 239.062 225.656 238.323 226.344 237.594C225.469 237.052 225.021 236.229 225 235.125C225 234.854 225.031 234.583 225.094 234.312C225.427 233.167 226.26 232.594 227.594 232.594C227.448 232.51 227.302 232.417 227.156 232.312C225.615 231.271 224.844 229.958 224.844 228.375C224.844 227.167 225.24 226.115 226.031 225.219C227.135 224.01 228.625 223.406 230.5 223.406ZM230.5 242.125C231.479 242.125 232.385 242.021 233.219 241.812C234.927 241.396 235.781 240.729 235.781 239.812C235.781 239.562 235.75 239.354 235.688 239.188C235.438 238.5 234.531 238.146 232.969 238.125L228.156 238.062C227.885 238.062 227.542 238.021 227.125 237.938C226.646 238.5 226.396 239.062 226.375 239.625C226.375 239.917 226.448 240.208 226.594 240.5C227.135 241.583 228.438 242.125 230.5 242.125ZM245.562 236.219C245.688 236.219 245.792 236.229 245.875 236.25C246.188 236.292 246.344 236.542 246.344 237H239.312V236.219C240.021 236.219 240.531 236.167 240.844 236.062C241.385 235.875 241.656 235.302 241.656 234.344V217.469H239.312V216.688H244V226.719C244.229 226.115 244.562 225.573 245 225.094C246.042 223.969 247.333 223.406 248.875 223.406C249.542 223.406 250.167 223.552 250.75 223.844C252.25 224.656 253 226.198 253 228.469V236.219H254.562C254.688 236.219 254.792 236.229 254.875 236.25C255.188 236.292 255.344 236.542 255.344 237H248.469V236.219C249.177 236.219 249.677 236.167 249.969 236.062C250.427 235.875 250.656 235.302 250.656 234.344V228.469C250.656 227.781 250.542 227.156 250.312 226.594C249.812 225.406 248.927 224.812 247.656 224.812C247.073 224.812 246.51 224.99 245.969 225.344C244.656 226.198 244 227.573 244 229.469V236.219H245.562ZM256.781 224.5V223.719H258.969V220.75L261.312 220.094V223.719H266.156V224.5H261.312V234C261.333 235.562 261.906 236.365 263.031 236.406C264.031 236.26 264.792 235.323 265.312 233.594L266.156 233.75C266.156 233.771 266.156 233.792 266.156 233.812C265.677 236.167 264.479 237.344 262.562 237.344C260.312 237.26 259.115 235.917 258.969 233.312V224.5H256.781Z" fill="#161616"/>
<rect x="254" y="35" width="350" height="147" rx="5" fill="#F0E1D7" stroke="#F5AC7F" stroke-width="2" stroke-dasharray="4 4"/>
<path d="M365.781 54.1875C365.24 54.1875 364.729 54.3125 364.25 54.5625C362.792 55.2917 362.01 56.8542 361.906 59.25L365.219 59.3438C366.177 59.3646 366.917 59.3229 367.438 59.2188C368.438 58.9896 368.938 58.3542 368.938 57.3125C368.938 56.8542 368.854 56.4271 368.688 56.0312C368.208 54.8021 367.24 54.1875 365.781 54.1875ZM371.219 64C371.094 64.2917 370.948 64.5833 370.781 64.875C369.719 66.5 368.062 67.3125 365.812 67.3125C364.396 67.3125 363.135 66.9479 362.031 66.2188C360.177 64.9688 359.25 63.0521 359.25 60.4688C359.25 59.0521 359.542 57.7812 360.125 56.6562C361.25 54.4896 363.115 53.4062 365.719 53.4062C367.052 53.4062 368.229 53.7083 369.25 54.3125C370.688 55.1458 371.406 56.2708 371.406 57.6875C371.406 58.4583 371.125 59.0521 370.562 59.4688C369.833 59.9896 368.198 60.2292 365.656 60.1875L361.906 60.125C361.927 61 362.021 61.8021 362.188 62.5312C362.75 65.1354 364.125 66.4375 366.312 66.4375C366.5 66.4375 366.698 66.4271 366.906 66.4062C368.531 66.1979 369.708 65.3021 370.438 63.7188L371.219 64ZM379.531 66.2188C379.656 66.2188 379.76 66.2292 379.844 66.25C380.156 66.2917 380.312 66.5417 380.312 67H373.438V66.2188C374.146 66.2188 374.656 66.1667 374.969 66.0625C375.51 65.875 375.781 65.3021 375.781 64.3438V54.5H373.438V53.7188H377.969L378.094 56.8438C378.323 56.2604 378.625 55.7292 379 55.25C380 54.0208 381.271 53.4062 382.812 53.4062C383.583 53.4062 384.302 53.6042 384.969 54C386.406 54.8958 387.125 56.3854 387.125 58.4688V66.2188H388.688C388.812 66.2188 388.917 66.2292 389 66.25C389.312 66.2917 389.469 66.5417 389.469 67H382.438V66.2188C383.146 66.2188 383.656 66.1667 383.969 66.0625C384.51 65.875 384.781 65.3021 384.781 64.3438V58.1562C384.781 57.5521 384.688 57.0104 384.5 56.5312C384.042 55.3438 383.177 54.75 381.906 54.75C381.323 54.75 380.75 54.9271 380.188 55.2812C378.875 56.1354 378.188 57.5312 378.125 59.4688V66.2188H379.531ZM402.156 67L401.906 63.6875C400.885 66.0625 399.24 67.2708 396.969 67.3125C395.865 67.3125 394.854 66.9896 393.938 66.3438C392.312 65.1562 391.5 63.2708 391.5 60.6875C391.5 59.125 391.854 57.7188 392.562 56.4688C393.729 54.4271 395.458 53.4062 397.75 53.4062C399.479 53.4062 400.854 53.9688 401.875 55.0938V47.4688H398.906V46.6875H404.219L404.281 66.2188H405.844C405.969 66.2188 406.073 66.2292 406.156 66.25C406.469 66.2917 406.625 66.5417 406.625 67H402.156ZM394.156 60.3125C394.156 61.2917 394.26 62.1667 394.469 62.9375C394.99 65.0208 396.104 66.0625 397.812 66.0625C398.667 66.0625 399.427 65.7604 400.094 65.1562C401.344 64.0312 401.969 62.2188 401.969 59.7188C401.969 58.5312 401.792 57.5 401.438 56.625C400.792 55 399.708 54.1875 398.188 54.1875C397.583 54.1875 397.031 54.3229 396.531 54.5938C394.948 55.4688 394.156 57.375 394.156 60.3125ZM417.219 49.0625H413.812V57.8125H416.688C416.938 57.8125 417.188 57.8021 417.438 57.7812C419.854 57.5104 421.062 56.0208 421.062 53.3125C421.062 52.6875 420.979 52.1042 420.812 51.5625C420.271 49.8958 419.073 49.0625 417.219 49.0625ZM416.938 67H408.625V66.1875H411.125V49.0625H408.625V48.25H417.875C419.208 48.25 420.354 48.4792 421.312 48.9375C423.104 49.7708 424 51.2188 424 53.2812C424 54.2396 423.781 55.0833 423.344 55.8125C422.24 57.75 419.979 58.7188 416.562 58.7188H413.812V66.1875H416.125C416.229 66.1875 416.333 66.1979 416.438 66.2188C416.771 66.2812 416.938 66.5417 416.938 67ZM428.844 60.3438C428.844 61.2396 428.917 62.0521 429.062 62.7812C429.604 65.2812 430.927 66.5312 433.031 66.5312C433.427 66.5312 433.812 66.4792 434.188 66.375C436.104 65.7708 437.062 63.7188 437.062 60.2188C437.062 59.6146 437.031 59.0625 436.969 58.5625C436.594 55.6458 435.25 54.1875 432.938 54.1875C432.438 54.1875 431.958 54.2708 431.5 54.4375C429.729 55.1458 428.844 57.1146 428.844 60.3438ZM433.031 53.4062C434.406 53.4062 435.667 53.7708 436.812 54.5C438.75 55.7708 439.719 57.7188 439.719 60.3438C439.719 62.2812 439.115 63.8958 437.906 65.1875C436.594 66.6042 434.938 67.3125 432.938 67.3125C431.521 67.3125 430.229 66.9167 429.062 66.125C427.146 64.8125 426.188 62.8438 426.188 60.2188C426.188 58.3229 426.802 56.7396 428.031 55.4688C429.365 54.0938 431.031 53.4062 433.031 53.4062ZM448.312 66.2188C448.417 66.2188 448.521 66.2292 448.625 66.25C448.938 66.2917 449.094 66.5417 449.094 67H441.906V66.2188C442.615 66.2188 443.125 66.1771 443.438 66.0938C444.083 65.8854 444.406 65.3021 444.406 64.3438V54.5H441.906V53.7188H446.75V66.2188H448.312ZM447.125 49.1562C447.125 49.4062 447.073 49.6458 446.969 49.875C446.677 50.5417 446.167 50.875 445.438 50.875C445.208 50.875 444.979 50.8333 444.75 50.75C444.062 50.4583 443.719 49.9271 443.719 49.1562C443.719 48.9062 443.771 48.6667 443.875 48.4375C444.188 47.7708 444.708 47.4375 445.438 47.4375C445.667 47.4375 445.906 47.4896 446.156 47.5938C446.802 47.9062 447.125 48.4271 447.125 49.1562ZM457.062 66.2188C457.188 66.2188 457.292 66.2292 457.375 66.25C457.688 66.2917 457.844 66.5417 457.844 67H450.969V66.2188C451.677 66.2188 452.188 66.1667 452.5 66.0625C453.042 65.875 453.312 65.3021 453.312 64.3438V54.5H450.969V53.7188H455.5L455.625 56.8438C455.854 56.2604 456.156 55.7292 456.531 55.25C457.531 54.0208 458.802 53.4062 460.344 53.4062C461.115 53.4062 461.833 53.6042 462.5 54C463.938 54.8958 464.656 56.3854 464.656 58.4688V66.2188H466.219C466.344 66.2188 466.448 66.2292 466.531 66.25C466.844 66.2917 467 66.5417 467 67H459.969V66.2188C460.677 66.2188 461.188 66.1667 461.5 66.0625C462.042 65.875 462.312 65.3021 462.312 64.3438V58.1562C462.312 57.5521 462.219 57.0104 462.031 56.5312C461.573 55.3438 460.708 54.75 459.438 54.75C458.854 54.75 458.281 54.9271 457.719 55.2812C456.406 56.1354 455.719 57.5312 455.656 59.4688V66.2188H457.062ZM468.406 54.5V53.7188H470.594V50.75L472.938 50.0938V53.7188H477.781V54.5H472.938V64C472.958 65.5625 473.531 66.3646 474.656 66.4062C475.656 66.2604 476.417 65.3229 476.938 63.5938L477.781 63.75C477.781 63.7708 477.781 63.7917 477.781 63.8125C477.302 66.1667 476.104 67.3438 474.188 67.3438C471.938 67.2604 470.74 65.9167 470.594 63.3125V54.5H468.406ZM497.281 58.5312H485.438V57.4062H497.281V58.5312ZM497.281 61.9688H485.438V60.8438H497.281V61.9688Z" fill="black"/>
<path d="M272.25 111.5C272.25 110.125 272.51 108.896 273.031 107.812C274.135 105.542 276.083 104.406 278.875 104.406C280 104.406 281.042 104.646 282 105.125C283.354 105.812 284.031 106.688 284.031 107.75C284.031 107.875 284.01 108.01 283.969 108.156C283.781 108.781 283.333 109.073 282.625 109.031C282.375 109.01 282.146 108.948 281.938 108.844C281.604 108.635 281.375 108.115 281.25 107.281C281.188 106.927 281.135 106.667 281.094 106.5C280.865 105.625 280.188 105.188 279.062 105.188C278.333 105.188 277.667 105.375 277.062 105.75C275.625 106.667 274.906 108.49 274.906 111.219C274.906 112.76 275.219 114.094 275.844 115.219C276.677 116.698 277.833 117.438 279.312 117.438C279.479 117.438 279.646 117.427 279.812 117.406C281.583 117.24 282.854 116.333 283.625 114.688L284.438 114.969C284.292 115.323 284.094 115.677 283.844 116.031C282.74 117.552 281.104 118.312 278.938 118.312C277.479 118.312 276.177 117.927 275.031 117.156C273.177 115.906 272.25 114.021 272.25 111.5ZM288.5 111.344C288.5 112.24 288.573 113.052 288.719 113.781C289.26 116.281 290.583 117.531 292.688 117.531C293.083 117.531 293.469 117.479 293.844 117.375C295.76 116.771 296.719 114.719 296.719 111.219C296.719 110.615 296.688 110.062 296.625 109.562C296.25 106.646 294.906 105.188 292.594 105.188C292.094 105.188 291.615 105.271 291.156 105.438C289.385 106.146 288.5 108.115 288.5 111.344ZM292.688 104.406C294.062 104.406 295.323 104.771 296.469 105.5C298.406 106.771 299.375 108.719 299.375 111.344C299.375 113.281 298.771 114.896 297.562 116.188C296.25 117.604 294.594 118.312 292.594 118.312C291.177 118.312 289.885 117.917 288.719 117.125C286.802 115.812 285.844 113.844 285.844 111.219C285.844 109.323 286.458 107.74 287.688 106.469C289.021 105.094 290.688 104.406 292.688 104.406ZM308.031 117.219C308.156 117.219 308.26 117.229 308.344 117.25C308.656 117.292 308.812 117.542 308.812 118H301.656V117.219C302.365 117.219 302.875 117.167 303.188 117.062C303.729 116.875 304 116.302 304 115.344V98.4688H301.656V97.6875H306.344V117.219H308.031ZM322.844 118H314.25V117.188H317.219V100.062H315.531C313.927 100.188 312.792 101.271 312.125 103.312L311.625 105.406H310.75L310.906 99.25H326.344L326.5 105.406H325.625L325.125 103.312C325.104 103.271 325.094 103.208 325.094 103.125C324.531 101.083 323.406 100.062 321.719 100.062H319.906V117.188H322.031C322.135 117.188 322.24 117.198 322.344 117.219C322.677 117.281 322.844 117.542 322.844 118ZM331.5 111.344C331.5 112.24 331.573 113.052 331.719 113.781C332.26 116.281 333.583 117.531 335.688 117.531C336.083 117.531 336.469 117.479 336.844 117.375C338.76 116.771 339.719 114.719 339.719 111.219C339.719 110.615 339.688 110.062 339.625 109.562C339.25 106.646 337.906 105.188 335.594 105.188C335.094 105.188 334.615 105.271 334.156 105.438C332.385 106.146 331.5 108.115 331.5 111.344ZM335.688 104.406C337.062 104.406 338.323 104.771 339.469 105.5C341.406 106.771 342.375 108.719 342.375 111.344C342.375 113.281 341.771 114.896 340.562 116.188C339.25 117.604 337.594 118.312 335.594 118.312C334.177 118.312 332.885 117.917 331.719 117.125C329.802 115.812 328.844 113.844 328.844 111.219C328.844 109.323 329.458 107.74 330.688 106.469C332.021 105.094 333.688 104.406 335.688 104.406ZM349.125 123.156H351.312C351.438 123.156 351.542 123.167 351.625 123.188C351.938 123.229 352.094 123.479 352.094 123.938H344.438V123.156C345.146 123.156 345.656 123.104 345.969 123C346.51 122.812 346.781 122.24 346.781 121.281V105.5H344.438V104.719H348.938L349.094 108.125C349.26 107.667 349.469 107.229 349.719 106.812C350.719 105.208 352.229 104.406 354.25 104.406C355.562 104.406 356.677 104.823 357.594 105.656C358.906 106.885 359.562 108.688 359.562 111.062C359.562 113.146 358.958 114.865 357.75 116.219C356.5 117.615 354.948 118.312 353.094 118.312C351.594 118.229 350.271 117.688 349.125 116.688V123.156ZM353.25 105.656C352.5 105.656 351.812 105.885 351.188 106.344C349.792 107.385 349.094 109.26 349.094 111.969C349.094 113.135 349.25 114.146 349.562 115C350.167 116.688 351.271 117.531 352.875 117.531C353.438 117.531 353.958 117.417 354.438 117.188C356.083 116.375 356.906 114.438 356.906 111.375C356.906 110.521 356.833 109.75 356.688 109.062C356.208 106.792 355.062 105.656 353.25 105.656ZM368.25 110.688H375.375V112.156H368.25V110.688ZM385 111.5C385 110.125 385.26 108.896 385.781 107.812C386.885 105.542 388.833 104.406 391.625 104.406C392.75 104.406 393.792 104.646 394.75 105.125C396.104 105.812 396.781 106.688 396.781 107.75C396.781 107.875 396.76 108.01 396.719 108.156C396.531 108.781 396.083 109.073 395.375 109.031C395.125 109.01 394.896 108.948 394.688 108.844C394.354 108.635 394.125 108.115 394 107.281C393.938 106.927 393.885 106.667 393.844 106.5C393.615 105.625 392.938 105.188 391.812 105.188C391.083 105.188 390.417 105.375 389.812 105.75C388.375 106.667 387.656 108.49 387.656 111.219C387.656 112.76 387.969 114.094 388.594 115.219C389.427 116.698 390.583 117.438 392.062 117.438C392.229 117.438 392.396 117.427 392.562 117.406C394.333 117.24 395.604 116.333 396.375 114.688L397.188 114.969C397.042 115.323 396.844 115.677 396.594 116.031C395.49 117.552 393.854 118.312 391.688 118.312C390.229 118.312 388.927 117.927 387.781 117.156C385.927 115.906 385 114.021 385 111.5ZM401.25 111.344C401.25 112.24 401.323 113.052 401.469 113.781C402.01 116.281 403.333 117.531 405.438 117.531C405.833 117.531 406.219 117.479 406.594 117.375C408.51 116.771 409.469 114.719 409.469 111.219C409.469 110.615 409.438 110.062 409.375 109.562C409 106.646 407.656 105.188 405.344 105.188C404.844 105.188 404.365 105.271 403.906 105.438C402.135 106.146 401.25 108.115 401.25 111.344ZM405.438 104.406C406.812 104.406 408.073 104.771 409.219 105.5C411.156 106.771 412.125 108.719 412.125 111.344C412.125 113.281 411.521 114.896 410.312 116.188C409 117.604 407.344 118.312 405.344 118.312C403.927 118.312 402.635 117.917 401.469 117.125C399.552 115.812 398.594 113.844 398.594 111.219C398.594 109.323 399.208 107.74 400.438 106.469C401.771 105.094 403.438 104.406 405.438 104.406ZM420.781 117.219C420.906 117.219 421.01 117.229 421.094 117.25C421.406 117.292 421.562 117.542 421.562 118H414.406V117.219C415.115 117.219 415.625 117.167 415.938 117.062C416.479 116.875 416.75 116.302 416.75 115.344V98.4688H414.406V97.6875H419.094V117.219H420.781ZM438.219 103.5C438.219 103.958 438.115 104.438 437.906 104.938C437.344 106.271 436.312 107.219 434.812 107.781C435.708 107.948 436.5 108.229 437.188 108.625C438.667 109.542 439.406 110.833 439.406 112.5C439.406 113.562 439.083 114.542 438.438 115.438C437.188 117.146 435.219 118 432.531 118H423.656V117.188H426.156V100.062H423.656V99.25H432.438C433.812 99.25 434.99 99.4896 435.969 99.9688C437.469 100.74 438.219 101.917 438.219 103.5ZM431.688 100.062H428.844V107.406H431.625C432.458 107.406 433.188 107.208 433.812 106.812C434.875 106.125 435.406 105.104 435.406 103.75C435.406 103.458 435.385 103.177 435.344 102.906C435.052 101.01 433.833 100.062 431.688 100.062ZM432.219 108.25H428.844V117.188H432.375C433.333 117.188 434.156 116.896 434.844 116.312C435.885 115.417 436.406 114.167 436.406 112.562C436.406 111.875 436.281 111.24 436.031 110.656C435.385 109.052 434.115 108.25 432.219 108.25ZM444.719 111.344C444.719 112.24 444.792 113.052 444.938 113.781C445.479 116.281 446.802 117.531 448.906 117.531C449.302 117.531 449.688 117.479 450.062 117.375C451.979 116.771 452.938 114.719 452.938 111.219C452.938 110.615 452.906 110.062 452.844 109.562C452.469 106.646 451.125 105.188 448.812 105.188C448.312 105.188 447.833 105.271 447.375 105.438C445.604 106.146 444.719 108.115 444.719 111.344ZM448.906 104.406C450.281 104.406 451.542 104.771 452.688 105.5C454.625 106.771 455.594 108.719 455.594 111.344C455.594 113.281 454.99 114.896 453.781 116.188C452.469 117.604 450.812 118.312 448.812 118.312C447.396 118.312 446.104 117.917 444.938 117.125C443.021 115.812 442.062 113.844 442.062 111.219C442.062 109.323 442.677 107.74 443.906 106.469C445.24 105.094 446.906 104.406 448.906 104.406ZM457.469 105.5V104.719H459.656V101.75L462 101.094V104.719H466.844V105.5H462V115C462.021 116.562 462.594 117.365 463.719 117.406C464.719 117.26 465.479 116.323 466 114.594L466.844 114.75C466.844 114.771 466.844 114.792 466.844 114.812C466.365 117.167 465.167 118.344 463.25 118.344C461 118.26 459.802 116.917 459.656 114.312V105.5H457.469ZM467.625 105.5V104.719H469.812V101.75L472.156 101.094V104.719H477V105.5H472.156V115C472.177 116.562 472.75 117.365 473.875 117.406C474.875 117.26 475.635 116.323 476.156 114.594L477 114.75C477 114.771 477 114.792 477 114.812C476.521 117.167 475.323 118.344 473.406 118.344C471.156 118.26 469.958 116.917 469.812 114.312V105.5H467.625ZM481.062 111.344C481.062 112.24 481.135 113.052 481.281 113.781C481.823 116.281 483.146 117.531 485.25 117.531C485.646 117.531 486.031 117.479 486.406 117.375C488.323 116.771 489.281 114.719 489.281 111.219C489.281 110.615 489.25 110.062 489.188 109.562C488.812 106.646 487.469 105.188 485.156 105.188C484.656 105.188 484.177 105.271 483.719 105.438C481.948 106.146 481.062 108.115 481.062 111.344ZM485.25 104.406C486.625 104.406 487.885 104.771 489.031 105.5C490.969 106.771 491.938 108.719 491.938 111.344C491.938 113.281 491.333 114.896 490.125 116.188C488.812 117.604 487.156 118.312 485.156 118.312C483.74 118.312 482.448 117.917 481.281 117.125C479.365 115.812 478.406 113.844 478.406 111.219C478.406 109.323 479.021 107.74 480.25 106.469C481.583 105.094 483.25 104.406 485.25 104.406ZM500.219 117.219C500.323 117.219 500.427 117.229 500.531 117.25C500.844 117.312 501 117.562 501 118H494.125V117.219C494.833 117.219 495.344 117.167 495.656 117.062C496.198 116.875 496.469 116.302 496.469 115.344V105.5H494.125V104.719H498.656L498.781 107.844C498.99 107.281 499.271 106.771 499.625 106.312C500.604 105.042 501.844 104.406 503.344 104.406C503.74 104.406 504.125 104.479 504.5 104.625C505.771 105.104 506.594 106.167 506.969 107.812C507.135 107.396 507.344 107 507.594 106.625C508.552 105.146 509.823 104.406 511.406 104.406C512.135 104.406 512.812 104.594 513.438 104.969C514.833 105.823 515.531 107.323 515.531 109.469V117.219H517.125C517.25 117.219 517.354 117.229 517.438 117.25C517.75 117.292 517.906 117.542 517.906 118H511V117.219C511.708 117.219 512.208 117.167 512.5 117.062C512.958 116.875 513.188 116.302 513.188 115.344V109.156C513.188 108.49 513.083 107.896 512.875 107.375C512.438 106.271 511.688 105.719 510.625 105.719C510.229 105.719 509.812 105.823 509.375 106.031C508.229 106.635 507.49 107.698 507.156 109.219V109.469V117.219H508.562C508.688 117.219 508.792 117.229 508.875 117.25C509.188 117.292 509.344 117.542 509.344 118H502.625V117.219C503.333 117.219 503.833 117.167 504.125 117.062C504.583 116.875 504.812 116.302 504.812 115.344V109.156C504.812 108.531 504.729 107.969 504.562 107.469C504.167 106.323 503.448 105.75 502.406 105.75C501.844 105.75 501.281 105.958 500.719 106.375C499.51 107.271 498.875 108.635 498.812 110.469V117.219H500.219ZM538.031 111.25H532.812V116.812H531.406V111.25H526.188V110.125H531.406V104.562H532.812V110.125H538.031V111.25ZM280.75 135.688L281.031 136.469C279.615 137.01 278.406 138.042 277.406 139.562C275.865 141.938 275.094 144.833 275.094 148.25C275.094 150.417 275.427 152.438 276.094 154.312C277.156 157.25 278.781 159.115 280.969 159.906L280.656 160.688C278.531 160.104 276.76 158.917 275.344 157.125C273.49 154.75 272.562 151.812 272.562 148.312C272.562 145.812 273.073 143.51 274.094 141.406C275.594 138.385 277.812 136.479 280.75 135.688ZM288.531 155.219C288.656 155.219 288.76 155.229 288.844 155.25C289.156 155.292 289.312 155.542 289.312 156H282.438V155.219C283.146 155.219 283.656 155.167 283.969 155.062C284.51 154.875 284.781 154.302 284.781 153.344V143.5H282.438V142.719H286.969L287.094 145.844C287.323 145.26 287.625 144.729 288 144.25C289 143.021 290.271 142.406 291.812 142.406C292.583 142.406 293.302 142.604 293.969 143C295.406 143.896 296.125 145.385 296.125 147.469V155.219H297.688C297.812 155.219 297.917 155.229 298 155.25C298.312 155.292 298.469 155.542 298.469 156H291.438V155.219C292.146 155.219 292.656 155.167 292.969 155.062C293.51 154.875 293.781 154.302 293.781 153.344V147.156C293.781 146.552 293.688 146.01 293.5 145.531C293.042 144.344 292.177 143.75 290.906 143.75C290.323 143.75 289.75 143.927 289.188 144.281C287.875 145.135 287.188 146.531 287.125 148.469V155.219H288.531ZM315.344 155.219C315.469 155.219 315.573 155.229 315.656 155.25C315.969 155.292 316.125 155.542 316.125 156H311.719L311.5 152.812C311.271 153.396 310.969 153.927 310.594 154.406C309.594 155.677 308.312 156.312 306.75 156.312C303.792 156.292 302.302 154.5 302.281 150.938V143.5H299.875V142.719H304.625V151.406C304.625 151.74 304.646 152.052 304.688 152.344C304.958 154.094 305.948 154.969 307.656 154.969C308.281 154.969 308.885 154.771 309.469 154.375C310.781 153.5 311.438 152.125 311.438 150.25V143.5H308.875V142.719H313.781V155.219H315.344ZM324 155.219C324.104 155.219 324.208 155.229 324.312 155.25C324.625 155.312 324.781 155.562 324.781 156H317.906V155.219C318.615 155.219 319.125 155.167 319.438 155.062C319.979 154.875 320.25 154.302 320.25 153.344V143.5H317.906V142.719H322.438L322.562 145.844C322.771 145.281 323.052 144.771 323.406 144.312C324.385 143.042 325.625 142.406 327.125 142.406C327.521 142.406 327.906 142.479 328.281 142.625C329.552 143.104 330.375 144.167 330.75 145.812C330.917 145.396 331.125 145 331.375 144.625C332.333 143.146 333.604 142.406 335.188 142.406C335.917 142.406 336.594 142.594 337.219 142.969C338.615 143.823 339.312 145.323 339.312 147.469V155.219H340.906C341.031 155.219 341.135 155.229 341.219 155.25C341.531 155.292 341.688 155.542 341.688 156H334.781V155.219C335.49 155.219 335.99 155.167 336.281 155.062C336.74 154.875 336.969 154.302 336.969 153.344V147.156C336.969 146.49 336.865 145.896 336.656 145.375C336.219 144.271 335.469 143.719 334.406 143.719C334.01 143.719 333.594 143.823 333.156 144.031C332.01 144.635 331.271 145.698 330.938 147.219V147.469V155.219H332.344C332.469 155.219 332.573 155.229 332.656 155.25C332.969 155.292 333.125 155.542 333.125 156H326.406V155.219C327.115 155.219 327.615 155.167 327.906 155.062C328.365 154.875 328.594 154.302 328.594 153.344V147.156C328.594 146.531 328.51 145.969 328.344 145.469C327.948 144.323 327.229 143.75 326.188 143.75C325.625 143.75 325.062 143.958 324.5 144.375C323.292 145.271 322.656 146.635 322.594 148.469V155.219H324ZM343.719 137.25H352.438C354.562 137.25 356.427 137.75 358.031 138.75C360.656 140.417 361.969 143.042 361.969 146.625C361.969 149.396 361.073 151.646 359.281 153.375C357.469 155.125 355.156 156 352.344 156H343.719V155.188H346.219V138.062H343.719V137.25ZM352.344 138.062H348.906V155.188H352.438C352.854 155.188 353.26 155.156 353.656 155.094C357.198 154.552 358.969 151.688 358.969 146.5C358.969 144.979 358.812 143.667 358.5 142.562C357.688 139.562 355.635 138.062 352.344 138.062ZM371.031 155.219C371.135 155.219 371.24 155.229 371.344 155.25C371.656 155.292 371.812 155.542 371.812 156H364.625V155.219C365.333 155.219 365.844 155.177 366.156 155.094C366.802 154.885 367.125 154.302 367.125 153.344V143.5H364.625V142.719H369.469V155.219H371.031ZM369.844 138.156C369.844 138.406 369.792 138.646 369.688 138.875C369.396 139.542 368.885 139.875 368.156 139.875C367.927 139.875 367.698 139.833 367.469 139.75C366.781 139.458 366.438 138.927 366.438 138.156C366.438 137.906 366.49 137.667 366.594 137.438C366.906 136.771 367.427 136.438 368.156 136.438C368.385 136.438 368.625 136.49 368.875 136.594C369.521 136.906 369.844 137.427 369.844 138.156ZM378.688 155.469C380.125 155.469 381.094 155.031 381.594 154.156C381.781 153.844 381.875 153.5 381.875 153.125C381.875 152.25 381.24 151.5 379.969 150.875C379.698 150.729 379.25 150.521 378.625 150.25C376.917 149.542 375.781 148.875 375.219 148.25C374.615 147.562 374.312 146.76 374.312 145.844C374.312 144.406 375.104 143.396 376.688 142.812C377.417 142.542 378.208 142.406 379.062 142.406C380.438 142.406 381.625 142.698 382.625 143.281C382.625 142.677 382.771 142.333 383.062 142.25C383.188 142.229 383.323 142.219 383.469 142.219V146.125H382.656C382.615 144.208 381.552 143.24 379.469 143.219C377.906 143.219 376.938 143.677 376.562 144.594C376.458 144.844 376.406 145.104 376.406 145.375C376.406 146.271 377.052 147.031 378.344 147.656C378.635 147.802 379.094 148 379.719 148.25C381.406 148.938 382.531 149.594 383.094 150.219C383.698 150.885 384 151.677 384 152.594C384 154.281 383.104 155.406 381.312 155.969C380.625 156.198 379.875 156.312 379.062 156.312C377.562 156.292 376.26 155.917 375.156 155.188C375.156 155.729 375.021 156.042 374.75 156.125C374.625 156.146 374.479 156.156 374.312 156.156V151.406H375.188C375.229 154.094 376.396 155.448 378.688 155.469ZM386.5 149.5C386.5 148.125 386.76 146.896 387.281 145.812C388.385 143.542 390.333 142.406 393.125 142.406C394.25 142.406 395.292 142.646 396.25 143.125C397.604 143.812 398.281 144.688 398.281 145.75C398.281 145.875 398.26 146.01 398.219 146.156C398.031 146.781 397.583 147.073 396.875 147.031C396.625 147.01 396.396 146.948 396.188 146.844C395.854 146.635 395.625 146.115 395.5 145.281C395.438 144.927 395.385 144.667 395.344 144.5C395.115 143.625 394.438 143.188 393.312 143.188C392.583 143.188 391.917 143.375 391.312 143.75C389.875 144.667 389.156 146.49 389.156 149.219C389.156 150.76 389.469 152.094 390.094 153.219C390.927 154.698 392.083 155.438 393.562 155.438C393.729 155.438 393.896 155.427 394.062 155.406C395.833 155.24 397.104 154.333 397.875 152.688L398.688 152.969C398.542 153.323 398.344 153.677 398.094 154.031C396.99 155.552 395.354 156.312 393.188 156.312C391.729 156.312 390.427 155.927 389.281 155.156C387.427 153.906 386.5 152.021 386.5 149.5ZM404.781 155.469C406.219 155.469 407.188 155.031 407.688 154.156C407.875 153.844 407.969 153.5 407.969 153.125C407.969 152.25 407.333 151.5 406.062 150.875C405.792 150.729 405.344 150.521 404.719 150.25C403.01 149.542 401.875 148.875 401.312 148.25C400.708 147.562 400.406 146.76 400.406 145.844C400.406 144.406 401.198 143.396 402.781 142.812C403.51 142.542 404.302 142.406 405.156 142.406C406.531 142.406 407.719 142.698 408.719 143.281C408.719 142.677 408.865 142.333 409.156 142.25C409.281 142.229 409.417 142.219 409.562 142.219V146.125H408.75C408.708 144.208 407.646 143.24 405.562 143.219C404 143.219 403.031 143.677 402.656 144.594C402.552 144.844 402.5 145.104 402.5 145.375C402.5 146.271 403.146 147.031 404.438 147.656C404.729 147.802 405.188 148 405.812 148.25C407.5 148.938 408.625 149.594 409.188 150.219C409.792 150.885 410.094 151.677 410.094 152.594C410.094 154.281 409.198 155.406 407.406 155.969C406.719 156.198 405.969 156.312 405.156 156.312C403.656 156.292 402.354 155.917 401.25 155.188C401.25 155.729 401.115 156.042 400.844 156.125C400.719 156.146 400.573 156.156 400.406 156.156V151.406H401.281C401.323 154.094 402.49 155.448 404.781 155.469ZM422.656 135.688C422.719 135.688 422.792 135.698 422.875 135.719C423.458 135.802 423.75 136.125 423.75 136.688C423.75 136.875 423.698 137.156 423.594 137.531C423.198 139.031 422.979 139.948 422.938 140.281C423.292 140.01 423.802 139.51 424.469 138.781C425.177 138.01 425.719 137.625 426.094 137.625C426.281 137.625 426.458 137.677 426.625 137.781C427.021 138.031 427.219 138.385 427.219 138.844C427.219 139.177 427.042 139.448 426.688 139.656C426.521 139.76 426.24 139.865 425.844 139.969C424.406 140.365 423.531 140.625 423.219 140.75C423.635 140.917 424.125 141.073 424.688 141.219C425.875 141.531 426.531 141.719 426.656 141.781C426.99 141.969 427.167 142.26 427.188 142.656C427.188 142.802 427.156 142.948 427.094 143.094C426.885 143.594 426.562 143.844 426.125 143.844C425.792 143.844 425.302 143.521 424.656 142.875C423.781 141.938 423.198 141.375 422.906 141.188C422.969 141.646 423.083 142.177 423.25 142.781C423.583 143.927 423.75 144.583 423.75 144.75C423.75 144.812 423.74 144.875 423.719 144.938C423.635 145.5 423.271 145.781 422.625 145.781C422.562 145.781 422.49 145.771 422.406 145.75C421.823 145.667 421.531 145.344 421.531 144.781C421.531 144.594 421.583 144.312 421.688 143.938C422.083 142.438 422.302 141.521 422.344 141.188C422.01 141.438 421.521 141.906 420.875 142.594C420.104 143.427 419.542 143.844 419.188 143.844C419 143.844 418.823 143.792 418.656 143.688C418.26 143.438 418.062 143.083 418.062 142.625C418.062 142.292 418.24 142.021 418.594 141.812C418.76 141.708 419.042 141.604 419.438 141.5C420.875 141.104 421.75 140.844 422.062 140.719C421.646 140.552 421.156 140.396 420.594 140.25C419.406 139.938 418.75 139.75 418.625 139.688C418.292 139.5 418.115 139.208 418.094 138.812C418.094 138.667 418.125 138.521 418.188 138.375C418.396 137.875 418.719 137.625 419.156 137.625C419.51 137.646 419.979 137.948 420.562 138.531C421.458 139.448 422.052 140.021 422.344 140.25C422.281 139.812 422.177 139.302 422.031 138.719C421.698 137.531 421.531 136.865 421.531 136.719C421.531 136.656 421.542 136.594 421.562 136.531C421.646 135.969 422.01 135.688 422.656 135.688ZM445.875 156L445.625 152.688C444.604 155.062 442.958 156.271 440.688 156.312C439.583 156.312 438.573 155.99 437.656 155.344C436.031 154.156 435.219 152.271 435.219 149.688C435.219 148.125 435.573 146.719 436.281 145.469C437.448 143.427 439.177 142.406 441.469 142.406C443.198 142.406 444.573 142.969 445.594 144.094V136.469H442.625V135.688H447.938L448 155.219H449.562C449.688 155.219 449.792 155.229 449.875 155.25C450.188 155.292 450.344 155.542 450.344 156H445.875ZM437.875 149.312C437.875 150.292 437.979 151.167 438.188 151.938C438.708 154.021 439.823 155.062 441.531 155.062C442.385 155.062 443.146 154.76 443.812 154.156C445.062 153.031 445.688 151.219 445.688 148.719C445.688 147.531 445.51 146.5 445.156 145.625C444.51 144 443.427 143.188 441.906 143.188C441.302 143.188 440.75 143.323 440.25 143.594C438.667 144.469 437.875 146.375 437.875 149.312ZM458.438 155.219C458.542 155.219 458.646 155.229 458.75 155.25C459.062 155.292 459.219 155.542 459.219 156H452.031V155.219C452.74 155.219 453.25 155.177 453.562 155.094C454.208 154.885 454.531 154.302 454.531 153.344V143.5H452.031V142.719H456.875V155.219H458.438ZM457.25 138.156C457.25 138.406 457.198 138.646 457.094 138.875C456.802 139.542 456.292 139.875 455.562 139.875C455.333 139.875 455.104 139.833 454.875 139.75C454.188 139.458 453.844 138.927 453.844 138.156C453.844 137.906 453.896 137.667 454 137.438C454.312 136.771 454.833 136.438 455.562 136.438C455.792 136.438 456.031 136.49 456.281 136.594C456.927 136.906 457.25 137.427 457.25 138.156ZM466.094 155.469C467.531 155.469 468.5 155.031 469 154.156C469.188 153.844 469.281 153.5 469.281 153.125C469.281 152.25 468.646 151.5 467.375 150.875C467.104 150.729 466.656 150.521 466.031 150.25C464.323 149.542 463.188 148.875 462.625 148.25C462.021 147.562 461.719 146.76 461.719 145.844C461.719 144.406 462.51 143.396 464.094 142.812C464.823 142.542 465.615 142.406 466.469 142.406C467.844 142.406 469.031 142.698 470.031 143.281C470.031 142.677 470.177 142.333 470.469 142.25C470.594 142.229 470.729 142.219 470.875 142.219V146.125H470.062C470.021 144.208 468.958 143.24 466.875 143.219C465.312 143.219 464.344 143.677 463.969 144.594C463.865 144.844 463.812 145.104 463.812 145.375C463.812 146.271 464.458 147.031 465.75 147.656C466.042 147.802 466.5 148 467.125 148.25C468.812 148.938 469.938 149.594 470.5 150.219C471.104 150.885 471.406 151.677 471.406 152.594C471.406 154.281 470.51 155.406 468.719 155.969C468.031 156.198 467.281 156.312 466.469 156.312C464.969 156.292 463.667 155.917 462.562 155.188C462.562 155.729 462.427 156.042 462.156 156.125C462.031 156.146 461.885 156.156 461.719 156.156V151.406H462.594C462.635 154.094 463.802 155.448 466.094 155.469ZM479.719 155.219C479.844 155.219 479.948 155.229 480.031 155.25C480.344 155.292 480.5 155.542 480.5 156H473.625V155.219C474.333 155.219 474.844 155.167 475.156 155.062C475.698 154.875 475.969 154.302 475.969 153.344V136.469H473.625V135.688H478.312V149.344L484.625 143.5H482.281V142.719H487.594C487.594 142.823 487.583 142.927 487.562 143.031C487.521 143.344 487.271 143.5 486.812 143.5C486.604 143.5 486.417 143.521 486.25 143.562C485.875 143.646 485.323 144.031 484.594 144.719L481.656 147.469L486.688 155.219H487.812C487.938 155.219 488.042 155.229 488.125 155.25C488.438 155.292 488.594 155.542 488.594 156H484.438L480.031 149L478.312 150.594V155.219H479.719ZM497.188 156H489.531V155.188H492.031V138.062H489.531V137.25H497.188V138.062H494.719V145.875H504.312V138.062H501.812V137.25H509.469V138.062H507V155.188H508.656C508.76 155.188 508.865 155.198 508.969 155.219C509.302 155.281 509.469 155.542 509.469 156H501.812V155.188H504.312V146.781H494.719V155.188H496.375C496.479 155.188 496.583 155.198 496.688 155.219C497.021 155.281 497.188 155.542 497.188 156ZM518.5 143.188C517.958 143.188 517.448 143.312 516.969 143.562C515.51 144.292 514.729 145.854 514.625 148.25L517.938 148.344C518.896 148.365 519.635 148.323 520.156 148.219C521.156 147.99 521.656 147.354 521.656 146.312C521.656 145.854 521.573 145.427 521.406 145.031C520.927 143.802 519.958 143.188 518.5 143.188ZM523.938 153C523.812 153.292 523.667 153.583 523.5 153.875C522.438 155.5 520.781 156.312 518.531 156.312C517.115 156.312 515.854 155.948 514.75 155.219C512.896 153.969 511.969 152.052 511.969 149.469C511.969 148.052 512.26 146.781 512.844 145.656C513.969 143.49 515.833 142.406 518.438 142.406C519.771 142.406 520.948 142.708 521.969 143.312C523.406 144.146 524.125 145.271 524.125 146.688C524.125 147.458 523.844 148.052 523.281 148.469C522.552 148.99 520.917 149.229 518.375 149.188L514.625 149.125C514.646 150 514.74 150.802 514.906 151.531C515.469 154.135 516.844 155.438 519.031 155.438C519.219 155.438 519.417 155.427 519.625 155.406C521.25 155.198 522.427 154.302 523.156 152.719L523.938 153ZM532.562 155.219C532.667 155.219 532.771 155.229 532.875 155.25C533.188 155.292 533.344 155.542 533.344 156H526.156V155.219C526.865 155.219 527.375 155.177 527.688 155.094C528.333 154.885 528.656 154.302 528.656 153.344V143.5H526.156V142.719H531V155.219H532.562ZM531.375 138.156C531.375 138.406 531.323 138.646 531.219 138.875C530.927 139.542 530.417 139.875 529.688 139.875C529.458 139.875 529.229 139.833 529 139.75C528.312 139.458 527.969 138.927 527.969 138.156C527.969 137.906 528.021 137.667 528.125 137.438C528.438 136.771 528.958 136.438 529.688 136.438C529.917 136.438 530.156 136.49 530.406 136.594C531.052 136.906 531.375 137.427 531.375 138.156ZM538.344 147.344C538.365 150.156 539.406 151.583 541.469 151.625C543.49 151.604 544.521 150.177 544.562 147.344C544.542 144.615 543.51 143.229 541.469 143.188C539.427 143.208 538.385 144.594 538.344 147.344ZM541.5 142.406C542.583 142.406 543.594 142.646 544.531 143.125C544.656 142.729 544.833 142.365 545.062 142.031C545.667 141.156 546.458 140.719 547.438 140.719C547.667 140.719 547.896 140.76 548.125 140.844C548.729 141.073 549.031 141.51 549.031 142.156C548.948 142.698 548.646 143.031 548.125 143.156C547.938 143.156 547.729 143.052 547.5 142.844C547.167 142.531 546.854 142.375 546.562 142.375C546.479 142.375 546.396 142.385 546.312 142.406C545.792 142.531 545.438 142.927 545.25 143.594C546.438 144.531 547.042 145.781 547.062 147.344C547.062 148.573 546.667 149.635 545.875 150.531C544.771 151.781 543.292 152.406 541.438 152.406L538.688 152.375C538.521 152.375 538.365 152.385 538.219 152.406C537.531 152.552 537.188 152.896 537.188 153.438C537.208 154.208 537.698 154.625 538.656 154.688L544.344 154.812C544.635 154.812 544.917 154.833 545.188 154.875C547.25 155.146 548.281 156.177 548.281 157.969C548.281 158.552 548.115 159.104 547.781 159.625C546.76 161.167 544.667 161.938 541.5 161.938C540.25 161.938 539.198 161.75 538.344 161.375C536.99 160.812 536.312 159.958 536.312 158.812C536.312 158.062 536.656 157.323 537.344 156.594C536.469 156.052 536.021 155.229 536 154.125C536 153.854 536.031 153.583 536.094 153.312C536.427 152.167 537.26 151.594 538.594 151.594C538.448 151.51 538.302 151.417 538.156 151.312C536.615 150.271 535.844 148.958 535.844 147.375C535.844 146.167 536.24 145.115 537.031 144.219C538.135 143.01 539.625 142.406 541.5 142.406ZM541.5 161.125C542.479 161.125 543.385 161.021 544.219 160.812C545.927 160.396 546.781 159.729 546.781 158.812C546.781 158.562 546.75 158.354 546.688 158.188C546.438 157.5 545.531 157.146 543.969 157.125L539.156 157.062C538.885 157.062 538.542 157.021 538.125 156.938C537.646 157.5 537.396 158.062 537.375 158.625C537.375 158.917 537.448 159.208 537.594 159.5C538.135 160.583 539.438 161.125 541.5 161.125ZM556.562 155.219C556.688 155.219 556.792 155.229 556.875 155.25C557.188 155.292 557.344 155.542 557.344 156H550.312V155.219C551.021 155.219 551.531 155.167 551.844 155.062C552.385 154.875 552.656 154.302 552.656 153.344V136.469H550.312V135.688H555V145.719C555.229 145.115 555.562 144.573 556 144.094C557.042 142.969 558.333 142.406 559.875 142.406C560.542 142.406 561.167 142.552 561.75 142.844C563.25 143.656 564 145.198 564 147.469V155.219H565.562C565.688 155.219 565.792 155.229 565.875 155.25C566.188 155.292 566.344 155.542 566.344 156H559.469V155.219C560.177 155.219 560.677 155.167 560.969 155.062C561.427 154.875 561.656 154.302 561.656 153.344V147.469C561.656 146.781 561.542 146.156 561.312 145.594C560.812 144.406 559.927 143.812 558.656 143.812C558.073 143.812 557.51 143.99 556.969 144.344C555.656 145.198 555 146.573 555 148.469V155.219H556.562ZM567.781 143.5V142.719H569.969V139.75L572.312 139.094V142.719H577.156V143.5H572.312V153C572.333 154.562 572.906 155.365 574.031 155.406C575.031 155.26 575.792 154.323 576.312 152.594L577.156 152.75C577.156 152.771 577.156 152.792 577.156 152.812C576.677 155.167 575.479 156.344 573.562 156.344C571.312 156.26 570.115 154.917 569.969 152.312V143.5H567.781ZM578.125 135.688C581.062 136.479 583.281 138.385 584.781 141.406C585.802 143.51 586.312 145.812 586.312 148.312C586.312 151.812 585.385 154.75 583.531 157.125C582.115 158.917 580.344 160.104 578.219 160.688L577.906 159.906C580.094 159.115 581.719 157.25 582.781 154.312C583.448 152.438 583.781 150.417 583.781 148.25C583.781 144.833 583.01 141.938 581.469 139.562C580.469 138.042 579.26 137.01 577.844 136.469L578.125 135.688Z" fill="#161616"/>
<path d="M82.452 9.16354C81.99 9.46621 81.8609 10.0861 82.1635 10.548L87.0958 18.0762C87.3984 18.5381 88.0183 18.6673 88.4803 18.3646C88.9422 18.0619 89.0714 17.4421 88.7687 16.9801L84.3845 10.2884L91.0762 5.90423C91.5381 5.60156 91.6673 4.9817 91.3646 4.51974C91.0619 4.05777 90.4421 3.92864 89.9801 4.2313L82.452 9.16354ZM107.204 14.021L83.204 9.02102L82.796 10.979L106.796 15.979L107.204 14.021Z" fill="#F5AC7F"/>
<path d="M79.1969 351.404C78.8678 351.848 78.9606 352.474 79.4042 352.803L86.632 358.166C87.0756 358.495 87.7019 358.402 88.031 357.958C88.3601 357.515 88.2673 356.889 87.8237 356.56L81.3989 351.793L86.1657 345.368C86.4948 344.924 86.402 344.298 85.9585 343.969C85.5149 343.64 84.8886 343.733 84.5595 344.176L79.1969 351.404ZM106.853 347.011L79.8535 351.011L80.1465 352.989L107.147 348.989L106.853 347.011Z" fill="#F5AC7F"/>
<line x1="85" y1="213.5" x2="116" y2="213.5" stroke="#F5AC7F"/>
<line x1="85" y1="243.5" x2="116" y2="243.5" stroke="#F5AC7F"/>
<path d="M101.707 217.293C101.317 216.902 100.683 216.902 100.293 217.293L93.9289 223.657C93.5384 224.047 93.5384 224.681 93.9289 225.071C94.3195 225.462 94.9526 225.462 95.3431 225.071L101 219.414L106.657 225.071C107.047 225.462 107.681 225.462 108.071 225.071C108.462 224.681 108.462 224.047 108.071 223.657L101.707 217.293ZM100.293 239.707C100.683 240.098 101.317 240.098 101.707 239.707L108.071 233.343C108.462 232.953 108.462 232.319 108.071 231.929C107.681 231.538 107.047 231.538 106.657 231.929L101 237.586L95.3431 231.929C94.9526 231.538 94.3195 231.538 93.9289 231.929C93.5384 232.319 93.5384 232.953 93.9289 233.343L100.293 239.707ZM100 218L100 239L102 239L102 218L100 218Z" fill="#F5AC7F"/>
</svg>
