<svg width="672" height="294" viewBox="0 0 672 294" fill="none" xmlns="http://www.w3.org/2000/svg">
<path d="M239.005 148.452C239.396 148.061 239.396 147.428 239.005 147.038L232.641 140.674C232.251 140.283 231.617 140.283 231.227 140.674C230.836 141.064 230.836 141.697 231.227 142.088L236.884 147.745L231.227 153.401C230.836 153.792 230.836 154.425 231.227 154.816C231.617 155.206 232.251 155.206 232.641 154.816L239.005 148.452ZM181.106 148.745H238.298V146.745H181.106V148.745Z" fill="#EE7C7D"/>
<path d="M491.601 148.452C491.991 148.061 491.991 147.428 491.601 147.038L485.237 140.674C484.846 140.283 484.213 140.283 483.823 140.674C483.432 141.064 483.432 141.697 483.823 142.088L489.479 147.745L483.823 153.401C483.432 153.792 483.432 154.425 483.823 154.816C484.213 155.206 484.846 155.206 485.237 154.816L491.601 148.452ZM433.702 148.745H490.894V146.745H433.702V148.745Z" fill="#EE7C7D"/>
<rect x="1" y="1" width="171.957" height="291.106" rx="4" fill="#F1D7D7" stroke="#EE7C7D" stroke-width="2"/>
<path d="M51.625 114.562H62.5234C65.1797 114.562 67.5104 115.188 69.5156 116.438C72.7969 118.521 74.4375 121.802 74.4375 126.281C74.4375 129.745 73.3177 132.557 71.0781 134.719C68.8125 136.906 65.9219 138 62.4062 138H51.625V136.984H54.75V115.578H51.625V114.562ZM62.4062 115.578H58.1094V136.984H62.5234C63.0443 136.984 63.5521 136.945 64.0469 136.867C68.474 136.19 70.6875 132.609 70.6875 126.125C70.6875 124.224 70.4922 122.583 70.1016 121.203C69.0859 117.453 66.5208 115.578 62.4062 115.578ZM91.8594 138.391C90.0365 138.365 88.9688 137.193 88.6562 134.875C88.4219 135.422 88.0703 135.943 87.6016 136.438C86.2995 137.74 84.6979 138.391 82.7969 138.391C82.0156 138.391 81.2734 138.247 80.5703 137.961C78.8255 137.232 77.9531 135.878 77.9531 133.898C77.9531 133.326 78.0312 132.792 78.1875 132.297C79.0729 129.745 82.5755 128.469 88.6953 128.469V126.008C88.6172 123.482 87.3542 122.141 84.9062 121.984C83.8646 121.984 83.0964 122.31 82.6016 122.961C82.4714 123.143 82.224 123.716 81.8594 124.68C81.5729 125.435 81.1302 125.812 80.5312 125.812C80.401 125.812 80.2708 125.799 80.1406 125.773C79.3854 125.643 79.0078 125.174 79.0078 124.367C79.0078 123.924 79.1641 123.482 79.4766 123.039C80.4661 121.685 82.4193 121.008 85.3359 121.008C85.5703 121.008 85.8047 121.008 86.0391 121.008C89.763 121.216 91.625 123.182 91.625 126.906V135.148C91.651 136.451 92.0026 137.128 92.6797 137.18C93.513 137.154 94.0208 136.19 94.2031 134.289L95.2188 134.328C95.2188 134.458 95.2057 134.602 95.1797 134.758C94.9714 137.18 93.8646 138.391 91.8594 138.391ZM84.0859 136.828C84.6589 136.828 85.2448 136.698 85.8438 136.438C87.3542 135.708 88.3047 134.445 88.6953 132.648V129.523C86.6641 129.549 85.1146 129.68 84.0469 129.914C82.0417 130.383 81.0391 131.49 81.0391 133.234C81.0391 133.677 81.0781 134.081 81.1562 134.445C81.5208 136.034 82.4974 136.828 84.0859 136.828ZM96.1953 122.375V121.398H98.9297V117.688L101.859 116.867V121.398H107.914V122.375H101.859V134.25C101.885 136.203 102.602 137.206 104.008 137.258C105.258 137.076 106.208 135.904 106.859 133.742L107.914 133.938C107.914 133.964 107.914 133.99 107.914 134.016C107.315 136.958 105.818 138.43 103.422 138.43C100.609 138.326 99.112 136.646 98.9297 133.391V122.375H96.1953ZM123.383 138.391C121.56 138.365 120.492 137.193 120.18 134.875C119.945 135.422 119.594 135.943 119.125 136.438C117.823 137.74 116.221 138.391 114.32 138.391C113.539 138.391 112.797 138.247 112.094 137.961C110.349 137.232 109.477 135.878 109.477 133.898C109.477 133.326 109.555 132.792 109.711 132.297C110.596 129.745 114.099 128.469 120.219 128.469V126.008C120.141 123.482 118.878 122.141 116.43 121.984C115.388 121.984 114.62 122.31 114.125 122.961C113.995 123.143 113.747 123.716 113.383 124.68C113.096 125.435 112.654 125.812 112.055 125.812C111.924 125.812 111.794 125.799 111.664 125.773C110.909 125.643 110.531 125.174 110.531 124.367C110.531 123.924 110.688 123.482 111 123.039C111.99 121.685 113.943 121.008 116.859 121.008C117.094 121.008 117.328 121.008 117.562 121.008C121.286 121.216 123.148 123.182 123.148 126.906V135.148C123.174 136.451 123.526 137.128 124.203 137.18C125.036 137.154 125.544 136.19 125.727 134.289L126.742 134.328C126.742 134.458 126.729 134.602 126.703 134.758C126.495 137.18 125.388 138.391 123.383 138.391ZM115.609 136.828C116.182 136.828 116.768 136.698 117.367 136.438C118.878 135.708 119.828 134.445 120.219 132.648V129.523C118.188 129.549 116.638 129.68 115.57 129.914C113.565 130.383 112.562 131.49 112.562 133.234C112.562 133.677 112.602 134.081 112.68 134.445C113.044 136.034 114.021 136.828 115.609 136.828ZM58.8906 155.578V154.562H68.4609V155.578H65.375V168.977C65.375 170.669 65.5573 172.102 65.9219 173.273C66.7552 175.956 68.7604 177.297 71.9375 177.297C72.25 177.297 72.5625 177.284 72.875 177.258C76.625 176.867 78.5 174.146 78.5 169.094V155.578H75.375V154.562H82.9922V155.578H79.8672V168.859C79.8672 170.318 79.724 171.62 79.4375 172.766C78.474 176.516 75.7005 178.391 71.1172 178.391C65.1016 178.365 62.0677 175.305 62.0156 169.211V155.578H58.8906ZM83.9688 162.375V161.398H86.7031V157.688L89.6328 156.867V161.398H95.6875V162.375H89.6328V174.25C89.6589 176.203 90.375 177.206 91.7812 177.258C93.0312 177.076 93.9818 175.904 94.6328 173.742L95.6875 173.938C95.6875 173.964 95.6875 173.99 95.6875 174.016C95.0885 176.958 93.5911 178.43 91.1953 178.43C88.3828 178.326 86.8854 176.646 86.7031 173.391V162.375H83.9688ZM105.062 177.023C105.193 177.023 105.323 177.036 105.453 177.062C105.844 177.115 106.039 177.427 106.039 178H97.0547V177.023C97.9401 177.023 98.5781 176.971 98.9688 176.867C99.776 176.607 100.18 175.878 100.18 174.68V162.375H97.0547V161.398H103.109V177.023H105.062ZM103.578 155.695C103.578 156.008 103.513 156.307 103.383 156.594C103.018 157.427 102.38 157.844 101.469 157.844C101.182 157.844 100.896 157.792 100.609 157.688C99.75 157.323 99.3203 156.659 99.3203 155.695C99.3203 155.383 99.3854 155.083 99.5156 154.797C99.9062 153.964 100.557 153.547 101.469 153.547C101.755 153.547 102.055 153.612 102.367 153.742C103.174 154.133 103.578 154.784 103.578 155.695ZM116.469 177.023C116.625 177.023 116.755 177.036 116.859 177.062C117.25 177.115 117.445 177.427 117.445 178H108.5V177.023C109.385 177.023 110.023 176.958 110.414 176.828C111.091 176.594 111.43 175.878 111.43 174.68V153.586H108.5V152.609H114.359V177.023H116.469Z" fill="black"/>
<rect x="251.213" y="1" width="171.957" height="291.106" rx="4" fill="#F1D7D7" stroke="#EE7C7D" stroke-width="2"/>
<path d="M328.648 144H320.211V142.984H322.75L319.82 135.406H311.656L308.727 142.984H310.641C310.771 142.984 310.901 142.997 311.031 143.023C311.448 143.102 311.656 143.427 311.656 144H304.703V142.984H307.164L315.914 120.562H317.359L326.305 142.984H327.633C327.763 142.984 327.893 142.997 328.023 143.023C328.44 143.102 328.648 143.427 328.648 144ZM319.391 134.273L315.719 124.82L312.086 134.273H319.391ZM340.953 121.578H336.695V132.516H340.289C340.602 132.516 340.914 132.503 341.227 132.477C344.247 132.138 345.758 130.276 345.758 126.891C345.758 126.109 345.654 125.38 345.445 124.703C344.768 122.62 343.271 121.578 340.953 121.578ZM340.602 144H330.211V142.984H333.336V121.578H330.211V120.562H341.773C343.44 120.562 344.872 120.849 346.07 121.422C348.31 122.464 349.43 124.273 349.43 126.852C349.43 128.049 349.156 129.104 348.609 130.016C347.229 132.438 344.404 133.648 340.133 133.648H336.695V142.984H339.586C339.716 142.984 339.846 142.997 339.977 143.023C340.393 143.102 340.602 143.427 340.602 144ZM361.734 144H352.164V142.984H355.289V121.578H352.164V120.562H361.734V121.578H358.648V142.984H360.719C360.849 142.984 360.979 142.997 361.109 143.023C361.526 143.102 361.734 143.427 361.734 144ZM287.234 151.688L287.516 152.469C286.099 153.01 284.891 154.042 283.891 155.562C282.349 157.938 281.578 160.833 281.578 164.25C281.578 166.417 281.911 168.438 282.578 170.312C283.641 173.25 285.266 175.115 287.453 175.906L287.141 176.688C285.016 176.104 283.245 174.917 281.828 173.125C279.974 170.75 279.047 167.812 279.047 164.312C279.047 161.812 279.557 159.51 280.578 157.406C282.078 154.385 284.297 152.479 287.234 151.688ZM297.828 154.062H294.422V162.812H297.297C297.547 162.812 297.797 162.802 298.047 162.781C300.464 162.51 301.672 161.021 301.672 158.312C301.672 157.688 301.589 157.104 301.422 156.562C300.88 154.896 299.682 154.062 297.828 154.062ZM297.547 172H289.234V171.188H291.734V154.062H289.234V153.25H298.484C299.818 153.25 300.964 153.479 301.922 153.938C303.714 154.771 304.609 156.219 304.609 158.281C304.609 159.24 304.391 160.083 303.953 160.812C302.849 162.75 300.589 163.719 297.172 163.719H294.422V171.188H296.734C296.839 171.188 296.943 171.198 297.047 171.219C297.38 171.281 297.547 171.542 297.547 172ZM313.484 171.219C313.609 171.219 313.714 171.229 313.797 171.25C314.109 171.292 314.266 171.542 314.266 172H306.547V171.219C307.255 171.219 307.766 171.167 308.078 171.062C308.62 170.875 308.891 170.302 308.891 169.344V159.5H306.547V158.719H311.078L311.203 161.812C311.474 161.188 311.839 160.625 312.297 160.125C313.276 159.062 314.391 158.531 315.641 158.531C315.828 158.531 316.026 158.552 316.234 158.594C317.193 158.802 317.672 159.375 317.672 160.312C317.672 160.438 317.651 160.562 317.609 160.688C317.443 161.292 317.047 161.594 316.422 161.594C316.297 161.594 316.172 161.573 316.047 161.531C315.755 161.448 315.443 161.115 315.109 160.531C314.818 160.01 314.495 159.75 314.141 159.75C313.828 159.771 313.443 160 312.984 160.438C311.818 161.583 311.234 163.104 311.234 165V171.219H313.484ZM325.172 171.219C325.276 171.219 325.38 171.229 325.484 171.25C325.797 171.292 325.953 171.542 325.953 172H318.766V171.219C319.474 171.219 319.984 171.177 320.297 171.094C320.943 170.885 321.266 170.302 321.266 169.344V159.5H318.766V158.719H323.609V171.219H325.172ZM323.984 154.156C323.984 154.406 323.932 154.646 323.828 154.875C323.536 155.542 323.026 155.875 322.297 155.875C322.068 155.875 321.839 155.833 321.609 155.75C320.922 155.458 320.578 154.927 320.578 154.156C320.578 153.906 320.63 153.667 320.734 153.438C321.047 152.771 321.568 152.438 322.297 152.438C322.526 152.438 322.766 152.49 323.016 152.594C323.661 152.906 323.984 153.427 323.984 154.156ZM332.828 171.469C334.266 171.469 335.234 171.031 335.734 170.156C335.922 169.844 336.016 169.5 336.016 169.125C336.016 168.25 335.38 167.5 334.109 166.875C333.839 166.729 333.391 166.521 332.766 166.25C331.057 165.542 329.922 164.875 329.359 164.25C328.755 163.562 328.453 162.76 328.453 161.844C328.453 160.406 329.245 159.396 330.828 158.812C331.557 158.542 332.349 158.406 333.203 158.406C334.578 158.406 335.766 158.698 336.766 159.281C336.766 158.677 336.911 158.333 337.203 158.25C337.328 158.229 337.464 158.219 337.609 158.219V162.125H336.797C336.755 160.208 335.693 159.24 333.609 159.219C332.047 159.219 331.078 159.677 330.703 160.594C330.599 160.844 330.547 161.104 330.547 161.375C330.547 162.271 331.193 163.031 332.484 163.656C332.776 163.802 333.234 164 333.859 164.25C335.547 164.938 336.672 165.594 337.234 166.219C337.839 166.885 338.141 167.677 338.141 168.594C338.141 170.281 337.245 171.406 335.453 171.969C334.766 172.198 334.016 172.312 333.203 172.312C331.703 172.292 330.401 171.917 329.297 171.188C329.297 171.729 329.161 172.042 328.891 172.125C328.766 172.146 328.62 172.156 328.453 172.156V167.406H329.328C329.37 170.094 330.536 171.448 332.828 171.469ZM346.422 171.219C346.526 171.219 346.63 171.229 346.734 171.25C347.047 171.312 347.203 171.562 347.203 172H340.328V171.219C341.036 171.219 341.547 171.167 341.859 171.062C342.401 170.875 342.672 170.302 342.672 169.344V159.5H340.328V158.719H344.859L344.984 161.844C345.193 161.281 345.474 160.771 345.828 160.312C346.807 159.042 348.047 158.406 349.547 158.406C349.943 158.406 350.328 158.479 350.703 158.625C351.974 159.104 352.797 160.167 353.172 161.812C353.339 161.396 353.547 161 353.797 160.625C354.755 159.146 356.026 158.406 357.609 158.406C358.339 158.406 359.016 158.594 359.641 158.969C361.036 159.823 361.734 161.323 361.734 163.469V171.219H363.328C363.453 171.219 363.557 171.229 363.641 171.25C363.953 171.292 364.109 171.542 364.109 172H357.203V171.219C357.911 171.219 358.411 171.167 358.703 171.062C359.161 170.875 359.391 170.302 359.391 169.344V163.156C359.391 162.49 359.286 161.896 359.078 161.375C358.641 160.271 357.891 159.719 356.828 159.719C356.432 159.719 356.016 159.823 355.578 160.031C354.432 160.635 353.693 161.698 353.359 163.219V163.469V171.219H354.766C354.891 171.219 354.995 171.229 355.078 171.25C355.391 171.292 355.547 171.542 355.547 172H348.828V171.219C349.536 171.219 350.036 171.167 350.328 171.062C350.786 170.875 351.016 170.302 351.016 169.344V163.156C351.016 162.531 350.932 161.969 350.766 161.469C350.37 160.323 349.651 159.75 348.609 159.75C348.047 159.75 347.484 159.958 346.922 160.375C345.714 161.271 345.078 162.635 345.016 164.469V171.219H346.422ZM377.109 172.312C375.651 172.292 374.797 171.354 374.547 169.5C374.359 169.938 374.078 170.354 373.703 170.75C372.661 171.792 371.38 172.312 369.859 172.312C369.234 172.312 368.641 172.198 368.078 171.969C366.682 171.385 365.984 170.302 365.984 168.719C365.984 168.26 366.047 167.833 366.172 167.438C366.88 165.396 369.682 164.375 374.578 164.375V162.406C374.516 160.385 373.505 159.312 371.547 159.188C370.714 159.188 370.099 159.448 369.703 159.969C369.599 160.115 369.401 160.573 369.109 161.344C368.88 161.948 368.526 162.25 368.047 162.25C367.943 162.25 367.839 162.24 367.734 162.219C367.13 162.115 366.828 161.74 366.828 161.094C366.828 160.74 366.953 160.385 367.203 160.031C367.995 158.948 369.557 158.406 371.891 158.406C372.078 158.406 372.266 158.406 372.453 158.406C375.432 158.573 376.922 160.146 376.922 163.125V169.719C376.943 170.76 377.224 171.302 377.766 171.344C378.432 171.323 378.839 170.552 378.984 169.031L379.797 169.062C379.797 169.167 379.786 169.281 379.766 169.406C379.599 171.344 378.714 172.312 377.109 172.312ZM370.891 171.062C371.349 171.062 371.818 170.958 372.297 170.75C373.505 170.167 374.266 169.156 374.578 167.719V165.219C372.953 165.24 371.714 165.344 370.859 165.531C369.255 165.906 368.453 166.792 368.453 168.188C368.453 168.542 368.484 168.865 368.547 169.156C368.839 170.427 369.62 171.062 370.891 171.062ZM380.766 151.688C383.703 152.479 385.922 154.385 387.422 157.406C388.443 159.51 388.953 161.812 388.953 164.312C388.953 167.812 388.026 170.75 386.172 173.125C384.755 174.917 382.984 176.104 380.859 176.688L380.547 175.906C382.734 175.115 384.359 173.25 385.422 170.312C386.089 168.438 386.422 166.417 386.422 164.25C386.422 160.833 385.651 157.938 384.109 155.562C383.109 154.042 381.901 153.01 380.484 152.469L380.766 151.688Z" fill="black"/>
<rect x="499.042" y="1" width="171.957" height="291.106" rx="4" fill="#F1D7D7" stroke="#EE7C7D" stroke-width="2"/>
<path d="M541.305 133.578H537.047V144.516H540.641C540.953 144.516 541.266 144.503 541.578 144.477C544.599 144.138 546.109 142.276 546.109 138.891C546.109 138.109 546.005 137.38 545.797 136.703C545.12 134.62 543.622 133.578 541.305 133.578ZM540.953 156H530.562V154.984H533.688V133.578H530.562V132.562H542.125C543.792 132.562 545.224 132.849 546.422 133.422C548.661 134.464 549.781 136.273 549.781 138.852C549.781 140.049 549.508 141.104 548.961 142.016C547.581 144.438 544.755 145.648 540.484 145.648H537.047V154.984H539.938C540.068 154.984 540.198 154.997 540.328 155.023C540.745 155.102 540.953 155.427 540.953 156ZM555.836 147.68C555.836 148.799 555.927 149.815 556.109 150.727C556.786 153.852 558.44 155.414 561.07 155.414C561.565 155.414 562.047 155.349 562.516 155.219C564.911 154.464 566.109 151.898 566.109 147.523C566.109 146.768 566.07 146.078 565.992 145.453C565.523 141.807 563.844 139.984 560.953 139.984C560.328 139.984 559.729 140.089 559.156 140.297C556.943 141.182 555.836 143.643 555.836 147.68ZM561.07 139.008C562.789 139.008 564.365 139.464 565.797 140.375C568.219 141.964 569.43 144.398 569.43 147.68C569.43 150.102 568.674 152.12 567.164 153.734C565.523 155.505 563.453 156.391 560.953 156.391C559.182 156.391 557.568 155.896 556.109 154.906C553.714 153.266 552.516 150.805 552.516 147.523C552.516 145.154 553.284 143.174 554.82 141.586C556.487 139.867 558.57 139.008 561.07 139.008ZM578.414 155.336C580.211 155.336 581.422 154.789 582.047 153.695C582.281 153.305 582.398 152.875 582.398 152.406C582.398 151.312 581.604 150.375 580.016 149.594C579.677 149.411 579.117 149.151 578.336 148.812C576.201 147.927 574.781 147.094 574.078 146.312C573.323 145.453 572.945 144.451 572.945 143.305C572.945 141.508 573.935 140.245 575.914 139.516C576.826 139.177 577.815 139.008 578.883 139.008C580.602 139.008 582.086 139.372 583.336 140.102C583.336 139.346 583.518 138.917 583.883 138.812C584.039 138.786 584.208 138.773 584.391 138.773V143.656H583.375C583.323 141.26 581.995 140.049 579.391 140.023C577.438 140.023 576.227 140.596 575.758 141.742C575.628 142.055 575.562 142.38 575.562 142.719C575.562 143.839 576.37 144.789 577.984 145.57C578.349 145.753 578.922 146 579.703 146.312C581.812 147.172 583.219 147.992 583.922 148.773C584.677 149.607 585.055 150.596 585.055 151.742C585.055 153.852 583.935 155.258 581.695 155.961C580.836 156.247 579.898 156.391 578.883 156.391C577.008 156.365 575.38 155.896 574 154.984C574 155.661 573.831 156.052 573.492 156.156C573.336 156.182 573.154 156.195 572.945 156.195V150.258H574.039C574.091 153.617 575.549 155.31 578.414 155.336ZM587.398 140.375V139.398H590.133V135.688L593.062 134.867V139.398H599.117V140.375H593.062V152.25C593.089 154.203 593.805 155.206 595.211 155.258C596.461 155.076 597.411 153.904 598.062 151.742L599.117 151.938C599.117 151.964 599.117 151.99 599.117 152.016C598.518 154.958 597.021 156.43 594.625 156.43C591.812 156.326 590.315 154.646 590.133 151.391V140.375H587.398ZM604.391 145.18C604.417 148.695 605.719 150.479 608.297 150.531C610.823 150.505 612.112 148.721 612.164 145.18C612.138 141.768 610.849 140.036 608.297 139.984C605.745 140.01 604.443 141.742 604.391 145.18ZM608.336 139.008C609.69 139.008 610.953 139.307 612.125 139.906C612.281 139.411 612.503 138.956 612.789 138.539C613.544 137.445 614.534 136.898 615.758 136.898C616.044 136.898 616.331 136.951 616.617 137.055C617.372 137.341 617.75 137.888 617.75 138.695C617.646 139.372 617.268 139.789 616.617 139.945C616.383 139.945 616.122 139.815 615.836 139.555C615.419 139.164 615.029 138.969 614.664 138.969C614.56 138.969 614.456 138.982 614.352 139.008C613.701 139.164 613.258 139.659 613.023 140.492C614.508 141.664 615.263 143.227 615.289 145.18C615.289 146.716 614.794 148.044 613.805 149.164C612.424 150.727 610.576 151.508 608.258 151.508L604.82 151.469C604.612 151.469 604.417 151.482 604.234 151.508C603.375 151.69 602.945 152.12 602.945 152.797C602.971 153.76 603.583 154.281 604.781 154.359L611.891 154.516C612.255 154.516 612.607 154.542 612.945 154.594C615.523 154.932 616.812 156.221 616.812 158.461C616.812 159.19 616.604 159.88 616.188 160.531C614.911 162.458 612.294 163.422 608.336 163.422C606.773 163.422 605.458 163.188 604.391 162.719C602.698 162.016 601.852 160.948 601.852 159.516C601.852 158.578 602.281 157.654 603.141 156.742C602.047 156.065 601.487 155.036 601.461 153.656C601.461 153.318 601.5 152.979 601.578 152.641C601.995 151.208 603.036 150.492 604.703 150.492C604.521 150.388 604.339 150.271 604.156 150.141C602.229 148.839 601.266 147.198 601.266 145.219C601.266 143.708 601.76 142.393 602.75 141.273C604.13 139.763 605.992 139.008 608.336 139.008ZM608.336 162.406C609.56 162.406 610.693 162.276 611.734 162.016C613.87 161.495 614.938 160.661 614.938 159.516C614.938 159.203 614.898 158.943 614.82 158.734C614.508 157.875 613.375 157.432 611.422 157.406L605.406 157.328C605.068 157.328 604.638 157.276 604.117 157.172C603.518 157.875 603.206 158.578 603.18 159.281C603.18 159.646 603.271 160.01 603.453 160.375C604.13 161.729 605.758 162.406 608.336 162.406ZM628.023 155.023C628.18 155.023 628.31 155.036 628.414 155.062C628.805 155.115 629 155.427 629 156H619.352V155.023C620.237 155.023 620.875 154.958 621.266 154.828C621.943 154.594 622.281 153.878 622.281 152.68V140.375H619.352V139.398H625.016L625.172 143.266C625.51 142.484 625.966 141.781 626.539 141.156C627.763 139.828 629.156 139.164 630.719 139.164C630.953 139.164 631.201 139.19 631.461 139.242C632.659 139.503 633.258 140.219 633.258 141.391C633.258 141.547 633.232 141.703 633.18 141.859C632.971 142.615 632.477 142.992 631.695 142.992C631.539 142.992 631.383 142.966 631.227 142.914C630.862 142.81 630.471 142.393 630.055 141.664C629.69 141.013 629.286 140.688 628.844 140.688C628.453 140.714 627.971 141 627.398 141.547C625.94 142.979 625.211 144.88 625.211 147.25V155.023H628.023ZM643.18 139.984C642.503 139.984 641.865 140.141 641.266 140.453C639.443 141.365 638.466 143.318 638.336 146.312L642.477 146.43C643.674 146.456 644.599 146.404 645.25 146.273C646.5 145.987 647.125 145.193 647.125 143.891C647.125 143.318 647.021 142.784 646.812 142.289C646.214 140.753 645.003 139.984 643.18 139.984ZM649.977 152.25C649.82 152.615 649.638 152.979 649.43 153.344C648.102 155.375 646.031 156.391 643.219 156.391C641.448 156.391 639.872 155.935 638.492 155.023C636.174 153.461 635.016 151.065 635.016 147.836C635.016 146.065 635.38 144.477 636.109 143.07C637.516 140.362 639.846 139.008 643.102 139.008C644.768 139.008 646.24 139.385 647.516 140.141C649.312 141.182 650.211 142.589 650.211 144.359C650.211 145.323 649.859 146.065 649.156 146.586C648.245 147.237 646.201 147.536 643.023 147.484L638.336 147.406C638.362 148.5 638.479 149.503 638.688 150.414C639.391 153.669 641.109 155.297 643.844 155.297C644.078 155.297 644.326 155.284 644.586 155.258C646.617 154.997 648.089 153.878 649 151.898L649.977 152.25Z" fill="black"/>
</svg>
