<svg width="568" height="493" viewBox="0 0 568 493" fill="none" xmlns="http://www.w3.org/2000/svg">
<rect x="343" y="52" width="88" height="66" rx="6" fill="#E4DEED" stroke="#8054C4" stroke-width="2" stroke-dasharray="4 4"/>
<path d="M373.984 91.7422C372.307 92.7448 370.548 93.2552 368.707 93.2734C366.191 93.2734 364.15 92.4349 362.582 90.7578C361.105 89.1354 360.367 87.1302 360.367 84.7422C360.367 82.7734 360.896 81.0326 361.953 79.5195C363.484 77.3867 365.69 76.3203 368.57 76.3203C369.445 76.3203 370.302 76.4206 371.141 76.6211C372.417 76.9492 373.319 77.3776 373.848 77.9062C373.848 77.4141 373.875 77.0586 373.93 76.8398C374.021 76.5846 374.267 76.457 374.668 76.457L374.75 81.4883H374.094C373.966 81.0872 373.811 80.6953 373.629 80.3125C372.608 78.1615 370.958 77.0859 368.68 77.0859C367.677 77.0859 366.766 77.3411 365.945 77.8516C364.068 79.0729 363.129 81.388 363.129 84.7969C363.129 86.3828 363.339 87.7591 363.758 88.9258C364.615 91.3138 366.228 92.5078 368.598 92.5078C371.387 92.4896 373.246 90.9766 374.176 87.9688H374.832V93.1367C374.613 93.1367 374.44 93.1094 374.312 93.0547C374.094 92.9453 373.984 92.5078 373.984 91.7422ZM379.48 87.1758C379.48 87.9596 379.544 88.6706 379.672 89.3086C380.146 91.4961 381.303 92.5898 383.145 92.5898C383.491 92.5898 383.828 92.5443 384.156 92.4531C385.833 91.9245 386.672 90.1289 386.672 87.0664C386.672 86.5378 386.645 86.0547 386.59 85.6172C386.262 83.0651 385.086 81.7891 383.062 81.7891C382.625 81.7891 382.206 81.862 381.805 82.0078C380.255 82.6276 379.48 84.3503 379.48 87.1758ZM383.145 81.1055C384.348 81.1055 385.451 81.4245 386.453 82.0625C388.148 83.1745 388.996 84.8789 388.996 87.1758C388.996 88.8711 388.467 90.2839 387.41 91.4141C386.262 92.6536 384.812 93.2734 383.062 93.2734C381.823 93.2734 380.693 92.9271 379.672 92.2344C377.995 91.0859 377.156 89.3633 377.156 87.0664C377.156 85.4076 377.694 84.0221 378.77 82.9102C379.936 81.707 381.395 81.1055 383.145 81.1055ZM396.57 92.3164C396.68 92.3164 396.771 92.3255 396.844 92.3438C397.117 92.3802 397.254 92.599 397.254 93H390.992V92.3164C391.612 92.3164 392.059 92.2708 392.332 92.1797C392.806 92.0156 393.043 91.5143 393.043 90.6758V75.9102H390.992V75.2266H395.094V92.3164H396.57ZM409.367 78.5078H410.816V92.043L413.633 92.2617C413.706 92.2617 413.779 92.2708 413.852 92.2891C414.18 92.362 414.344 92.599 414.344 93H404.883V92.2891L408.629 92.043V80.2031L404.363 82.9375L403.871 82.1445L409.367 78.5078Z" fill="#161616"/>
<rect x="416" y="175" width="88" height="66" rx="6" fill="#E4DEED" stroke="#8054C4" stroke-width="2" stroke-dasharray="4 4"/>
<path d="M446.984 214.742C445.307 215.745 443.548 216.255 441.707 216.273C439.191 216.273 437.15 215.435 435.582 213.758C434.105 212.135 433.367 210.13 433.367 207.742C433.367 205.773 433.896 204.033 434.953 202.52C436.484 200.387 438.69 199.32 441.57 199.32C442.445 199.32 443.302 199.421 444.141 199.621C445.417 199.949 446.319 200.378 446.848 200.906C446.848 200.414 446.875 200.059 446.93 199.84C447.021 199.585 447.267 199.457 447.668 199.457L447.75 204.488H447.094C446.966 204.087 446.811 203.695 446.629 203.312C445.608 201.161 443.958 200.086 441.68 200.086C440.677 200.086 439.766 200.341 438.945 200.852C437.068 202.073 436.129 204.388 436.129 207.797C436.129 209.383 436.339 210.759 436.758 211.926C437.615 214.314 439.228 215.508 441.598 215.508C444.387 215.49 446.246 213.977 447.176 210.969H447.832V216.137C447.613 216.137 447.44 216.109 447.312 216.055C447.094 215.945 446.984 215.508 446.984 214.742ZM452.48 210.176C452.48 210.96 452.544 211.671 452.672 212.309C453.146 214.496 454.303 215.59 456.145 215.59C456.491 215.59 456.828 215.544 457.156 215.453C458.833 214.924 459.672 213.129 459.672 210.066C459.672 209.538 459.645 209.055 459.59 208.617C459.262 206.065 458.086 204.789 456.062 204.789C455.625 204.789 455.206 204.862 454.805 205.008C453.255 205.628 452.48 207.35 452.48 210.176ZM456.145 204.105C457.348 204.105 458.451 204.424 459.453 205.062C461.148 206.174 461.996 207.879 461.996 210.176C461.996 211.871 461.467 213.284 460.41 214.414C459.262 215.654 457.812 216.273 456.062 216.273C454.823 216.273 453.693 215.927 452.672 215.234C450.995 214.086 450.156 212.363 450.156 210.066C450.156 208.408 450.694 207.022 451.77 205.91C452.936 204.707 454.395 204.105 456.145 204.105ZM469.57 215.316C469.68 215.316 469.771 215.326 469.844 215.344C470.117 215.38 470.254 215.599 470.254 216H463.992V215.316C464.612 215.316 465.059 215.271 465.332 215.18C465.806 215.016 466.043 214.514 466.043 213.676V198.91H463.992V198.227H468.094V215.316H469.57ZM478.512 214.086H484.691C485.074 214.086 485.375 214.068 485.594 214.031C486.104 213.904 486.46 213.521 486.66 212.883L487.098 211.406H487.617L487.562 216H477.145V215.453C477.145 214.924 477.245 214.414 477.445 213.922C477.81 213.047 478.685 212.145 480.07 211.215C481.547 210.212 482.367 209.647 482.531 209.52C484.081 208.28 484.855 206.812 484.855 205.117C484.855 204.789 484.828 204.479 484.773 204.188C484.464 202.693 483.497 201.945 481.875 201.945C481.273 201.945 480.809 202.082 480.48 202.355C480.116 202.665 479.879 203.312 479.77 204.297C479.733 204.661 479.697 204.935 479.66 205.117C479.496 205.846 479.059 206.211 478.348 206.211C478.238 206.211 478.12 206.193 477.992 206.156C477.445 205.974 477.172 205.509 477.172 204.762C477.172 203.923 477.5 203.194 478.156 202.574C479.122 201.681 480.444 201.234 482.121 201.234C483.051 201.234 483.889 201.371 484.637 201.645C486.332 202.283 487.18 203.449 487.18 205.145C487.18 206.22 486.715 207.259 485.785 208.262C485.038 209.082 483.643 210.103 481.602 211.324C481.091 211.652 480.717 211.889 480.48 212.035C479.168 212.874 478.512 213.557 478.512 214.086Z" fill="#161616"/>
<rect x="343" y="298" width="88" height="66" rx="6" fill="#E4DEED" stroke="#8054C4" stroke-width="2" stroke-dasharray="4 4"/>
<path d="M373.984 337.742C372.307 338.745 370.548 339.255 368.707 339.273C366.191 339.273 364.15 338.435 362.582 336.758C361.105 335.135 360.367 333.13 360.367 330.742C360.367 328.773 360.896 327.033 361.953 325.52C363.484 323.387 365.69 322.32 368.57 322.32C369.445 322.32 370.302 322.421 371.141 322.621C372.417 322.949 373.319 323.378 373.848 323.906C373.848 323.414 373.875 323.059 373.93 322.84C374.021 322.585 374.267 322.457 374.668 322.457L374.75 327.488H374.094C373.966 327.087 373.811 326.695 373.629 326.312C372.608 324.161 370.958 323.086 368.68 323.086C367.677 323.086 366.766 323.341 365.945 323.852C364.068 325.073 363.129 327.388 363.129 330.797C363.129 332.383 363.339 333.759 363.758 334.926C364.615 337.314 366.228 338.508 368.598 338.508C371.387 338.49 373.246 336.977 374.176 333.969H374.832V339.137C374.613 339.137 374.44 339.109 374.312 339.055C374.094 338.945 373.984 338.508 373.984 337.742ZM379.48 333.176C379.48 333.96 379.544 334.671 379.672 335.309C380.146 337.496 381.303 338.59 383.145 338.59C383.491 338.59 383.828 338.544 384.156 338.453C385.833 337.924 386.672 336.129 386.672 333.066C386.672 332.538 386.645 332.055 386.59 331.617C386.262 329.065 385.086 327.789 383.062 327.789C382.625 327.789 382.206 327.862 381.805 328.008C380.255 328.628 379.48 330.35 379.48 333.176ZM383.145 327.105C384.348 327.105 385.451 327.424 386.453 328.062C388.148 329.174 388.996 330.879 388.996 333.176C388.996 334.871 388.467 336.284 387.41 337.414C386.262 338.654 384.812 339.273 383.062 339.273C381.823 339.273 380.693 338.927 379.672 338.234C377.995 337.086 377.156 335.363 377.156 333.066C377.156 331.408 377.694 330.022 378.77 328.91C379.936 327.707 381.395 327.105 383.145 327.105ZM396.57 338.316C396.68 338.316 396.771 338.326 396.844 338.344C397.117 338.38 397.254 338.599 397.254 339H390.992V338.316C391.612 338.316 392.059 338.271 392.332 338.18C392.806 338.016 393.043 337.514 393.043 336.676V321.91H390.992V321.227H395.094V338.316H396.57ZM405.512 337.086H411.691C412.074 337.086 412.375 337.068 412.594 337.031C413.104 336.904 413.46 336.521 413.66 335.883L414.098 334.406H414.617L414.562 339H404.145V338.453C404.145 337.924 404.245 337.414 404.445 336.922C404.81 336.047 405.685 335.145 407.07 334.215C408.547 333.212 409.367 332.647 409.531 332.52C411.081 331.28 411.855 329.812 411.855 328.117C411.855 327.789 411.828 327.479 411.773 327.188C411.464 325.693 410.497 324.945 408.875 324.945C408.273 324.945 407.809 325.082 407.48 325.355C407.116 325.665 406.879 326.312 406.77 327.297C406.733 327.661 406.697 327.935 406.66 328.117C406.496 328.846 406.059 329.211 405.348 329.211C405.238 329.211 405.12 329.193 404.992 329.156C404.445 328.974 404.172 328.509 404.172 327.762C404.172 326.923 404.5 326.194 405.156 325.574C406.122 324.681 407.444 324.234 409.121 324.234C410.051 324.234 410.889 324.371 411.637 324.645C413.332 325.283 414.18 326.449 414.18 328.145C414.18 329.22 413.715 330.259 412.785 331.262C412.038 332.082 410.643 333.103 408.602 334.324C408.091 334.652 407.717 334.889 407.48 335.035C406.168 335.874 405.512 336.557 405.512 337.086Z" fill="#161616"/>
<rect x="272" y="421" width="88" height="66" rx="6" fill="#E4DEED" stroke="#8054C4" stroke-width="2" stroke-dasharray="4 4"/>
<path d="M302.984 460.742C301.307 461.745 299.548 462.255 297.707 462.273C295.191 462.273 293.15 461.435 291.582 459.758C290.105 458.135 289.367 456.13 289.367 453.742C289.367 451.773 289.896 450.033 290.953 448.52C292.484 446.387 294.69 445.32 297.57 445.32C298.445 445.32 299.302 445.421 300.141 445.621C301.417 445.949 302.319 446.378 302.848 446.906C302.848 446.414 302.875 446.059 302.93 445.84C303.021 445.585 303.267 445.457 303.668 445.457L303.75 450.488H303.094C302.966 450.087 302.811 449.695 302.629 449.312C301.608 447.161 299.958 446.086 297.68 446.086C296.677 446.086 295.766 446.341 294.945 446.852C293.068 448.073 292.129 450.388 292.129 453.797C292.129 455.383 292.339 456.759 292.758 457.926C293.615 460.314 295.228 461.508 297.598 461.508C300.387 461.49 302.246 459.977 303.176 456.969H303.832V462.137C303.613 462.137 303.44 462.109 303.312 462.055C303.094 461.945 302.984 461.508 302.984 460.742ZM308.48 456.176C308.48 456.96 308.544 457.671 308.672 458.309C309.146 460.496 310.303 461.59 312.145 461.59C312.491 461.59 312.828 461.544 313.156 461.453C314.833 460.924 315.672 459.129 315.672 456.066C315.672 455.538 315.645 455.055 315.59 454.617C315.262 452.065 314.086 450.789 312.062 450.789C311.625 450.789 311.206 450.862 310.805 451.008C309.255 451.628 308.48 453.35 308.48 456.176ZM312.145 450.105C313.348 450.105 314.451 450.424 315.453 451.062C317.148 452.174 317.996 453.879 317.996 456.176C317.996 457.871 317.467 459.284 316.41 460.414C315.262 461.654 313.812 462.273 312.062 462.273C310.823 462.273 309.693 461.927 308.672 461.234C306.995 460.086 306.156 458.363 306.156 456.066C306.156 454.408 306.694 453.022 307.77 451.91C308.936 450.707 310.395 450.105 312.145 450.105ZM325.57 461.316C325.68 461.316 325.771 461.326 325.844 461.344C326.117 461.38 326.254 461.599 326.254 462H319.992V461.316C320.612 461.316 321.059 461.271 321.332 461.18C321.806 461.016 322.043 460.514 322.043 459.676V444.91H319.992V444.227H324.094V461.316H325.57ZM334.512 460.086H340.691C341.074 460.086 341.375 460.068 341.594 460.031C342.104 459.904 342.46 459.521 342.66 458.883L343.098 457.406H343.617L343.562 462H333.145V461.453C333.145 460.924 333.245 460.414 333.445 459.922C333.81 459.047 334.685 458.145 336.07 457.215C337.547 456.212 338.367 455.647 338.531 455.52C340.081 454.28 340.855 452.812 340.855 451.117C340.855 450.789 340.828 450.479 340.773 450.188C340.464 448.693 339.497 447.945 337.875 447.945C337.273 447.945 336.809 448.082 336.48 448.355C336.116 448.665 335.879 449.312 335.77 450.297C335.733 450.661 335.697 450.935 335.66 451.117C335.496 451.846 335.059 452.211 334.348 452.211C334.238 452.211 334.12 452.193 333.992 452.156C333.445 451.974 333.172 451.509 333.172 450.762C333.172 449.923 333.5 449.194 334.156 448.574C335.122 447.681 336.444 447.234 338.121 447.234C339.051 447.234 339.889 447.371 340.637 447.645C342.332 448.283 343.18 449.449 343.18 451.145C343.18 452.22 342.715 453.259 341.785 454.262C341.038 455.082 339.643 456.103 337.602 457.324C337.091 457.652 336.717 457.889 336.48 458.035C335.168 458.874 334.512 459.557 334.512 460.086Z" fill="#161616"/>
<rect x="272" y="175" width="88" height="66" rx="6" fill="#E4DEED" stroke="#8054C4" stroke-width="2" stroke-dasharray="4 4"/>
<path d="M302.984 214.742C301.307 215.745 299.548 216.255 297.707 216.273C295.191 216.273 293.15 215.435 291.582 213.758C290.105 212.135 289.367 210.13 289.367 207.742C289.367 205.773 289.896 204.033 290.953 202.52C292.484 200.387 294.69 199.32 297.57 199.32C298.445 199.32 299.302 199.421 300.141 199.621C301.417 199.949 302.319 200.378 302.848 200.906C302.848 200.414 302.875 200.059 302.93 199.84C303.021 199.585 303.267 199.457 303.668 199.457L303.75 204.488H303.094C302.966 204.087 302.811 203.695 302.629 203.312C301.608 201.161 299.958 200.086 297.68 200.086C296.677 200.086 295.766 200.341 294.945 200.852C293.068 202.073 292.129 204.388 292.129 207.797C292.129 209.383 292.339 210.759 292.758 211.926C293.615 214.314 295.228 215.508 297.598 215.508C300.387 215.49 302.246 213.977 303.176 210.969H303.832V216.137C303.613 216.137 303.44 216.109 303.312 216.055C303.094 215.945 302.984 215.508 302.984 214.742ZM308.48 210.176C308.48 210.96 308.544 211.671 308.672 212.309C309.146 214.496 310.303 215.59 312.145 215.59C312.491 215.59 312.828 215.544 313.156 215.453C314.833 214.924 315.672 213.129 315.672 210.066C315.672 209.538 315.645 209.055 315.59 208.617C315.262 206.065 314.086 204.789 312.062 204.789C311.625 204.789 311.206 204.862 310.805 205.008C309.255 205.628 308.48 207.35 308.48 210.176ZM312.145 204.105C313.348 204.105 314.451 204.424 315.453 205.062C317.148 206.174 317.996 207.879 317.996 210.176C317.996 211.871 317.467 213.284 316.41 214.414C315.262 215.654 313.812 216.273 312.062 216.273C310.823 216.273 309.693 215.927 308.672 215.234C306.995 214.086 306.156 212.363 306.156 210.066C306.156 208.408 306.694 207.022 307.77 205.91C308.936 204.707 310.395 204.105 312.145 204.105ZM325.57 215.316C325.68 215.316 325.771 215.326 325.844 215.344C326.117 215.38 326.254 215.599 326.254 216H319.992V215.316C320.612 215.316 321.059 215.271 321.332 215.18C321.806 215.016 322.043 214.514 322.043 213.676V198.91H319.992V198.227H324.094V215.316H325.57ZM338.367 201.508H339.816V215.043L342.633 215.262C342.706 215.262 342.779 215.271 342.852 215.289C343.18 215.362 343.344 215.599 343.344 216H333.883V215.289L337.629 215.043V203.203L333.363 205.938L332.871 205.145L338.367 201.508Z" fill="#161616"/>
<rect x="201" y="298" width="88" height="66" rx="6" fill="#E4DEED" stroke="#8054C4" stroke-width="2" stroke-dasharray="4 4"/>
<path d="M231.984 337.742C230.307 338.745 228.548 339.255 226.707 339.273C224.191 339.273 222.15 338.435 220.582 336.758C219.105 335.135 218.367 333.13 218.367 330.742C218.367 328.773 218.896 327.033 219.953 325.52C221.484 323.387 223.69 322.32 226.57 322.32C227.445 322.32 228.302 322.421 229.141 322.621C230.417 322.949 231.319 323.378 231.848 323.906C231.848 323.414 231.875 323.059 231.93 322.84C232.021 322.585 232.267 322.457 232.668 322.457L232.75 327.488H232.094C231.966 327.087 231.811 326.695 231.629 326.312C230.608 324.161 228.958 323.086 226.68 323.086C225.677 323.086 224.766 323.341 223.945 323.852C222.068 325.073 221.129 327.388 221.129 330.797C221.129 332.383 221.339 333.759 221.758 334.926C222.615 337.314 224.228 338.508 226.598 338.508C229.387 338.49 231.246 336.977 232.176 333.969H232.832V339.137C232.613 339.137 232.44 339.109 232.312 339.055C232.094 338.945 231.984 338.508 231.984 337.742ZM237.48 333.176C237.48 333.96 237.544 334.671 237.672 335.309C238.146 337.496 239.303 338.59 241.145 338.59C241.491 338.59 241.828 338.544 242.156 338.453C243.833 337.924 244.672 336.129 244.672 333.066C244.672 332.538 244.645 332.055 244.59 331.617C244.262 329.065 243.086 327.789 241.062 327.789C240.625 327.789 240.206 327.862 239.805 328.008C238.255 328.628 237.48 330.35 237.48 333.176ZM241.145 327.105C242.348 327.105 243.451 327.424 244.453 328.062C246.148 329.174 246.996 330.879 246.996 333.176C246.996 334.871 246.467 336.284 245.41 337.414C244.262 338.654 242.812 339.273 241.062 339.273C239.823 339.273 238.693 338.927 237.672 338.234C235.995 337.086 235.156 335.363 235.156 333.066C235.156 331.408 235.694 330.022 236.77 328.91C237.936 327.707 239.395 327.105 241.145 327.105ZM254.57 338.316C254.68 338.316 254.771 338.326 254.844 338.344C255.117 338.38 255.254 338.599 255.254 339H248.992V338.316C249.612 338.316 250.059 338.271 250.332 338.18C250.806 338.016 251.043 337.514 251.043 336.676V321.91H248.992V321.227H253.094V338.316H254.57ZM267.367 324.508H268.816V338.043L271.633 338.262C271.706 338.262 271.779 338.271 271.852 338.289C272.18 338.362 272.344 338.599 272.344 339H262.883V338.289L266.629 338.043V326.203L262.363 328.938L261.871 328.145L267.367 324.508Z" fill="#161616"/>
<rect x="130" y="421" width="88" height="66" rx="6" fill="#E4DEED" stroke="#8054C4" stroke-width="2" stroke-dasharray="4 4"/>
<path d="M160.984 460.742C159.307 461.745 157.548 462.255 155.707 462.273C153.191 462.273 151.15 461.435 149.582 459.758C148.105 458.135 147.367 456.13 147.367 453.742C147.367 451.773 147.896 450.033 148.953 448.52C150.484 446.387 152.69 445.32 155.57 445.32C156.445 445.32 157.302 445.421 158.141 445.621C159.417 445.949 160.319 446.378 160.848 446.906C160.848 446.414 160.875 446.059 160.93 445.84C161.021 445.585 161.267 445.457 161.668 445.457L161.75 450.488H161.094C160.966 450.087 160.811 449.695 160.629 449.312C159.608 447.161 157.958 446.086 155.68 446.086C154.677 446.086 153.766 446.341 152.945 446.852C151.068 448.073 150.129 450.388 150.129 453.797C150.129 455.383 150.339 456.759 150.758 457.926C151.615 460.314 153.228 461.508 155.598 461.508C158.387 461.49 160.246 459.977 161.176 456.969H161.832V462.137C161.613 462.137 161.44 462.109 161.312 462.055C161.094 461.945 160.984 461.508 160.984 460.742ZM166.48 456.176C166.48 456.96 166.544 457.671 166.672 458.309C167.146 460.496 168.303 461.59 170.145 461.59C170.491 461.59 170.828 461.544 171.156 461.453C172.833 460.924 173.672 459.129 173.672 456.066C173.672 455.538 173.645 455.055 173.59 454.617C173.262 452.065 172.086 450.789 170.062 450.789C169.625 450.789 169.206 450.862 168.805 451.008C167.255 451.628 166.48 453.35 166.48 456.176ZM170.145 450.105C171.348 450.105 172.451 450.424 173.453 451.062C175.148 452.174 175.996 453.879 175.996 456.176C175.996 457.871 175.467 459.284 174.41 460.414C173.262 461.654 171.812 462.273 170.062 462.273C168.823 462.273 167.693 461.927 166.672 461.234C164.995 460.086 164.156 458.363 164.156 456.066C164.156 454.408 164.694 453.022 165.77 451.91C166.936 450.707 168.395 450.105 170.145 450.105ZM183.57 461.316C183.68 461.316 183.771 461.326 183.844 461.344C184.117 461.38 184.254 461.599 184.254 462H177.992V461.316C178.612 461.316 179.059 461.271 179.332 461.18C179.806 461.016 180.043 460.514 180.043 459.676V444.91H177.992V444.227H182.094V461.316H183.57ZM196.367 447.508H197.816V461.043L200.633 461.262C200.706 461.262 200.779 461.271 200.852 461.289C201.18 461.362 201.344 461.599 201.344 462H191.883V461.289L195.629 461.043V449.203L191.363 451.938L190.871 451.145L196.367 447.508Z" fill="#161616"/>
<path d="M324 164C324 164.552 324.448 165 325 165L334 165C334.552 165 335 164.552 335 164C335 163.448 334.552 163 334 163L326 163L326 155C326 154.448 325.552 154 325 154C324.448 154 324 154.448 324 155L324 164ZM361.293 126.293L324.293 163.293L325.707 164.707L362.707 127.707L361.293 126.293Z" fill="#8054C4"/>
<path d="M453 164C453 164.552 452.552 165 452 165L443 165C442.448 165 442 164.552 442 164C442 163.448 442.448 163 443 163L451 163L451 155C451 154.448 451.448 154 452 154C452.552 154 453 154.448 453 155L453 164ZM415.707 126.293L452.707 163.293L451.293 164.707L414.293 127.707L415.707 126.293Z" fill="#8054C4"/>
<path d="M384 288C384 288.552 383.552 289 383 289L374 289C373.448 289 373 288.552 373 288C373 287.448 373.448 287 374 287L382 287L382 279C382 278.448 382.448 278 383 278C383.552 278 384 278.448 384 279L384 288ZM346.707 250.293L383.707 287.293L382.293 288.707L345.293 251.707L346.707 250.293Z" fill="#8054C4"/>
<path d="M315 412C315 412.552 314.552 413 314 413L305 413C304.448 413 304 412.552 304 412C304 411.448 304.448 411 305 411L313 411L313 403C313 402.448 313.448 402 314 402C314.552 402 315 402.448 315 403L315 412ZM277.707 374.293L314.707 411.293L313.293 412.707L276.293 375.707L277.707 374.293Z" fill="#8054C4"/>
<path d="M255 288C255 288.552 255.448 289 256 289L265 289C265.552 289 266 288.552 266 288C266 287.448 265.552 287 265 287L257 287L257 279C257 278.448 256.552 278 256 278C255.448 278 255 278.448 255 279L255 288ZM292.293 250.293L255.293 287.293L256.707 288.707L293.707 251.707L292.293 250.293Z" fill="#8054C4"/>
<path d="M186 412C186 412.552 186.448 413 187 413L196 413C196.552 413 197 412.552 197 412C197 411.448 196.552 411 196 411L188 411L188 403C188 402.448 187.552 402 187 402C186.448 402 186 402.448 186 403L186 412ZM223.293 374.293L186.293 411.293L187.707 412.707L224.707 375.707L223.293 374.293Z" fill="#8054C4"/>
<path d="M468.5 106.125C468.5 106.583 468.396 107.042 468.188 107.5C467.604 108.708 466.646 109.312 465.312 109.312C464.854 109.312 464.396 109.208 463.938 109C462.729 108.417 462.125 107.458 462.125 106.125C462.125 105.667 462.229 105.208 462.438 104.75C462.979 103.5 463.938 102.875 465.312 102.875C465.771 102.875 466.208 102.979 466.625 103.188C467.875 103.771 468.5 104.75 468.5 106.125ZM481.125 106.125C481.125 106.583 481.021 107.042 480.812 107.5C480.229 108.708 479.271 109.312 477.938 109.312C477.479 109.312 477.021 109.208 476.562 109C475.354 108.417 474.75 107.458 474.75 106.125C474.75 105.667 474.854 105.208 475.062 104.75C475.604 103.5 476.562 102.875 477.938 102.875C478.396 102.875 478.833 102.979 479.25 103.188C480.5 103.771 481.125 104.75 481.125 106.125ZM493.75 106.125C493.75 106.583 493.646 107.042 493.438 107.5C492.854 108.708 491.896 109.312 490.562 109.312C490.104 109.312 489.646 109.208 489.188 109C487.979 108.417 487.375 107.458 487.375 106.125C487.375 105.667 487.479 105.208 487.688 104.75C488.229 103.5 489.188 102.875 490.562 102.875C491.021 102.875 491.458 102.979 491.875 103.188C493.125 103.771 493.75 104.75 493.75 106.125Z" fill="#8054C4"/>
<path d="M539.5 226.125C539.5 226.583 539.396 227.042 539.188 227.5C538.604 228.708 537.646 229.312 536.312 229.312C535.854 229.312 535.396 229.208 534.938 229C533.729 228.417 533.125 227.458 533.125 226.125C533.125 225.667 533.229 225.208 533.438 224.75C533.979 223.5 534.938 222.875 536.312 222.875C536.771 222.875 537.208 222.979 537.625 223.188C538.875 223.771 539.5 224.75 539.5 226.125ZM552.125 226.125C552.125 226.583 552.021 227.042 551.812 227.5C551.229 228.708 550.271 229.312 548.938 229.312C548.479 229.312 548.021 229.208 547.562 229C546.354 228.417 545.75 227.458 545.75 226.125C545.75 225.667 545.854 225.208 546.062 224.75C546.604 223.5 547.562 222.875 548.938 222.875C549.396 222.875 549.833 222.979 550.25 223.188C551.5 223.771 552.125 224.75 552.125 226.125ZM564.75 226.125C564.75 226.583 564.646 227.042 564.438 227.5C563.854 228.708 562.896 229.312 561.562 229.312C561.104 229.312 560.646 229.208 560.188 229C558.979 228.417 558.375 227.458 558.375 226.125C558.375 225.667 558.479 225.208 558.688 224.75C559.229 223.5 560.188 222.875 561.562 222.875C562.021 222.875 562.458 222.979 562.875 223.188C564.125 223.771 564.75 224.75 564.75 226.125Z" fill="#8054C4"/>
<path d="M461.5 344.125C461.5 344.583 461.396 345.042 461.188 345.5C460.604 346.708 459.646 347.312 458.312 347.312C457.854 347.312 457.396 347.208 456.938 347C455.729 346.417 455.125 345.458 455.125 344.125C455.125 343.667 455.229 343.208 455.438 342.75C455.979 341.5 456.938 340.875 458.312 340.875C458.771 340.875 459.208 340.979 459.625 341.188C460.875 341.771 461.5 342.75 461.5 344.125ZM474.125 344.125C474.125 344.583 474.021 345.042 473.812 345.5C473.229 346.708 472.271 347.312 470.938 347.312C470.479 347.312 470.021 347.208 469.562 347C468.354 346.417 467.75 345.458 467.75 344.125C467.75 343.667 467.854 343.208 468.062 342.75C468.604 341.5 469.562 340.875 470.938 340.875C471.396 340.875 471.833 340.979 472.25 341.188C473.5 341.771 474.125 342.75 474.125 344.125ZM486.75 344.125C486.75 344.583 486.646 345.042 486.438 345.5C485.854 346.708 484.896 347.312 483.562 347.312C483.104 347.312 482.646 347.208 482.188 347C480.979 346.417 480.375 345.458 480.375 344.125C480.375 343.667 480.479 343.208 480.688 342.75C481.229 341.5 482.188 340.875 483.562 340.875C484.021 340.875 484.458 340.979 484.875 341.188C486.125 341.771 486.75 342.75 486.75 344.125Z" fill="#8054C4"/>
<path d="M396.5 468.125C396.5 468.583 396.396 469.042 396.188 469.5C395.604 470.708 394.646 471.312 393.312 471.312C392.854 471.312 392.396 471.208 391.938 471C390.729 470.417 390.125 469.458 390.125 468.125C390.125 467.667 390.229 467.208 390.438 466.75C390.979 465.5 391.938 464.875 393.312 464.875C393.771 464.875 394.208 464.979 394.625 465.188C395.875 465.771 396.5 466.75 396.5 468.125ZM409.125 468.125C409.125 468.583 409.021 469.042 408.812 469.5C408.229 470.708 407.271 471.312 405.938 471.312C405.479 471.312 405.021 471.208 404.562 471C403.354 470.417 402.75 469.458 402.75 468.125C402.75 467.667 402.854 467.208 403.062 466.75C403.604 465.5 404.562 464.875 405.938 464.875C406.396 464.875 406.833 464.979 407.25 465.188C408.5 465.771 409.125 466.75 409.125 468.125ZM421.75 468.125C421.75 468.583 421.646 469.042 421.438 469.5C420.854 470.708 419.896 471.312 418.562 471.312C418.104 471.312 417.646 471.208 417.188 471C415.979 470.417 415.375 469.458 415.375 468.125C415.375 467.667 415.479 467.208 415.688 466.75C416.229 465.5 417.188 464.875 418.562 464.875C419.021 464.875 419.458 464.979 419.875 465.188C421.125 465.771 421.75 466.75 421.75 468.125Z" fill="#8054C4"/>
<path d="M21.3555 7.59375V8.30469H19.168V23.2891H20.6445C20.7357 23.2891 20.8268 23.2982 20.918 23.3164C21.2096 23.3711 21.3555 23.599 21.3555 24H14.793V23.2891H16.9805V10.0547L10.6641 24.1367H10.0898L4.10156 11.5312V23.2891H5.57812C5.66927 23.2891 5.76042 23.2982 5.85156 23.3164C6.14323 23.3711 6.28906 23.599 6.28906 24H0.820312V23.2891H3.00781V8.30469H0.820312V7.59375H4.73047L11.0742 20.9648L16.9805 7.59375H21.3555ZM25.5938 18.1758C25.5938 18.9596 25.6576 19.6706 25.7852 20.3086C26.2591 22.4961 27.4167 23.5898 29.2578 23.5898C29.6042 23.5898 29.9414 23.5443 30.2695 23.4531C31.9466 22.9245 32.7852 21.1289 32.7852 18.0664C32.7852 17.5378 32.7578 17.0547 32.7031 16.6172C32.375 14.0651 31.1992 12.7891 29.1758 12.7891C28.7383 12.7891 28.319 12.862 27.918 13.0078C26.3685 13.6276 25.5938 15.3503 25.5938 18.1758ZM29.2578 12.1055C30.4609 12.1055 31.5638 12.4245 32.5664 13.0625C34.2617 14.1745 35.1094 15.8789 35.1094 18.1758C35.1094 19.8711 34.5807 21.2839 33.5234 22.4141C32.375 23.6536 30.9258 24.2734 29.1758 24.2734C27.9362 24.2734 26.806 23.9271 25.7852 23.2344C24.1081 22.0859 23.2695 20.3633 23.2695 18.0664C23.2695 16.4076 23.8073 15.0221 24.8828 13.9102C26.0495 12.707 27.5078 12.1055 29.2578 12.1055ZM41.5898 13.0625H39.6758L43.1758 22.3867L46.6484 13.0625H44.5977V12.3789H48.8086C48.8086 12.4701 48.7995 12.5612 48.7812 12.6523C48.7448 12.9258 48.526 13.0625 48.125 13.0625C48.0521 13.0625 47.9701 13.0716 47.8789 13.0898C47.569 13.1445 47.3047 13.4544 47.0859 14.0195L43.2305 24.1367H42.875C42.5469 24.1367 42.2734 24.0911 42.0547 24C41.6172 23.8359 41.2161 23.2435 40.8516 22.2227L37.5156 13.0625H36.2852V12.3789H41.5898V13.0625ZM55.6992 12.7891C55.2253 12.7891 54.7786 12.8984 54.3594 13.1172C53.0833 13.7552 52.3997 15.1224 52.3086 17.2188L55.207 17.3008C56.0456 17.319 56.6927 17.2826 57.1484 17.1914C58.0234 16.9909 58.4609 16.4349 58.4609 15.5234C58.4609 15.1224 58.388 14.7487 58.2422 14.4023C57.8229 13.3268 56.9753 12.7891 55.6992 12.7891ZM60.457 21.375C60.3477 21.6302 60.2201 21.8854 60.0742 22.1406C59.1445 23.5625 57.6953 24.2734 55.7266 24.2734C54.487 24.2734 53.3841 23.9544 52.418 23.3164C50.7956 22.2227 49.9844 20.5456 49.9844 18.2852C49.9844 17.0456 50.2396 15.9336 50.75 14.9492C51.7344 13.0534 53.3659 12.1055 55.6445 12.1055C56.8112 12.1055 57.8411 12.3698 58.7344 12.8984C59.9922 13.6276 60.6211 14.612 60.6211 15.8516C60.6211 16.526 60.375 17.0456 59.8828 17.4102C59.2448 17.8659 57.8138 18.0755 55.5898 18.0391L52.3086 17.9844C52.3268 18.75 52.4089 19.4518 52.5547 20.0898C53.0469 22.3685 54.25 23.5078 56.1641 23.5078C56.3281 23.5078 56.5013 23.4987 56.6836 23.4805C58.1055 23.2982 59.1354 22.5143 59.7734 21.1289L60.457 21.375Z" fill="#8054C4"/>
<path d="M0 25.3945H61.5781V26.7891H0V25.3945Z" fill="#8054C4"/>
<path d="M30.043 70.5078H31.4922V84.043L34.3086 84.2617C34.3815 84.2617 34.4544 84.2708 34.5273 84.2891C34.8555 84.362 35.0195 84.599 35.0195 85H25.5586V84.2891L29.3047 84.043V72.2031L25.0391 74.9375L24.5469 74.1445L30.043 70.5078Z" fill="#8054C4"/>
<path d="M26.1875 205.086H32.3672C32.75 205.086 33.0508 205.068 33.2695 205.031C33.7799 204.904 34.1354 204.521 34.3359 203.883L34.7734 202.406H35.293L35.2383 207H24.8203V206.453C24.8203 205.924 24.9206 205.414 25.1211 204.922C25.4857 204.047 26.3607 203.145 27.7461 202.215C29.2227 201.212 30.043 200.647 30.207 200.52C31.7565 199.28 32.5312 197.812 32.5312 196.117C32.5312 195.789 32.5039 195.479 32.4492 195.188C32.1393 193.693 31.1732 192.945 29.5508 192.945C28.9492 192.945 28.4844 193.082 28.1562 193.355C27.7917 193.665 27.5547 194.312 27.4453 195.297C27.4089 195.661 27.3724 195.935 27.3359 196.117C27.1719 196.846 26.7344 197.211 26.0234 197.211C25.9141 197.211 25.7956 197.193 25.668 197.156C25.1211 196.974 24.8477 196.509 24.8477 195.762C24.8477 194.923 25.1758 194.194 25.832 193.574C26.7982 192.681 28.1198 192.234 29.7969 192.234C30.7266 192.234 31.5651 192.371 32.3125 192.645C34.0078 193.283 34.8555 194.449 34.8555 196.145C34.8555 197.22 34.3906 198.259 33.4609 199.262C32.7135 200.082 31.319 201.103 29.2773 202.324C28.7669 202.652 28.3932 202.889 28.1562 203.035C26.8438 203.874 26.1875 204.557 26.1875 205.086Z" fill="#8054C4"/>
<path d="M35.6758 321.055L29.6055 327.617C30.2617 327.471 30.8815 327.398 31.4648 327.398C32.6862 327.398 33.7253 327.754 34.582 328.465C35.6211 329.34 36.1406 330.497 36.1406 331.938C36.1406 333.031 35.7943 334.034 35.1016 334.945C33.9714 336.44 32.3216 337.188 30.1523 337.188C29.0221 337.188 28.0195 336.987 27.1445 336.586C25.7773 335.93 25.0938 334.991 25.0938 333.77C25.0938 333.642 25.112 333.505 25.1484 333.359C25.2943 332.74 25.6953 332.43 26.3516 332.43C26.6979 332.43 26.9805 332.503 27.1992 332.648C27.5091 332.885 27.7188 333.441 27.8281 334.316C27.8646 334.699 27.9102 334.982 27.9648 335.164C28.1836 336.057 28.7852 336.504 29.7695 336.504C29.9518 336.504 30.1341 336.495 30.3164 336.477C32.668 336.294 33.8438 334.909 33.8438 332.32C33.8438 331.482 33.6888 330.734 33.3789 330.078C32.8138 328.839 31.8932 328.219 30.6172 328.219C29.9792 328.219 29.332 328.355 28.6758 328.629L28.0742 328.137L33.0234 322.422L28.1289 322.395C27.9831 322.413 27.8464 322.431 27.7188 322.449C27.1536 322.54 26.7708 322.887 26.5703 323.488L26.0781 325.02H25.4492L25.5039 320.508H35.6758V321.055Z" fill="#8054C4"/>
<path d="M36.4688 466.914H28.9492V466.176H31.875V462.621L24.4375 462.594L24.2734 461.773C25.8411 460.479 27.1536 459.139 28.2109 457.754C29.3047 456.314 30.2344 454.546 31 452.449C31.2005 451.884 31.3555 451.492 31.4648 451.273C31.793 450.581 32.2487 450.234 32.832 450.234C33.6159 450.253 34.026 450.681 34.0625 451.52C34.0443 453.634 31.1823 457.052 25.4766 461.773L31.875 461.801V458.629H32.0391C32.2214 458.629 32.3763 458.602 32.5039 458.547C32.7773 458.456 32.987 458.109 33.1328 457.508L33.4062 456.469H33.9531V461.828H36.4688V462.648H33.9531V466.176H35.8125C35.9219 466.176 36.0221 466.185 36.1133 466.203C36.3503 466.24 36.4688 466.477 36.4688 466.914Z" fill="#8054C4"/>
</svg>
