<svg width="601" height="299" viewBox="0 0 601 299" fill="none" xmlns="http://www.w3.org/2000/svg">
<path d="M56.3871 134.892V3.54075H85.597V134.892H56.3871ZM137.691 134.892V3.54075H167.087V134.892H137.691ZM73.8758 80.0073V54.7045H147.366V80.0073H73.8758Z" fill="#161616"/>
<path d="M189.686 134.892V44.4718H218.152V134.892H189.686ZM204.012 32.0064C199.547 32.0064 195.826 30.518 192.849 27.5412C189.996 24.4404 188.57 20.7194 188.57 16.3782C188.57 11.913 189.996 8.192 192.849 5.2152C195.826 2.2384 199.547 0.75 204.012 0.75C208.477 0.75 212.136 2.2384 214.989 5.2152C217.842 8.192 219.268 11.913 219.268 16.3782C219.268 20.7194 217.842 24.4404 214.989 27.5412C212.136 30.518 208.477 32.0064 204.012 32.0064Z" fill="#161616"/>
<path d="M238.197 157.218L251.779 131.915L260.151 129.497C259.283 131.357 258.229 132.908 256.988 134.148C255.748 135.264 254.322 135.822 252.709 135.822C249.112 135.822 245.825 134.334 242.849 131.357C239.872 128.38 238.383 124.659 238.383 120.194C238.383 115.357 239.996 111.202 243.221 107.729C246.57 104.256 250.663 102.519 255.5 102.519C260.089 102.519 264.058 104.256 267.407 107.729C270.88 111.078 272.617 115.233 272.617 120.194C272.617 122.179 272.244 124.473 271.5 127.078C270.756 129.683 269.268 133.094 267.035 137.311L251.965 164.846L238.197 157.218Z" fill="#161616"/>
<path d="M328.921 134.892V3.54075H358.131V134.892H328.921Z" fill="#161616"/>
<path d="M378.777 56.379L392.359 30.8901L400.731 28.6575C399.863 30.394 398.808 31.8824 397.568 33.1227C396.328 34.3631 394.901 34.9832 393.289 34.9832C389.692 34.9832 386.405 33.4948 383.428 30.518C380.452 27.5412 378.963 23.7582 378.963 19.169C378.963 14.3317 380.576 10.2386 383.8 6.88965C387.149 3.41672 391.242 1.68025 396.08 1.68025C400.669 1.68025 404.638 3.41672 407.987 6.88965C411.46 10.2386 413.196 14.3317 413.196 19.169C413.196 21.1535 412.824 23.5101 412.08 26.2389C411.336 28.8436 409.847 32.1925 407.615 36.2856L392.545 63.821L378.777 56.379Z" fill="#161616"/>
<path d="M423.157 134.892V44.4718H451.623V134.892H423.157ZM481.019 134.892V82.0539C481.019 77.4647 479.592 73.9297 476.74 71.449C474.011 68.8443 470.6 67.542 466.507 67.542C463.654 67.542 461.112 68.1622 458.879 69.4025C456.646 70.5188 454.848 72.1312 453.483 74.2398C452.243 76.3484 451.623 78.9531 451.623 82.0539L440.646 77.2166C440.646 70.0227 442.196 63.883 445.297 58.7976C448.398 53.5882 452.615 49.6192 457.949 46.8904C463.282 44.0377 469.298 42.6113 475.996 42.6113C482.321 42.6113 487.965 44.0377 492.926 46.8904C498.011 49.7432 502.043 53.7123 505.019 58.7976C507.996 63.883 509.485 69.9606 509.485 77.0305V134.892H481.019ZM538.88 134.892V82.0539C538.88 77.4647 537.454 73.9297 534.601 71.449C531.873 68.8443 528.462 67.542 524.369 67.542C521.516 67.542 518.973 68.1622 516.741 69.4025C514.508 70.5188 512.709 72.1312 511.345 74.2398C510.105 76.3484 509.485 78.9531 509.485 82.0539L493.112 79.8213C493.36 72.1312 495.159 65.5575 498.508 60.1C501.981 54.5185 506.508 50.2393 512.089 47.2625C517.795 44.1617 524.183 42.6113 531.252 42.6113C538.198 42.6113 544.338 44.0997 549.671 47.0765C555.129 49.9292 559.408 54.0844 562.509 59.5418C565.734 64.8753 567.346 71.325 567.346 78.891V134.892H538.88Z" fill="#161616"/>
<path d="M37.5943 298.43C29.2841 298.43 22.0281 296.942 15.8265 293.965C9.74882 290.864 4.53941 286.585 0.198242 281.128L19.7335 262.336C21.9661 265.437 24.5708 267.794 27.5476 269.406C30.6484 271.019 34.1214 271.825 37.9664 271.825C41.6874 271.825 44.9123 271.081 47.641 269.592C50.3698 267.98 52.5403 265.747 54.1528 262.895C55.7652 259.918 56.5714 256.259 56.5714 251.918V165.032H85.9674V250.243C85.9674 260.042 83.9828 268.538 80.0137 275.732C76.0447 282.926 70.4632 288.508 63.2692 292.477C56.0753 296.446 47.517 298.43 37.5943 298.43Z" fill="#161616"/>
<path d="M150.197 298.43C140.894 298.43 132.46 296.384 124.894 292.291C117.452 288.073 111.56 282.368 107.219 275.174C102.878 267.98 100.707 259.918 100.707 250.987C100.707 242.057 102.878 234.057 107.219 226.987C111.56 219.917 117.452 214.336 124.894 210.242C132.336 206.025 140.77 203.917 150.197 203.917C159.623 203.917 168.058 205.963 175.5 210.056C182.942 214.149 188.833 219.793 193.174 226.987C197.516 234.057 199.686 242.057 199.686 250.987C199.686 259.918 197.516 267.98 193.174 275.174C188.833 282.368 182.942 288.073 175.5 292.291C168.058 296.384 159.623 298.43 150.197 298.43ZM150.197 272.569C154.29 272.569 157.887 271.701 160.988 269.965C164.089 268.104 166.445 265.561 168.058 262.336C169.794 258.988 170.662 255.205 170.662 250.987C170.662 246.77 169.794 243.111 168.058 240.01C166.321 236.786 163.902 234.305 160.802 232.568C157.825 230.708 154.29 229.778 150.197 229.778C146.228 229.778 142.693 230.708 139.592 232.568C136.491 234.305 134.072 236.786 132.336 240.01C130.6 243.235 129.731 246.956 129.731 251.173C129.731 255.267 130.6 258.988 132.336 262.336C134.072 265.561 136.491 268.104 139.592 269.965C142.693 271.701 146.228 272.569 150.197 272.569Z" fill="#161616"/>
<path d="M213.858 296.384V205.963H242.324V296.384H213.858ZM242.324 246.708L230.416 237.406C232.773 226.863 236.742 218.677 242.324 212.847C247.905 207.018 255.657 204.103 265.58 204.103C269.921 204.103 273.704 204.785 276.929 206.149C280.278 207.39 283.193 209.374 285.673 212.103L268.743 233.499C267.502 232.134 265.952 231.08 264.091 230.336C262.231 229.592 260.122 229.22 257.766 229.22C253.052 229.22 249.269 230.708 246.417 233.685C243.688 236.538 242.324 240.879 242.324 246.708Z" fill="#161616"/>
<path d="M329.225 298.244C320.667 298.244 313.039 296.198 306.341 292.104C299.767 288.011 294.558 282.43 290.713 275.36C286.992 268.29 285.131 260.228 285.131 251.173C285.131 242.119 286.992 234.057 290.713 226.987C294.558 219.917 299.767 214.336 306.341 210.242C313.039 206.149 320.667 204.103 329.225 204.103C335.427 204.103 341.008 205.281 345.969 207.638C351.055 209.994 355.21 213.281 358.435 217.498C361.784 221.591 363.644 226.305 364.016 231.638V269.778C363.644 275.112 361.846 279.949 358.621 284.29C355.396 288.508 351.241 291.918 346.156 294.523C341.07 297.004 335.427 298.244 329.225 298.244ZM334.248 272.569C338.341 272.569 341.876 271.701 344.853 269.965C347.83 268.104 350.187 265.561 351.923 262.336C353.66 259.112 354.528 255.391 354.528 251.173C354.528 246.956 353.66 243.297 351.923 240.197C350.311 236.972 347.954 234.429 344.853 232.568C341.876 230.708 338.403 229.778 334.434 229.778C330.465 229.778 326.93 230.708 323.83 232.568C320.853 234.429 318.434 236.972 316.574 240.197C314.837 243.421 313.969 247.08 313.969 251.173C313.969 255.267 314.837 258.926 316.574 262.15C318.31 265.375 320.729 267.918 323.83 269.778C326.93 271.639 330.403 272.569 334.248 272.569ZM381.319 296.384H353.411V272.011L357.691 250.057L352.853 228.103V161.311H381.319V296.384Z" fill="#161616"/>
<path d="M439.13 298.244C430.819 298.244 423.377 296.198 416.804 292.104C410.354 288.011 405.207 282.43 401.362 275.36C397.641 268.29 395.78 260.228 395.78 251.173C395.78 242.119 397.641 234.057 401.362 226.987C405.207 219.917 410.354 214.336 416.804 210.242C423.377 206.149 430.819 204.103 439.13 204.103C445.207 204.103 450.665 205.281 455.502 207.638C460.463 209.994 464.495 213.281 467.595 217.498C470.696 221.591 472.433 226.305 472.805 231.638V270.709C472.433 276.042 470.696 280.817 467.595 285.035C464.619 289.128 460.65 292.353 455.688 294.709C450.727 297.066 445.207 298.244 439.13 298.244ZM444.897 272.569C450.975 272.569 455.874 270.585 459.595 266.616C463.316 262.523 465.177 257.375 465.177 251.173C465.177 246.956 464.308 243.235 462.572 240.01C460.96 236.786 458.603 234.305 455.502 232.568C452.525 230.708 449.052 229.778 445.083 229.778C441.114 229.778 437.579 230.708 434.478 232.568C431.502 234.305 429.083 236.786 427.223 240.01C425.486 243.235 424.618 246.956 424.618 251.173C424.618 255.267 425.486 258.926 427.223 262.15C428.959 265.375 431.378 267.918 434.478 269.778C437.579 271.639 441.052 272.569 444.897 272.569ZM464.06 296.384V272.011L468.34 250.057L464.06 228.103V205.963H491.968V296.384H464.06Z" fill="#161616"/>
<path d="M571.733 296.384V244.848C571.733 240.134 570.244 236.351 567.267 233.499C564.415 230.522 560.756 229.033 556.29 229.033C553.19 229.033 550.461 229.716 548.104 231.08C545.748 232.32 543.887 234.181 542.523 236.662C541.158 239.018 540.476 241.747 540.476 244.848L529.499 239.452C529.499 232.382 531.05 226.181 534.15 220.847C537.251 215.514 541.53 211.421 546.988 208.568C552.569 205.591 558.833 204.103 565.779 204.103C572.477 204.103 578.368 205.715 583.454 208.94C588.663 212.041 592.756 216.196 595.733 221.405C598.71 226.615 600.198 232.32 600.198 238.522V296.384H571.733ZM512.01 296.384V205.963H540.476V296.384H512.01Z" fill="#161616"/>
</svg>
