<svg width="2" height="2" viewBox="0 0 2 2" fill="none" xmlns="http://www.w3.org/2000/svg">
<path d="M1.50391 0.975913V0.826948H1.5508V0.975913H1.50391ZM1.59923 0.975913V0.888863C1.59923 0.881303 1.59688 0.875479 1.59218 0.871392C1.58769 0.867101 1.58207 0.864956 1.57532 0.864956C1.57062 0.864956 1.56643 0.865977 1.56276 0.868021C1.55908 0.86986 1.55612 0.872516 1.55387 0.87599C1.55182 0.879464 1.5508 0.883755 1.5508 0.888863L1.53272 0.880894C1.53272 0.869042 1.53527 0.858927 1.54038 0.85055C1.54549 0.841967 1.55244 0.835428 1.56122 0.830933C1.57001 0.826233 1.57992 0.823883 1.59096 0.823883C1.60138 0.823883 1.61067 0.826233 1.61885 0.830933C1.62723 0.835633 1.63387 0.842172 1.63877 0.85055C1.64368 0.858927 1.64613 0.86894 1.64613 0.880588V0.975913H1.59923ZM1.69456 0.975913V0.888863C1.69456 0.881303 1.69221 0.875479 1.68751 0.871392C1.68301 0.867101 1.67739 0.864956 1.67065 0.864956C1.66595 0.864956 1.66176 0.865977 1.65808 0.868021C1.6544 0.86986 1.65144 0.872516 1.64919 0.87599C1.64715 0.879464 1.64613 0.883755 1.64613 0.888863L1.61915 0.885185C1.61956 0.872516 1.62253 0.861686 1.62804 0.852695C1.63376 0.8435 1.64122 0.83645 1.65042 0.831546C1.65982 0.826437 1.67034 0.823883 1.68199 0.823883C1.69343 0.823883 1.70355 0.826335 1.71233 0.831239C1.72132 0.835939 1.72837 0.842785 1.73348 0.851776C1.7388 0.860562 1.74145 0.871188 1.74145 0.883653V0.975913H1.69456Z" fill="black"/>
<path d="M1.43066 0.846553L1.45304 0.804561L1.46683 0.800883C1.4654 0.803744 1.46367 0.806196 1.46162 0.80824C1.45958 0.810283 1.45723 0.811305 1.45457 0.811305C1.44865 0.811305 1.44323 0.808853 1.43833 0.803948C1.43342 0.799044 1.43097 0.792812 1.43097 0.785251C1.43097 0.777282 1.43363 0.770539 1.43894 0.765022C1.44446 0.7593 1.4512 0.756439 1.45917 0.756439C1.46673 0.756439 1.47327 0.7593 1.47879 0.765022C1.48451 0.770539 1.48737 0.777282 1.48737 0.785251C1.48737 0.788521 1.48676 0.792403 1.48553 0.796899C1.4843 0.80119 1.48185 0.806707 1.47817 0.81345L1.45335 0.858814L1.43066 0.846553Z" fill="black"/>
<path d="M1.34863 0.975903V0.759506H1.39676V0.975903H1.34863Z" fill="black"/>
<path d="M1.19922 1.01269L1.22159 0.971006L1.23539 0.967021C1.23396 0.970086 1.23222 0.97264 1.23018 0.974684C1.22813 0.976523 1.22578 0.977442 1.22313 0.977442C1.2172 0.977442 1.21179 0.97499 1.20688 0.970086C1.20198 0.965182 1.19953 0.959052 1.19953 0.951695C1.19953 0.943726 1.20218 0.936881 1.20749 0.931159C1.21301 0.925438 1.21975 0.922577 1.22772 0.922577C1.23528 0.922577 1.24182 0.925438 1.24734 0.931159C1.25306 0.936676 1.25592 0.943522 1.25592 0.951695C1.25592 0.954965 1.25531 0.958745 1.25408 0.963036C1.25286 0.967328 1.25041 0.972947 1.24673 0.979894L1.2219 1.02526L1.19922 1.01269Z" fill="black"/>
<path d="M1.11903 0.975908V0.826943H1.16592V0.975908H1.11903ZM1.14263 0.806407C1.13527 0.806407 1.12914 0.803955 1.12424 0.799051C1.11954 0.793942 1.11719 0.787812 1.11719 0.78066C1.11719 0.773304 1.11954 0.767174 1.12424 0.76227C1.12914 0.757365 1.13527 0.754913 1.14263 0.754913C1.14998 0.754913 1.15601 0.757365 1.16071 0.76227C1.16541 0.767174 1.16776 0.773304 1.16776 0.78066C1.16776 0.787812 1.16541 0.793942 1.16071 0.799051C1.15601 0.803955 1.14998 0.806407 1.14263 0.806407Z" fill="black"/>
<path d="M0.899414 0.975903V0.759506H0.947536V0.975903H0.899414ZM1.03336 0.975903V0.759506H1.08179V0.975903H1.03336ZM0.928226 0.885482V0.843797H1.0493V0.885482H0.928226Z" fill="black"/>
<path fill-rule="evenodd" clip-rule="evenodd" d="M1.50393 0.975903H1.55082V0.888854C1.55082 0.887021 1.55096 0.885292 1.55122 0.883669C1.55169 0.88077 1.55258 0.878208 1.55389 0.875981C1.55446 0.875104 1.55507 0.874279 1.55573 0.873506C1.55768 0.871218 1.56003 0.869386 1.56278 0.868012C1.56646 0.865968 1.57064 0.864946 1.57534 0.864946C1.58209 0.864946 1.58771 0.867092 1.5922 0.871383C1.5969 0.87547 1.59925 0.881294 1.59925 0.888854V0.975903H1.64615V0.888854C1.64615 0.887127 1.64627 0.885493 1.6465 0.883952C1.64668 0.882773 1.64693 0.881648 1.64724 0.880578C1.64773 0.878913 1.64839 0.877381 1.64921 0.875981C1.6497 0.875226 1.65022 0.87451 1.65078 0.873832C1.65278 0.871391 1.65522 0.869451 1.6581 0.868012C1.66178 0.865968 1.66597 0.864946 1.67067 0.864946C1.67741 0.864946 1.68303 0.867092 1.68753 0.871383C1.69223 0.87547 1.69458 0.881294 1.69458 0.888854V0.975903H1.74147V0.883644C1.74147 0.871179 1.73882 0.860553 1.7335 0.851766C1.7284 0.842775 1.72135 0.83593 1.71236 0.83123C1.70357 0.826326 1.69345 0.823874 1.68201 0.823874C1.67036 0.823874 1.65984 0.826428 1.65044 0.831537C1.64581 0.834008 1.64161 0.837024 1.63786 0.840584C1.63667 0.841714 1.63553 0.842899 1.63443 0.844138C1.6334 0.842839 1.63232 0.841597 1.63118 0.840413C1.62761 0.836687 1.6235 0.833524 1.61887 0.830924C1.6107 0.826224 1.6014 0.823874 1.59098 0.823874C1.57994 0.823874 1.57003 0.826224 1.56125 0.830924C1.55932 0.83191 1.55748 0.832994 1.55573 0.834177C1.55401 0.83534 1.55237 0.836597 1.55082 0.837949V0.826939H1.50393V0.975903ZM1.55573 0.828372V0.822035H1.49902V0.980808H1.55573V0.888854C1.55573 0.884441 1.5566 0.881089 1.55806 0.878555C1.55983 0.875857 1.56211 0.873827 1.56497 0.872398L1.56507 0.87235L1.56516 0.872299C1.56803 0.870706 1.57138 0.869851 1.57534 0.869851C1.58094 0.869851 1.58531 0.871588 1.58882 0.874931L1.5889 0.875009L1.58898 0.875084C1.59239 0.878042 1.59435 0.882382 1.59435 0.888854V0.980808H1.65105V0.888854C1.65105 0.884441 1.65192 0.881089 1.65339 0.878555C1.65516 0.875857 1.65744 0.873827 1.6603 0.872398L1.66039 0.87235L1.66048 0.872299C1.66335 0.870706 1.6667 0.869851 1.67067 0.869851C1.67627 0.869851 1.68064 0.871588 1.68414 0.874931L1.68422 0.875009L1.68431 0.875084C1.68771 0.878042 1.68967 0.882382 1.68967 0.888854V0.980808H1.74638V0.883644C1.74638 0.870502 1.74358 0.858976 1.73774 0.849287C1.73219 0.839541 1.72448 0.832049 1.71469 0.826915C1.70509 0.821572 1.69415 0.81897 1.68201 0.81897C1.66963 0.81897 1.65829 0.821691 1.64811 0.827219C1.64314 0.829873 1.63864 0.833107 1.63461 0.836908C1.63074 0.83289 1.6263 0.82947 1.62129 0.826659C1.6123 0.821496 1.60215 0.81897 1.59098 0.81897C1.57924 0.81897 1.56853 0.821472 1.55897 0.826578C1.55786 0.827146 1.55678 0.827744 1.55573 0.828372Z" fill="black"/>
<path fill-rule="evenodd" clip-rule="evenodd" d="M1.42383 0.84854L1.44259 0.813325C1.43977 0.811868 1.43711 0.809877 1.43464 0.807407C1.42873 0.801496 1.42585 0.793974 1.42585 0.785242C1.42585 0.776061 1.42896 0.768082 1.43519 0.761611L1.43519 0.761608C1.44164 0.754925 1.44966 0.751526 1.45895 0.751526C1.46789 0.751526 1.47566 0.754961 1.48204 0.761544C1.48868 0.767978 1.49206 0.775975 1.49206 0.785242C1.49206 0.789089 1.49134 0.793426 1.49005 0.79818L1.49004 0.798208L1.49003 0.798237C1.48866 0.803037 1.48601 0.808921 1.48226 0.815789L1.48226 0.815796L1.45509 0.865439L1.42383 0.84854ZM1.47857 0.765012C1.47305 0.759291 1.46651 0.75643 1.45895 0.75643C1.45098 0.75643 1.44424 0.759291 1.43872 0.765012C1.43341 0.77053 1.43076 0.777273 1.43076 0.785242C1.43076 0.792803 1.43321 0.799035 1.43811 0.803939C1.44027 0.806102 1.44254 0.807788 1.4449 0.808997C1.4464 0.809768 1.44795 0.810344 1.44953 0.810727L1.43045 0.846544L1.45313 0.858805L1.45313 0.858799L1.47796 0.813441C1.48164 0.806698 1.48409 0.801181 1.48531 0.79689C1.48654 0.792394 1.48715 0.788512 1.48715 0.785242C1.48715 0.777273 1.48429 0.77053 1.47857 0.765012Z" fill="black"/>
<path fill-rule="evenodd" clip-rule="evenodd" d="M1.34375 0.980798V0.754593H1.40168V0.980798H1.34375ZM1.34865 0.975894H1.39678V0.759497H1.34865V0.975894Z" fill="black"/>
<path fill-rule="evenodd" clip-rule="evenodd" d="M1.19899 1.01268L1.22167 1.02525L1.2465 0.979885C1.25018 0.972938 1.25263 0.967318 1.25386 0.963027C1.25508 0.958736 1.2557 0.954956 1.2557 0.951686C1.2557 0.943513 1.25284 0.936667 1.24711 0.93115C1.2416 0.925429 1.23506 0.922568 1.2275 0.922568C1.21953 0.922568 1.21279 0.925429 1.20727 0.93115C1.20196 0.936872 1.1993 0.943717 1.1993 0.951686C1.1993 0.959043 1.20175 0.965173 1.20666 0.970077C1.20885 0.972273 1.21115 0.973977 1.21355 0.97519C1.21506 0.975953 1.21661 0.976521 1.2182 0.976895L1.19899 1.01268ZM1.21123 0.979512L1.19238 1.01463L1.22361 1.03193L1.25082 0.98221L1.25084 0.98218C1.25457 0.975121 1.25721 0.969151 1.25857 0.964374C1.25988 0.959793 1.2606 0.955543 1.2606 0.951686C1.2606 0.942254 1.25725 0.934143 1.25058 0.927682C1.24421 0.921099 1.23644 0.917664 1.2275 0.917664C1.2182 0.917664 1.21018 0.921063 1.20374 0.927746L1.20371 0.927779L1.20367 0.927813C1.1975 0.934462 1.19439 0.942508 1.19439 0.951686C1.19439 0.960256 1.1973 0.967661 1.20319 0.973545C1.20569 0.976043 1.20837 0.97805 1.21123 0.979512Z" fill="black"/>
<path fill-rule="evenodd" clip-rule="evenodd" d="M1.11414 0.980803V0.82203H1.17085V0.980803H1.11414ZM1.12072 0.802437L1.12065 0.802362C1.11509 0.796319 1.1123 0.788992 1.1123 0.780651C1.1123 0.772145 1.11507 0.764764 1.12072 0.758867L1.12075 0.75883L1.12079 0.758793C1.12667 0.752909 1.13408 0.75 1.14265 0.75C1.15122 0.75 1.15857 0.752912 1.16427 0.758867C1.16993 0.764764 1.17269 0.772145 1.17269 0.780651C1.17269 0.788992 1.1699 0.796319 1.16434 0.802362L1.16431 0.802399L1.16427 0.802435C1.15857 0.80839 1.15122 0.811302 1.14265 0.811302C1.13408 0.811302 1.12667 0.808394 1.12079 0.80251L1.12072 0.802437ZM1.11905 0.975899H1.16594V0.826934H1.11905V0.975899ZM1.12426 0.799042C1.12916 0.803946 1.13529 0.806398 1.14265 0.806398C1.15001 0.806398 1.15603 0.803946 1.16073 0.799042C1.16543 0.793933 1.16778 0.787803 1.16778 0.780651C1.16778 0.773295 1.16543 0.767165 1.16073 0.76226C1.15603 0.757356 1.15001 0.754904 1.14265 0.754904C1.13529 0.754904 1.12916 0.757356 1.12426 0.76226C1.11956 0.767165 1.11721 0.773295 1.11721 0.780651C1.11721 0.787803 1.11956 0.793933 1.12426 0.799042Z" fill="black"/>
<path fill-rule="evenodd" clip-rule="evenodd" d="M0.894531 0.980798V0.754593H0.952462V0.838883H1.02848V0.754593H1.08671V0.980798H1.02848V0.890377H0.952462V0.980798H0.894531ZM0.947558 0.885473H1.03338V0.975894H1.08181V0.759497H1.03338V0.843788H0.947558V0.759497H0.899435V0.975894H0.947558V0.885473Z" fill="black"/>
<path d="M1.74878 1.24195V1.15705C1.74878 1.14928 1.74633 1.14305 1.74142 1.13835C1.73672 1.13344 1.7307 1.13099 1.72334 1.13099C1.71823 1.13099 1.71374 1.13212 1.70985 1.13436C1.70597 1.13641 1.70291 1.13947 1.70066 1.14356C1.69841 1.14744 1.69729 1.15194 1.69729 1.15705L1.6792 1.14816C1.6792 1.13651 1.68176 1.12629 1.68687 1.11751C1.69197 1.10872 1.69902 1.10198 1.70801 1.09728C1.71721 1.09237 1.72753 1.08992 1.73897 1.08992C1.75001 1.08992 1.75971 1.09258 1.76809 1.09789C1.77667 1.103 1.78342 1.10984 1.78832 1.11843C1.79322 1.12701 1.79568 1.13641 1.79568 1.14662V1.24195H1.74878ZM1.65039 1.24195V1.09299H1.69729V1.24195H1.65039Z" fill="black"/>
<path d="M1.5304 1.24501C1.51671 1.24501 1.50445 1.24164 1.49362 1.2349C1.48299 1.22816 1.47451 1.21896 1.46818 1.20731C1.46205 1.19567 1.45898 1.18238 1.45898 1.16747C1.45898 1.15255 1.46205 1.13927 1.46818 1.12762C1.47451 1.11597 1.48299 1.10678 1.49362 1.10003C1.50445 1.09329 1.51671 1.08992 1.5304 1.08992C1.54041 1.08992 1.54941 1.09186 1.55737 1.09574C1.56555 1.09963 1.57219 1.10504 1.5773 1.11199C1.58241 1.11873 1.58527 1.1265 1.58588 1.13528V1.19965C1.58527 1.20844 1.58241 1.2163 1.5773 1.22325C1.57239 1.23 1.56585 1.23531 1.55768 1.23919C1.54951 1.24307 1.54041 1.24501 1.5304 1.24501ZM1.5399 1.20272C1.54992 1.20272 1.55799 1.19945 1.56412 1.19291C1.57025 1.18616 1.57331 1.17768 1.57331 1.16747C1.57331 1.16052 1.57188 1.15439 1.56902 1.14908C1.56637 1.14376 1.56248 1.13968 1.55737 1.13682C1.55247 1.13375 1.54675 1.13222 1.54021 1.13222C1.53367 1.13222 1.52785 1.13375 1.52274 1.13682C1.51783 1.13968 1.51385 1.14376 1.51078 1.14908C1.50792 1.15439 1.50649 1.16052 1.50649 1.16747C1.50649 1.17421 1.50792 1.18024 1.51078 1.18555C1.51365 1.19086 1.51763 1.19505 1.52274 1.19812C1.52785 1.20118 1.53357 1.20272 1.5399 1.20272ZM1.57147 1.24195V1.2018L1.57852 1.16563L1.57147 1.12946V1.09299H1.61745V1.24195H1.57147Z" fill="black"/>
<path d="M1.34901 1.24502C1.33491 1.24502 1.32234 1.24165 1.31131 1.2349C1.30048 1.22816 1.2919 1.21896 1.28556 1.20732C1.27943 1.19567 1.27637 1.18239 1.27637 1.16747C1.27637 1.15255 1.27943 1.13927 1.28556 1.12762C1.2919 1.11598 1.30048 1.10678 1.31131 1.10004C1.32234 1.09329 1.33491 1.08992 1.34901 1.08992C1.35923 1.08992 1.36842 1.09186 1.3766 1.09575C1.38497 1.09963 1.39182 1.10504 1.39713 1.11199C1.40265 1.11873 1.40571 1.1265 1.40633 1.13529V1.19812C1.40571 1.20691 1.40275 1.21488 1.39744 1.22203C1.39213 1.22898 1.38528 1.2346 1.3769 1.23889C1.36852 1.24297 1.35923 1.24502 1.34901 1.24502ZM1.35729 1.20272C1.36403 1.20272 1.36985 1.20129 1.37476 1.19843C1.37966 1.19536 1.38354 1.19117 1.3864 1.18586C1.38927 1.18055 1.3907 1.17442 1.3907 1.16747C1.3907 1.16052 1.38927 1.15449 1.3864 1.14939C1.38375 1.14407 1.37987 1.13988 1.37476 1.13682C1.36985 1.13375 1.36413 1.13222 1.35759 1.13222C1.35105 1.13222 1.34523 1.13375 1.34012 1.13682C1.33522 1.13988 1.33123 1.14407 1.32817 1.14939C1.32531 1.1547 1.32388 1.16073 1.32388 1.16747C1.32388 1.17421 1.32531 1.18024 1.32817 1.18555C1.33103 1.19087 1.33501 1.19506 1.34012 1.19812C1.34523 1.20119 1.35095 1.20272 1.35729 1.20272ZM1.43483 1.24195H1.38886V1.2018L1.39591 1.16563L1.38794 1.12946V1.01942H1.43483V1.24195Z" fill="black"/>
<path d="M1.15918 1.24195V1.09299H1.20608V1.24195H1.15918ZM1.20608 1.16011L1.18646 1.14479C1.19034 1.12742 1.19688 1.11393 1.20608 1.10433C1.21527 1.09472 1.22804 1.08992 1.24439 1.08992C1.25154 1.08992 1.25777 1.09104 1.26309 1.09329C1.2686 1.09534 1.27341 1.0986 1.27749 1.1031L1.2496 1.13835C1.24756 1.1361 1.245 1.13436 1.24194 1.13314C1.23887 1.13191 1.2354 1.1313 1.23152 1.1313C1.22375 1.1313 1.21752 1.13375 1.21282 1.13866C1.20832 1.14336 1.20608 1.15051 1.20608 1.16011Z" fill="black"/>
<path d="M1.05419 1.24532C1.03886 1.24532 1.02497 1.24195 1.0125 1.23521C1.00024 1.22826 0.990536 1.21886 0.983384 1.20701C0.976232 1.19516 0.972656 1.18187 0.972656 1.16716C0.972656 1.15245 0.976232 1.13927 0.983384 1.12762C0.990536 1.11597 1.00024 1.10678 1.0125 1.10004C1.02476 1.09309 1.03866 1.08961 1.05419 1.08961C1.06972 1.08961 1.08361 1.09299 1.09587 1.09973C1.10813 1.10647 1.11784 1.11577 1.12499 1.12762C1.13214 1.13927 1.13572 1.15245 1.13572 1.16716C1.13572 1.18187 1.13214 1.19516 1.12499 1.20701C1.11784 1.21886 1.10813 1.22826 1.09587 1.23521C1.08361 1.24195 1.06972 1.24532 1.05419 1.24532ZM1.05419 1.20272C1.06093 1.20272 1.06686 1.20129 1.07197 1.19843C1.07707 1.19536 1.08096 1.19117 1.08361 1.18586C1.08647 1.18034 1.0879 1.17411 1.0879 1.16716C1.0879 1.16021 1.08647 1.15419 1.08361 1.14908C1.08075 1.14377 1.07677 1.13968 1.07166 1.13682C1.06676 1.13375 1.06093 1.13222 1.05419 1.13222C1.04765 1.13222 1.04183 1.13375 1.03672 1.13682C1.03161 1.13968 1.02762 1.14377 1.02476 1.14908C1.0219 1.15439 1.02047 1.16052 1.02047 1.16747C1.02047 1.17421 1.0219 1.18034 1.02476 1.18586C1.02762 1.19117 1.03161 1.19536 1.03672 1.19843C1.04183 1.20129 1.04765 1.20272 1.05419 1.20272Z" fill="black"/>
<path d="M0.869226 1.24533C0.855535 1.24533 0.843581 1.24287 0.833364 1.23797C0.823351 1.23286 0.814769 1.22581 0.807617 1.21682L0.839801 1.18586C0.843479 1.19097 0.84777 1.19485 0.852674 1.19751C0.857783 1.20017 0.863504 1.2015 0.869839 1.2015C0.875969 1.2015 0.881282 1.20027 0.885778 1.19782C0.890273 1.19516 0.893849 1.19148 0.896505 1.18678C0.899162 1.18188 0.90049 1.17585 0.90049 1.1687V1.02556H0.948919V1.16594C0.948919 1.18208 0.945649 1.19608 0.93911 1.20793C0.932572 1.21978 0.923376 1.22898 0.911524 1.23552C0.899673 1.24206 0.885573 1.24533 0.869226 1.24533Z" fill="black"/>
<path fill-rule="evenodd" clip-rule="evenodd" d="M1.7488 1.15705V1.24196H1.7957V1.14663C1.7957 1.13641 1.79325 1.12701 1.78834 1.11843C1.78344 1.10985 1.77669 1.103 1.76811 1.0979C1.75973 1.09258 1.75003 1.08993 1.73899 1.08993C1.72755 1.08993 1.71723 1.09238 1.70804 1.09728C1.70599 1.09835 1.70405 1.09952 1.70221 1.1008C1.70049 1.10199 1.69886 1.10328 1.69731 1.10466V1.09299H1.65041V1.24196H1.69731V1.15705C1.69731 1.15522 1.69745 1.15347 1.69774 1.1518C1.69826 1.1488 1.69924 1.14606 1.70068 1.14357C1.70115 1.1427 1.70167 1.14189 1.70221 1.14111C1.70426 1.13823 1.70681 1.13598 1.70988 1.13437C1.71376 1.13212 1.71825 1.131 1.72336 1.131C1.73072 1.131 1.73675 1.13345 1.74145 1.13835C1.74635 1.14305 1.7488 1.14929 1.7488 1.15705ZM1.70221 1.15705V1.24686H1.64551V1.08809H1.70221V1.09495C1.70336 1.09425 1.70454 1.09358 1.70575 1.09294C1.71572 1.08763 1.72683 1.08502 1.73899 1.08502C1.75082 1.08502 1.76144 1.08788 1.77068 1.09372C1.77995 1.09925 1.78728 1.10669 1.7926 1.116C1.79794 1.12535 1.8006 1.13559 1.8006 1.14663V1.24686H1.7439V1.15705C1.7439 1.15041 1.74185 1.14554 1.73805 1.1419L1.73798 1.14182L1.73791 1.14175C1.73421 1.13789 1.7295 1.1359 1.72336 1.1359C1.71899 1.1359 1.71537 1.13686 1.71233 1.13861L1.71225 1.13866L1.71216 1.13871C1.70918 1.14028 1.70679 1.14263 1.70498 1.14593L1.70495 1.14598L1.70492 1.14602C1.70317 1.14906 1.70221 1.15268 1.70221 1.15705Z" fill="black"/>
<path fill-rule="evenodd" clip-rule="evenodd" d="M1.49364 1.23491C1.50447 1.24165 1.51673 1.24502 1.53042 1.24502C1.54044 1.24502 1.54953 1.24308 1.5577 1.2392C1.56092 1.23767 1.56388 1.23592 1.56659 1.23395C1.56833 1.23269 1.56996 1.23133 1.5715 1.22988V1.24196H1.61747V1.09299H1.5715V1.10536C1.56996 1.10389 1.56832 1.10251 1.56659 1.10123C1.56378 1.09915 1.56071 1.09733 1.5574 1.09575C1.54943 1.09187 1.54044 1.08993 1.53042 1.08993C1.51673 1.08993 1.50447 1.0933 1.49364 1.10004C1.48302 1.10678 1.47454 1.11598 1.4682 1.12763C1.46207 1.13927 1.45901 1.15256 1.45901 1.16747C1.45901 1.18239 1.46207 1.19567 1.4682 1.20732C1.47454 1.21897 1.48302 1.22816 1.49364 1.23491ZM1.57139 1.15455C1.57076 1.15264 1.56998 1.15082 1.56904 1.14908C1.56639 1.14377 1.5625 1.13968 1.5574 1.13682C1.55249 1.13376 1.54677 1.13222 1.54023 1.13222C1.53369 1.13222 1.52787 1.13376 1.52276 1.13682C1.51786 1.13968 1.51387 1.14377 1.51081 1.14908C1.50795 1.1544 1.50651 1.16053 1.50651 1.16747C1.50651 1.17422 1.50795 1.18024 1.51081 1.18556C1.51367 1.19087 1.51765 1.19506 1.52276 1.19812C1.52787 1.20119 1.53359 1.20272 1.53992 1.20272C1.54994 1.20272 1.55801 1.19945 1.56414 1.19291C1.56654 1.19027 1.56847 1.18736 1.56993 1.18419C1.5722 1.17926 1.57333 1.17369 1.57333 1.16747C1.57333 1.16723 1.57333 1.167 1.57333 1.16676C1.57332 1.16577 1.57327 1.16479 1.5732 1.16384C1.57295 1.16054 1.57234 1.15744 1.57139 1.15455ZM1.56054 1.18959C1.56573 1.18386 1.56843 1.17662 1.56843 1.16747C1.56843 1.16121 1.56715 1.1559 1.56473 1.15141L1.56469 1.15134L1.56466 1.15128C1.56243 1.14683 1.55924 1.14347 1.555 1.1411L1.5549 1.14104L1.5548 1.14098C1.55077 1.13846 1.54597 1.13713 1.54023 1.13713C1.53449 1.13713 1.52956 1.13846 1.52528 1.14103L1.52526 1.14104L1.52523 1.14106C1.52114 1.14344 1.51776 1.14687 1.51509 1.15147C1.51269 1.15595 1.51142 1.16124 1.51142 1.16747C1.51142 1.1735 1.51269 1.17872 1.51512 1.18323C1.51757 1.18778 1.52094 1.19131 1.52528 1.19392C1.52958 1.1965 1.53442 1.19782 1.53992 1.19782C1.54874 1.19782 1.55545 1.195 1.56054 1.18959ZM1.55952 1.09133C1.55081 1.08709 1.54107 1.08502 1.53042 1.08502C1.51589 1.08502 1.50271 1.08861 1.49105 1.09588L1.49103 1.09589L1.49101 1.0959C1.47965 1.10311 1.4706 1.11294 1.46389 1.12528L1.46388 1.12531L1.46386 1.12534C1.45731 1.13778 1.4541 1.15187 1.4541 1.16747C1.4541 1.18308 1.45731 1.19716 1.46386 1.2096L1.46388 1.20963L1.46389 1.20966C1.4706 1.222 1.47965 1.23183 1.49101 1.23905L1.49103 1.23906L1.49105 1.23907C1.50271 1.24633 1.51589 1.24992 1.53042 1.24992C1.54109 1.24992 1.55091 1.24785 1.55981 1.24363C1.56219 1.2425 1.56445 1.24125 1.56659 1.23988V1.24686H1.62238V1.08809H1.56659V1.09527C1.56436 1.09382 1.562 1.09251 1.55952 1.09133Z" fill="black"/>
<path fill-rule="evenodd" clip-rule="evenodd" d="M1.30876 1.23908L1.30874 1.23907C1.29716 1.23186 1.288 1.22203 1.28128 1.20966L1.28126 1.20964L1.28124 1.20961C1.2747 1.19717 1.27148 1.18308 1.27148 1.16748C1.27148 1.15187 1.2747 1.13779 1.28124 1.12534L1.28126 1.12532L1.28128 1.12529C1.288 1.11292 1.29716 1.10309 1.30874 1.09588L1.30876 1.09587L1.30877 1.09586C1.32065 1.0886 1.33411 1.08502 1.34903 1.08502C1.35987 1.08502 1.36979 1.08709 1.3787 1.09131C1.38019 1.092 1.38165 1.09274 1.38305 1.09353V1.01453H1.43976V1.24686H1.38397V1.24056C1.38242 1.24151 1.38082 1.24241 1.37916 1.24326L1.37912 1.24328L1.37907 1.2433C1.36996 1.24774 1.35992 1.24993 1.34903 1.24993C1.33411 1.24993 1.32065 1.24635 1.30877 1.23909L1.30876 1.23908ZM1.38397 1.23472C1.38176 1.23623 1.37941 1.23762 1.37692 1.23889C1.36855 1.24298 1.35925 1.24502 1.34903 1.24502C1.33493 1.24502 1.32237 1.24165 1.31133 1.23491C1.3005 1.22816 1.29192 1.21897 1.28558 1.20732C1.27945 1.19567 1.27639 1.18239 1.27639 1.16748C1.27639 1.15256 1.27945 1.13928 1.28558 1.12763C1.29192 1.11598 1.3005 1.10679 1.31133 1.10004C1.32237 1.0933 1.33493 1.08993 1.34903 1.08993C1.35925 1.08993 1.36844 1.09187 1.37662 1.09575C1.37887 1.0968 1.38102 1.09795 1.38305 1.09922C1.38477 1.10029 1.3864 1.10144 1.38796 1.10266V1.01943H1.43485V1.24196H1.38888V1.23101C1.38732 1.23232 1.38569 1.23356 1.38397 1.23472ZM1.38643 1.14939C1.38377 1.14408 1.37989 1.13989 1.37478 1.13682C1.36987 1.13376 1.36415 1.13223 1.35761 1.13223C1.35108 1.13223 1.34525 1.13376 1.34014 1.13682C1.33524 1.13989 1.33125 1.14408 1.32819 1.14939C1.32533 1.1547 1.3239 1.16073 1.3239 1.16748C1.3239 1.17422 1.32533 1.18025 1.32819 1.18556C1.33105 1.19087 1.33503 1.19506 1.34014 1.19813C1.34525 1.20119 1.35097 1.20272 1.35731 1.20272C1.36405 1.20272 1.36987 1.20129 1.37478 1.19843C1.37968 1.19537 1.38357 1.19118 1.38643 1.18587C1.38675 1.18526 1.38706 1.18464 1.38735 1.18402C1.38959 1.17914 1.39072 1.17363 1.39072 1.16748C1.39072 1.16724 1.39072 1.167 1.39071 1.16676C1.3907 1.16593 1.39067 1.16511 1.39061 1.16431C1.39034 1.16013 1.38949 1.15631 1.38809 1.15286C1.3876 1.15166 1.38705 1.1505 1.38643 1.14939ZM1.37224 1.19423C1.37636 1.19164 1.37965 1.18811 1.38211 1.18354C1.38453 1.17904 1.38581 1.17374 1.38581 1.16748C1.38581 1.16121 1.38453 1.15604 1.38215 1.15179L1.38209 1.15169L1.38204 1.15158C1.3798 1.14711 1.37657 1.14362 1.37226 1.14103L1.37222 1.14101L1.37218 1.14098C1.36815 1.13847 1.36336 1.13713 1.35761 1.13713C1.35189 1.13713 1.34697 1.13846 1.3427 1.14101C1.33856 1.14361 1.33515 1.14716 1.33247 1.15178C1.33006 1.15628 1.3288 1.16147 1.3288 1.16748C1.3288 1.1735 1.33007 1.17872 1.33251 1.18323C1.33496 1.18778 1.33832 1.19132 1.34267 1.19392C1.34696 1.1965 1.3518 1.19782 1.35731 1.19782C1.36331 1.19782 1.36823 1.19656 1.37224 1.19423Z" fill="black"/>
<path fill-rule="evenodd" clip-rule="evenodd" d="M1.1592 1.09299V1.24196H1.2061V1.16012C1.2061 1.15801 1.20621 1.15602 1.20642 1.15415C1.20705 1.14875 1.20857 1.14433 1.211 1.1409C1.21157 1.1401 1.21218 1.13935 1.21284 1.13866C1.21754 1.13376 1.22377 1.13131 1.23154 1.13131C1.23542 1.13131 1.23889 1.13192 1.24196 1.13314C1.24338 1.13371 1.24469 1.13439 1.24589 1.13517C1.24728 1.13609 1.24852 1.13715 1.24962 1.13835L1.27751 1.10311C1.27343 1.09861 1.26863 1.09534 1.26311 1.0933C1.2578 1.09105 1.25156 1.08993 1.24441 1.08993C1.23079 1.08993 1.21966 1.09326 1.211 1.09992C1.20927 1.10126 1.20763 1.10273 1.2061 1.10433V1.09299H1.1592ZM1.211 1.09391V1.08809H1.1543V1.24686H1.211V1.16012C1.211 1.15118 1.2131 1.14549 1.21638 1.14205C1.22002 1.13826 1.2249 1.13621 1.23154 1.13621C1.2349 1.13621 1.23774 1.13674 1.24014 1.1377C1.24257 1.13867 1.24449 1.14 1.24599 1.14165L1.24988 1.14593L1.28394 1.10289L1.28114 1.09981C1.27657 1.09478 1.27115 1.09107 1.26492 1.08874C1.2589 1.08621 1.25202 1.08502 1.24441 1.08502C1.23139 1.08502 1.22016 1.08791 1.211 1.09391Z" fill="black"/>
<path fill-rule="evenodd" clip-rule="evenodd" d="M1.01252 1.23521C1.02499 1.24196 1.03888 1.24533 1.05421 1.24533C1.06974 1.24533 1.08363 1.24196 1.0959 1.23521C1.10816 1.22827 1.11786 1.21887 1.12501 1.20701C1.13217 1.19516 1.13574 1.18188 1.13574 1.16717C1.13574 1.15246 1.13217 1.13928 1.12501 1.12763C1.11786 1.11578 1.10816 1.10648 1.0959 1.09974C1.08363 1.09299 1.06974 1.08962 1.05421 1.08962C1.03868 1.08962 1.02478 1.09309 1.01252 1.10004C1.00026 1.10679 0.990557 1.11598 0.983406 1.12763C0.976254 1.13928 0.972678 1.15246 0.972678 1.16717C0.972678 1.18188 0.976254 1.19516 0.983406 1.20701C0.990557 1.21887 1.00026 1.22827 1.01252 1.23521ZM1.01013 1.09576C1.0232 1.08836 1.03793 1.08472 1.05421 1.08472C1.07047 1.08472 1.0852 1.08825 1.09826 1.09544C1.11126 1.10259 1.1216 1.11249 1.1292 1.12508C1.13686 1.13755 1.14065 1.15163 1.14065 1.16717C1.14065 1.18272 1.13686 1.19688 1.12921 1.20955C1.12162 1.22213 1.11129 1.23213 1.09831 1.23948L1.09829 1.2395L1.09826 1.23951C1.0852 1.24669 1.07047 1.25023 1.05421 1.25023C1.03814 1.25023 1.02343 1.24669 1.01019 1.23953L1.01015 1.2395L1.01011 1.23948C0.997127 1.23213 0.986802 1.22213 0.979207 1.20955C0.971564 1.19688 0.967773 1.18272 0.967773 1.16717C0.967773 1.15162 0.971564 1.13754 0.979226 1.12506C0.986829 1.11268 0.997159 1.1029 1.01013 1.09576ZM1.07199 1.19843C1.06688 1.20129 1.06095 1.20272 1.05421 1.20272C1.04767 1.20272 1.04185 1.20129 1.03674 1.19843C1.03163 1.19537 1.02765 1.19118 1.02478 1.18587C1.02192 1.18035 1.02049 1.17422 1.02049 1.16747C1.02049 1.16053 1.02192 1.1544 1.02478 1.14908C1.02765 1.14377 1.03163 1.13968 1.03674 1.13682C1.04185 1.13376 1.04767 1.13223 1.05421 1.13223C1.06095 1.13223 1.06678 1.13376 1.07168 1.13682C1.07679 1.13968 1.08077 1.14377 1.08363 1.14908C1.0865 1.15419 1.08793 1.16022 1.08793 1.16717C1.08793 1.17412 1.0865 1.18035 1.08363 1.18587C1.08098 1.19118 1.0771 1.19537 1.07199 1.19843ZM1.06953 1.19419C1.07381 1.19161 1.07702 1.18813 1.07925 1.18367L1.07926 1.18364L1.07928 1.18361C1.08174 1.17887 1.08302 1.17342 1.08302 1.16717C1.08302 1.1609 1.08174 1.15573 1.07936 1.15148L1.07934 1.15144L1.07932 1.15141C1.07688 1.14689 1.07355 1.14349 1.06928 1.1411L1.06918 1.14104L1.06908 1.14098C1.06508 1.13848 1.06019 1.13713 1.05421 1.13713C1.04847 1.13713 1.04353 1.13847 1.03926 1.14103L1.0392 1.14107L1.03913 1.1411C1.03487 1.14349 1.03154 1.14689 1.0291 1.15141C1.02668 1.15591 1.0254 1.16121 1.0254 1.16747C1.0254 1.17349 1.02666 1.17882 1.02912 1.18357C1.03156 1.18808 1.0349 1.19159 1.0392 1.19419C1.04348 1.19657 1.04844 1.19782 1.05421 1.19782C1.06021 1.19782 1.06527 1.19656 1.06953 1.19419Z" fill="black"/>
<path fill-rule="evenodd" clip-rule="evenodd" d="M0.833145 1.23796C0.843362 1.24287 0.855316 1.24532 0.869007 1.24532C0.885354 1.24532 0.899453 1.24205 0.911305 1.23551C0.923157 1.22897 0.932352 1.21978 0.938891 1.20792C0.94543 1.19607 0.9487 1.18207 0.9487 1.16593V1.02555H0.900271V1.16869C0.900271 1.17584 0.898943 1.18187 0.896286 1.18677C0.89363 1.19147 0.890054 1.19515 0.885558 1.19781C0.881063 1.20026 0.87575 1.20149 0.86962 1.20149C0.863285 1.20149 0.857564 1.20016 0.852455 1.1975C0.848863 1.19556 0.8456 1.19295 0.842666 1.18969C0.841594 1.1885 0.840566 1.18722 0.839582 1.18585L0.807398 1.21681C0.81455 1.2258 0.823132 1.23285 0.833145 1.23796ZM0.854754 1.19317C0.850594 1.19091 0.846854 1.18756 0.843561 1.18299L0.840257 1.1784L0.800781 1.21637L0.80356 1.21987C0.811138 1.22939 0.820265 1.2369 0.830916 1.24233L0.830969 1.24236L0.831023 1.24238C0.842025 1.24766 0.854732 1.25022 0.869007 1.25022C0.886011 1.25022 0.900961 1.24682 0.913674 1.2398C0.926336 1.23282 0.936199 1.22295 0.943185 1.21029C0.950195 1.19759 0.953604 1.18274 0.953604 1.16593V1.02065H0.895367V1.16869C0.895367 1.17523 0.894155 1.18039 0.891995 1.1844C0.889763 1.18833 0.88682 1.19135 0.883136 1.19354C0.879504 1.19551 0.875054 1.19658 0.86962 1.19658C0.864008 1.19658 0.859087 1.19542 0.854754 1.19317Z" fill="black"/>
</svg>
