<svg width="600" height="302" viewBox="0 0 600 302" fill="none" xmlns="http://www.w3.org/2000/svg">
<path fill-rule="evenodd" clip-rule="evenodd" d="M453.978 45.7385V42.9706H417.224V140.614H453.978V84.2955C453.978 81.8754 454.451 80.1533 455.155 78.9185C456.065 77.5412 457.223 76.5166 458.683 75.7867L458.768 75.744L458.852 75.6977C460.321 74.8818 462.071 74.4214 464.218 74.4214C467.217 74.4214 469.452 75.3363 471.244 77.0473L471.318 77.1176L471.395 77.1845C473.037 78.6124 474.092 80.7589 474.092 84.2955V140.614H510.845V84.2955C510.845 81.8754 511.318 80.1533 512.023 78.9185C512.933 77.5412 514.091 76.5166 515.551 75.7867L515.636 75.744L515.719 75.6977C517.188 74.8818 518.938 74.4214 521.085 74.4214C524.084 74.4214 526.319 75.3363 528.112 77.0473L528.186 77.1176L528.262 77.1845C529.904 78.6124 530.959 80.7589 530.959 84.2955V140.614H567.713V81.187C567.713 73.1446 565.999 65.9998 562.356 59.9506C558.913 53.9115 554.123 49.2501 548.039 46.0577C542.071 42.7394 535.3 41.1421 527.851 41.1421C520.244 41.1421 513.241 42.8154 506.938 46.2368C504.281 47.6554 501.841 49.3413 499.621 51.2873C497.46 49.2197 495.035 47.4286 492.351 45.9208C486.746 42.7025 480.437 41.1421 473.543 41.1421C466.415 41.1421 459.861 42.6453 453.978 45.7385Z" fill="black"/>
<path fill-rule="evenodd" clip-rule="evenodd" d="M372.072 60.8479L383.281 39.8112C381.934 38.9719 380.66 37.9441 379.464 36.7482C375.637 32.9213 373.79 28.0497 373.79 22.491C373.79 16.6525 375.78 11.5237 379.772 7.37861L379.774 7.37644C383.895 3.10287 389.059 0.914263 395.001 0.914263C400.744 0.914263 405.747 3.13462 409.808 7.31981C414.044 11.4315 416.212 16.5757 416.212 22.491C416.212 24.9579 415.755 27.6814 414.961 30.5941L414.954 30.6196L414.946 30.645C414.085 33.6606 412.446 37.2801 410.191 41.4149L393.281 72.3124L372.072 60.8479Z" fill="black"/>
<path fill-rule="evenodd" clip-rule="evenodd" d="M324.608 140.614V2.74279H362.093V140.614H324.608Z" fill="black"/>
<path fill-rule="evenodd" clip-rule="evenodd" d="M245.167 138.949L233.916 159.908L255.094 171.642L272.038 140.683L272.052 140.656C274.299 136.412 275.926 132.746 276.782 129.752C277.587 126.932 278.048 124.257 278.048 121.78C278.048 115.778 275.903 110.561 271.643 106.426C267.582 102.241 262.579 100.021 256.837 100.021C250.894 100.021 245.73 102.21 241.609 106.483L241.58 106.513L241.552 106.543C237.612 110.787 235.626 115.944 235.626 121.78C235.626 127.254 237.497 132.052 241.299 135.855C242.51 137.066 243.801 138.104 245.167 138.949Z" fill="black"/>
<path fill-rule="evenodd" clip-rule="evenodd" d="M187.765 140.614V42.9706H224.518V140.614H187.765ZM192.094 33.7579L192.032 33.6907C188.458 29.8063 186.667 25.0786 186.667 19.7482C186.667 14.3311 188.438 9.55462 192.093 5.74055L192.125 5.70685L192.158 5.67384C195.961 1.87139 200.759 0 206.233 0C211.707 0 216.485 1.87467 220.19 5.74055C223.845 9.55462 225.615 14.3311 225.615 19.7482C225.615 25.0786 223.824 29.8063 220.251 33.6907L220.221 33.7235L220.19 33.7558C216.485 37.6217 211.707 39.4964 206.233 39.4964C200.759 39.4964 195.961 37.625 192.158 33.8225L192.094 33.7579Z" fill="black"/>
<path fill-rule="evenodd" clip-rule="evenodd" d="M56.7558 140.614V2.74279H94.2408V53.0275H136.663V2.74279H174.331V140.614H136.663V86.6726H94.2408V140.614H56.7558Z" fill="black"/>
<path d="M437.31 296.771C429.143 296.771 421.829 294.76 415.368 290.737C409.029 286.714 403.97 281.229 400.191 274.28C396.534 267.332 394.705 259.408 394.705 250.509C394.705 241.611 396.534 233.687 400.191 226.738C403.97 219.79 409.029 214.304 415.368 210.282C421.829 206.259 429.143 204.247 437.31 204.247C443.283 204.247 448.647 205.405 453.401 207.722C458.277 210.038 462.239 213.268 465.287 217.413C468.334 221.436 470.041 226.068 470.407 231.31V269.709C470.041 274.951 468.334 279.644 465.287 283.789C462.361 287.812 458.46 290.981 453.584 293.297C448.708 295.613 443.283 296.771 437.31 296.771ZM442.979 271.538C448.952 271.538 453.767 269.587 457.424 265.686C461.081 261.663 462.91 256.605 462.91 250.509C462.91 246.365 462.056 242.708 460.35 239.538C458.765 236.369 456.449 233.931 453.401 232.224C450.476 230.396 447.062 229.481 443.162 229.481C439.261 229.481 435.786 230.396 432.739 232.224C429.813 233.931 427.436 236.369 425.608 239.538C423.901 242.708 423.048 246.365 423.048 250.509C423.048 254.532 423.901 258.128 425.608 261.298C427.314 264.467 429.691 266.966 432.739 268.795C435.786 270.623 439.2 271.538 442.979 271.538ZM461.813 294.943V270.989L466.018 249.412L461.813 227.836V206.076H489.241V294.943H461.813Z" fill="black"/>
<path d="M329.293 296.771C320.882 296.771 313.385 294.76 306.802 290.737C300.342 286.714 295.222 281.229 291.443 274.28C287.786 267.332 285.957 259.408 285.957 250.509C285.957 241.61 287.786 233.687 291.443 226.738C295.222 219.79 300.342 214.304 306.802 210.282C313.385 206.259 320.882 204.247 329.293 204.247C335.388 204.247 340.874 205.405 345.75 207.722C350.748 210.038 354.832 213.268 358.001 217.413C361.293 221.436 363.121 226.068 363.487 231.31V268.795C363.121 274.037 361.354 278.791 358.184 283.057C355.015 287.202 350.931 290.554 345.933 293.114C340.935 295.552 335.388 296.771 329.293 296.771ZM334.23 271.538C338.253 271.538 341.727 270.684 344.653 268.978C347.579 267.149 349.895 264.65 351.602 261.481C353.308 258.311 354.161 254.654 354.161 250.509C354.161 246.365 353.308 242.769 351.602 239.721C350.017 236.552 347.701 234.053 344.653 232.224C341.727 230.395 338.314 229.481 334.413 229.481C330.512 229.481 327.038 230.395 323.991 232.224C321.065 234.053 318.688 236.552 316.859 239.721C315.153 242.89 314.299 246.487 314.299 250.509C314.299 254.532 315.153 258.128 316.859 261.298C318.566 264.467 320.943 266.966 323.991 268.795C327.038 270.623 330.451 271.538 334.23 271.538ZM380.492 294.943H353.064V270.989L357.27 249.412L352.516 227.836V162.191H380.492V294.943Z" fill="black"/>
<path fill-rule="evenodd" clip-rule="evenodd" d="M541.304 244.292V299.331H504.55V201.687H541.304V204.735C547.472 201.457 554.331 199.859 561.784 199.859C569.08 199.859 575.687 201.621 581.452 205.262C587.191 208.69 591.738 213.309 595.033 219.076C598.351 224.881 600 231.243 600 238.075V299.331H563.246V244.292C563.246 240.669 562.145 238.162 560.21 236.307L560.143 236.242L560.078 236.175C558.175 234.189 555.761 233.138 552.458 233.138C550.074 233.138 548.171 233.656 546.611 234.559L546.535 234.603L546.456 234.645C544.95 235.438 543.726 236.627 542.772 238.362L542.749 238.404L542.725 238.446C541.822 240.005 541.304 241.908 541.304 244.292Z" fill="black"/>
<path fill-rule="evenodd" clip-rule="evenodd" d="M415.368 290.737C421.829 294.76 429.143 296.771 437.31 296.771C443.283 296.771 448.708 295.613 453.584 293.297C454.94 292.653 456.22 291.944 457.425 291.168C459.02 290.141 460.482 288.999 461.813 287.741L461.813 294.943H489.241V206.076H461.813L461.813 213.456C460.472 212.174 459.009 211.013 457.425 209.975C456.161 209.146 454.82 208.395 453.401 207.722C448.647 205.405 443.283 204.247 437.31 204.247C429.143 204.247 421.829 206.259 415.368 210.282C409.029 214.304 403.97 219.79 400.191 226.738C396.534 233.687 394.705 241.611 394.705 250.509C394.705 259.408 396.534 267.332 400.191 274.28C403.97 281.229 409.029 286.714 415.368 290.737ZM462.86 248.797C462.655 245.35 461.817 242.264 460.35 239.538C460.016 238.871 459.65 238.236 459.252 237.633C457.758 235.374 455.807 233.571 453.401 232.224C450.476 230.396 447.062 229.481 443.162 229.481C439.261 229.481 435.786 230.396 432.739 232.224C429.813 233.931 427.436 236.369 425.608 239.538C423.901 242.708 423.048 246.365 423.048 250.509C423.048 254.532 423.901 258.128 425.608 261.298C427.314 264.467 429.691 266.966 432.739 268.795C435.786 270.623 439.2 271.538 442.979 271.538C448.952 271.538 453.767 269.587 457.424 265.686C457.865 265.201 458.28 264.701 458.668 264.185C461.496 260.428 462.91 255.869 462.91 250.509C462.91 250.345 462.909 250.182 462.906 250.019C462.9 249.607 462.884 249.199 462.86 248.797ZM454.2 262.71C457.018 259.598 458.522 255.642 458.522 250.509C458.522 246.98 457.8 244.058 456.486 241.619L456.455 241.56L456.425 241.501C455.228 239.106 453.526 237.323 451.258 236.053L451.166 236.001L451.076 235.945C448.936 234.608 446.351 233.87 443.162 233.87C439.977 233.87 437.297 234.607 434.997 235.987L434.974 236.001L434.951 236.015C432.754 237.296 430.915 239.142 429.442 241.675C428.148 244.103 427.437 247.007 427.437 250.509C427.437 253.893 428.149 256.759 429.472 259.217C430.81 261.701 432.636 263.615 434.997 265.032C437.319 266.425 439.943 267.149 442.979 267.149C447.882 267.149 451.477 265.601 454.2 262.71ZM455.304 203.767C449.883 201.13 443.855 199.859 437.311 199.859C428.386 199.859 420.257 202.068 413.049 206.556L413.033 206.566L413.017 206.576C406.014 211.02 400.452 217.074 396.336 224.642L396.322 224.668L396.308 224.694C392.277 232.353 390.318 240.994 390.318 250.509C390.318 260.024 392.277 268.666 396.308 276.324L396.322 276.351L396.336 276.377C400.452 283.944 406.014 289.998 413.017 294.443L413.033 294.453L413.049 294.463C420.257 298.951 428.386 301.16 437.311 301.16C443.865 301.16 449.943 299.885 455.468 297.261C456.135 296.944 456.787 296.612 457.425 296.265V299.331H493.63V201.687H457.425V204.855C456.735 204.474 456.028 204.111 455.304 203.767Z" fill="black"/>
<path fill-rule="evenodd" clip-rule="evenodd" d="M304.499 294.472L304.483 294.463C297.353 290.023 291.715 283.965 287.588 276.377L287.574 276.351L287.56 276.324C283.529 268.666 281.569 260.025 281.569 250.509C281.569 240.994 283.529 232.353 287.56 224.695L287.574 224.668L287.588 224.642C291.715 217.054 297.353 210.996 304.483 206.556L304.499 206.547L304.515 206.537C311.848 202.055 320.151 199.859 329.294 199.859C335.948 199.859 342.083 201.125 347.615 203.749C347.787 203.828 347.958 203.909 348.128 203.991V157.803H384.882V299.331H348.677V296.632C348.431 296.763 348.184 296.893 347.934 297.02L347.896 297.04L347.858 297.059C342.205 299.816 335.991 301.16 329.294 301.16C320.151 301.16 311.848 298.963 304.515 294.482L304.499 294.472ZM348.677 291.574C350.243 290.61 351.706 289.557 353.065 288.414L353.064 294.943H380.492V162.191H352.516L352.516 211.846C351.155 210.773 349.692 209.801 348.128 208.93C347.36 208.503 346.567 208.1 345.75 207.722C340.874 205.405 335.388 204.247 329.293 204.247C320.882 204.247 313.385 206.259 306.802 210.282C300.342 214.304 295.222 219.79 291.443 226.738C287.786 233.687 285.957 241.61 285.957 250.509C285.957 259.408 287.786 267.332 291.443 274.28C295.222 281.229 300.342 286.714 306.802 290.737C313.385 294.76 320.882 296.771 329.293 296.771C335.388 296.771 340.935 295.552 345.933 293.114C346.88 292.629 347.795 292.116 348.677 291.574ZM350.086 237.198C348.652 235.194 346.84 233.536 344.653 232.224C341.727 230.395 338.314 229.481 334.413 229.481C330.512 229.481 327.038 230.395 323.991 232.224C321.065 234.053 318.688 236.552 316.859 239.721C315.153 242.89 314.299 246.487 314.299 250.509C314.299 254.532 315.153 258.128 316.859 261.298C318.566 264.467 320.943 266.966 323.991 268.795C327.038 270.623 330.451 271.538 334.23 271.538C338.253 271.538 341.727 270.684 344.653 268.978C346.717 267.688 348.478 266.064 349.935 264.107C350.544 263.29 351.099 262.414 351.602 261.481C353.308 258.311 354.161 254.654 354.161 250.509C354.161 250.372 354.161 250.234 354.159 250.098C354.153 249.658 354.137 249.224 354.112 248.797C353.906 245.366 353.069 242.341 351.602 239.721C351.154 238.826 350.649 237.985 350.086 237.198ZM342.385 265.22C344.609 263.817 346.388 261.907 347.738 259.4C349.052 256.961 349.774 254.039 349.774 250.509C349.774 246.975 349.05 244.145 347.773 241.865L347.723 241.776L347.677 241.684C346.467 239.263 344.73 237.388 342.396 235.987L342.362 235.967L342.328 235.945C340.188 234.608 337.603 233.87 334.414 233.87C331.244 233.87 328.575 234.6 326.283 235.967C324.036 237.379 322.173 239.313 320.694 241.857C319.39 244.303 318.689 247.152 318.689 250.509C318.689 253.893 319.401 256.759 320.724 259.217C322.061 261.701 323.888 263.615 326.249 265.032C328.571 266.425 331.195 267.149 334.231 267.149C337.593 267.149 340.256 266.447 342.385 265.22Z" fill="black"/>
<path fill-rule="evenodd" clip-rule="evenodd" d="M248.275 204.053V201.687H211.521V299.331H248.275V246.121C248.275 240.993 249.481 238.028 251.077 236.358C252.932 234.422 255.44 233.321 259.063 233.321C260.917 233.321 262.423 233.613 263.65 234.104C264.916 234.611 265.87 235.283 266.604 236.09L270.083 239.917L292.243 211.913L289.738 209.158C286.866 205.999 283.448 203.652 279.514 202.178C275.714 200.588 271.422 199.859 266.743 199.859C259.768 199.859 253.556 201.214 248.275 204.053Z" fill="black"/>
<path fill-rule="evenodd" clip-rule="evenodd" d="M161.746 265.181C159.459 266.448 156.701 267.149 153.342 267.149C150.129 267.149 147.427 266.458 145.121 265.18C142.796 263.773 140.994 261.879 139.669 259.43C138.323 256.822 137.617 253.877 137.617 250.509C137.617 246.98 138.339 244.058 139.652 241.619C140.976 239.16 142.767 237.339 145.064 236.053L145.121 236.021L145.178 235.987C147.478 234.607 150.157 233.87 153.342 233.87C156.682 233.87 159.32 234.621 161.439 235.945L161.529 236.001L161.621 236.053C163.917 237.339 165.708 239.16 167.032 241.619L167.05 241.651L167.067 241.682C168.344 243.962 169.068 246.792 169.068 250.327C169.068 253.852 168.347 256.864 167 259.461L166.986 259.489L166.971 259.518C165.771 261.919 164.052 263.784 161.746 265.181ZM126.348 294.759L126.311 294.738C118.353 290.229 112.009 284.092 107.346 276.365C102.64 268.567 100.315 259.85 100.315 250.327C100.315 240.803 102.64 232.134 107.363 224.442C112.033 216.837 118.382 210.829 126.335 206.45C134.369 201.903 143.409 199.676 153.342 199.676C163.264 199.676 172.294 201.836 180.325 206.254C188.304 210.642 194.661 216.725 199.331 224.458C204.048 232.146 206.37 240.81 206.37 250.327C206.37 259.85 204.045 268.567 199.339 276.365C194.676 284.092 188.331 290.229 180.374 294.738L180.35 294.752L180.325 294.765C172.294 299.182 163.264 301.343 153.342 301.343C143.531 301.343 134.515 299.178 126.386 294.78L126.348 294.759Z" fill="black"/>
<path fill-rule="evenodd" clip-rule="evenodd" d="M19.3336 296.499L19.2861 296.475C12.7418 293.136 7.13454 288.524 2.48644 282.681L0 279.555L25.7252 254.81L28.6819 258.916C30.5307 261.484 32.5976 263.321 34.8579 264.553C37.2115 265.77 39.9087 266.418 43.0401 266.418C46.0725 266.418 48.4708 265.821 50.3816 264.795C52.337 263.624 53.9044 262.022 55.1082 259.905C56.2496 257.781 56.937 254.958 56.937 251.241V161.46H94.6049V249.595C94.6049 259.824 92.5297 268.932 88.2075 276.766C83.9065 284.562 77.8237 290.644 70.0282 294.945C62.1866 299.272 53.0148 301.343 42.6744 301.343C33.9843 301.343 26.1798 299.785 19.3815 296.522L19.3336 296.499Z" fill="black"/>
</svg>
