<svg width="807" height="402" viewBox="0 0 807 402" fill="none" xmlns="http://www.w3.org/2000/svg">
<path shape-rendering="geometricPrecision" d="M768.382 398.75V329.5C768.382 323.167 766.382 318.083 762.382 314.25C758.549 310.25 753.632 308.25 747.632 308.25C743.465 308.25 739.799 309.167 736.632 311C733.465 312.667 730.965 315.167 729.132 318.5C727.299 321.667 726.382 325.333 726.382 329.5L711.632 322.25C711.632 312.75 713.715 304.417 717.882 297.25C722.049 290.083 727.799 284.583 735.132 280.75C742.632 276.75 751.048 274.75 760.382 274.75C769.382 274.75 777.299 276.917 784.132 281.25C791.132 285.417 796.632 291 800.632 298C804.632 305 806.632 312.667 806.632 321V398.75H768.382ZM688.132 398.75V277.25H726.382V398.75H688.132Z" fill="black"/>
<path shape-rendering="geometricPrecision" d="M590.2 401.25C579.034 401.25 569.034 398.5 560.2 393C551.534 387.5 544.617 380 539.45 370.5C534.45 361 531.95 350.167 531.95 338C531.95 325.833 534.45 315 539.45 305.5C544.617 296 551.534 288.5 560.2 283C569.034 277.5 579.034 274.75 590.2 274.75C598.367 274.75 605.7 276.333 612.2 279.5C618.867 282.667 624.284 287.083 628.45 292.75C632.617 298.25 634.95 304.583 635.45 311.75V364.25C634.95 371.417 632.617 377.833 628.45 383.5C624.45 389 619.117 393.333 612.45 396.5C605.784 399.667 598.367 401.25 590.2 401.25ZM597.95 366.75C606.117 366.75 612.7 364.083 617.7 358.75C622.7 353.25 625.2 346.333 625.2 338C625.2 332.333 624.034 327.333 621.7 323C619.534 318.667 616.367 315.333 612.2 313C608.2 310.5 603.534 309.25 598.2 309.25C592.867 309.25 588.117 310.5 583.95 313C579.95 315.333 576.7 318.667 574.2 323C571.867 327.333 570.7 332.333 570.7 338C570.7 343.5 571.867 348.417 574.2 352.75C576.534 357.083 579.784 360.5 583.95 363C588.117 365.5 592.784 366.75 597.95 366.75ZM623.7 398.75V366L629.45 336.5L623.7 307V277.25H661.2V398.75H623.7Z" fill="black"/>
<path shape-rendering="geometricPrecision" d="M442.519 401.25C431.019 401.25 420.769 398.5 411.769 393C402.935 387.5 395.935 380 390.769 370.5C385.769 361 383.269 350.167 383.269 338C383.269 325.833 385.769 315 390.769 305.5C395.935 296 402.935 288.5 411.769 283C420.769 277.5 431.019 274.75 442.519 274.75C450.852 274.75 458.352 276.333 465.019 279.5C471.852 282.667 477.435 287.083 481.769 292.75C486.269 298.25 488.769 304.583 489.269 311.75V363C488.769 370.167 486.352 376.667 482.019 382.5C477.685 388.167 472.102 392.75 465.269 396.25C458.435 399.583 450.852 401.25 442.519 401.25ZM449.269 366.75C454.769 366.75 459.519 365.583 463.519 363.25C467.519 360.75 470.685 357.333 473.019 353C475.352 348.667 476.519 343.667 476.519 338C476.519 332.333 475.352 327.417 473.019 323.25C470.852 318.917 467.685 315.5 463.519 313C459.519 310.5 454.852 309.25 449.519 309.25C444.185 309.25 439.435 310.5 435.269 313C431.269 315.5 428.019 318.917 425.519 323.25C423.185 327.583 422.019 332.5 422.019 338C422.019 343.5 423.185 348.417 425.519 352.75C427.852 357.083 431.102 360.5 435.269 363C439.435 365.5 444.102 366.75 449.269 366.75ZM512.519 398.75H475.019V366L480.769 336.5L474.269 307V217.25H512.519V398.75Z" fill="black"/>
<path shape-rendering="geometricPrecision" d="M287.497 398.75V277.25H325.747V398.75H287.497ZM325.747 332L309.747 319.5C312.914 305.333 318.247 294.333 325.747 286.5C333.247 278.667 343.664 274.75 356.997 274.75C362.83 274.75 367.914 275.667 372.247 277.5C376.747 279.167 380.664 281.833 383.997 285.5L361.247 314.25C359.58 312.417 357.497 311 354.997 310C352.497 309 349.664 308.5 346.497 308.5C340.164 308.5 335.08 310.5 331.247 314.5C327.58 318.333 325.747 324.167 325.747 332Z" fill="black"/>
<path shape-rendering="geometricPrecision" d="M201.954 401.5C189.454 401.5 178.121 398.75 167.954 393.25C157.954 387.583 150.037 379.917 144.204 370.25C138.371 360.583 135.454 349.75 135.454 337.75C135.454 325.75 138.371 315 144.204 305.5C150.037 296 157.954 288.5 167.954 283C177.954 277.333 189.287 274.5 201.954 274.5C214.621 274.5 225.954 277.25 235.954 282.75C245.954 288.25 253.871 295.833 259.704 305.5C265.537 315 268.454 325.75 268.454 337.75C268.454 349.75 265.537 360.583 259.704 370.25C253.871 379.917 245.954 387.583 235.954 393.25C225.954 398.75 214.621 401.5 201.954 401.5ZM201.954 366.75C207.454 366.75 212.287 365.583 216.454 363.25C220.621 360.75 223.787 357.333 225.954 353C228.287 348.5 229.454 343.417 229.454 337.75C229.454 332.083 228.287 327.167 225.954 323C223.621 318.667 220.371 315.333 216.204 313C212.204 310.5 207.454 309.25 201.954 309.25C196.621 309.25 191.871 310.5 187.704 313C183.537 315.333 180.287 318.667 177.954 323C175.621 327.333 174.454 332.333 174.454 338C174.454 343.5 175.621 348.5 177.954 353C180.287 357.333 183.537 360.75 187.704 363.25C191.871 365.583 196.621 366.75 201.954 366.75Z" fill="black"/>
<path shape-rendering="geometricPrecision" d="M50.6475 401.5C39.4808 401.5 29.7308 399.5 21.3975 395.5C13.2308 391.333 6.23079 385.583 0.397461 378.25L26.6475 353C29.6475 357.167 33.1475 360.333 37.1475 362.5C41.3141 364.667 45.9808 365.75 51.1475 365.75C56.1475 365.75 60.4808 364.75 64.1475 362.75C67.8141 360.583 70.7308 357.583 72.8975 353.75C75.0641 349.75 76.1475 344.833 76.1475 339V222.25H115.647V336.75C115.647 349.917 112.981 361.333 107.647 371C102.314 380.667 94.8141 388.167 85.1475 393.5C75.4808 398.833 63.9808 401.5 50.6475 401.5Z" fill="black"/>
<path shape-rendering="geometricPrecision" d="M569.538 180.25V58.75H607.788V180.25H569.538ZM647.288 180.25V109.25C647.288 103.083 645.371 98.3333 641.538 95C637.871 91.5 633.288 89.75 627.788 89.75C623.955 89.75 620.538 90.5833 617.538 92.25C614.538 93.75 612.121 95.9167 610.288 98.75C608.621 101.583 607.788 105.083 607.788 109.25L593.038 102.75C593.038 93.0833 595.121 84.8333 599.288 78C603.455 71 609.121 65.6667 616.288 62C623.455 58.1667 631.538 56.25 640.538 56.25C649.038 56.25 656.621 58.1667 663.288 62C670.121 65.8333 675.538 71.1667 679.538 78C683.538 84.8333 685.538 93 685.538 102.5V180.25H647.288ZM725.038 180.25V109.25C725.038 103.083 723.121 98.3333 719.288 95C715.621 91.5 711.038 89.75 705.538 89.75C701.705 89.75 698.288 90.5833 695.288 92.25C692.288 93.75 689.871 95.9167 688.038 98.75C686.371 101.583 685.538 105.083 685.538 109.25L663.538 106.25C663.871 95.9167 666.288 87.0833 670.788 79.75C675.455 72.25 681.538 66.5 689.038 62.5C696.705 58.3333 705.288 56.25 714.788 56.25C724.121 56.25 732.371 58.25 739.538 62.25C746.871 66.0833 752.621 71.6667 756.788 79C761.121 86.1667 763.288 94.8333 763.288 105V180.25H725.038Z" fill="black"/>
<path shape-rendering="geometricPrecision" d="M509.903 74.75L528.153 40.5L539.403 37.5C538.237 39.8333 536.82 41.8333 535.153 43.5C533.487 45.1667 531.57 46 529.403 46C524.57 46 520.153 44 516.153 40C512.153 36 510.153 30.9167 510.153 24.75C510.153 18.25 512.32 12.75 516.653 8.25C521.153 3.58333 526.653 1.25 533.153 1.25C539.32 1.25 544.653 3.58333 549.153 8.25C553.82 12.75 556.153 18.25 556.153 24.75C556.153 27.4167 555.653 30.5833 554.653 34.25C553.653 37.75 551.653 42.25 548.653 47.75L528.403 84.75L509.903 74.75Z" fill="black"/>
<path shape-rendering="geometricPrecision" d="M442.911 180.25V3.75H482.161V180.25H442.911Z" fill="black"/>
<path shape-rendering="geometricPrecision" d="M321.003 210.25L339.253 176.25L350.503 173C349.336 175.5 347.92 177.583 346.253 179.25C344.586 180.75 342.67 181.5 340.503 181.5C335.67 181.5 331.253 179.5 327.253 175.5C323.253 171.5 321.253 166.5 321.253 160.5C321.253 154 323.42 148.417 327.753 143.75C332.253 139.083 337.753 136.75 344.253 136.75C350.42 136.75 355.753 139.083 360.253 143.75C364.92 148.25 367.253 153.833 367.253 160.5C367.253 163.167 366.753 166.25 365.753 169.75C364.753 173.25 362.753 177.833 359.753 183.5L339.503 220.5L321.003 210.25Z" fill="black"/>
<path shape-rendering="geometricPrecision" d="M255.817 180.25V58.75H294.067V180.25H255.817ZM275.067 42C269.067 42 264.067 40 260.067 36C256.234 31.8333 254.317 26.8333 254.317 21C254.317 15 256.234 9.99999 260.067 6C264.067 2 269.067 0 275.067 0C281.067 0 285.984 2 289.817 6C293.651 9.99999 295.567 15 295.567 21C295.567 26.8333 293.651 31.8333 289.817 36C285.984 40 281.067 42 275.067 42Z" fill="black"/>
<path shape-rendering="geometricPrecision" d="M76.7002 180.25V3.75H115.95V180.25H76.7002ZM185.95 180.25V3.75H225.45V180.25H185.95ZM100.2 106.5V72.5H198.95V106.5H100.2Z" fill="black"/>
</svg>
