<svg width="35" height="52" viewBox="0 0 35 52" fill="none" xmlns="http://www.w3.org/2000/svg">
<path d="M25.4545 38.4593C26.4091 35.2644 28.3878 32.5402 30.3466 29.826C30.8636 29.1149 31.3807 28.4038 31.8778 27.6827C33.8466 24.8283 35 21.373 35 17.6372C35 7.89217 27.1648 0 17.5 0C7.83523 0 0 7.89217 0 17.6272C0 21.3629 1.15341 24.8283 3.12216 27.6727C3.61932 28.3938 4.13636 29.1049 4.65341 29.816C6.62216 32.5302 8.60085 35.2644 9.54545 38.4493H25.4545V38.4593ZM17.5 51.2791C21.8949 51.2791 25.4545 47.6935 25.4545 43.2667V41.6642H9.54545V43.2667C9.54545 47.6935 13.1051 51.2791 17.5 51.2791ZM9.54545 17.6272C9.54545 18.5085 8.82955 19.2297 7.95455 19.2297C7.07955 19.2297 6.36364 18.5085 6.36364 17.6272C6.36364 11.4276 11.3452 6.40988 17.5 6.40988C18.375 6.40988 19.0909 7.131 19.0909 8.01235C19.0909 8.89371 18.375 9.61483 17.5 9.61483C13.1051 9.61483 9.54545 13.2004 9.54545 17.6272Z" fill="#F1E0E8"/>
</svg>
