<svg width="102" height="23" viewBox="0 0 102 23" fill="none" xmlns="http://www.w3.org/2000/svg">
<path d="M24.3086 0.255005V6.60595H22.3911V3.3525L16.3578 9.06201L15.002 7.77905L21.0354 2.06954H17.5974V0.255005H24.3086ZM7.54192 0.255005V2.06954H4.10393L10.1373 7.77905L8.78155 9.06201L2.74821 3.3525V6.60595H0.830719V0.255005H7.54192ZM16.3578 13.6657L22.3911 19.3751V16.1217H24.3086V22.4727H17.5974V20.6581H21.0354L15.002 14.9486L16.3578 13.6657ZM15.0741 7.66089L16.4826 8.92034L4.13047 20.6382H7.59634V22.4727H0.830719V16.0521H2.76375V19.3412L15.0741 7.66089Z" fill="#282828"/>
<path d="M44.4311 2.94809H47.1034V17.0866H44.4311V15.8949C43.6439 16.8779 42.5253 17.3694 41.0752 17.3694C39.6803 17.3694 38.4891 16.8543 37.5017 15.8242C36.5142 14.7941 36.0205 13.5318 36.0205 12.0371C36.0205 10.5425 36.5142 9.28013 37.5017 8.25003C38.4891 7.21994 39.6803 6.70489 41.0752 6.70489C42.5253 6.70489 43.6439 7.19637 44.4311 8.17934V2.94809ZM39.5008 14.0973C40.0532 14.6225 40.7437 14.885 41.5723 14.885C42.401 14.885 43.0846 14.6191 43.6232 14.0872C44.1618 13.5553 44.4311 12.872 44.4311 12.0371C44.4311 11.2023 44.1618 10.5189 43.6232 9.98705C43.0846 9.45517 42.401 9.18923 41.5723 9.18923C40.7437 9.18923 40.0566 9.45517 39.5111 9.98705C38.9656 10.5189 38.6928 11.2023 38.6928 12.0371C38.6928 12.872 38.9621 13.5587 39.5008 14.0973ZM55.3069 6.70489C56.4394 6.70489 57.375 7.07518 58.1139 7.81578C58.8527 8.55637 59.2222 9.57972 59.2222 10.8859V17.0866H56.5498V11.209C56.5498 10.5358 56.3634 10.0207 55.9905 9.66388C55.6176 9.30705 55.1205 9.12864 54.499 9.12864C53.8084 9.12864 53.256 9.33735 52.8417 9.75477C52.4274 10.1722 52.2202 10.7983 52.2202 11.6332V17.0866H49.5479V6.98766H52.2202V8.11875C52.8693 7.17617 53.8982 6.70489 55.3069 6.70489ZM69.3522 2.94809H72.0245V17.0866H69.3522V15.8949C68.565 16.8779 67.4463 17.3694 65.9962 17.3694C64.6014 17.3694 63.4102 16.8543 62.4228 15.8242C61.4353 14.7941 60.9416 13.5318 60.9416 12.0371C60.9416 10.5425 61.4353 9.28013 62.4228 8.25003C63.4102 7.21994 64.6014 6.70489 65.9962 6.70489C67.4463 6.70489 68.565 7.19637 69.3522 8.17934V2.94809ZM64.4218 14.0973C64.9742 14.6225 65.6648 14.885 66.4934 14.885C67.322 14.885 68.0057 14.6191 68.5443 14.0872C69.0829 13.5553 69.3522 12.872 69.3522 12.0371C69.3522 11.2023 69.0829 10.5189 68.5443 9.98705C68.0057 9.45517 67.322 9.18923 66.4934 9.18923C65.6648 9.18923 64.9777 9.45517 64.4322 9.98705C63.8867 10.5189 63.6139 11.2023 63.6139 12.0371C63.6139 12.872 63.8832 13.5587 64.4218 14.0973ZM89.1979 17.0866H86.0905L82.3202 12.5017V17.0866H79.6479V2.94809H82.3202V11.4312L85.8834 6.98766H89.0736L84.9097 11.9765L89.1979 17.0866ZM91.8495 5.77579C91.4076 5.77579 91.0243 5.61758 90.6998 5.30114C90.3752 4.98471 90.213 4.61105 90.213 4.18016C90.213 3.74927 90.3752 3.37225 90.6998 3.04908C91.0243 2.72591 91.4076 2.56433 91.8495 2.56433C92.3053 2.56433 92.6954 2.72591 93.02 3.04908C93.3445 3.37225 93.5068 3.74927 93.5068 4.18016C93.5068 4.61105 93.3445 4.98471 93.02 5.30114C92.6954 5.61758 92.3053 5.77579 91.8495 5.77579ZM90.5237 17.0866V6.98766H93.196V17.0866H90.5237ZM101.565 9.4922H99.2243V13.6934C99.2243 14.0435 99.3141 14.2993 99.4936 14.4609C99.6732 14.6225 99.9356 14.7134 100.281 14.7336C100.626 14.7537 101.054 14.7504 101.565 14.7235V17.0866C99.7284 17.2886 98.4337 17.1203 97.681 16.5817C96.9283 16.043 96.552 15.0803 96.552 13.6934V9.4922H94.7497V6.98766H96.552V4.94768L99.2243 4.15996V6.98766H101.565V9.4922Z" fill="#282828"/>
</svg>
