<svg width="20" height="17" viewBox="0 0 20 17" fill="none" xmlns="http://www.w3.org/2000/svg">
<path d="M1.875 0.354736C0.839844 0.354736 0 1.26229 0 2.38089C0 3.01829 0.277344 3.61769 0.75 4.00182L9.25 10.8908C9.69531 11.2495 10.3047 11.2495 10.75 10.8908L19.25 4.00182C19.7227 3.61769 20 3.01829 20 2.38089C20 1.26229 19.1602 0.354736 18.125 0.354736H1.875ZM0 5.08244V13.8624C0 15.3525 1.12109 16.564 2.5 16.564H17.5C18.8789 16.564 20 15.3525 20 13.8624V5.08244L11.5 11.9714C10.6094 12.6932 9.39062 12.6932 8.5 11.9714L0 5.08244Z" fill="#161616"/>
</svg>
