<svg width="68" height="20" viewBox="0 0 68 20" fill="none" xmlns="http://www.w3.org/2000/svg">
<path d="M8.16797 15H0.365234V0.722656H8.16797V1.64062H1.36133V7.04102H7.78711V7.95898H1.36133V14.082H8.16797V15ZM13.7637 9.54102L10.0625 4.38477H11.1758L14.3398 8.85742L17.4746 4.38477H18.5391L14.8965 9.54102L18.8027 15H17.6797L14.3398 10.2637L10.9805 15H9.91602L13.7637 9.54102ZM25.6582 15.1953C24.0241 15.1953 22.8327 14.5833 22.084 13.3594H22.0156L22.0449 14.1797C22.071 14.6615 22.084 15.1888 22.084 15.7617V19.8047H21.1172V4.38477H21.9375L22.123 5.89844H22.1816C22.9108 4.7526 24.0762 4.17969 25.6777 4.17969C27.11 4.17969 28.2005 4.65169 28.9492 5.5957C29.7044 6.5332 30.082 7.90039 30.082 9.69727C30.082 11.4421 29.6849 12.7962 28.8906 13.7598C28.1029 14.7168 27.0254 15.1953 25.6582 15.1953ZM25.6387 14.3359C26.7259 14.3359 27.5658 13.9323 28.1582 13.125C28.7572 12.3177 29.0566 11.1882 29.0566 9.73633C29.0566 6.61784 27.9303 5.05859 25.6777 5.05859C24.4408 5.05859 23.5326 5.40039 22.9531 6.08398C22.3737 6.76107 22.084 7.86784 22.084 9.4043V9.7168C22.084 11.377 22.3607 12.5618 22.9141 13.2715C23.474 13.9811 24.3822 14.3359 25.6387 14.3359ZM37.2109 4.17969C37.6602 4.17969 38.1419 4.22526 38.6562 4.31641L38.4707 5.24414C38.028 5.13346 37.569 5.07812 37.0938 5.07812C36.1888 5.07812 35.4466 5.46224 34.8672 6.23047C34.2878 6.9987 33.998 7.96875 33.998 9.14062V15H33.0312V4.38477H33.8516L33.9492 6.29883H34.0176C34.4538 5.51758 34.9193 4.9707 35.4141 4.6582C35.9089 4.33919 36.5078 4.17969 37.2109 4.17969ZM45.1113 15.1953C43.5684 15.1953 42.3639 14.7201 41.498 13.7695C40.6387 12.819 40.209 11.4876 40.209 9.77539C40.209 8.08268 40.6257 6.72852 41.459 5.71289C42.2923 4.69076 43.4154 4.17969 44.8281 4.17969C46.0781 4.17969 47.0645 4.61589 47.7871 5.48828C48.5098 6.36068 48.8711 7.54557 48.8711 9.04297V9.82422H41.2246C41.2376 11.2826 41.5762 12.3958 42.2402 13.1641C42.9108 13.9323 43.8678 14.3164 45.1113 14.3164C45.7168 14.3164 46.2474 14.2741 46.7031 14.1895C47.1654 14.1048 47.748 13.9225 48.4512 13.6426V14.5215C47.8522 14.7819 47.2988 14.9577 46.791 15.0488C46.2832 15.1465 45.7233 15.1953 45.1113 15.1953ZM44.8281 5.03906C43.806 5.03906 42.9857 5.3776 42.3672 6.05469C41.7487 6.72526 41.3874 7.69531 41.2832 8.96484H47.8457C47.8457 7.73438 47.5788 6.77409 47.0449 6.08398C46.5111 5.38737 45.7721 5.03906 44.8281 5.03906ZM58.3828 12.2363C58.3828 13.1868 58.0215 13.9193 57.2988 14.4336C56.5762 14.9414 55.5508 15.1953 54.2227 15.1953C52.8034 15.1953 51.6771 14.9772 50.8438 14.541V13.4961C51.9115 14.0299 53.0378 14.2969 54.2227 14.2969C55.2708 14.2969 56.0651 14.1243 56.6055 13.7793C57.1523 13.4277 57.4258 12.9622 57.4258 12.3828C57.4258 11.849 57.2077 11.3997 56.7715 11.0352C56.3418 10.6706 55.6322 10.3125 54.6426 9.96094C53.5814 9.57682 52.8359 9.24805 52.4062 8.97461C51.9766 8.69466 51.651 8.38216 51.4297 8.03711C51.2148 7.68555 51.1074 7.25911 51.1074 6.75781C51.1074 5.96354 51.4395 5.33529 52.1035 4.87305C52.7741 4.41081 53.7083 4.17969 54.9062 4.17969C56.0521 4.17969 57.1393 4.39453 58.168 4.82422L57.8066 5.70312C56.765 5.27344 55.7982 5.05859 54.9062 5.05859C54.0404 5.05859 53.3535 5.20182 52.8457 5.48828C52.3379 5.77474 52.084 6.17188 52.084 6.67969C52.084 7.23307 52.2793 7.67578 52.6699 8.00781C53.0671 8.33984 53.8385 8.71094 54.9844 9.12109C55.9414 9.46615 56.638 9.77865 57.0742 10.0586C57.5104 10.332 57.8359 10.6445 58.0508 10.9961C58.2721 11.3477 58.3828 11.7611 58.3828 12.2363ZM67.6992 12.2363C67.6992 13.1868 67.3379 13.9193 66.6152 14.4336C65.8926 14.9414 64.8672 15.1953 63.5391 15.1953C62.1198 15.1953 60.9935 14.9772 60.1602 14.541V13.4961C61.2279 14.0299 62.3542 14.2969 63.5391 14.2969C64.5872 14.2969 65.3815 14.1243 65.9219 13.7793C66.4688 13.4277 66.7422 12.9622 66.7422 12.3828C66.7422 11.849 66.5241 11.3997 66.0879 11.0352C65.6582 10.6706 64.9486 10.3125 63.959 9.96094C62.8978 9.57682 62.1523 9.24805 61.7227 8.97461C61.293 8.69466 60.9674 8.38216 60.7461 8.03711C60.5312 7.68555 60.4238 7.25911 60.4238 6.75781C60.4238 5.96354 60.7559 5.33529 61.4199 4.87305C62.0905 4.41081 63.0247 4.17969 64.2227 4.17969C65.3685 4.17969 66.4557 4.39453 67.4844 4.82422L67.123 5.70312C66.0814 5.27344 65.1146 5.05859 64.2227 5.05859C63.3568 5.05859 62.6699 5.20182 62.1621 5.48828C61.6543 5.77474 61.4004 6.17188 61.4004 6.67969C61.4004 7.23307 61.5957 7.67578 61.9863 8.00781C62.3835 8.33984 63.1549 8.71094 64.3008 9.12109C65.2578 9.46615 65.9544 9.77865 66.3906 10.0586C66.8268 10.332 67.1523 10.6445 67.3672 10.9961C67.5885 11.3477 67.6992 11.7611 67.6992 12.2363Z" fill="#282828"/>
</svg>
