<svg width="488" height="396" viewBox="0 0 488 396" fill="none" xmlns="http://www.w3.org/2000/svg">
<rect x="1" y="175.719" width="234.959" height="90.3637" rx="6" fill="#F0E1D7" stroke="#F5AC7F" stroke-width="2" stroke-dasharray="4 4"/>
<path d="M74.4402 220.522H80.2762V221.132H78.5184V226.851L76.5262 226.124C76.4481 226.187 76.3465 226.249 76.2215 226.312C75.2684 226.827 74.2059 227.085 73.034 227.085C71.4246 227.085 69.9715 226.585 68.6746 225.585C66.8934 224.179 66.0027 222.226 66.0027 219.726C66.0027 217.538 66.7371 215.765 68.2059 214.405C69.5496 213.171 71.159 212.554 73.034 212.554C74.1434 212.554 75.1902 212.796 76.1746 213.28L78.2137 212.858L78.3309 217.405H77.7215C77.3465 216.108 76.9246 215.155 76.4559 214.546C75.7371 213.655 74.5731 213.21 72.9637 213.21C72.5262 213.21 72.1121 213.257 71.7215 213.351C69.4715 213.944 68.3465 216.101 68.3465 219.819C68.3621 224.163 69.9246 226.351 73.034 226.382C73.159 226.382 73.284 226.374 73.409 226.358C74.7215 226.249 75.7684 225.726 76.5496 224.788V221.132H74.4402V220.522ZM90.1434 227.085C89.0496 227.069 88.409 226.366 88.2215 224.976C88.0809 225.304 87.8699 225.616 87.5887 225.913C86.8074 226.694 85.8465 227.085 84.7059 227.085C84.2371 227.085 83.7918 226.999 83.3699 226.827C82.3231 226.39 81.7996 225.577 81.7996 224.39C81.7996 224.046 81.8465 223.726 81.9402 223.429C82.4715 221.897 84.5731 221.132 88.2449 221.132V219.655C88.1981 218.14 87.4402 217.335 85.9715 217.241C85.3465 217.241 84.8856 217.437 84.5887 217.827C84.5106 217.937 84.3621 218.28 84.1434 218.858C83.9715 219.312 83.7059 219.538 83.3465 219.538C83.2684 219.538 83.1902 219.53 83.1121 219.515C82.659 219.437 82.4324 219.155 82.4324 218.671C82.4324 218.405 82.5262 218.14 82.7137 217.874C83.3074 217.062 84.4793 216.655 86.2293 216.655C86.3699 216.655 86.5106 216.655 86.6512 216.655C88.8856 216.78 90.0027 217.96 90.0027 220.194V225.14C90.0184 225.921 90.2293 226.327 90.6356 226.358C91.1356 226.343 91.4402 225.765 91.5496 224.624L92.159 224.647C92.159 224.726 92.1512 224.812 92.1356 224.905C92.0106 226.358 91.3465 227.085 90.1434 227.085ZM85.4793 226.147C85.8231 226.147 86.1746 226.069 86.534 225.913C87.4402 225.476 88.0106 224.718 88.2449 223.64V221.765C87.0262 221.78 86.0965 221.858 85.4559 221.999C84.2527 222.28 83.6512 222.944 83.6512 223.991C83.6512 224.257 83.6746 224.499 83.7215 224.718C83.9402 225.671 84.5262 226.147 85.4793 226.147ZM97.5496 226.265C97.6277 226.265 97.7059 226.272 97.784 226.288C98.0184 226.335 98.1356 226.522 98.1356 226.851H92.9793V226.265C93.5106 226.265 93.8934 226.226 94.1277 226.147C94.534 226.007 94.7371 225.577 94.7371 224.858V217.476H92.9793V216.89H96.3777L96.4715 219.233C96.6277 218.812 96.8387 218.429 97.1043 218.085C97.8387 217.132 98.7684 216.655 99.8934 216.655C100.19 216.655 100.479 216.71 100.761 216.819C101.714 217.179 102.331 217.976 102.612 219.21C102.737 218.897 102.893 218.601 103.081 218.319C103.8 217.21 104.753 216.655 105.94 216.655C106.487 216.655 106.995 216.796 107.464 217.077C108.511 217.718 109.034 218.843 109.034 220.452V226.265H110.229C110.323 226.265 110.401 226.272 110.464 226.288C110.698 226.319 110.815 226.507 110.815 226.851H105.636V226.265C106.167 226.265 106.542 226.226 106.761 226.147C107.104 226.007 107.276 225.577 107.276 224.858V220.218C107.276 219.718 107.198 219.272 107.042 218.882C106.714 218.054 106.151 217.64 105.354 217.64C105.057 217.64 104.745 217.718 104.417 217.874C103.557 218.327 103.003 219.124 102.753 220.265V220.452V226.265H103.807C103.901 226.265 103.979 226.272 104.042 226.288C104.276 226.319 104.393 226.507 104.393 226.851H99.3543V226.265C99.8856 226.265 100.261 226.226 100.479 226.147C100.823 226.007 100.995 225.577 100.995 224.858V220.218C100.995 219.749 100.932 219.327 100.807 218.952C100.511 218.093 99.9715 217.663 99.1902 217.663C98.7684 217.663 98.3465 217.819 97.9246 218.132C97.0184 218.804 96.5418 219.827 96.4949 221.202V226.265H97.5496ZM117.237 217.241C116.831 217.241 116.448 217.335 116.089 217.522C114.995 218.069 114.409 219.241 114.331 221.038L116.815 221.108C117.534 221.124 118.089 221.093 118.479 221.015C119.229 220.843 119.604 220.366 119.604 219.585C119.604 219.241 119.542 218.921 119.417 218.624C119.057 217.702 118.331 217.241 117.237 217.241ZM121.315 224.601C121.221 224.819 121.112 225.038 120.987 225.257C120.19 226.476 118.948 227.085 117.261 227.085C116.198 227.085 115.253 226.812 114.425 226.265C113.034 225.327 112.339 223.89 112.339 221.952C112.339 220.89 112.557 219.937 112.995 219.093C113.839 217.468 115.237 216.655 117.19 216.655C118.19 216.655 119.073 216.882 119.839 217.335C120.917 217.96 121.456 218.804 121.456 219.866C121.456 220.444 121.245 220.89 120.823 221.202C120.276 221.593 119.05 221.772 117.143 221.741L114.331 221.694C114.346 222.351 114.417 222.952 114.542 223.499C114.964 225.452 115.995 226.429 117.636 226.429C117.776 226.429 117.925 226.421 118.081 226.405C119.3 226.249 120.182 225.577 120.729 224.39L121.315 224.601ZM133.667 223.171C133.667 224.124 133.331 224.944 132.659 225.632C131.675 226.601 130.284 227.085 128.487 227.085C126.956 227.085 125.589 226.687 124.386 225.89C124.386 226.218 124.37 226.444 124.339 226.569C124.276 226.788 124.057 226.897 123.682 226.897V222.046H124.386C124.651 224.937 125.979 226.397 128.37 226.429C128.979 226.429 129.534 226.319 130.034 226.101C131.096 225.616 131.628 224.827 131.628 223.733C131.628 223.312 131.526 222.921 131.323 222.562C130.948 221.921 130.057 221.288 128.651 220.663C127.136 220.007 126.245 219.608 125.979 219.468C124.511 218.64 123.776 217.569 123.776 216.257C123.776 215.382 124.089 214.616 124.714 213.96C125.651 213.022 126.964 212.554 128.651 212.554C130.042 212.554 131.292 212.858 132.401 213.468C132.401 213.28 132.417 213.132 132.448 213.022C132.511 212.788 132.729 212.671 133.104 212.671V216.772H132.401C132.417 215.897 132.198 215.155 131.745 214.546C131.057 213.655 130.057 213.21 128.745 213.21C128.214 213.21 127.729 213.296 127.292 213.468C126.276 213.874 125.768 214.601 125.768 215.647C125.768 216.038 125.862 216.405 126.05 216.749C126.409 217.374 127.284 217.983 128.675 218.577C130.206 219.249 131.12 219.663 131.417 219.819C132.917 220.663 133.667 221.78 133.667 223.171ZM135.307 217.476V216.89H136.948V214.663L138.706 214.171V216.89H142.339V217.476H138.706V224.601C138.721 225.772 139.151 226.374 139.995 226.405C140.745 226.296 141.315 225.593 141.706 224.296L142.339 224.413C142.339 224.429 142.339 224.444 142.339 224.46C141.979 226.226 141.081 227.108 139.643 227.108C137.956 227.046 137.057 226.038 136.948 224.085V217.476H135.307ZM151.62 227.085C150.526 227.069 149.886 226.366 149.698 224.976C149.557 225.304 149.346 225.616 149.065 225.913C148.284 226.694 147.323 227.085 146.182 227.085C145.714 227.085 145.268 226.999 144.846 226.827C143.8 226.39 143.276 225.577 143.276 224.39C143.276 224.046 143.323 223.726 143.417 223.429C143.948 221.897 146.05 221.132 149.721 221.132V219.655C149.675 218.14 148.917 217.335 147.448 217.241C146.823 217.241 146.362 217.437 146.065 217.827C145.987 217.937 145.839 218.28 145.62 218.858C145.448 219.312 145.182 219.538 144.823 219.538C144.745 219.538 144.667 219.53 144.589 219.515C144.136 219.437 143.909 219.155 143.909 218.671C143.909 218.405 144.003 218.14 144.19 217.874C144.784 217.062 145.956 216.655 147.706 216.655C147.846 216.655 147.987 216.655 148.128 216.655C150.362 216.78 151.479 217.96 151.479 220.194V225.14C151.495 225.921 151.706 226.327 152.112 226.358C152.612 226.343 152.917 225.765 153.026 224.624L153.636 224.647C153.636 224.726 153.628 224.812 153.612 224.905C153.487 226.358 152.823 227.085 151.62 227.085ZM146.956 226.147C147.3 226.147 147.651 226.069 148.011 225.913C148.917 225.476 149.487 224.718 149.721 223.64V221.765C148.503 221.78 147.573 221.858 146.932 221.999C145.729 222.28 145.128 222.944 145.128 223.991C145.128 224.257 145.151 224.499 145.198 224.718C145.417 225.671 146.003 226.147 146.956 226.147ZM154.221 217.476V216.89H155.862V214.663L157.62 214.171V216.89H161.253V217.476H157.62V224.601C157.636 225.772 158.065 226.374 158.909 226.405C159.659 226.296 160.229 225.593 160.62 224.296L161.253 224.413C161.253 224.429 161.253 224.444 161.253 224.46C160.893 226.226 159.995 227.108 158.557 227.108C156.87 227.046 155.971 226.038 155.862 224.085V217.476H154.221ZM167.206 217.241C166.8 217.241 166.417 217.335 166.057 217.522C164.964 218.069 164.378 219.241 164.3 221.038L166.784 221.108C167.503 221.124 168.057 221.093 168.448 221.015C169.198 220.843 169.573 220.366 169.573 219.585C169.573 219.241 169.511 218.921 169.386 218.624C169.026 217.702 168.3 217.241 167.206 217.241ZM171.284 224.601C171.19 224.819 171.081 225.038 170.956 225.257C170.159 226.476 168.917 227.085 167.229 227.085C166.167 227.085 165.221 226.812 164.393 226.265C163.003 225.327 162.307 223.89 162.307 221.952C162.307 220.89 162.526 219.937 162.964 219.093C163.807 217.468 165.206 216.655 167.159 216.655C168.159 216.655 169.042 216.882 169.807 217.335C170.886 217.96 171.425 218.804 171.425 219.866C171.425 220.444 171.214 220.89 170.792 221.202C170.245 221.593 169.018 221.772 167.112 221.741L164.3 221.694C164.315 222.351 164.386 222.952 164.511 223.499C164.932 225.452 165.964 226.429 167.604 226.429C167.745 226.429 167.893 226.421 168.05 226.405C169.268 226.249 170.151 225.577 170.698 224.39L171.284 224.601Z" fill="black"/>
<rect x="302.239" y="45.1821" width="180.736" height="70.281" rx="6" fill="#F0E1D7" stroke="#F5AC7F" stroke-width="2" stroke-dasharray="4 4"/>
<path d="M360.887 87H355.145V86.3906H357.02V73.5469H355.145V72.9375H360.887V73.5469H359.035V86.3906H360.277C360.355 86.3906 360.434 86.3984 360.512 86.4141C360.762 86.4609 360.887 86.6562 360.887 87ZM367.098 86.4141C367.191 86.4141 367.27 86.4219 367.332 86.4375C367.566 86.4688 367.684 86.6562 367.684 87H362.527V86.4141C363.059 86.4141 363.441 86.375 363.676 86.2969C364.082 86.1562 364.285 85.7266 364.285 85.0078V77.625H362.527V77.0391H365.926L366.02 79.3828C366.191 78.9453 366.418 78.5469 366.699 78.1875C367.449 77.2656 368.402 76.8047 369.559 76.8047C370.137 76.8047 370.676 76.9531 371.176 77.25C372.254 77.9219 372.793 79.0391 372.793 80.6016V86.4141H373.965C374.059 86.4141 374.137 86.4219 374.199 86.4375C374.434 86.4688 374.551 86.6562 374.551 87H369.277V86.4141C369.809 86.4141 370.191 86.375 370.426 86.2969C370.832 86.1562 371.035 85.7266 371.035 85.0078V80.3672C371.035 79.9141 370.965 79.5078 370.824 79.1484C370.48 78.2578 369.832 77.8125 368.879 77.8125C368.441 77.8125 368.012 77.9453 367.59 78.2109C366.605 78.8516 366.09 79.8984 366.043 81.3516V86.4141H367.098ZM384.301 87.2344C383.207 87.2188 382.566 86.5156 382.379 85.125C382.238 85.4531 382.027 85.7656 381.746 86.0625C380.965 86.8438 380.004 87.2344 378.863 87.2344C378.395 87.2344 377.949 87.1484 377.527 86.9766C376.48 86.5391 375.957 85.7266 375.957 84.5391C375.957 84.1953 376.004 83.875 376.098 83.5781C376.629 82.0469 378.73 81.2812 382.402 81.2812V79.8047C382.355 78.2891 381.598 77.4844 380.129 77.3906C379.504 77.3906 379.043 77.5859 378.746 77.9766C378.668 78.0859 378.52 78.4297 378.301 79.0078C378.129 79.4609 377.863 79.6875 377.504 79.6875C377.426 79.6875 377.348 79.6797 377.27 79.6641C376.816 79.5859 376.59 79.3047 376.59 78.8203C376.59 78.5547 376.684 78.2891 376.871 78.0234C377.465 77.2109 378.637 76.8047 380.387 76.8047C380.527 76.8047 380.668 76.8047 380.809 76.8047C383.043 76.9297 384.16 78.1094 384.16 80.3438V85.2891C384.176 86.0703 384.387 86.4766 384.793 86.5078C385.293 86.4922 385.598 85.9141 385.707 84.7734L386.316 84.7969C386.316 84.875 386.309 84.9609 386.293 85.0547C386.168 86.5078 385.504 87.2344 384.301 87.2344ZM379.637 86.2969C379.98 86.2969 380.332 86.2188 380.691 86.0625C381.598 85.625 382.168 84.8672 382.402 83.7891V81.9141C381.184 81.9297 380.254 82.0078 379.613 82.1484C378.41 82.4297 377.809 83.0938 377.809 84.1406C377.809 84.4062 377.832 84.6484 377.879 84.8672C378.098 85.8203 378.684 86.2969 379.637 86.2969ZM387.371 82.125C387.371 81.0938 387.566 80.1719 387.957 79.3594C388.785 77.6562 390.246 76.8047 392.34 76.8047C393.184 76.8047 393.965 76.9844 394.684 77.3438C395.699 77.8594 396.207 78.5156 396.207 79.3125C396.207 79.4062 396.191 79.5078 396.16 79.6172C396.02 80.0859 395.684 80.3047 395.152 80.2734C394.965 80.2578 394.793 80.2109 394.637 80.1328C394.387 79.9766 394.215 79.5859 394.121 78.9609C394.074 78.6953 394.035 78.5 394.004 78.375C393.832 77.7188 393.324 77.3906 392.48 77.3906C391.934 77.3906 391.434 77.5312 390.98 77.8125C389.902 78.5 389.363 79.8672 389.363 81.9141C389.363 83.0703 389.598 84.0703 390.066 84.9141C390.691 86.0234 391.559 86.5781 392.668 86.5781C392.793 86.5781 392.918 86.5703 393.043 86.5547C394.371 86.4297 395.324 85.75 395.902 84.5156L396.512 84.7266C396.402 84.9922 396.254 85.2578 396.066 85.5234C395.238 86.6641 394.012 87.2344 392.387 87.2344C391.293 87.2344 390.316 86.9453 389.457 86.3672C388.066 85.4297 387.371 84.0156 387.371 82.125ZM397.098 77.625V77.0391H398.738V74.8125L400.496 74.3203V77.0391H404.129V77.625H400.496V84.75C400.512 85.9219 400.941 86.5234 401.785 86.5547C402.535 86.4453 403.105 85.7422 403.496 84.4453L404.129 84.5625C404.129 84.5781 404.129 84.5938 404.129 84.6094C403.77 86.375 402.871 87.2578 401.434 87.2578C399.746 87.1953 398.848 86.1875 398.738 84.2344V77.625H397.098ZM409.754 86.4141C409.832 86.4141 409.91 86.4219 409.988 86.4375C410.223 86.4688 410.34 86.6562 410.34 87H404.949V86.4141C405.48 86.4141 405.863 86.3828 406.098 86.3203C406.582 86.1641 406.824 85.7266 406.824 85.0078V77.625H404.949V77.0391H408.582V86.4141H409.754ZM408.863 73.6172C408.863 73.8047 408.824 73.9844 408.746 74.1562C408.527 74.6562 408.145 74.9062 407.598 74.9062C407.426 74.9062 407.254 74.875 407.082 74.8125C406.566 74.5938 406.309 74.1953 406.309 73.6172C406.309 73.4297 406.348 73.25 406.426 73.0781C406.66 72.5781 407.051 72.3281 407.598 72.3281C407.77 72.3281 407.949 72.3672 408.137 72.4453C408.621 72.6797 408.863 73.0703 408.863 73.6172ZM415.66 77.625H414.02L417.02 85.6172L419.996 77.625H418.238V77.0391H421.848C421.848 77.1172 421.84 77.1953 421.824 77.2734C421.793 77.5078 421.605 77.625 421.262 77.625C421.199 77.625 421.129 77.6328 421.051 77.6484C420.785 77.6953 420.559 77.9609 420.371 78.4453L417.066 87.1172H416.762C416.48 87.1172 416.246 87.0781 416.059 87C415.684 86.8594 415.34 86.3516 415.027 85.4766L412.168 77.625H411.113V77.0391H415.66V77.625ZM427.754 77.3906C427.348 77.3906 426.965 77.4844 426.605 77.6719C425.512 78.2188 424.926 79.3906 424.848 81.1875L427.332 81.2578C428.051 81.2734 428.605 81.2422 428.996 81.1641C429.746 80.9922 430.121 80.5156 430.121 79.7344C430.121 79.3906 430.059 79.0703 429.934 78.7734C429.574 77.8516 428.848 77.3906 427.754 77.3906ZM431.832 84.75C431.738 84.9688 431.629 85.1875 431.504 85.4062C430.707 86.625 429.465 87.2344 427.777 87.2344C426.715 87.2344 425.77 86.9609 424.941 86.4141C423.551 85.4766 422.855 84.0391 422.855 82.1016C422.855 81.0391 423.074 80.0859 423.512 79.2422C424.355 77.6172 425.754 76.8047 427.707 76.8047C428.707 76.8047 429.59 77.0312 430.355 77.4844C431.434 78.1094 431.973 78.9531 431.973 80.0156C431.973 80.5938 431.762 81.0391 431.34 81.3516C430.793 81.7422 429.566 81.9219 427.66 81.8906L424.848 81.8438C424.863 82.5 424.934 83.1016 425.059 83.6484C425.48 85.6016 426.512 86.5781 428.152 86.5781C428.293 86.5781 428.441 86.5703 428.598 86.5547C429.816 86.3984 430.699 85.7266 431.246 84.5391L431.832 84.75Z" fill="black"/>
<rect x="302.239" y="137.562" width="180.736" height="70.281" rx="6" fill="#F0E1D7" stroke="#F5AC7F" stroke-width="2" stroke-dasharray="4 4"/>
<path d="M347.457 181H341.715V180.391H343.59V167.547H341.715V166.938H347.457V167.547H345.605V180.391H346.848C346.926 180.391 347.004 180.398 347.082 180.414C347.332 180.461 347.457 180.656 347.457 181ZM353.668 180.414C353.762 180.414 353.84 180.422 353.902 180.438C354.137 180.469 354.254 180.656 354.254 181H349.098V180.414C349.629 180.414 350.012 180.375 350.246 180.297C350.652 180.156 350.855 179.727 350.855 179.008V171.625H349.098V171.039H352.496L352.59 173.383C352.762 172.945 352.988 172.547 353.27 172.188C354.02 171.266 354.973 170.805 356.129 170.805C356.707 170.805 357.246 170.953 357.746 171.25C358.824 171.922 359.363 173.039 359.363 174.602V180.414H360.535C360.629 180.414 360.707 180.422 360.77 180.438C361.004 180.469 361.121 180.656 361.121 181H355.848V180.414C356.379 180.414 356.762 180.375 356.996 180.297C357.402 180.156 357.605 179.727 357.605 179.008V174.367C357.605 173.914 357.535 173.508 357.395 173.148C357.051 172.258 356.402 171.812 355.449 171.812C355.012 171.812 354.582 171.945 354.16 172.211C353.176 172.852 352.66 173.898 352.613 175.352V180.414H353.668ZM369.09 167.547H366.535V174.109H368.691C368.879 174.109 369.066 174.102 369.254 174.086C371.066 173.883 371.973 172.766 371.973 170.734C371.973 170.266 371.91 169.828 371.785 169.422C371.379 168.172 370.48 167.547 369.09 167.547ZM368.879 181H362.645V180.391H364.52V167.547H362.645V166.938H369.582C370.582 166.938 371.441 167.109 372.16 167.453C373.504 168.078 374.176 169.164 374.176 170.711C374.176 171.43 374.012 172.062 373.684 172.609C372.855 174.062 371.16 174.789 368.598 174.789H366.535V180.391H368.27C368.348 180.391 368.426 180.398 368.504 180.414C368.754 180.461 368.879 180.656 368.879 181ZM380.832 180.414C380.926 180.414 381.004 180.422 381.066 180.438C381.301 180.469 381.418 180.656 381.418 181H375.629V180.414C376.16 180.414 376.543 180.375 376.777 180.297C377.184 180.156 377.387 179.727 377.387 179.008V171.625H375.629V171.039H379.027L379.121 173.359C379.324 172.891 379.598 172.469 379.941 172.094C380.676 171.297 381.512 170.898 382.449 170.898C382.59 170.898 382.738 170.914 382.895 170.945C383.613 171.102 383.973 171.531 383.973 172.234C383.973 172.328 383.957 172.422 383.926 172.516C383.801 172.969 383.504 173.195 383.035 173.195C382.941 173.195 382.848 173.18 382.754 173.148C382.535 173.086 382.301 172.836 382.051 172.398C381.832 172.008 381.59 171.812 381.324 171.812C381.09 171.828 380.801 172 380.457 172.328C379.582 173.188 379.145 174.328 379.145 175.75V180.414H380.832ZM387.02 176.008C387.02 176.68 387.074 177.289 387.184 177.836C387.59 179.711 388.582 180.648 390.16 180.648C390.457 180.648 390.746 180.609 391.027 180.531C392.465 180.078 393.184 178.539 393.184 175.914C393.184 175.461 393.16 175.047 393.113 174.672C392.832 172.484 391.824 171.391 390.09 171.391C389.715 171.391 389.355 171.453 389.012 171.578C387.684 172.109 387.02 173.586 387.02 176.008ZM390.16 170.805C391.191 170.805 392.137 171.078 392.996 171.625C394.449 172.578 395.176 174.039 395.176 176.008C395.176 177.461 394.723 178.672 393.816 179.641C392.832 180.703 391.59 181.234 390.09 181.234C389.027 181.234 388.059 180.938 387.184 180.344C385.746 179.359 385.027 177.883 385.027 175.914C385.027 174.492 385.488 173.305 386.41 172.352C387.41 171.32 388.66 170.805 390.16 170.805ZM399.16 174.508C399.176 176.617 399.957 177.688 401.504 177.719C403.02 177.703 403.793 176.633 403.824 174.508C403.809 172.461 403.035 171.422 401.504 171.391C399.973 171.406 399.191 172.445 399.16 174.508ZM401.527 170.805C402.34 170.805 403.098 170.984 403.801 171.344C403.895 171.047 404.027 170.773 404.199 170.523C404.652 169.867 405.246 169.539 405.98 169.539C406.152 169.539 406.324 169.57 406.496 169.633C406.949 169.805 407.176 170.133 407.176 170.617C407.113 171.023 406.887 171.273 406.496 171.367C406.355 171.367 406.199 171.289 406.027 171.133C405.777 170.898 405.543 170.781 405.324 170.781C405.262 170.781 405.199 170.789 405.137 170.805C404.746 170.898 404.48 171.195 404.34 171.695C405.23 172.398 405.684 173.336 405.699 174.508C405.699 175.43 405.402 176.227 404.809 176.898C403.98 177.836 402.871 178.305 401.48 178.305L399.418 178.281C399.293 178.281 399.176 178.289 399.066 178.305C398.551 178.414 398.293 178.672 398.293 179.078C398.309 179.656 398.676 179.969 399.395 180.016L403.66 180.109C403.879 180.109 404.09 180.125 404.293 180.156C405.84 180.359 406.613 181.133 406.613 182.477C406.613 182.914 406.488 183.328 406.238 183.719C405.473 184.875 403.902 185.453 401.527 185.453C400.59 185.453 399.801 185.312 399.16 185.031C398.145 184.609 397.637 183.969 397.637 183.109C397.637 182.547 397.895 181.992 398.41 181.445C397.754 181.039 397.418 180.422 397.402 179.594C397.402 179.391 397.426 179.188 397.473 178.984C397.723 178.125 398.348 177.695 399.348 177.695C399.238 177.633 399.129 177.562 399.02 177.484C397.863 176.703 397.285 175.719 397.285 174.531C397.285 173.625 397.582 172.836 398.176 172.164C399.004 171.258 400.121 170.805 401.527 170.805ZM401.527 184.844C402.262 184.844 402.941 184.766 403.566 184.609C404.848 184.297 405.488 183.797 405.488 183.109C405.488 182.922 405.465 182.766 405.418 182.641C405.23 182.125 404.551 181.859 403.379 181.844L399.77 181.797C399.566 181.797 399.309 181.766 398.996 181.703C398.637 182.125 398.449 182.547 398.434 182.969C398.434 183.188 398.488 183.406 398.598 183.625C399.004 184.438 399.98 184.844 401.527 184.844ZM413.34 180.414C413.434 180.414 413.512 180.422 413.574 180.438C413.809 180.469 413.926 180.656 413.926 181H408.137V180.414C408.668 180.414 409.051 180.375 409.285 180.297C409.691 180.156 409.895 179.727 409.895 179.008V171.625H408.137V171.039H411.535L411.629 173.359C411.832 172.891 412.105 172.469 412.449 172.094C413.184 171.297 414.02 170.898 414.957 170.898C415.098 170.898 415.246 170.914 415.402 170.945C416.121 171.102 416.48 171.531 416.48 172.234C416.48 172.328 416.465 172.422 416.434 172.516C416.309 172.969 416.012 173.195 415.543 173.195C415.449 173.195 415.355 173.18 415.262 173.148C415.043 173.086 414.809 172.836 414.559 172.398C414.34 172.008 414.098 171.812 413.832 171.812C413.598 171.828 413.309 172 412.965 172.328C412.09 173.188 411.652 174.328 411.652 175.75V180.414H413.34ZM422.434 171.391C422.027 171.391 421.645 171.484 421.285 171.672C420.191 172.219 419.605 173.391 419.527 175.188L422.012 175.258C422.73 175.273 423.285 175.242 423.676 175.164C424.426 174.992 424.801 174.516 424.801 173.734C424.801 173.391 424.738 173.07 424.613 172.773C424.254 171.852 423.527 171.391 422.434 171.391ZM426.512 178.75C426.418 178.969 426.309 179.188 426.184 179.406C425.387 180.625 424.145 181.234 422.457 181.234C421.395 181.234 420.449 180.961 419.621 180.414C418.23 179.477 417.535 178.039 417.535 176.102C417.535 175.039 417.754 174.086 418.191 173.242C419.035 171.617 420.434 170.805 422.387 170.805C423.387 170.805 424.27 171.031 425.035 171.484C426.113 172.109 426.652 172.953 426.652 174.016C426.652 174.594 426.441 175.039 426.02 175.352C425.473 175.742 424.246 175.922 422.34 175.891L419.527 175.844C419.543 176.5 419.613 177.102 419.738 177.648C420.16 179.602 421.191 180.578 422.832 180.578C422.973 180.578 423.121 180.57 423.277 180.555C424.496 180.398 425.379 179.727 425.926 178.539L426.512 178.75ZM431.926 180.602C433.004 180.602 433.73 180.273 434.105 179.617C434.246 179.383 434.316 179.125 434.316 178.844C434.316 178.188 433.84 177.625 432.887 177.156C432.684 177.047 432.348 176.891 431.879 176.688C430.598 176.156 429.746 175.656 429.324 175.188C428.871 174.672 428.645 174.07 428.645 173.383C428.645 172.305 429.238 171.547 430.426 171.109C430.973 170.906 431.566 170.805 432.207 170.805C433.238 170.805 434.129 171.023 434.879 171.461C434.879 171.008 434.988 170.75 435.207 170.688C435.301 170.672 435.402 170.664 435.512 170.664V173.594H434.902C434.871 172.156 434.074 171.43 432.512 171.414C431.34 171.414 430.613 171.758 430.332 172.445C430.254 172.633 430.215 172.828 430.215 173.031C430.215 173.703 430.699 174.273 431.668 174.742C431.887 174.852 432.23 175 432.699 175.188C433.965 175.703 434.809 176.195 435.23 176.664C435.684 177.164 435.91 177.758 435.91 178.445C435.91 179.711 435.238 180.555 433.895 180.977C433.379 181.148 432.816 181.234 432.207 181.234C431.082 181.219 430.105 180.938 429.277 180.391C429.277 180.797 429.176 181.031 428.973 181.094C428.879 181.109 428.77 181.117 428.645 181.117V177.555H429.301C429.332 179.57 430.207 180.586 431.926 180.602ZM441.301 180.602C442.379 180.602 443.105 180.273 443.48 179.617C443.621 179.383 443.691 179.125 443.691 178.844C443.691 178.188 443.215 177.625 442.262 177.156C442.059 177.047 441.723 176.891 441.254 176.688C439.973 176.156 439.121 175.656 438.699 175.188C438.246 174.672 438.02 174.07 438.02 173.383C438.02 172.305 438.613 171.547 439.801 171.109C440.348 170.906 440.941 170.805 441.582 170.805C442.613 170.805 443.504 171.023 444.254 171.461C444.254 171.008 444.363 170.75 444.582 170.688C444.676 170.672 444.777 170.664 444.887 170.664V173.594H444.277C444.246 172.156 443.449 171.43 441.887 171.414C440.715 171.414 439.988 171.758 439.707 172.445C439.629 172.633 439.59 172.828 439.59 173.031C439.59 173.703 440.074 174.273 441.043 174.742C441.262 174.852 441.605 175 442.074 175.188C443.34 175.703 444.184 176.195 444.605 176.664C445.059 177.164 445.285 177.758 445.285 178.445C445.285 179.711 444.613 180.555 443.27 180.977C442.754 181.148 442.191 181.234 441.582 181.234C440.457 181.219 439.48 180.938 438.652 180.391C438.652 180.797 438.551 181.031 438.348 181.094C438.254 181.109 438.145 181.117 438.02 181.117V177.555H438.676C438.707 179.57 439.582 180.586 441.301 180.602Z" fill="black"/>
<rect x="304.239" y="235.959" width="176.736" height="66.281" rx="4" fill="#F0E1D7" stroke="#F5AC7F" stroke-width="2" stroke-dasharray="4 4"/>
<path d="M378.078 261.703C379.672 261.703 381.078 262.164 382.297 263.086C384.094 264.43 384.992 266.391 384.992 268.969C384.992 271.172 384.25 272.969 382.766 274.359C381.438 275.609 379.852 276.234 378.008 276.234C376.367 276.234 374.914 275.734 373.648 274.734C371.914 273.359 371.047 271.406 371.047 268.875C371.047 266.688 371.781 264.914 373.25 263.555C374.594 262.32 376.203 261.703 378.078 261.703ZM378.078 275.578C378.703 275.578 379.281 275.461 379.812 275.227C381.703 274.398 382.648 272.281 382.648 268.875C382.633 264.562 381.086 262.391 378.008 262.359C377.57 262.359 377.156 262.406 376.766 262.5C374.516 263.094 373.391 265.25 373.391 268.969C373.391 270.094 373.5 271.086 373.719 271.945C374.359 274.367 375.812 275.578 378.078 275.578ZM390.898 266.625H389.258L392.258 274.617L395.234 266.625H393.477V266.039H397.086C397.086 266.117 397.078 266.195 397.062 266.273C397.031 266.508 396.844 266.625 396.5 266.625C396.438 266.625 396.367 266.633 396.289 266.648C396.023 266.695 395.797 266.961 395.609 267.445L392.305 276.117H392C391.719 276.117 391.484 276.078 391.297 276C390.922 275.859 390.578 275.352 390.266 274.477L387.406 266.625H386.352V266.039H390.898V266.625ZM402.992 266.391C402.586 266.391 402.203 266.484 401.844 266.672C400.75 267.219 400.164 268.391 400.086 270.188L402.57 270.258C403.289 270.273 403.844 270.242 404.234 270.164C404.984 269.992 405.359 269.516 405.359 268.734C405.359 268.391 405.297 268.07 405.172 267.773C404.812 266.852 404.086 266.391 402.992 266.391ZM407.07 273.75C406.977 273.969 406.867 274.188 406.742 274.406C405.945 275.625 404.703 276.234 403.016 276.234C401.953 276.234 401.008 275.961 400.18 275.414C398.789 274.477 398.094 273.039 398.094 271.102C398.094 270.039 398.312 269.086 398.75 268.242C399.594 266.617 400.992 265.805 402.945 265.805C403.945 265.805 404.828 266.031 405.594 266.484C406.672 267.109 407.211 267.953 407.211 269.016C407.211 269.594 407 270.039 406.578 270.352C406.031 270.742 404.805 270.922 402.898 270.891L400.086 270.844C400.102 271.5 400.172 272.102 400.297 272.648C400.719 274.602 401.75 275.578 403.391 275.578C403.531 275.578 403.68 275.57 403.836 275.555C405.055 275.398 405.938 274.727 406.484 273.539L407.07 273.75ZM413.984 275.414C414.078 275.414 414.156 275.422 414.219 275.438C414.453 275.469 414.57 275.656 414.57 276H408.781V275.414C409.312 275.414 409.695 275.375 409.93 275.297C410.336 275.156 410.539 274.727 410.539 274.008V266.625H408.781V266.039H412.18L412.273 268.359C412.477 267.891 412.75 267.469 413.094 267.094C413.828 266.297 414.664 265.898 415.602 265.898C415.742 265.898 415.891 265.914 416.047 265.945C416.766 266.102 417.125 266.531 417.125 267.234C417.125 267.328 417.109 267.422 417.078 267.516C416.953 267.969 416.656 268.195 416.188 268.195C416.094 268.195 416 268.18 415.906 268.148C415.688 268.086 415.453 267.836 415.203 267.398C414.984 267.008 414.742 266.812 414.477 266.812C414.242 266.828 413.953 267 413.609 267.328C412.734 268.188 412.297 269.328 412.297 270.75V275.414H413.984Z" fill="black"/>
<rect x="304.239" y="328.339" width="176.736" height="66.281" rx="4" fill="#F0E1D7" stroke="#F5AC7F" stroke-width="2" stroke-dasharray="4 4"/>
<path d="M368.879 369H368.691C368.551 369 368.434 368.977 368.34 368.93C368.168 368.836 367.941 368.391 367.66 367.594L365.152 360.516L362.105 369.117H361.918C361.824 369.117 361.73 369.102 361.637 369.07C361.387 368.977 361.105 368.484 360.793 367.594L356.48 355.547H355.098V354.938H360.254V355.547H358.355L362.316 366.562L364.777 359.438L363.184 354.938H367.215V355.547H365.316L369.09 366.609L372.77 355.547H370.895V354.938H374.691V355.547H373.52L368.879 369ZM383.855 369.234C382.762 369.219 382.121 368.516 381.934 367.125C381.793 367.453 381.582 367.766 381.301 368.062C380.52 368.844 379.559 369.234 378.418 369.234C377.949 369.234 377.504 369.148 377.082 368.977C376.035 368.539 375.512 367.727 375.512 366.539C375.512 366.195 375.559 365.875 375.652 365.578C376.184 364.047 378.285 363.281 381.957 363.281V361.805C381.91 360.289 381.152 359.484 379.684 359.391C379.059 359.391 378.598 359.586 378.301 359.977C378.223 360.086 378.074 360.43 377.855 361.008C377.684 361.461 377.418 361.688 377.059 361.688C376.98 361.688 376.902 361.68 376.824 361.664C376.371 361.586 376.145 361.305 376.145 360.82C376.145 360.555 376.238 360.289 376.426 360.023C377.02 359.211 378.191 358.805 379.941 358.805C380.082 358.805 380.223 358.805 380.363 358.805C382.598 358.93 383.715 360.109 383.715 362.344V367.289C383.73 368.07 383.941 368.477 384.348 368.508C384.848 368.492 385.152 367.914 385.262 366.773L385.871 366.797C385.871 366.875 385.863 366.961 385.848 367.055C385.723 368.508 385.059 369.234 383.855 369.234ZM379.191 368.297C379.535 368.297 379.887 368.219 380.246 368.062C381.152 367.625 381.723 366.867 381.957 365.789V363.914C380.738 363.93 379.809 364.008 379.168 364.148C377.965 364.43 377.363 365.094 377.363 366.141C377.363 366.406 377.387 366.648 377.434 366.867C377.652 367.82 378.238 368.297 379.191 368.297ZM391.496 368.414C391.574 368.414 391.652 368.422 391.73 368.438C391.965 368.469 392.082 368.656 392.082 369H386.691V368.414C387.223 368.414 387.605 368.383 387.84 368.32C388.324 368.164 388.566 367.727 388.566 367.008V359.625H386.691V359.039H390.324V368.414H391.496ZM390.605 355.617C390.605 355.805 390.566 355.984 390.488 356.156C390.27 356.656 389.887 356.906 389.34 356.906C389.168 356.906 388.996 356.875 388.824 356.812C388.309 356.594 388.051 356.195 388.051 355.617C388.051 355.43 388.09 355.25 388.168 355.078C388.402 354.578 388.793 354.328 389.34 354.328C389.512 354.328 389.691 354.367 389.879 354.445C390.363 354.68 390.605 355.07 390.605 355.617ZM393.254 359.625V359.039H394.895V356.812L396.652 356.32V359.039H400.285V359.625H396.652V366.75C396.668 367.922 397.098 368.523 397.941 368.555C398.691 368.445 399.262 367.742 399.652 366.445L400.285 366.562C400.285 366.578 400.285 366.594 400.285 366.609C399.926 368.375 399.027 369.258 397.59 369.258C395.902 369.195 395.004 368.188 394.895 366.234V359.625H393.254ZM405.91 368.414C405.988 368.414 406.066 368.422 406.145 368.438C406.379 368.469 406.496 368.656 406.496 369H401.105V368.414C401.637 368.414 402.02 368.383 402.254 368.32C402.738 368.164 402.98 367.727 402.98 367.008V359.625H401.105V359.039H404.738V368.414H405.91ZM405.02 355.617C405.02 355.805 404.98 355.984 404.902 356.156C404.684 356.656 404.301 356.906 403.754 356.906C403.582 356.906 403.41 356.875 403.238 356.812C402.723 356.594 402.465 356.195 402.465 355.617C402.465 355.43 402.504 355.25 402.582 355.078C402.816 354.578 403.207 354.328 403.754 354.328C403.926 354.328 404.105 354.367 404.293 354.445C404.777 354.68 405.02 355.07 405.02 355.617ZM412.473 368.414C412.566 368.414 412.645 368.422 412.707 368.438C412.941 368.469 413.059 368.656 413.059 369H407.902V368.414C408.434 368.414 408.816 368.375 409.051 368.297C409.457 368.156 409.66 367.727 409.66 367.008V359.625H407.902V359.039H411.301L411.395 361.383C411.566 360.945 411.793 360.547 412.074 360.188C412.824 359.266 413.777 358.805 414.934 358.805C415.512 358.805 416.051 358.953 416.551 359.25C417.629 359.922 418.168 361.039 418.168 362.602V368.414H419.34C419.434 368.414 419.512 368.422 419.574 368.438C419.809 368.469 419.926 368.656 419.926 369H414.652V368.414C415.184 368.414 415.566 368.375 415.801 368.297C416.207 368.156 416.41 367.727 416.41 367.008V362.367C416.41 361.914 416.34 361.508 416.199 361.148C415.855 360.258 415.207 359.812 414.254 359.812C413.816 359.812 413.387 359.945 412.965 360.211C411.98 360.852 411.465 361.898 411.418 363.352V368.414H412.473ZM423.559 362.508C423.574 364.617 424.355 365.688 425.902 365.719C427.418 365.703 428.191 364.633 428.223 362.508C428.207 360.461 427.434 359.422 425.902 359.391C424.371 359.406 423.59 360.445 423.559 362.508ZM425.926 358.805C426.738 358.805 427.496 358.984 428.199 359.344C428.293 359.047 428.426 358.773 428.598 358.523C429.051 357.867 429.645 357.539 430.379 357.539C430.551 357.539 430.723 357.57 430.895 357.633C431.348 357.805 431.574 358.133 431.574 358.617C431.512 359.023 431.285 359.273 430.895 359.367C430.754 359.367 430.598 359.289 430.426 359.133C430.176 358.898 429.941 358.781 429.723 358.781C429.66 358.781 429.598 358.789 429.535 358.805C429.145 358.898 428.879 359.195 428.738 359.695C429.629 360.398 430.082 361.336 430.098 362.508C430.098 363.43 429.801 364.227 429.207 364.898C428.379 365.836 427.27 366.305 425.879 366.305L423.816 366.281C423.691 366.281 423.574 366.289 423.465 366.305C422.949 366.414 422.691 366.672 422.691 367.078C422.707 367.656 423.074 367.969 423.793 368.016L428.059 368.109C428.277 368.109 428.488 368.125 428.691 368.156C430.238 368.359 431.012 369.133 431.012 370.477C431.012 370.914 430.887 371.328 430.637 371.719C429.871 372.875 428.301 373.453 425.926 373.453C424.988 373.453 424.199 373.312 423.559 373.031C422.543 372.609 422.035 371.969 422.035 371.109C422.035 370.547 422.293 369.992 422.809 369.445C422.152 369.039 421.816 368.422 421.801 367.594C421.801 367.391 421.824 367.188 421.871 366.984C422.121 366.125 422.746 365.695 423.746 365.695C423.637 365.633 423.527 365.562 423.418 365.484C422.262 364.703 421.684 363.719 421.684 362.531C421.684 361.625 421.98 360.836 422.574 360.164C423.402 359.258 424.52 358.805 425.926 358.805ZM425.926 372.844C426.66 372.844 427.34 372.766 427.965 372.609C429.246 372.297 429.887 371.797 429.887 371.109C429.887 370.922 429.863 370.766 429.816 370.641C429.629 370.125 428.949 369.859 427.777 369.844L424.168 369.797C423.965 369.797 423.707 369.766 423.395 369.703C423.035 370.125 422.848 370.547 422.832 370.969C422.832 371.188 422.887 371.406 422.996 371.625C423.402 372.438 424.379 372.844 425.926 372.844Z" fill="black"/>
<path d="M117.772 159.352C118.163 159.743 118.796 159.743 119.187 159.352L125.551 152.988C125.941 152.598 125.941 151.965 125.551 151.574C125.16 151.183 124.527 151.183 124.136 151.574L118.479 157.231L112.823 151.574C112.432 151.183 111.799 151.183 111.408 151.574C111.018 151.965 111.018 152.598 111.408 152.988L117.772 159.352ZM117.479 104.422L117.479 158.645L119.479 158.645L119.479 104.422L117.479 104.422Z" fill="#F5AC7F"/>
<path d="M294.189 176.854C294.263 176.306 293.879 175.803 293.332 175.729L284.413 174.524C283.866 174.45 283.362 174.833 283.288 175.381C283.214 175.928 283.598 176.432 284.145 176.506L292.073 177.577L291.002 185.505C290.928 186.052 291.312 186.556 291.859 186.63C292.406 186.704 292.91 186.32 292.984 185.773L294.189 176.854ZM251.63 209.647L293.804 177.515L292.592 175.924L250.418 208.057L251.63 209.647Z" fill="#F5AC7F"/>
<path d="M293.394 264.056C293.936 263.947 294.287 263.421 294.179 262.879L292.414 254.054C292.305 253.512 291.778 253.161 291.237 253.269C290.695 253.378 290.344 253.905 290.452 254.446L292.021 262.291L284.177 263.86C283.635 263.968 283.284 264.495 283.392 265.036C283.501 265.578 284.027 265.929 284.569 265.821L293.394 264.056ZM250.47 235.792L292.643 263.907L293.753 262.243L251.579 234.127L250.47 235.792Z" fill="#F5AC7F"/>
<path d="M293.905 83.0375C294.295 82.647 294.295 82.0138 293.905 81.6233L287.541 75.2594C287.15 74.8688 286.517 74.8688 286.126 75.2594C285.736 75.6499 285.736 76.2831 286.126 76.6736L291.783 82.3304L286.126 87.9873C285.736 88.3778 285.736 89.011 286.126 89.4015C286.517 89.792 287.15 89.792 287.541 89.4015L293.905 83.0375ZM245.999 196.799C245.999 169.192 247.509 140.709 254.238 119.153C257.6 108.381 262.242 99.4204 268.577 93.1616C274.886 86.9289 282.918 83.3304 293.197 83.3304L293.197 81.3304C282.39 81.3304 273.854 85.1374 267.172 91.7388C260.516 98.3139 255.744 107.615 252.329 118.557C245.501 140.43 243.999 169.182 243.999 196.799L245.999 196.799Z" fill="#F5AC7F"/>
<path d="M293.556 360.924C293.946 361.315 293.946 361.948 293.556 362.339L287.192 368.703C286.801 369.093 286.168 369.093 285.778 368.703C285.387 368.312 285.387 367.679 285.778 367.288L291.435 361.632L285.778 355.975C285.387 355.584 285.387 354.951 285.778 354.56C286.168 354.17 286.801 354.17 287.192 354.56L293.556 360.924ZM245.65 247.163C245.65 274.77 247.161 303.253 253.889 324.809C257.252 335.581 261.893 344.542 268.229 350.8C274.537 357.033 282.569 360.631 292.849 360.632L292.849 362.632C282.042 362.631 273.505 358.824 266.823 352.223C260.167 345.648 255.395 336.346 251.98 325.404C245.153 303.532 243.65 274.78 243.65 247.163L245.65 247.163Z" fill="#F5AC7F"/>
<rect x="1" y="1" width="234.959" height="90.3637" rx="6" fill="#F0E1D7" stroke="#F5AC7F" stroke-width="2" stroke-dasharray="4 4"/>
<path d="M61.3242 46.6719H67.1602V47.2812H65.4023V53L63.4102 52.2734C63.332 52.3359 63.2305 52.3984 63.1055 52.4609C62.1523 52.9766 61.0898 53.2344 59.918 53.2344C58.3086 53.2344 56.8555 52.7344 55.5586 51.7344C53.7773 50.3281 52.8867 48.375 52.8867 45.875C52.8867 43.6875 53.6211 41.9141 55.0898 40.5547C56.4336 39.3203 58.043 38.7031 59.918 38.7031C61.0273 38.7031 62.0742 38.9453 63.0586 39.4297L65.0977 39.0078L65.2148 43.5547H64.6055C64.2305 42.2578 63.8086 41.3047 63.3398 40.6953C62.6211 39.8047 61.457 39.3594 59.8477 39.3594C59.4102 39.3594 58.9961 39.4062 58.6055 39.5C56.3555 40.0938 55.2305 42.25 55.2305 45.9688C55.2461 50.3125 56.8086 52.5 59.918 52.5312C60.043 52.5312 60.168 52.5234 60.293 52.5078C61.6055 52.3984 62.6523 51.875 63.4336 50.9375V47.2812H61.3242V46.6719ZM77.0273 53.2344C75.9336 53.2188 75.293 52.5156 75.1055 51.125C74.9648 51.4531 74.7539 51.7656 74.4727 52.0625C73.6914 52.8438 72.7305 53.2344 71.5898 53.2344C71.1211 53.2344 70.6758 53.1484 70.2539 52.9766C69.207 52.5391 68.6836 51.7266 68.6836 50.5391C68.6836 50.1953 68.7305 49.875 68.8242 49.5781C69.3555 48.0469 71.457 47.2812 75.1289 47.2812V45.8047C75.082 44.2891 74.3242 43.4844 72.8555 43.3906C72.2305 43.3906 71.7695 43.5859 71.4727 43.9766C71.3945 44.0859 71.2461 44.4297 71.0273 45.0078C70.8555 45.4609 70.5898 45.6875 70.2305 45.6875C70.1523 45.6875 70.0742 45.6797 69.9961 45.6641C69.543 45.5859 69.3164 45.3047 69.3164 44.8203C69.3164 44.5547 69.4102 44.2891 69.5977 44.0234C70.1914 43.2109 71.3633 42.8047 73.1133 42.8047C73.2539 42.8047 73.3945 42.8047 73.5352 42.8047C75.7695 42.9297 76.8867 44.1094 76.8867 46.3438V51.2891C76.9023 52.0703 77.1133 52.4766 77.5195 52.5078C78.0195 52.4922 78.3242 51.9141 78.4336 50.7734L79.043 50.7969C79.043 50.875 79.0352 50.9609 79.0195 51.0547C78.8945 52.5078 78.2305 53.2344 77.0273 53.2344ZM72.3633 52.2969C72.707 52.2969 73.0586 52.2188 73.418 52.0625C74.3242 51.625 74.8945 50.8672 75.1289 49.7891V47.9141C73.9102 47.9297 72.9805 48.0078 72.3398 48.1484C71.1367 48.4297 70.5352 49.0938 70.5352 50.1406C70.5352 50.4062 70.5586 50.6484 70.6055 50.8672C70.8242 51.8203 71.4102 52.2969 72.3633 52.2969ZM84.4336 52.4141C84.5117 52.4141 84.5898 52.4219 84.668 52.4375C84.9023 52.4844 85.0195 52.6719 85.0195 53H79.8633V52.4141C80.3945 52.4141 80.7773 52.375 81.0117 52.2969C81.418 52.1562 81.6211 51.7266 81.6211 51.0078V43.625H79.8633V43.0391H83.2617L83.3555 45.3828C83.5117 44.9609 83.7227 44.5781 83.9883 44.2344C84.7227 43.2812 85.6523 42.8047 86.7773 42.8047C87.0742 42.8047 87.3633 42.8594 87.6445 42.9688C88.5977 43.3281 89.2148 44.125 89.4961 45.3594C89.6211 45.0469 89.7773 44.75 89.9648 44.4688C90.6836 43.3594 91.6367 42.8047 92.8242 42.8047C93.3711 42.8047 93.8789 42.9453 94.3477 43.2266C95.3945 43.8672 95.918 44.9922 95.918 46.6016V52.4141H97.1133C97.207 52.4141 97.2852 52.4219 97.3477 52.4375C97.582 52.4688 97.6992 52.6562 97.6992 53H92.5195V52.4141C93.0508 52.4141 93.4258 52.375 93.6445 52.2969C93.9883 52.1562 94.1602 51.7266 94.1602 51.0078V46.3672C94.1602 45.8672 94.082 45.4219 93.9258 45.0312C93.5977 44.2031 93.0352 43.7891 92.2383 43.7891C91.9414 43.7891 91.6289 43.8672 91.3008 44.0234C90.4414 44.4766 89.8867 45.2734 89.6367 46.4141V46.6016V52.4141H90.6914C90.7852 52.4141 90.8633 52.4219 90.9258 52.4375C91.1602 52.4688 91.2773 52.6562 91.2773 53H86.2383V52.4141C86.7695 52.4141 87.1445 52.375 87.3633 52.2969C87.707 52.1562 87.8789 51.7266 87.8789 51.0078V46.3672C87.8789 45.8984 87.8164 45.4766 87.6914 45.1016C87.3945 44.2422 86.8555 43.8125 86.0742 43.8125C85.6523 43.8125 85.2305 43.9688 84.8086 44.2812C83.9023 44.9531 83.4258 45.9766 83.3789 47.3516V52.4141H84.4336ZM104.121 43.3906C103.715 43.3906 103.332 43.4844 102.973 43.6719C101.879 44.2188 101.293 45.3906 101.215 47.1875L103.699 47.2578C104.418 47.2734 104.973 47.2422 105.363 47.1641C106.113 46.9922 106.488 46.5156 106.488 45.7344C106.488 45.3906 106.426 45.0703 106.301 44.7734C105.941 43.8516 105.215 43.3906 104.121 43.3906ZM108.199 50.75C108.105 50.9688 107.996 51.1875 107.871 51.4062C107.074 52.625 105.832 53.2344 104.145 53.2344C103.082 53.2344 102.137 52.9609 101.309 52.4141C99.918 51.4766 99.2227 50.0391 99.2227 48.1016C99.2227 47.0391 99.4414 46.0859 99.8789 45.2422C100.723 43.6172 102.121 42.8047 104.074 42.8047C105.074 42.8047 105.957 43.0312 106.723 43.4844C107.801 44.1094 108.34 44.9531 108.34 46.0156C108.34 46.5938 108.129 47.0391 107.707 47.3516C107.16 47.7422 105.934 47.9219 104.027 47.8906L101.215 47.8438C101.23 48.5 101.301 49.1016 101.426 49.6484C101.848 51.6016 102.879 52.5781 104.52 52.5781C104.66 52.5781 104.809 52.5703 104.965 52.5547C106.184 52.3984 107.066 51.7266 107.613 50.5391L108.199 50.75ZM122.004 51.9219C120.566 52.7812 119.059 53.2188 117.48 53.2344C115.324 53.2344 113.574 52.5156 112.23 51.0781C110.965 49.6875 110.332 47.9688 110.332 45.9219C110.332 44.2344 110.785 42.7422 111.691 41.4453C113.004 39.6172 114.895 38.7031 117.363 38.7031C118.113 38.7031 118.848 38.7891 119.566 38.9609C120.66 39.2422 121.434 39.6094 121.887 40.0625C121.887 39.6406 121.91 39.3359 121.957 39.1484C122.035 38.9297 122.246 38.8203 122.59 38.8203L122.66 43.1328H122.098C121.988 42.7891 121.855 42.4531 121.699 42.125C120.824 40.2812 119.41 39.3594 117.457 39.3594C116.598 39.3594 115.816 39.5781 115.113 40.0156C113.504 41.0625 112.699 43.0469 112.699 45.9688C112.699 47.3281 112.879 48.5078 113.238 49.5078C113.973 51.5547 115.355 52.5781 117.387 52.5781C119.777 52.5625 121.371 51.2656 122.168 48.6875H122.73V53.1172C122.543 53.1172 122.395 53.0938 122.285 53.0469C122.098 52.9531 122.004 52.5781 122.004 51.9219ZM126.715 48.0078C126.715 48.6797 126.77 49.2891 126.879 49.8359C127.285 51.7109 128.277 52.6484 129.855 52.6484C130.152 52.6484 130.441 52.6094 130.723 52.5312C132.16 52.0781 132.879 50.5391 132.879 47.9141C132.879 47.4609 132.855 47.0469 132.809 46.6719C132.527 44.4844 131.52 43.3906 129.785 43.3906C129.41 43.3906 129.051 43.4531 128.707 43.5781C127.379 44.1094 126.715 45.5859 126.715 48.0078ZM129.855 42.8047C130.887 42.8047 131.832 43.0781 132.691 43.625C134.145 44.5781 134.871 46.0391 134.871 48.0078C134.871 49.4609 134.418 50.6719 133.512 51.6406C132.527 52.7031 131.285 53.2344 129.785 53.2344C128.723 53.2344 127.754 52.9375 126.879 52.3438C125.441 51.3594 124.723 49.8828 124.723 47.9141C124.723 46.4922 125.184 45.3047 126.105 44.3516C127.105 43.3203 128.355 42.8047 129.855 42.8047ZM141.082 52.4141C141.176 52.4141 141.254 52.4219 141.316 52.4375C141.551 52.4688 141.668 52.6562 141.668 53H136.512V52.4141C137.043 52.4141 137.426 52.375 137.66 52.2969C138.066 52.1562 138.27 51.7266 138.27 51.0078V43.625H136.512V43.0391H139.91L140.004 45.3828C140.176 44.9453 140.402 44.5469 140.684 44.1875C141.434 43.2656 142.387 42.8047 143.543 42.8047C144.121 42.8047 144.66 42.9531 145.16 43.25C146.238 43.9219 146.777 45.0391 146.777 46.6016V52.4141H147.949C148.043 52.4141 148.121 52.4219 148.184 52.4375C148.418 52.4688 148.535 52.6562 148.535 53H143.262V52.4141C143.793 52.4141 144.176 52.375 144.41 52.2969C144.816 52.1562 145.02 51.7266 145.02 51.0078V46.3672C145.02 45.9141 144.949 45.5078 144.809 45.1484C144.465 44.2578 143.816 43.8125 142.863 43.8125C142.426 43.8125 141.996 43.9453 141.574 44.2109C140.59 44.8516 140.074 45.8984 140.027 47.3516V52.4141H141.082ZM149.59 43.625V43.0391H151.23V40.8125L152.988 40.3203V43.0391H156.621V43.625H152.988V50.75C153.004 51.9219 153.434 52.5234 154.277 52.5547C155.027 52.4453 155.598 51.7422 155.988 50.4453L156.621 50.5625C156.621 50.5781 156.621 50.5938 156.621 50.6094C156.262 52.375 155.363 53.2578 153.926 53.2578C152.238 53.1953 151.34 52.1875 151.23 50.2344V43.625H149.59ZM162.574 43.3906C162.168 43.3906 161.785 43.4844 161.426 43.6719C160.332 44.2188 159.746 45.3906 159.668 47.1875L162.152 47.2578C162.871 47.2734 163.426 47.2422 163.816 47.1641C164.566 46.9922 164.941 46.5156 164.941 45.7344C164.941 45.3906 164.879 45.0703 164.754 44.7734C164.395 43.8516 163.668 43.3906 162.574 43.3906ZM166.652 50.75C166.559 50.9688 166.449 51.1875 166.324 51.4062C165.527 52.625 164.285 53.2344 162.598 53.2344C161.535 53.2344 160.59 52.9609 159.762 52.4141C158.371 51.4766 157.676 50.0391 157.676 48.1016C157.676 47.0391 157.895 46.0859 158.332 45.2422C159.176 43.6172 160.574 42.8047 162.527 42.8047C163.527 42.8047 164.41 43.0312 165.176 43.4844C166.254 44.1094 166.793 44.9531 166.793 46.0156C166.793 46.5938 166.582 47.0391 166.16 47.3516C165.613 47.7422 164.387 47.9219 162.48 47.8906L159.668 47.8438C159.684 48.5 159.754 49.1016 159.879 49.6484C160.301 51.6016 161.332 52.5781 162.973 52.5781C163.113 52.5781 163.262 52.5703 163.418 52.5547C164.637 52.3984 165.52 51.7266 166.066 50.5391L166.652 50.75ZM167.637 53C167.637 52.8906 167.645 52.7891 167.66 52.6953C167.691 52.5391 167.824 52.4453 168.059 52.4141C168.527 52.3516 168.918 52.1172 169.23 51.7109L171.926 48.1953L168.762 43.625H167.613V43.0391H172.301V43.625H170.754L173.168 47.1406L175.699 43.625H174.059V43.0391H177.574C177.574 43.1641 177.566 43.2656 177.551 43.3438C177.504 43.5 177.355 43.5859 177.105 43.6016C176.621 43.6641 176.23 43.9062 175.934 44.3281L173.52 47.6797L176.754 52.4141H177.199C177.293 52.4141 177.371 52.4219 177.434 52.4375C177.668 52.4688 177.785 52.6562 177.785 53H173.426V52.4141H174.855L172.301 48.7344L169.512 52.4141H171.27V53H167.637ZM178.254 43.625V43.0391H179.895V40.8125L181.652 40.3203V43.0391H185.285V43.625H181.652V50.75C181.668 51.9219 182.098 52.5234 182.941 52.5547C183.691 52.4453 184.262 51.7422 184.652 50.4453L185.285 50.5625C185.285 50.5781 185.285 50.5938 185.285 50.6094C184.926 52.375 184.027 53.2578 182.59 53.2578C180.902 53.1953 180.004 52.1875 179.895 50.2344V43.625H178.254Z" fill="black"/>
</svg>
