<svg width="21" height="22" viewBox="0 0 21 22" fill="none" xmlns="http://www.w3.org/2000/svg">
<path d="M6.96825 17.6746C6.96825 17.7639 6.87164 17.8354 6.74983 17.8354C6.61122 17.8489 6.51462 17.7773 6.51462 17.6746C6.51462 17.5852 6.61122 17.5137 6.73303 17.5137C6.85904 17.5003 6.96825 17.5718 6.96825 17.6746ZM5.66196 17.4735C5.63256 17.5628 5.71657 17.6656 5.84257 17.6924C5.95178 17.7371 6.07779 17.6924 6.10299 17.6031C6.12819 17.5137 6.04839 17.4109 5.92238 17.3707C5.81317 17.3394 5.69136 17.3841 5.66196 17.4735ZM7.51848 17.3975C7.39667 17.4288 7.31267 17.5137 7.32527 17.6165C7.33787 17.7058 7.44708 17.7639 7.57308 17.7327C7.69489 17.7014 7.7789 17.6165 7.7663 17.5271C7.7537 17.4422 7.64029 17.3841 7.51848 17.3975ZM10.2823 0.272339C4.45649 0.272339 0 4.97818 0 11.1767C0 16.1328 2.93179 20.3738 7.11946 21.8665C7.65709 21.9693 7.8461 21.6162 7.8461 21.3257C7.8461 21.0486 7.8335 19.5203 7.8335 18.5818C7.8335 18.5818 4.89331 19.2521 4.27587 17.25C4.27587 17.25 3.79704 15.9495 3.1082 15.6144C3.1082 15.6144 2.14634 14.9127 3.1754 14.9261C3.1754 14.9261 4.22127 15.0155 4.79671 16.0791C5.71657 17.8042 7.25806 17.3081 7.8587 17.0132C7.95531 16.2981 8.22833 15.8021 8.53075 15.5071C6.1828 15.23 3.81384 14.868 3.81384 10.5689C3.81384 9.33991 4.13306 8.72319 4.80511 7.93665C4.6959 7.64616 4.33888 6.44847 4.91431 4.90221C5.79217 4.61172 7.8125 6.10883 7.8125 6.10883C8.65255 5.85857 9.55561 5.72897 10.4503 5.72897C11.3449 5.72897 12.248 5.85857 13.088 6.10883C13.088 6.10883 15.1084 4.60725 15.9862 4.90221C16.5617 6.45294 16.2046 7.64616 16.0954 7.93665C16.7675 8.72766 17.1791 9.34437 17.1791 10.5689C17.1791 14.8814 14.7051 15.2256 12.3572 15.5071C12.7436 15.8602 13.0712 16.5305 13.0712 17.5807C13.0712 19.0868 13.0586 20.9503 13.0586 21.3168C13.0586 21.6073 13.2518 21.9603 13.7853 21.8575C17.9856 20.3738 20.8333 16.1328 20.8333 11.1767C20.8333 4.97818 16.108 0.272339 10.2823 0.272339ZM4.08266 15.6859C4.02806 15.7306 4.04066 15.8333 4.11206 15.9183C4.17927 15.9898 4.27587 16.021 4.33048 15.9629C4.38508 15.9183 4.37248 15.8155 4.30108 15.7306C4.23387 15.659 4.13726 15.6278 4.08266 15.6859ZM3.62903 15.3239C3.59963 15.382 3.64163 15.4535 3.72564 15.4982C3.79284 15.5429 3.87685 15.5294 3.90625 15.4669C3.93565 15.4088 3.89365 15.3373 3.80964 15.2926C3.72564 15.2658 3.65843 15.2792 3.62903 15.3239ZM4.98992 16.9148C4.92272 16.9729 4.94792 17.107 5.04452 17.1919C5.14113 17.2947 5.26294 17.3081 5.31754 17.2366C5.37214 17.1785 5.34694 17.0444 5.26294 16.9595C5.17053 16.8567 5.04452 16.8433 4.98992 16.9148ZM4.51109 16.2579C4.44388 16.3026 4.44388 16.4188 4.51109 16.5216C4.57829 16.6243 4.6917 16.669 4.7463 16.6243C4.81351 16.5663 4.81351 16.4501 4.7463 16.3473C4.6875 16.2445 4.57829 16.1998 4.51109 16.2579Z" fill="#161616"/>
</svg>
