<svg width="44" height="16" viewBox="0 0 44 16" fill="none" xmlns="http://www.w3.org/2000/svg">
<path d="M5.25524 15.2C3.73523 15.2 2.50857 14.7333 1.57523 13.8C0.655235 12.8533 0.195235 11.4533 0.195235 9.6C0.195235 8.68 0.295235 7.78 0.495235 6.9C0.708568 6.00667 1.0219 5.17333 1.43523 4.4C1.8619 3.62667 2.39523 2.95333 3.03524 2.38C3.67523 1.79333 4.42857 1.33333 5.29524 0.999999C6.1619 0.666666 7.1419 0.5 8.23524 0.5C9.04857 0.5 9.8219 0.586666 10.5552 0.76C11.3019 0.933332 11.9419 1.19333 12.4752 1.54L10.9952 4.56C10.6219 4.32 10.1952 4.11333 9.71524 3.94C9.23524 3.76667 8.7219 3.68 8.17524 3.68C7.38857 3.68 6.72857 3.87333 6.19523 4.26C5.6619 4.64667 5.23524 5.14667 4.91524 5.76C4.60857 6.36 4.38857 6.99333 4.25523 7.66C4.1219 8.32667 4.05524 8.94 4.05524 9.5C4.05524 10.0867 4.1219 10.5667 4.25523 10.94C4.4019 11.3133 4.6019 11.5867 4.85523 11.76C5.10857 11.9333 5.41524 12.02 5.77523 12.02C6.0019 12.02 6.18857 12.0133 6.33523 12C6.4819 11.9733 6.67524 11.9333 6.91524 11.88L7.39523 9.62H5.33524L6.03524 6.64H11.7952L10.1352 14.4C9.4819 14.6133 8.75523 14.8 7.95523 14.96C7.16857 15.12 6.26857 15.2 5.25524 15.2ZM15.076 15.2C14.396 15.2 13.7493 15.12 13.136 14.96C12.5227 14.7867 11.9893 14.5533 11.536 14.26L11.576 10.84C11.896 11.0533 12.2627 11.2533 12.676 11.44C13.1027 11.6267 13.5427 11.78 13.996 11.9C14.4493 12.0067 14.8627 12.06 15.236 12.06C15.4494 12.06 15.6294 12.0333 15.776 11.98C15.9227 11.9267 16.0427 11.8533 16.136 11.76C16.2427 11.6533 16.316 11.5333 16.356 11.4C16.4093 11.2533 16.436 11.0867 16.436 10.9C16.436 10.66 16.3693 10.44 16.236 10.24C16.1027 10.0267 15.9227 9.81333 15.696 9.6C15.4827 9.38667 15.236 9.16667 14.956 8.94C14.5427 8.58 14.1893 8.20667 13.896 7.82C13.6027 7.43333 13.376 7.01333 13.216 6.56C13.0693 6.09333 12.996 5.58 12.996 5.02C12.996 4.36667 13.1093 3.76667 13.336 3.22C13.576 2.67333 13.916 2.2 14.356 1.8C14.796 1.38667 15.316 1.07333 15.916 0.86C16.516 0.633333 17.176 0.519999 17.896 0.519999C18.6427 0.519999 19.3627 0.613333 20.056 0.799999C20.7627 0.973333 21.3893 1.22667 21.936 1.56L20.596 4.46C20.1827 4.23333 19.736 4.03333 19.256 3.86C18.776 3.68667 18.3227 3.6 17.896 3.6C17.6293 3.6 17.416 3.64 17.256 3.72C17.1093 3.78667 17.0027 3.88 16.936 4C16.8693 4.10667 16.8227 4.22667 16.796 4.36C16.7827 4.48 16.776 4.59333 16.776 4.7C16.776 4.88667 16.8094 5.07333 16.876 5.26C16.956 5.44667 17.1027 5.65333 17.316 5.88C17.5293 6.09333 17.8293 6.36 18.216 6.68C18.7094 7.06667 19.1027 7.46 19.396 7.86C19.7027 8.26 19.9293 8.68 20.076 9.12C20.2227 9.56 20.296 10.04 20.296 10.56C20.296 11.28 20.1827 11.9267 19.956 12.5C19.7427 13.0733 19.416 13.56 18.976 13.96C18.536 14.36 17.9894 14.6667 17.336 14.88C16.696 15.0933 15.9427 15.2 15.076 15.2ZM19.1038 15L26.1038 0.719999H31.0638L32.0038 15H28.2838L28.2438 12.32H24.1438L23.0638 15H19.1038ZM25.5638 9.28H28.1638L28.1038 5.18C28.0905 4.86 28.0838 4.54667 28.0838 4.24C28.0972 3.92 28.1105 3.62 28.1238 3.34H28.0638C27.9705 3.63333 27.8772 3.92667 27.7838 4.22C27.6905 4.5 27.5772 4.79333 27.4438 5.1L25.5638 9.28ZM32.1502 15L35.1702 0.719999H38.5502C39.7636 0.719999 40.7369 0.906666 41.4702 1.28C42.2036 1.65333 42.7369 2.16 43.0702 2.8C43.4169 3.44 43.5902 4.15333 43.5902 4.94C43.5902 5.80667 43.4436 6.57333 43.1502 7.24C42.8702 7.89333 42.4636 8.44667 41.9302 8.9C41.3969 9.35333 40.7569 9.69333 40.0102 9.92C39.2769 10.1467 38.4636 10.26 37.5702 10.26H36.9302L35.9702 15H32.1502ZM38.0902 7.14C38.4369 7.14 38.7302 7.05333 38.9702 6.88C39.2236 6.69333 39.4169 6.44667 39.5502 6.14C39.6969 5.83333 39.7702 5.48667 39.7702 5.1C39.7702 4.76667 39.6836 4.47333 39.5102 4.22C39.3502 3.96667 39.0702 3.84 38.6702 3.84H38.2902L37.6502 7.14H38.0902Z" fill="#282828"/>
</svg>
