<svg width="125" height="166" viewBox="0 0 125 166" fill="none" xmlns="http://www.w3.org/2000/svg">
<path d="M69.9589 127.236L67.2144 141.756L67.4906 148.69L63.3902 155.668L54.3548 152.249L21.806 134.573L30.6493 97.867C27.1107 96.8682 22.7869 93.8635 23.1126 87.8614C23.4192 82.2098 28.1716 80.4197 30.5095 80.2311C29.8231 76.3016 28.4837 67.6414 28.6167 64.436C28.7497 61.2305 28.9314 47.793 29.0056 41.4748C29.3694 28.3575 40.2413 21.3915 45.6318 19.5481C55.1317 14.9274 72.5393 19.567 80.0556 22.4645C93.7532 27.9754 96.4742 47.0324 96.1225 55.872C101.687 57.4016 101.436 61.4891 100.616 63.3416L98.1813 67.6602L74.6338 70.5392L78.4455 75.9512C82.9353 76.2502 92.5786 77.1553 95.2335 78.3839C97.8884 79.6125 97.031 84.697 96.2705 87.0857L94.5974 93.1721L93.0906 95.2517L69.9589 127.236Z" fill="#F7BD18"/>
<path d="M30.5095 80.2311C29.8231 76.3016 28.4837 67.6414 28.6167 64.436C28.7497 61.2305 28.9314 47.793 29.0056 41.4748C29.3694 28.3575 40.2413 21.3915 45.6318 19.5481C55.1317 14.9274 72.5393 19.567 80.0556 22.4645C93.7532 27.9754 96.4742 47.0324 96.1225 55.872C101.687 57.4016 101.436 61.4891 100.616 63.3416L98.1813 67.6602L74.6338 70.5392L78.4455 75.9512C82.9353 76.2502 92.5786 77.1553 95.2335 78.3839C97.8884 79.6125 97.031 84.697 96.2705 87.0857L94.5974 93.1721L93.0906 95.2517L69.9589 127.236L67.2144 141.756L67.4906 148.69L63.3902 155.668L54.3548 152.249L21.806 134.573L30.6493 97.867M30.5095 80.2311C32.1253 80.7791 35.4193 82.3289 35.6687 84.1431M30.5095 80.2311C28.1716 80.4197 23.4192 82.2098 23.1126 87.8614C22.7869 93.8635 27.1107 96.8682 30.6493 97.867M32.4242 98.2143C31.8772 98.1577 31.2755 98.0437 30.6493 97.867" stroke="black" stroke-width="3"/>
<path d="M23.5808 142.855C56.7493 156.461 72.0212 158.664 75.5111 158.065L73.8285 142.639L67.271 139.278L61.5485 153.292C60.0639 146.898 55.2432 138.05 53.0185 134.425L23.5808 142.855Z" fill="#EFECFB" stroke="black" stroke-width="3"/>
<path d="M69.0188 161.268C71.6968 161.505 75.9889 160.482 77.8003 159.941C78.3387 154.353 76.608 145.378 75.6754 141.588C73.3798 139.96 68.0733 138.583 66.1315 138.465C67.7315 139.902 69.006 154.51 69.0188 161.268Z" fill="#EFECFD"/>
<path d="M18.9992 126.632C24.7552 127.466 44.1297 131.982 53.0975 134.135C49.5261 140.323 45.0714 153.126 44.0715 152.228C43.2715 151.509 22.1699 144.961 11.7191 141.776C12.9356 134.629 17.0794 128.702 18.9992 126.632Z" fill="#EFECFD"/>
<path d="M77.8003 159.941L79.2933 160.085L79.1965 161.089L78.2297 161.378L77.8003 159.941ZM69.0188 161.268L68.8864 162.762L67.5214 162.641L67.5188 161.271L69.0188 161.268ZM66.1315 138.465L65.1291 139.581L66.2226 136.968L66.1315 138.465ZM75.6754 141.588L76.5433 140.365L76.9985 140.688L77.1319 141.23L75.6754 141.588ZM53.0975 134.135L53.4478 132.677L55.4006 133.145L54.3967 134.885L53.0975 134.135ZM18.9992 126.632L17.8994 125.612L18.435 125.035L19.2144 125.148L18.9992 126.632ZM11.7191 141.776L11.2818 143.211L10.0188 142.826L10.2403 141.524L11.7191 141.776ZM78.2297 161.378C77.2744 161.664 75.6937 162.068 73.9999 162.373C72.3335 162.672 70.4307 162.899 68.8864 162.762L69.1512 159.774C70.2849 159.874 71.8671 159.708 73.4692 159.42C75.0437 159.137 76.5148 158.76 77.3708 158.504L78.2297 161.378ZM67.5188 161.271C67.5125 157.958 67.1952 152.672 66.6795 148.037C66.4217 145.719 66.118 143.599 65.7865 141.986C65.6201 141.176 65.4539 140.53 65.295 140.065C65.2155 139.833 65.1473 139.673 65.0957 139.574C65.0349 139.457 65.0354 139.497 65.1291 139.581L67.1339 137.349C67.4276 137.613 67.6256 137.936 67.7592 138.193C67.9021 138.469 68.0253 138.778 68.1338 139.095C68.3509 139.731 68.5468 140.515 68.7251 141.382C69.0831 143.124 69.3988 145.347 69.6611 147.705C70.186 152.423 70.5123 157.82 70.5188 161.265L67.5188 161.271ZM66.2226 136.968C67.3651 137.037 69.3067 137.449 71.2058 138.025C73.0914 138.596 75.1877 139.403 76.5433 140.365L74.8075 142.812C73.8675 142.145 72.1628 141.449 70.3358 140.896C68.5222 140.346 66.8397 140.011 66.0404 139.962L66.2226 136.968ZM77.1319 141.23C77.6095 143.17 78.2853 146.411 78.7748 149.881C79.2609 153.326 79.5801 157.11 79.2933 160.085L76.3072 159.797C76.5589 157.185 76.282 153.686 75.8042 150.3C75.3298 146.937 74.674 143.796 74.2189 141.947L77.1319 141.23ZM52.7473 135.594C43.7424 133.431 24.4538 128.938 18.7841 128.117L19.2144 125.148C25.0566 125.994 44.517 130.532 53.4478 132.677L52.7473 135.594ZM20.099 127.652C18.3192 129.571 14.3527 135.243 13.1978 142.028L10.2403 141.524C11.5184 134.016 15.8396 127.833 17.8994 125.612L20.099 127.652ZM12.1563 140.341C17.385 141.935 25.2794 144.37 31.969 146.497C35.3125 147.561 38.3626 148.55 40.6305 149.319C41.7626 149.703 42.7119 150.037 43.4094 150.3C43.7562 150.43 44.0573 150.55 44.2938 150.654C44.4111 150.705 44.5295 150.76 44.6371 150.817C44.7121 150.856 44.9004 150.956 45.0739 151.112L43.069 153.344C43.1925 153.455 43.2911 153.499 43.2387 153.471C43.219 153.461 43.1722 153.438 43.0884 153.401C42.9228 153.328 42.6783 153.23 42.3512 153.107C41.7007 152.862 40.7886 152.541 39.6666 152.16C37.4263 151.4 34.3979 150.418 31.0597 149.356C24.3858 147.234 16.5039 144.802 11.2818 143.211L12.1563 140.341ZM45.0739 151.112C44.872 150.931 44.5862 150.792 44.2517 150.775C43.9463 150.759 43.7199 150.851 43.6069 150.91C43.4153 151.009 43.3583 151.112 43.4359 151.016C43.5596 150.864 43.772 150.528 44.0731 149.953C44.6577 148.839 45.3986 147.18 46.2454 145.239C47.9087 141.427 49.9588 136.573 51.7984 133.385L54.3967 134.885C52.6649 137.885 50.7019 142.527 48.995 146.439C48.1568 148.36 47.3732 150.12 46.7298 151.347C46.4168 151.944 46.0893 152.508 45.764 152.908C45.617 153.089 45.3583 153.381 44.9899 153.572C44.7884 153.677 44.4799 153.79 44.0988 153.771C43.6884 153.75 43.3335 153.581 43.069 153.344L45.0739 151.112Z" fill="black"/>
<path d="M61.5692 130.541C65.8732 131.516 75.9561 131.503 81.856 123.648L78.9529 122.85C81.6592 123.395 85.8803 122.967 87.4562 118.018C91.8156 117.658 100.515 115.872 100.44 111.611C100.364 107.351 98.5336 106.827 97.628 107.098C98.6467 103.014 98.7667 93.8817 91.0978 90.028L81.6861 90.2464C78.5414 89.5898 70.2583 88.726 62.2826 90.5237C52.3129 92.7709 46.1111 96.0537 44.0039 108.255C41.8967 120.457 55.4826 128.868 61.5692 130.541Z" fill="#BC9B4B"/>
<path d="M87.4562 118.018C85.631 123.751 80.2571 123.417 77.7984 122.533L81.856 123.648C75.9561 131.503 65.8732 131.516 61.5692 130.541C55.4826 128.868 41.8967 120.457 44.0039 108.255C46.1111 96.0537 52.3129 92.7709 62.2826 90.5237C70.2583 88.726 78.5414 89.5898 81.6861 90.2464L91.0978 90.028C98.7667 93.8817 98.6467 103.014 97.628 107.098C98.5336 106.827 100.364 107.351 100.44 111.611C100.515 115.872 91.8156 117.658 87.4562 118.018ZM87.4562 118.018C81.1116 118.04 67.3643 117.171 63.1325 113.514" stroke="black" stroke-width="3"/>
<path d="M96.5872 85.9257C99.4612 85.6766 105.198 83.1802 105.15 75.1869C105.091 65.1953 99.642 61.2035 92.5268 59.8711C86.8346 58.8051 80.9198 63.5386 78.674 66.0385C77.495 62.3893 73.0329 55.2606 64.6166 55.9397C54.0961 56.7885 50.5467 65.1647 50.1415 70.041C49.7362 74.9173 55.28 84.2345 63.214 84.8568C71.1479 85.4791 75.0022 82.7978 77.7261 78.5589C78.1921 77.8336 78.5293 76.9722 78.7655 76.039C82.8316 76.3255 91.6015 77.0736 94.1519 77.7747C97.3398 78.651 97.1449 83.8968 96.5872 85.9257Z" fill="#E9EBFA"/>
<path d="M90.8057 89.9475C92.3176 89.7397 95.5905 88.6443 96.5872 85.9257M96.5872 85.9257C99.4612 85.6766 105.198 83.1802 105.15 75.1869C105.091 65.1953 99.642 61.2035 92.5268 59.8711C86.8346 58.8051 80.9198 63.5386 78.674 66.0385M96.5872 85.9257C97.1449 83.8968 97.3398 78.651 94.1519 77.7747C91.6015 77.0736 82.8316 76.3255 78.7655 76.039M78.674 66.0385C77.495 62.3893 73.0329 55.2606 64.6166 55.9397C54.0961 56.7885 50.5467 65.1647 50.1415 70.041C49.7362 74.9173 55.28 84.2345 63.214 84.8568C71.1479 85.4791 75.0022 82.7978 77.7261 78.5589C78.1921 77.8336 78.5293 76.9722 78.7655 76.039M78.674 66.0385C79.1394 68.2086 79.634 72.6087 78.7655 76.039" stroke="black" stroke-width="3"/>
<circle cx="2.10394" cy="2.10394" r="2.10394" transform="matrix(-0.964233 -0.265056 -0.265056 0.964233 100.201 71.6448)" fill="black"/>
<circle cx="2.10394" cy="2.10394" r="2.10394" transform="matrix(-0.964233 -0.265056 -0.265056 0.964233 67.627 67.6779)" fill="black"/>
<path d="M42.1148 76.5632L39.49 57.7614L33.9996 74.3325L26.5135 60.7406C26.4004 64.5542 26.3467 72.9146 27.0368 75.8475M78.4744 21.4064C77.9813 17.5301 74.8026 9.36185 66.0324 7.69919C55.0697 5.62087 51.4694 13.0479 51.2963 20.4819M67.171 18.2993C65.6587 14.3506 60.5083 6.92884 52.0052 8.83096C41.3762 11.2086 41.7539 20.0409 43.2978 25.7647M33.0957 91.2292C32.9571 90.3121 32.5297 89.0264 31.6951 88.0386M27.1466 86.7883C29.2942 86.1889 30.7537 86.9244 31.6951 88.0386M29.6177 90.2731C29.4449 89.9139 29.6185 88.9641 31.6951 88.0386" stroke="black" stroke-width="3"/>
</svg>
