<svg width="313" height="241" viewBox="0 0 313 241" fill="none" xmlns="http://www.w3.org/2000/svg">
<mask id="mask0_97_12" style="mask-type:alpha" maskUnits="userSpaceOnUse" x="0" y="0" width="313" height="241">
<mask id="path-1-outside-1_97_12" maskUnits="userSpaceOnUse" x="0.0488281" y="0" width="312" height="241" fill="black">
<rect fill="white" x="0.0488281" width="312" height="241"/>
<path d="M105.506 72.0307V6.39454H120.111V72.0307H105.506ZM146.158 72.0307V6.39454H160.856V72.0307H146.158ZM114.25 44.6048V31.961H150.995V44.6048H114.25Z"/>
<path d="M172.156 72.0307V26.8477H186.388V72.0307H172.156ZM179.319 20.6188C177.086 20.6188 175.225 19.8751 173.737 18.3876C172.311 16.8381 171.597 14.9787 171.597 12.8094C171.597 10.5781 172.311 8.71876 173.737 7.23126C175.225 5.74375 177.086 5 179.319 5C181.551 5 183.381 5.74375 184.807 7.23126C186.233 8.71876 186.947 10.5781 186.947 12.8094C186.947 14.9787 186.233 16.8381 184.807 18.3876C183.381 19.8751 181.551 20.6188 179.319 20.6188Z"/>
<path d="M196.411 83.187L203.202 70.5432L207.388 69.3346C206.954 70.2643 206.427 71.0391 205.807 71.6589C205.187 72.2167 204.473 72.4956 203.667 72.4956C201.869 72.4956 200.225 71.7518 198.737 70.2643C197.248 68.7768 196.504 66.9174 196.504 64.6862C196.504 62.269 197.31 60.1927 198.923 58.4572C200.597 56.7218 202.644 55.8541 205.062 55.8541C207.357 55.8541 209.342 56.7218 211.016 58.4572C212.753 60.1307 213.621 62.207 213.621 64.6862C213.621 65.6778 213.435 66.8245 213.063 68.126C212.691 69.4276 211.946 71.132 210.83 73.2393L203.295 86.9988L196.411 83.187Z"/>
<path d="M99.9645 153.379V87.7425H114.569V153.379H99.9645Z"/>
<path d="M124.892 114.146L131.683 101.409L135.869 100.293C135.435 101.161 134.908 101.905 134.288 102.525C133.668 103.144 132.954 103.454 132.148 103.454C130.35 103.454 128.706 102.711 127.218 101.223C125.73 99.7355 124.985 97.8452 124.985 95.5519C124.985 93.1347 125.792 91.0894 127.404 89.416C129.078 87.6805 131.125 86.8128 133.544 86.8128C135.838 86.8128 137.823 87.6805 139.497 89.416C141.234 91.0894 142.102 93.1347 142.102 95.5519C142.102 96.5436 141.916 97.7212 141.544 99.0847C141.172 100.386 140.428 102.06 139.311 104.105L131.776 117.865L124.892 114.146Z"/>
<path d="M147.082 153.379V108.196H161.315V153.379H147.082ZM176.013 153.379V126.975C176.013 124.682 175.3 122.916 173.874 121.676C172.509 120.375 170.804 119.724 168.757 119.724C167.331 119.724 166.06 120.034 164.943 120.654C163.827 121.211 162.928 122.017 162.246 123.071C161.625 124.124 161.315 125.426 161.315 126.975L155.827 124.558C155.827 120.963 156.602 117.896 158.152 115.354C159.703 112.751 161.811 110.768 164.478 109.404C167.145 107.979 170.153 107.266 173.502 107.266C176.664 107.266 179.486 107.979 181.967 109.404C184.51 110.83 186.525 112.813 188.013 115.354C189.502 117.896 190.246 120.932 190.246 124.465V153.379H176.013ZM204.944 153.379V126.975C204.944 124.682 204.231 122.916 202.804 121.676C201.44 120.375 199.735 119.724 197.688 119.724C196.262 119.724 194.99 120.034 193.874 120.654C192.758 121.211 191.859 122.017 191.176 123.071C190.556 124.124 190.246 125.426 190.246 126.975L182.06 125.86C182.184 122.017 183.083 118.732 184.758 116.005C186.494 113.216 188.758 111.078 191.548 109.59C194.401 108.041 197.595 107.266 201.13 107.266C204.603 107.266 207.673 108.01 210.339 109.497C213.068 110.923 215.208 112.999 216.758 115.726C218.371 118.391 219.177 121.614 219.177 125.395V153.379H204.944Z"/>
<path d="M25.7469 235.749C21.5917 235.749 17.9638 235.006 14.8629 233.518C11.8241 231.969 9.21941 229.83 7.04883 227.103L16.8165 217.713C17.9328 219.263 19.2351 220.44 20.7235 221.246C22.2739 222.052 24.0104 222.455 25.9329 222.455C27.7934 222.455 29.4059 222.083 30.7702 221.339C32.1346 220.533 33.2199 219.418 34.0261 217.992C34.8323 216.505 35.2354 214.676 35.2354 212.507V169.09H49.9334V211.67C49.9334 216.567 48.9411 220.812 46.9566 224.407C44.972 228.002 42.1813 230.791 38.5843 232.774C34.9874 234.758 30.7082 235.749 25.7469 235.749Z"/>
<path d="M82.0481 235.749C77.3969 235.749 73.1797 234.727 69.3967 232.681C65.6757 230.574 62.7299 227.723 60.5593 224.128C58.3887 220.533 57.3034 216.505 57.3034 212.042C57.3034 207.58 58.3887 203.582 60.5593 200.049C62.7299 196.516 65.6757 193.727 69.3967 191.682C73.1177 189.575 77.3348 188.521 82.0481 188.521C86.7614 188.521 90.9785 189.544 94.6995 191.589C98.4205 193.634 101.366 196.454 103.537 200.049C105.707 203.582 106.793 207.58 106.793 212.042C106.793 216.505 105.707 220.533 103.537 224.128C101.366 227.723 98.4205 230.574 94.6995 232.681C90.9785 234.727 86.7614 235.749 82.0481 235.749ZM82.0481 222.827C84.0947 222.827 85.8931 222.393 87.4436 221.525C88.994 220.595 90.1723 219.325 90.9785 217.713C91.8467 216.04 92.2809 214.15 92.2809 212.042C92.2809 209.935 91.8467 208.107 90.9785 206.557C90.1103 204.946 88.9009 203.706 87.3505 202.838C85.8621 201.909 84.0947 201.444 82.0481 201.444C80.0636 201.444 78.2961 201.909 76.7457 202.838C75.1953 203.706 73.9859 204.946 73.1177 206.557C72.2495 208.169 71.8153 210.028 71.8153 212.135C71.8153 214.18 72.2495 216.04 73.1177 217.713C73.9859 219.325 75.1953 220.595 76.7457 221.525C78.2961 222.393 80.0636 222.827 82.0481 222.827Z"/>
<path d="M113.879 234.727V189.544H128.111V234.727H113.879ZM128.111 209.904L122.158 205.255C123.336 199.987 125.321 195.897 128.111 192.984C130.902 190.071 134.778 188.614 139.74 188.614C141.91 188.614 143.802 188.955 145.414 189.637C147.089 190.256 148.546 191.248 149.786 192.612L141.321 203.303C140.701 202.621 139.926 202.095 138.995 201.723C138.065 201.351 137.011 201.165 135.833 201.165C133.476 201.165 131.584 201.909 130.158 203.396C128.794 204.822 128.111 206.991 128.111 209.904Z"/>
<path d="M171.562 235.656C167.283 235.656 163.469 234.634 160.12 232.588C156.833 230.543 154.229 227.754 152.306 224.221C150.445 220.688 149.515 216.66 149.515 212.135C149.515 207.611 150.445 203.582 152.306 200.049C154.229 196.516 156.833 193.727 160.12 191.682C163.469 189.637 167.283 188.614 171.562 188.614C174.663 188.614 177.454 189.203 179.934 190.38C182.477 191.558 184.555 193.2 186.167 195.308C187.842 197.353 188.772 199.708 188.958 202.373V221.432C188.772 224.097 187.873 226.514 186.26 228.684C184.648 230.791 182.57 232.495 180.027 233.797C177.485 235.037 174.663 235.656 171.562 235.656ZM174.074 222.827C176.12 222.827 177.888 222.393 179.376 221.525C180.865 220.595 182.043 219.325 182.911 217.713C183.779 216.102 184.214 214.242 184.214 212.135C184.214 210.028 183.779 208.199 182.911 206.65C182.105 205.039 180.927 203.768 179.376 202.838C177.888 201.909 176.151 201.444 174.167 201.444C172.182 201.444 170.415 201.909 168.864 202.838C167.376 203.768 166.167 205.039 165.236 206.65C164.368 208.261 163.934 210.09 163.934 212.135C163.934 214.18 164.368 216.009 165.236 217.62C166.105 219.232 167.314 220.502 168.864 221.432C170.415 222.362 172.151 222.827 174.074 222.827ZM197.609 234.727H183.655V222.548L185.795 211.577L183.376 200.607V167.231H197.609V234.727Z"/>
<path d="M226.515 235.656C222.359 235.656 218.638 234.634 215.352 232.588C212.127 230.543 209.553 227.754 207.63 224.221C205.77 220.688 204.84 216.66 204.84 212.135C204.84 207.611 205.77 203.582 207.63 200.049C209.553 196.516 212.127 193.727 215.352 191.682C218.638 189.637 222.359 188.614 226.515 188.614C229.553 188.614 232.282 189.203 234.701 190.38C237.181 191.558 239.197 193.2 240.747 195.308C242.298 197.353 243.166 199.708 243.352 202.373V221.897C243.166 224.562 242.298 226.948 240.747 229.056C239.259 231.101 237.274 232.712 234.794 233.89C232.313 235.068 229.553 235.656 226.515 235.656ZM229.398 222.827C232.437 222.827 234.887 221.835 236.747 219.852C238.608 217.806 239.538 215.234 239.538 212.135C239.538 210.028 239.104 208.169 238.236 206.557C237.43 204.946 236.251 203.706 234.701 202.838C233.212 201.909 231.476 201.444 229.491 201.444C227.507 201.444 225.739 201.909 224.189 202.838C222.701 203.706 221.491 204.946 220.561 206.557C219.693 208.169 219.259 210.028 219.259 212.135C219.259 214.18 219.693 216.009 220.561 217.62C221.429 219.232 222.639 220.502 224.189 221.432C225.739 222.362 227.476 222.827 229.398 222.827ZM238.98 234.727V222.548L241.12 211.577L238.98 200.607V189.544H252.934V234.727H238.98Z"/>
<path d="M292.816 234.727V208.974C292.816 206.619 292.072 204.729 290.583 203.303C289.157 201.816 287.328 201.072 285.095 201.072C283.545 201.072 282.18 201.413 281.002 202.095C279.824 202.714 278.893 203.644 278.211 204.884C277.529 206.061 277.188 207.425 277.188 208.974L271.699 206.278C271.699 202.745 272.475 199.646 274.025 196.981C275.575 194.316 277.715 192.271 280.444 190.845C283.234 189.358 286.366 188.614 289.839 188.614C293.188 188.614 296.134 189.42 298.677 191.031C301.281 192.581 303.328 194.657 304.816 197.26C306.305 199.863 307.049 202.714 307.049 205.813V234.727H292.816ZM262.955 234.727V189.544H277.188V234.727H262.955Z"/>
</mask>
<path d="M105.506 72.0307V6.39454H120.111V72.0307H105.506ZM146.158 72.0307V6.39454H160.856V72.0307H146.158ZM114.25 44.6048V31.961H150.995V44.6048H114.25Z" fill="#161616"/>
<path d="M172.156 72.0307V26.8477H186.388V72.0307H172.156ZM179.319 20.6188C177.086 20.6188 175.225 19.8751 173.737 18.3876C172.311 16.8381 171.597 14.9787 171.597 12.8094C171.597 10.5781 172.311 8.71876 173.737 7.23126C175.225 5.74375 177.086 5 179.319 5C181.551 5 183.381 5.74375 184.807 7.23126C186.233 8.71876 186.947 10.5781 186.947 12.8094C186.947 14.9787 186.233 16.8381 184.807 18.3876C183.381 19.8751 181.551 20.6188 179.319 20.6188Z" fill="#161616"/>
<path d="M196.411 83.187L203.202 70.5432L207.388 69.3346C206.954 70.2643 206.427 71.0391 205.807 71.6589C205.187 72.2167 204.473 72.4956 203.667 72.4956C201.869 72.4956 200.225 71.7518 198.737 70.2643C197.248 68.7768 196.504 66.9174 196.504 64.6862C196.504 62.269 197.31 60.1927 198.923 58.4572C200.597 56.7218 202.644 55.8541 205.062 55.8541C207.357 55.8541 209.342 56.7218 211.016 58.4572C212.753 60.1307 213.621 62.207 213.621 64.6862C213.621 65.6778 213.435 66.8245 213.063 68.126C212.691 69.4276 211.946 71.132 210.83 73.2393L203.295 86.9988L196.411 83.187Z" fill="#161616"/>
<path d="M99.9645 153.379V87.7425H114.569V153.379H99.9645Z" fill="#161616"/>
<path d="M124.892 114.146L131.683 101.409L135.869 100.293C135.435 101.161 134.908 101.905 134.288 102.525C133.668 103.144 132.954 103.454 132.148 103.454C130.35 103.454 128.706 102.711 127.218 101.223C125.73 99.7355 124.985 97.8452 124.985 95.5519C124.985 93.1347 125.792 91.0894 127.404 89.416C129.078 87.6805 131.125 86.8128 133.544 86.8128C135.838 86.8128 137.823 87.6805 139.497 89.416C141.234 91.0894 142.102 93.1347 142.102 95.5519C142.102 96.5436 141.916 97.7212 141.544 99.0847C141.172 100.386 140.428 102.06 139.311 104.105L131.776 117.865L124.892 114.146Z" fill="#161616"/>
<path d="M147.082 153.379V108.196H161.315V153.379H147.082ZM176.013 153.379V126.975C176.013 124.682 175.3 122.916 173.874 121.676C172.509 120.375 170.804 119.724 168.757 119.724C167.331 119.724 166.06 120.034 164.943 120.654C163.827 121.211 162.928 122.017 162.246 123.071C161.625 124.124 161.315 125.426 161.315 126.975L155.827 124.558C155.827 120.963 156.602 117.896 158.152 115.354C159.703 112.751 161.811 110.768 164.478 109.404C167.145 107.979 170.153 107.266 173.502 107.266C176.664 107.266 179.486 107.979 181.967 109.404C184.51 110.83 186.525 112.813 188.013 115.354C189.502 117.896 190.246 120.932 190.246 124.465V153.379H176.013ZM204.944 153.379V126.975C204.944 124.682 204.231 122.916 202.804 121.676C201.44 120.375 199.735 119.724 197.688 119.724C196.262 119.724 194.99 120.034 193.874 120.654C192.758 121.211 191.859 122.017 191.176 123.071C190.556 124.124 190.246 125.426 190.246 126.975L182.06 125.86C182.184 122.017 183.083 118.732 184.758 116.005C186.494 113.216 188.758 111.078 191.548 109.59C194.401 108.041 197.595 107.266 201.13 107.266C204.603 107.266 207.673 108.01 210.339 109.497C213.068 110.923 215.208 112.999 216.758 115.726C218.371 118.391 219.177 121.614 219.177 125.395V153.379H204.944Z" fill="#161616"/>
<path d="M25.7469 235.749C21.5917 235.749 17.9638 235.006 14.8629 233.518C11.8241 231.969 9.21941 229.83 7.04883 227.103L16.8165 217.713C17.9328 219.263 19.2351 220.44 20.7235 221.246C22.2739 222.052 24.0104 222.455 25.9329 222.455C27.7934 222.455 29.4059 222.083 30.7702 221.339C32.1346 220.533 33.2199 219.418 34.0261 217.992C34.8323 216.505 35.2354 214.676 35.2354 212.507V169.09H49.9334V211.67C49.9334 216.567 48.9411 220.812 46.9566 224.407C44.972 228.002 42.1813 230.791 38.5843 232.774C34.9874 234.758 30.7082 235.749 25.7469 235.749Z" fill="#161616"/>
<path d="M82.0481 235.749C77.3969 235.749 73.1797 234.727 69.3967 232.681C65.6757 230.574 62.7299 227.723 60.5593 224.128C58.3887 220.533 57.3034 216.505 57.3034 212.042C57.3034 207.58 58.3887 203.582 60.5593 200.049C62.7299 196.516 65.6757 193.727 69.3967 191.682C73.1177 189.575 77.3348 188.521 82.0481 188.521C86.7614 188.521 90.9785 189.544 94.6995 191.589C98.4205 193.634 101.366 196.454 103.537 200.049C105.707 203.582 106.793 207.58 106.793 212.042C106.793 216.505 105.707 220.533 103.537 224.128C101.366 227.723 98.4205 230.574 94.6995 232.681C90.9785 234.727 86.7614 235.749 82.0481 235.749ZM82.0481 222.827C84.0947 222.827 85.8931 222.393 87.4436 221.525C88.994 220.595 90.1723 219.325 90.9785 217.713C91.8467 216.04 92.2809 214.15 92.2809 212.042C92.2809 209.935 91.8467 208.107 90.9785 206.557C90.1103 204.946 88.9009 203.706 87.3505 202.838C85.8621 201.909 84.0947 201.444 82.0481 201.444C80.0636 201.444 78.2961 201.909 76.7457 202.838C75.1953 203.706 73.9859 204.946 73.1177 206.557C72.2495 208.169 71.8153 210.028 71.8153 212.135C71.8153 214.18 72.2495 216.04 73.1177 217.713C73.9859 219.325 75.1953 220.595 76.7457 221.525C78.2961 222.393 80.0636 222.827 82.0481 222.827Z" fill="#161616"/>
<path d="M113.879 234.727V189.544H128.111V234.727H113.879ZM128.111 209.904L122.158 205.255C123.336 199.987 125.321 195.897 128.111 192.984C130.902 190.071 134.778 188.614 139.74 188.614C141.91 188.614 143.802 188.955 145.414 189.637C147.089 190.256 148.546 191.248 149.786 192.612L141.321 203.303C140.701 202.621 139.926 202.095 138.995 201.723C138.065 201.351 137.011 201.165 135.833 201.165C133.476 201.165 131.584 201.909 130.158 203.396C128.794 204.822 128.111 206.991 128.111 209.904Z" fill="#161616"/>
<path d="M171.562 235.656C167.283 235.656 163.469 234.634 160.12 232.588C156.833 230.543 154.229 227.754 152.306 224.221C150.445 220.688 149.515 216.66 149.515 212.135C149.515 207.611 150.445 203.582 152.306 200.049C154.229 196.516 156.833 193.727 160.12 191.682C163.469 189.637 167.283 188.614 171.562 188.614C174.663 188.614 177.454 189.203 179.934 190.38C182.477 191.558 184.555 193.2 186.167 195.308C187.842 197.353 188.772 199.708 188.958 202.373V221.432C188.772 224.097 187.873 226.514 186.26 228.684C184.648 230.791 182.57 232.495 180.027 233.797C177.485 235.037 174.663 235.656 171.562 235.656ZM174.074 222.827C176.12 222.827 177.888 222.393 179.376 221.525C180.865 220.595 182.043 219.325 182.911 217.713C183.779 216.102 184.214 214.242 184.214 212.135C184.214 210.028 183.779 208.199 182.911 206.65C182.105 205.039 180.927 203.768 179.376 202.838C177.888 201.909 176.151 201.444 174.167 201.444C172.182 201.444 170.415 201.909 168.864 202.838C167.376 203.768 166.167 205.039 165.236 206.65C164.368 208.261 163.934 210.09 163.934 212.135C163.934 214.18 164.368 216.009 165.236 217.62C166.105 219.232 167.314 220.502 168.864 221.432C170.415 222.362 172.151 222.827 174.074 222.827ZM197.609 234.727H183.655V222.548L185.795 211.577L183.376 200.607V167.231H197.609V234.727Z" fill="#161616"/>
<path d="M226.515 235.656C222.359 235.656 218.638 234.634 215.352 232.588C212.127 230.543 209.553 227.754 207.63 224.221C205.77 220.688 204.84 216.66 204.84 212.135C204.84 207.611 205.77 203.582 207.63 200.049C209.553 196.516 212.127 193.727 215.352 191.682C218.638 189.637 222.359 188.614 226.515 188.614C229.553 188.614 232.282 189.203 234.701 190.38C237.181 191.558 239.197 193.2 240.747 195.308C242.298 197.353 243.166 199.708 243.352 202.373V221.897C243.166 224.562 242.298 226.948 240.747 229.056C239.259 231.101 237.274 232.712 234.794 233.89C232.313 235.068 229.553 235.656 226.515 235.656ZM229.398 222.827C232.437 222.827 234.887 221.835 236.747 219.852C238.608 217.806 239.538 215.234 239.538 212.135C239.538 210.028 239.104 208.169 238.236 206.557C237.43 204.946 236.251 203.706 234.701 202.838C233.212 201.909 231.476 201.444 229.491 201.444C227.507 201.444 225.739 201.909 224.189 202.838C222.701 203.706 221.491 204.946 220.561 206.557C219.693 208.169 219.259 210.028 219.259 212.135C219.259 214.18 219.693 216.009 220.561 217.62C221.429 219.232 222.639 220.502 224.189 221.432C225.739 222.362 227.476 222.827 229.398 222.827ZM238.98 234.727V222.548L241.12 211.577L238.98 200.607V189.544H252.934V234.727H238.98Z" fill="#161616"/>
<path d="M292.816 234.727V208.974C292.816 206.619 292.072 204.729 290.583 203.303C289.157 201.816 287.328 201.072 285.095 201.072C283.545 201.072 282.18 201.413 281.002 202.095C279.824 202.714 278.893 203.644 278.211 204.884C277.529 206.061 277.188 207.425 277.188 208.974L271.699 206.278C271.699 202.745 272.475 199.646 274.025 196.981C275.575 194.316 277.715 192.271 280.444 190.845C283.234 189.358 286.366 188.614 289.839 188.614C293.188 188.614 296.134 189.42 298.677 191.031C301.281 192.581 303.328 194.657 304.816 197.26C306.305 199.863 307.049 202.714 307.049 205.813V234.727H292.816ZM262.955 234.727V189.544H277.188V234.727H262.955Z" fill="#161616"/>
<path d="M105.506 72.0307V6.39454H120.111V72.0307H105.506ZM146.158 72.0307V6.39454H160.856V72.0307H146.158ZM114.25 44.6048V31.961H150.995V44.6048H114.25Z" stroke="black" stroke-width="10" mask="url(#path-1-outside-1_97_12)"/>
<path d="M172.156 72.0307V26.8477H186.388V72.0307H172.156ZM179.319 20.6188C177.086 20.6188 175.225 19.8751 173.737 18.3876C172.311 16.8381 171.597 14.9787 171.597 12.8094C171.597 10.5781 172.311 8.71876 173.737 7.23126C175.225 5.74375 177.086 5 179.319 5C181.551 5 183.381 5.74375 184.807 7.23126C186.233 8.71876 186.947 10.5781 186.947 12.8094C186.947 14.9787 186.233 16.8381 184.807 18.3876C183.381 19.8751 181.551 20.6188 179.319 20.6188Z" stroke="black" stroke-width="10" mask="url(#path-1-outside-1_97_12)"/>
<path d="M196.411 83.187L203.202 70.5432L207.388 69.3346C206.954 70.2643 206.427 71.0391 205.807 71.6589C205.187 72.2167 204.473 72.4956 203.667 72.4956C201.869 72.4956 200.225 71.7518 198.737 70.2643C197.248 68.7768 196.504 66.9174 196.504 64.6862C196.504 62.269 197.31 60.1927 198.923 58.4572C200.597 56.7218 202.644 55.8541 205.062 55.8541C207.357 55.8541 209.342 56.7218 211.016 58.4572C212.753 60.1307 213.621 62.207 213.621 64.6862C213.621 65.6778 213.435 66.8245 213.063 68.126C212.691 69.4276 211.946 71.132 210.83 73.2393L203.295 86.9988L196.411 83.187Z" stroke="black" stroke-width="10" mask="url(#path-1-outside-1_97_12)"/>
<path d="M99.9645 153.379V87.7425H114.569V153.379H99.9645Z" stroke="black" stroke-width="10" mask="url(#path-1-outside-1_97_12)"/>
<path d="M124.892 114.146L131.683 101.409L135.869 100.293C135.435 101.161 134.908 101.905 134.288 102.525C133.668 103.144 132.954 103.454 132.148 103.454C130.35 103.454 128.706 102.711 127.218 101.223C125.73 99.7355 124.985 97.8452 124.985 95.5519C124.985 93.1347 125.792 91.0894 127.404 89.416C129.078 87.6805 131.125 86.8128 133.544 86.8128C135.838 86.8128 137.823 87.6805 139.497 89.416C141.234 91.0894 142.102 93.1347 142.102 95.5519C142.102 96.5436 141.916 97.7212 141.544 99.0847C141.172 100.386 140.428 102.06 139.311 104.105L131.776 117.865L124.892 114.146Z" stroke="black" stroke-width="10" mask="url(#path-1-outside-1_97_12)"/>
<path d="M147.082 153.379V108.196H161.315V153.379H147.082ZM176.013 153.379V126.975C176.013 124.682 175.3 122.916 173.874 121.676C172.509 120.375 170.804 119.724 168.757 119.724C167.331 119.724 166.06 120.034 164.943 120.654C163.827 121.211 162.928 122.017 162.246 123.071C161.625 124.124 161.315 125.426 161.315 126.975L155.827 124.558C155.827 120.963 156.602 117.896 158.152 115.354C159.703 112.751 161.811 110.768 164.478 109.404C167.145 107.979 170.153 107.266 173.502 107.266C176.664 107.266 179.486 107.979 181.967 109.404C184.51 110.83 186.525 112.813 188.013 115.354C189.502 117.896 190.246 120.932 190.246 124.465V153.379H176.013ZM204.944 153.379V126.975C204.944 124.682 204.231 122.916 202.804 121.676C201.44 120.375 199.735 119.724 197.688 119.724C196.262 119.724 194.99 120.034 193.874 120.654C192.758 121.211 191.859 122.017 191.176 123.071C190.556 124.124 190.246 125.426 190.246 126.975L182.06 125.86C182.184 122.017 183.083 118.732 184.758 116.005C186.494 113.216 188.758 111.078 191.548 109.59C194.401 108.041 197.595 107.266 201.13 107.266C204.603 107.266 207.673 108.01 210.339 109.497C213.068 110.923 215.208 112.999 216.758 115.726C218.371 118.391 219.177 121.614 219.177 125.395V153.379H204.944Z" stroke="black" stroke-width="10" mask="url(#path-1-outside-1_97_12)"/>
<path d="M25.7469 235.749C21.5917 235.749 17.9638 235.006 14.8629 233.518C11.8241 231.969 9.21941 229.83 7.04883 227.103L16.8165 217.713C17.9328 219.263 19.2351 220.44 20.7235 221.246C22.2739 222.052 24.0104 222.455 25.9329 222.455C27.7934 222.455 29.4059 222.083 30.7702 221.339C32.1346 220.533 33.2199 219.418 34.0261 217.992C34.8323 216.505 35.2354 214.676 35.2354 212.507V169.09H49.9334V211.67C49.9334 216.567 48.9411 220.812 46.9566 224.407C44.972 228.002 42.1813 230.791 38.5843 232.774C34.9874 234.758 30.7082 235.749 25.7469 235.749Z" stroke="black" stroke-width="10" mask="url(#path-1-outside-1_97_12)"/>
<path d="M82.0481 235.749C77.3969 235.749 73.1797 234.727 69.3967 232.681C65.6757 230.574 62.7299 227.723 60.5593 224.128C58.3887 220.533 57.3034 216.505 57.3034 212.042C57.3034 207.58 58.3887 203.582 60.5593 200.049C62.7299 196.516 65.6757 193.727 69.3967 191.682C73.1177 189.575 77.3348 188.521 82.0481 188.521C86.7614 188.521 90.9785 189.544 94.6995 191.589C98.4205 193.634 101.366 196.454 103.537 200.049C105.707 203.582 106.793 207.58 106.793 212.042C106.793 216.505 105.707 220.533 103.537 224.128C101.366 227.723 98.4205 230.574 94.6995 232.681C90.9785 234.727 86.7614 235.749 82.0481 235.749ZM82.0481 222.827C84.0947 222.827 85.8931 222.393 87.4436 221.525C88.994 220.595 90.1723 219.325 90.9785 217.713C91.8467 216.04 92.2809 214.15 92.2809 212.042C92.2809 209.935 91.8467 208.107 90.9785 206.557C90.1103 204.946 88.9009 203.706 87.3505 202.838C85.8621 201.909 84.0947 201.444 82.0481 201.444C80.0636 201.444 78.2961 201.909 76.7457 202.838C75.1953 203.706 73.9859 204.946 73.1177 206.557C72.2495 208.169 71.8153 210.028 71.8153 212.135C71.8153 214.18 72.2495 216.04 73.1177 217.713C73.9859 219.325 75.1953 220.595 76.7457 221.525C78.2961 222.393 80.0636 222.827 82.0481 222.827Z" stroke="black" stroke-width="10" mask="url(#path-1-outside-1_97_12)"/>
<path d="M113.879 234.727V189.544H128.111V234.727H113.879ZM128.111 209.904L122.158 205.255C123.336 199.987 125.321 195.897 128.111 192.984C130.902 190.071 134.778 188.614 139.74 188.614C141.91 188.614 143.802 188.955 145.414 189.637C147.089 190.256 148.546 191.248 149.786 192.612L141.321 203.303C140.701 202.621 139.926 202.095 138.995 201.723C138.065 201.351 137.011 201.165 135.833 201.165C133.476 201.165 131.584 201.909 130.158 203.396C128.794 204.822 128.111 206.991 128.111 209.904Z" stroke="black" stroke-width="10" mask="url(#path-1-outside-1_97_12)"/>
<path d="M171.562 235.656C167.283 235.656 163.469 234.634 160.12 232.588C156.833 230.543 154.229 227.754 152.306 224.221C150.445 220.688 149.515 216.66 149.515 212.135C149.515 207.611 150.445 203.582 152.306 200.049C154.229 196.516 156.833 193.727 160.12 191.682C163.469 189.637 167.283 188.614 171.562 188.614C174.663 188.614 177.454 189.203 179.934 190.38C182.477 191.558 184.555 193.2 186.167 195.308C187.842 197.353 188.772 199.708 188.958 202.373V221.432C188.772 224.097 187.873 226.514 186.26 228.684C184.648 230.791 182.57 232.495 180.027 233.797C177.485 235.037 174.663 235.656 171.562 235.656ZM174.074 222.827C176.12 222.827 177.888 222.393 179.376 221.525C180.865 220.595 182.043 219.325 182.911 217.713C183.779 216.102 184.214 214.242 184.214 212.135C184.214 210.028 183.779 208.199 182.911 206.65C182.105 205.039 180.927 203.768 179.376 202.838C177.888 201.909 176.151 201.444 174.167 201.444C172.182 201.444 170.415 201.909 168.864 202.838C167.376 203.768 166.167 205.039 165.236 206.65C164.368 208.261 163.934 210.09 163.934 212.135C163.934 214.18 164.368 216.009 165.236 217.62C166.105 219.232 167.314 220.502 168.864 221.432C170.415 222.362 172.151 222.827 174.074 222.827ZM197.609 234.727H183.655V222.548L185.795 211.577L183.376 200.607V167.231H197.609V234.727Z" stroke="black" stroke-width="10" mask="url(#path-1-outside-1_97_12)"/>
<path d="M226.515 235.656C222.359 235.656 218.638 234.634 215.352 232.588C212.127 230.543 209.553 227.754 207.63 224.221C205.77 220.688 204.84 216.66 204.84 212.135C204.84 207.611 205.77 203.582 207.63 200.049C209.553 196.516 212.127 193.727 215.352 191.682C218.638 189.637 222.359 188.614 226.515 188.614C229.553 188.614 232.282 189.203 234.701 190.38C237.181 191.558 239.197 193.2 240.747 195.308C242.298 197.353 243.166 199.708 243.352 202.373V221.897C243.166 224.562 242.298 226.948 240.747 229.056C239.259 231.101 237.274 232.712 234.794 233.89C232.313 235.068 229.553 235.656 226.515 235.656ZM229.398 222.827C232.437 222.827 234.887 221.835 236.747 219.852C238.608 217.806 239.538 215.234 239.538 212.135C239.538 210.028 239.104 208.169 238.236 206.557C237.43 204.946 236.251 203.706 234.701 202.838C233.212 201.909 231.476 201.444 229.491 201.444C227.507 201.444 225.739 201.909 224.189 202.838C222.701 203.706 221.491 204.946 220.561 206.557C219.693 208.169 219.259 210.028 219.259 212.135C219.259 214.18 219.693 216.009 220.561 217.62C221.429 219.232 222.639 220.502 224.189 221.432C225.739 222.362 227.476 222.827 229.398 222.827ZM238.98 234.727V222.548L241.12 211.577L238.98 200.607V189.544H252.934V234.727H238.98Z" stroke="black" stroke-width="10" mask="url(#path-1-outside-1_97_12)"/>
<path d="M292.816 234.727V208.974C292.816 206.619 292.072 204.729 290.583 203.303C289.157 201.816 287.328 201.072 285.095 201.072C283.545 201.072 282.18 201.413 281.002 202.095C279.824 202.714 278.893 203.644 278.211 204.884C277.529 206.061 277.188 207.425 277.188 208.974L271.699 206.278C271.699 202.745 272.475 199.646 274.025 196.981C275.575 194.316 277.715 192.271 280.444 190.845C283.234 189.358 286.366 188.614 289.839 188.614C293.188 188.614 296.134 189.42 298.677 191.031C301.281 192.581 303.328 194.657 304.816 197.26C306.305 199.863 307.049 202.714 307.049 205.813V234.727H292.816ZM262.955 234.727V189.544H277.188V234.727H262.955Z" stroke="black" stroke-width="10" mask="url(#path-1-outside-1_97_12)"/>
</mask>
<g mask="url(#mask0_97_12)">
<rect x="-3.95117" y="-3" width="324" height="249" fill="url(#paint0_linear_97_12)"/>
</g>
<path d="M105.506 72.0307V6.39454H120.111V72.0307H105.506ZM146.158 72.0307V6.39454H160.856V72.0307H146.158ZM114.25 44.6048V31.961H150.995V44.6048H114.25Z" fill="#161616"/>
<path d="M172.156 72.0307V26.8477H186.388V72.0307H172.156ZM179.319 20.6188C177.086 20.6188 175.225 19.8751 173.737 18.3876C172.311 16.8381 171.597 14.9787 171.597 12.8094C171.597 10.5781 172.311 8.71876 173.737 7.23126C175.225 5.74375 177.086 5 179.319 5C181.551 5 183.381 5.74375 184.807 7.23126C186.233 8.71876 186.947 10.5781 186.947 12.8094C186.947 14.9787 186.233 16.8381 184.807 18.3876C183.381 19.8751 181.551 20.6188 179.319 20.6188Z" fill="#161616"/>
<path d="M196.411 83.187L203.202 70.5432L207.388 69.3346C206.954 70.2643 206.427 71.0391 205.807 71.6589C205.187 72.2167 204.473 72.4956 203.667 72.4956C201.869 72.4956 200.225 71.7518 198.737 70.2643C197.248 68.7768 196.504 66.9174 196.504 64.6862C196.504 62.269 197.31 60.1927 198.923 58.4572C200.597 56.7218 202.644 55.8541 205.062 55.8541C207.357 55.8541 209.342 56.7218 211.016 58.4572C212.753 60.1307 213.621 62.207 213.621 64.6862C213.621 65.6778 213.435 66.8245 213.063 68.126C212.691 69.4276 211.946 71.132 210.83 73.2393L203.295 86.9988L196.411 83.187Z" fill="#161616"/>
<path d="M99.9645 153.379V87.7425H114.569V153.379H99.9645Z" fill="#161616"/>
<path d="M124.892 114.146L131.683 101.409L135.869 100.293C135.435 101.161 134.908 101.905 134.288 102.525C133.668 103.144 132.954 103.454 132.148 103.454C130.35 103.454 128.706 102.711 127.218 101.223C125.73 99.7355 124.985 97.8452 124.985 95.5519C124.985 93.1347 125.792 91.0894 127.404 89.416C129.078 87.6805 131.125 86.8128 133.544 86.8128C135.838 86.8128 137.823 87.6805 139.497 89.416C141.234 91.0894 142.102 93.1347 142.102 95.5519C142.102 96.5436 141.916 97.7212 141.544 99.0847C141.172 100.386 140.428 102.06 139.311 104.105L131.776 117.865L124.892 114.146Z" fill="#161616"/>
<path d="M147.082 153.379V108.196H161.315V153.379H147.082ZM176.013 153.379V126.975C176.013 124.682 175.3 122.916 173.874 121.676C172.509 120.375 170.804 119.724 168.757 119.724C167.331 119.724 166.06 120.034 164.943 120.654C163.827 121.211 162.928 122.017 162.246 123.071C161.625 124.124 161.315 125.426 161.315 126.975L155.827 124.558C155.827 120.963 156.602 117.896 158.152 115.354C159.703 112.751 161.811 110.768 164.478 109.404C167.145 107.979 170.153 107.266 173.502 107.266C176.664 107.266 179.486 107.979 181.967 109.404C184.51 110.83 186.525 112.813 188.013 115.354C189.502 117.896 190.246 120.932 190.246 124.465V153.379H176.013ZM204.944 153.379V126.975C204.944 124.682 204.231 122.916 202.804 121.676C201.44 120.375 199.735 119.724 197.688 119.724C196.262 119.724 194.99 120.034 193.874 120.654C192.758 121.211 191.859 122.017 191.176 123.071C190.556 124.124 190.246 125.426 190.246 126.975L182.06 125.86C182.184 122.017 183.083 118.732 184.758 116.005C186.494 113.216 188.758 111.078 191.548 109.59C194.401 108.041 197.595 107.266 201.13 107.266C204.603 107.266 207.673 108.01 210.339 109.497C213.068 110.923 215.208 112.999 216.758 115.726C218.371 118.391 219.177 121.614 219.177 125.395V153.379H204.944Z" fill="#161616"/>
<path d="M25.7469 235.749C21.5917 235.749 17.9638 235.006 14.8629 233.518C11.8241 231.969 9.21941 229.83 7.04883 227.103L16.8165 217.713C17.9328 219.263 19.2351 220.44 20.7235 221.246C22.2739 222.052 24.0104 222.455 25.9329 222.455C27.7934 222.455 29.4059 222.083 30.7702 221.339C32.1346 220.533 33.2199 219.418 34.0261 217.992C34.8323 216.505 35.2354 214.676 35.2354 212.507V169.09H49.9334V211.67C49.9334 216.567 48.9411 220.812 46.9566 224.407C44.972 228.002 42.1813 230.791 38.5843 232.774C34.9874 234.758 30.7082 235.749 25.7469 235.749Z" fill="#161616"/>
<path d="M82.0481 235.749C77.3969 235.749 73.1797 234.727 69.3967 232.681C65.6757 230.574 62.7299 227.723 60.5593 224.128C58.3887 220.533 57.3034 216.505 57.3034 212.042C57.3034 207.58 58.3887 203.582 60.5593 200.049C62.7299 196.516 65.6757 193.727 69.3967 191.682C73.1177 189.575 77.3348 188.521 82.0481 188.521C86.7614 188.521 90.9785 189.544 94.6995 191.589C98.4205 193.634 101.366 196.454 103.537 200.049C105.707 203.582 106.793 207.58 106.793 212.042C106.793 216.505 105.707 220.533 103.537 224.128C101.366 227.723 98.4205 230.574 94.6995 232.681C90.9785 234.727 86.7614 235.749 82.0481 235.749ZM82.0481 222.827C84.0947 222.827 85.8931 222.393 87.4436 221.525C88.994 220.595 90.1723 219.325 90.9785 217.713C91.8467 216.04 92.2809 214.15 92.2809 212.042C92.2809 209.935 91.8467 208.107 90.9785 206.557C90.1103 204.946 88.9009 203.706 87.3505 202.838C85.8621 201.909 84.0947 201.444 82.0481 201.444C80.0636 201.444 78.2961 201.909 76.7457 202.838C75.1953 203.706 73.9859 204.946 73.1177 206.557C72.2495 208.169 71.8153 210.028 71.8153 212.135C71.8153 214.18 72.2495 216.04 73.1177 217.713C73.9859 219.325 75.1953 220.595 76.7457 221.525C78.2961 222.393 80.0636 222.827 82.0481 222.827Z" fill="#161616"/>
<path d="M113.879 234.727V189.544H128.111V234.727H113.879ZM128.111 209.904L122.158 205.255C123.336 199.987 125.321 195.897 128.111 192.984C130.902 190.071 134.778 188.614 139.74 188.614C141.91 188.614 143.802 188.955 145.414 189.637C147.089 190.256 148.546 191.248 149.786 192.612L141.321 203.303C140.701 202.621 139.926 202.095 138.995 201.723C138.065 201.351 137.011 201.165 135.833 201.165C133.476 201.165 131.584 201.909 130.158 203.396C128.794 204.822 128.111 206.991 128.111 209.904Z" fill="#161616"/>
<path d="M171.562 235.656C167.283 235.656 163.469 234.634 160.12 232.588C156.833 230.543 154.229 227.754 152.306 224.221C150.445 220.688 149.515 216.66 149.515 212.135C149.515 207.611 150.445 203.582 152.306 200.049C154.229 196.516 156.833 193.727 160.12 191.682C163.469 189.637 167.283 188.614 171.562 188.614C174.663 188.614 177.454 189.203 179.934 190.38C182.477 191.558 184.555 193.2 186.167 195.308C187.842 197.353 188.772 199.708 188.958 202.373V221.432C188.772 224.097 187.873 226.514 186.26 228.684C184.648 230.791 182.57 232.495 180.027 233.797C177.485 235.037 174.663 235.656 171.562 235.656ZM174.074 222.827C176.12 222.827 177.888 222.393 179.376 221.525C180.865 220.595 182.043 219.325 182.911 217.713C183.779 216.102 184.214 214.242 184.214 212.135C184.214 210.028 183.779 208.199 182.911 206.65C182.105 205.039 180.927 203.768 179.376 202.838C177.888 201.909 176.151 201.444 174.167 201.444C172.182 201.444 170.415 201.909 168.864 202.838C167.376 203.768 166.167 205.039 165.236 206.65C164.368 208.261 163.934 210.09 163.934 212.135C163.934 214.18 164.368 216.009 165.236 217.62C166.105 219.232 167.314 220.502 168.864 221.432C170.415 222.362 172.151 222.827 174.074 222.827ZM197.609 234.727H183.655V222.548L185.795 211.577L183.376 200.607V167.231H197.609V234.727Z" fill="#161616"/>
<path d="M226.515 235.656C222.359 235.656 218.638 234.634 215.352 232.588C212.127 230.543 209.553 227.754 207.63 224.221C205.77 220.688 204.84 216.66 204.84 212.135C204.84 207.611 205.77 203.582 207.63 200.049C209.553 196.516 212.127 193.727 215.352 191.682C218.638 189.637 222.359 188.614 226.515 188.614C229.553 188.614 232.282 189.203 234.701 190.38C237.181 191.558 239.197 193.2 240.747 195.308C242.298 197.353 243.166 199.708 243.352 202.373V221.897C243.166 224.562 242.298 226.948 240.747 229.056C239.259 231.101 237.274 232.712 234.794 233.89C232.313 235.068 229.553 235.656 226.515 235.656ZM229.398 222.827C232.437 222.827 234.887 221.835 236.747 219.852C238.608 217.806 239.538 215.234 239.538 212.135C239.538 210.028 239.104 208.169 238.236 206.557C237.43 204.946 236.251 203.706 234.701 202.838C233.212 201.909 231.476 201.444 229.491 201.444C227.507 201.444 225.739 201.909 224.189 202.838C222.701 203.706 221.491 204.946 220.561 206.557C219.693 208.169 219.259 210.028 219.259 212.135C219.259 214.18 219.693 216.009 220.561 217.62C221.429 219.232 222.639 220.502 224.189 221.432C225.739 222.362 227.476 222.827 229.398 222.827ZM238.98 234.727V222.548L241.12 211.577L238.98 200.607V189.544H252.934V234.727H238.98Z" fill="#161616"/>
<path d="M292.816 234.727V208.974C292.816 206.619 292.072 204.729 290.583 203.303C289.157 201.816 287.328 201.072 285.095 201.072C283.545 201.072 282.18 201.413 281.002 202.095C279.824 202.714 278.893 203.644 278.211 204.884C277.529 206.061 277.188 207.425 277.188 208.974L271.699 206.278C271.699 202.745 272.475 199.646 274.025 196.981C275.575 194.316 277.715 192.271 280.444 190.845C283.234 189.358 286.366 188.614 289.839 188.614C293.188 188.614 296.134 189.42 298.677 191.031C301.281 192.581 303.328 194.657 304.816 197.26C306.305 199.863 307.049 202.714 307.049 205.813V234.727H292.816ZM262.955 234.727V189.544H277.188V234.727H262.955Z" fill="#161616"/>
<defs>
<linearGradient id="paint0_linear_97_12" x1="143.777" y1="-10.1143" x2="204.9" y2="197.933" gradientUnits="userSpaceOnUse">
<stop stop-color="#EE7C7D"/>
<stop offset="0.24" stop-color="#EE7C7D"/>
<stop offset="0.25" stop-color="#F5AC7F"/>
<stop offset="0.49" stop-color="#F5AC7F"/>
<stop offset="0.5" stop-color="#61C4E1"/>
<stop offset="0.74" stop-color="#61C4E1"/>
<stop offset="0.745" stop-color="#D973A3"/>
<stop offset="0.99" stop-color="#D973A3"/>
<stop offset="1" stop-color="#8054C4"/>
</linearGradient>
</defs>
</svg>
