<svg width="259" height="179" viewBox="0 0 259 179" fill="none" xmlns="http://www.w3.org/2000/svg">
<mask id="path-1-outside-1_66_174" maskUnits="userSpaceOnUse" x="21" y="2" width="214" height="166" fill="black">
<rect fill="white" x="21" y="2" width="214" height="166"/>
<path d="M93.0708 52V6.816H103.119V52H93.0708ZM121.039 52V6.816H131.151V52H121.039ZM99.0868 33.12V24.416H124.367V33.12H99.0868ZM138.925 52V20.896H148.717V52H138.925ZM143.853 16.608C142.317 16.608 141.037 16.096 140.013 15.072C139.031 14.0053 138.541 12.7253 138.541 11.232C138.541 9.696 139.031 8.416 140.013 7.392C141.037 6.368 142.317 5.856 143.853 5.856C145.389 5.856 146.647 6.368 147.629 7.392C148.61 8.416 149.101 9.696 149.101 11.232C149.101 12.7253 148.61 14.0053 147.629 15.072C146.647 16.096 145.389 16.608 143.853 16.608ZM155.612 59.68L160.284 50.976L163.164 50.144C162.866 50.784 162.503 51.3173 162.076 51.744C161.65 52.128 161.159 52.32 160.604 52.32C159.367 52.32 158.236 51.808 157.212 50.784C156.188 49.76 155.676 48.48 155.676 46.944C155.676 45.28 156.231 43.8507 157.34 42.656C158.492 41.4613 159.9 40.864 161.564 40.864C163.143 40.864 164.508 41.4613 165.66 42.656C166.855 43.808 167.452 45.2373 167.452 46.944C167.452 47.6267 167.324 48.416 167.068 49.312C166.812 50.208 166.3 51.3813 165.532 52.832L160.348 62.304L155.612 59.68ZM89.2583 108V62.816H99.3063V108H89.2583ZM106.408 80.992L111.08 72.224L113.96 71.456C113.662 72.0533 113.299 72.5653 112.872 72.992C112.446 73.4187 111.955 73.632 111.4 73.632C110.163 73.632 109.032 73.12 108.008 72.096C106.984 71.072 106.472 69.7707 106.472 68.192C106.472 66.528 107.027 65.12 108.136 63.968C109.288 62.7733 110.696 62.176 112.36 62.176C113.939 62.176 115.304 62.7733 116.456 63.968C117.651 65.12 118.248 66.528 118.248 68.192C118.248 68.8747 118.12 69.6853 117.864 70.624C117.608 71.52 117.096 72.672 116.328 74.08L111.144 83.552L106.408 80.992ZM121.675 108V76.896H131.467V108H121.675ZM141.579 108V89.824C141.579 88.2453 141.088 87.0293 140.107 86.176C139.168 85.28 137.995 84.832 136.587 84.832C135.605 84.832 134.731 85.0453 133.963 85.472C133.195 85.856 132.576 86.4107 132.107 87.136C131.68 87.8613 131.467 88.7573 131.467 89.824L127.691 88.16C127.691 85.6853 128.224 83.5733 129.291 81.824C130.357 80.032 131.808 78.6667 133.643 77.728C135.477 76.7467 137.547 76.256 139.851 76.256C142.027 76.256 143.968 76.7467 145.675 77.728C147.424 78.7093 148.811 80.0747 149.835 81.824C150.859 83.5733 151.371 85.664 151.371 88.096V108H141.579ZM161.483 108V89.824C161.483 88.2453 160.992 87.0293 160.011 86.176C159.072 85.28 157.899 84.832 156.491 84.832C155.509 84.832 154.635 85.0453 153.867 85.472C153.099 85.856 152.48 86.4107 152.011 87.136C151.584 87.8613 151.371 88.7573 151.371 89.824L145.739 89.056C145.824 86.4107 146.443 84.1493 147.595 82.272C148.789 80.352 150.347 78.88 152.267 77.856C154.229 76.7893 156.427 76.256 158.859 76.256C161.248 76.256 163.36 76.768 165.195 77.792C167.072 78.7733 168.544 80.2027 169.611 82.08C170.72 83.9147 171.275 86.1333 171.275 88.736V108H161.483ZM38.1975 164.704C35.3388 164.704 32.8428 164.192 30.7095 163.168C28.6188 162.101 26.8268 160.629 25.3335 158.752L32.0535 152.288C32.8215 153.355 33.7175 154.165 34.7415 154.72C35.8082 155.275 37.0028 155.552 38.3255 155.552C39.6055 155.552 40.7148 155.296 41.6535 154.784C42.5922 154.229 43.3388 153.461 43.8935 152.48C44.4482 151.456 44.7255 150.197 44.7255 148.704V118.816H54.8375V148.128C54.8375 151.499 54.1548 154.421 52.7895 156.896C51.4242 159.371 49.5042 161.291 47.0295 162.656C44.5548 164.021 41.6108 164.704 38.1975 164.704ZM76.932 164.704C73.732 164.704 70.8307 164 68.228 162.592C65.668 161.141 63.6413 159.179 62.148 156.704C60.6547 154.229 59.908 151.456 59.908 148.384C59.908 145.312 60.6547 142.56 62.148 140.128C63.6413 137.696 65.668 135.776 68.228 134.368C70.788 132.917 73.6893 132.192 76.932 132.192C80.1747 132.192 83.076 132.896 85.636 134.304C88.196 135.712 90.2227 137.653 91.716 140.128C93.2093 142.56 93.956 145.312 93.956 148.384C93.956 151.456 93.2093 154.229 91.716 156.704C90.2227 159.179 88.196 161.141 85.636 162.592C83.076 164 80.1747 164.704 76.932 164.704ZM76.932 155.808C78.34 155.808 79.5773 155.509 80.644 154.912C81.7107 154.272 82.5213 153.397 83.076 152.288C83.6733 151.136 83.972 149.835 83.972 148.384C83.972 146.933 83.6733 145.675 83.076 144.608C82.4787 143.499 81.6467 142.645 80.58 142.048C79.556 141.408 78.34 141.088 76.932 141.088C75.5667 141.088 74.3507 141.408 73.284 142.048C72.2173 142.645 71.3853 143.499 70.788 144.608C70.1907 145.717 69.892 146.997 69.892 148.448C69.892 149.856 70.1907 151.136 70.788 152.288C71.3853 153.397 72.2173 154.272 73.284 154.912C74.3507 155.509 75.5667 155.808 76.932 155.808ZM98.831 164V132.896H108.623V164H98.831ZM108.623 146.912L104.527 143.712C105.338 140.085 106.703 137.269 108.623 135.264C110.543 133.259 113.21 132.256 116.623 132.256C118.116 132.256 119.418 132.491 120.527 132.96C121.679 133.387 122.682 134.069 123.535 135.008L117.711 142.368C117.284 141.899 116.751 141.536 116.111 141.28C115.471 141.024 114.746 140.896 113.935 140.896C112.314 140.896 111.012 141.408 110.031 142.432C109.092 143.413 108.623 144.907 108.623 146.912ZM138.517 164.64C135.573 164.64 132.949 163.936 130.645 162.528C128.383 161.12 126.591 159.2 125.269 156.768C123.989 154.336 123.349 151.563 123.349 148.448C123.349 145.333 123.989 142.56 125.269 140.128C126.591 137.696 128.383 135.776 130.645 134.368C132.949 132.96 135.573 132.256 138.517 132.256C140.65 132.256 142.57 132.661 144.277 133.472C146.026 134.283 147.455 135.413 148.565 136.864C149.717 138.272 150.357 139.893 150.485 141.728V154.848C150.357 156.683 149.738 158.347 148.629 159.84C147.519 161.291 146.09 162.464 144.341 163.36C142.591 164.213 140.65 164.64 138.517 164.64ZM140.245 155.808C141.653 155.808 142.869 155.509 143.893 154.912C144.917 154.272 145.727 153.397 146.325 152.288C146.922 151.179 147.221 149.899 147.221 148.448C147.221 146.997 146.922 145.739 146.325 144.672C145.77 143.563 144.959 142.688 143.893 142.048C142.869 141.408 141.674 141.088 140.309 141.088C138.943 141.088 137.727 141.408 136.661 142.048C135.637 142.688 134.805 143.563 134.165 144.672C133.567 145.781 133.269 147.04 133.269 148.448C133.269 149.856 133.567 151.115 134.165 152.224C134.762 153.333 135.594 154.208 136.661 154.848C137.727 155.488 138.922 155.808 140.245 155.808ZM156.437 164H146.837V155.616L148.309 148.064L146.645 140.512V117.536H156.437V164ZM176.323 164.64C173.464 164.64 170.904 163.936 168.643 162.528C166.424 161.12 164.654 159.2 163.331 156.768C162.051 154.336 161.411 151.563 161.411 148.448C161.411 145.333 162.051 142.56 163.331 140.128C164.654 137.696 166.424 135.776 168.643 134.368C170.904 132.96 173.464 132.256 176.323 132.256C178.414 132.256 180.291 132.661 181.955 133.472C183.662 134.283 185.048 135.413 186.115 136.864C187.182 138.272 187.779 139.893 187.907 141.728V155.168C187.779 157.003 187.182 158.645 186.115 160.096C185.091 161.504 183.726 162.613 182.019 163.424C180.312 164.235 178.414 164.64 176.323 164.64ZM178.307 155.808C180.398 155.808 182.083 155.125 183.363 153.76C184.643 152.352 185.283 150.581 185.283 148.448C185.283 146.997 184.984 145.717 184.387 144.608C183.832 143.499 183.022 142.645 181.955 142.048C180.931 141.408 179.736 141.088 178.371 141.088C177.006 141.088 175.79 141.408 174.723 142.048C173.699 142.645 172.867 143.499 172.227 144.608C171.63 145.717 171.331 146.997 171.331 148.448C171.331 149.856 171.63 151.115 172.227 152.224C172.824 153.333 173.656 154.208 174.723 154.848C175.79 155.488 176.984 155.808 178.307 155.808ZM184.899 164V155.616L186.371 148.064L184.899 140.512V132.896H194.499V164H184.899ZM221.938 164V146.272C221.938 144.651 221.426 143.349 220.402 142.368C219.42 141.344 218.162 140.832 216.626 140.832C215.559 140.832 214.62 141.067 213.81 141.536C212.999 141.963 212.359 142.603 211.89 143.456C211.42 144.267 211.186 145.205 211.186 146.272L207.41 144.416C207.41 141.984 207.943 139.851 209.01 138.016C210.076 136.181 211.548 134.773 213.426 133.792C215.346 132.768 217.5 132.256 219.89 132.256C222.194 132.256 224.22 132.811 225.97 133.92C227.762 134.987 229.17 136.416 230.194 138.208C231.218 140 231.729 141.963 231.729 144.096V164H221.938ZM201.394 164V132.896H211.186V164H201.394Z"/>
</mask>
<path d="M93.0708 52V6.816H103.119V52H93.0708ZM121.039 52V6.816H131.151V52H121.039ZM99.0868 33.12V24.416H124.367V33.12H99.0868ZM138.925 52V20.896H148.717V52H138.925ZM143.853 16.608C142.317 16.608 141.037 16.096 140.013 15.072C139.031 14.0053 138.541 12.7253 138.541 11.232C138.541 9.696 139.031 8.416 140.013 7.392C141.037 6.368 142.317 5.856 143.853 5.856C145.389 5.856 146.647 6.368 147.629 7.392C148.61 8.416 149.101 9.696 149.101 11.232C149.101 12.7253 148.61 14.0053 147.629 15.072C146.647 16.096 145.389 16.608 143.853 16.608ZM155.612 59.68L160.284 50.976L163.164 50.144C162.866 50.784 162.503 51.3173 162.076 51.744C161.65 52.128 161.159 52.32 160.604 52.32C159.367 52.32 158.236 51.808 157.212 50.784C156.188 49.76 155.676 48.48 155.676 46.944C155.676 45.28 156.231 43.8507 157.34 42.656C158.492 41.4613 159.9 40.864 161.564 40.864C163.143 40.864 164.508 41.4613 165.66 42.656C166.855 43.808 167.452 45.2373 167.452 46.944C167.452 47.6267 167.324 48.416 167.068 49.312C166.812 50.208 166.3 51.3813 165.532 52.832L160.348 62.304L155.612 59.68ZM89.2583 108V62.816H99.3063V108H89.2583ZM106.408 80.992L111.08 72.224L113.96 71.456C113.662 72.0533 113.299 72.5653 112.872 72.992C112.446 73.4187 111.955 73.632 111.4 73.632C110.163 73.632 109.032 73.12 108.008 72.096C106.984 71.072 106.472 69.7707 106.472 68.192C106.472 66.528 107.027 65.12 108.136 63.968C109.288 62.7733 110.696 62.176 112.36 62.176C113.939 62.176 115.304 62.7733 116.456 63.968C117.651 65.12 118.248 66.528 118.248 68.192C118.248 68.8747 118.12 69.6853 117.864 70.624C117.608 71.52 117.096 72.672 116.328 74.08L111.144 83.552L106.408 80.992ZM121.675 108V76.896H131.467V108H121.675ZM141.579 108V89.824C141.579 88.2453 141.088 87.0293 140.107 86.176C139.168 85.28 137.995 84.832 136.587 84.832C135.605 84.832 134.731 85.0453 133.963 85.472C133.195 85.856 132.576 86.4107 132.107 87.136C131.68 87.8613 131.467 88.7573 131.467 89.824L127.691 88.16C127.691 85.6853 128.224 83.5733 129.291 81.824C130.357 80.032 131.808 78.6667 133.643 77.728C135.477 76.7467 137.547 76.256 139.851 76.256C142.027 76.256 143.968 76.7467 145.675 77.728C147.424 78.7093 148.811 80.0747 149.835 81.824C150.859 83.5733 151.371 85.664 151.371 88.096V108H141.579ZM161.483 108V89.824C161.483 88.2453 160.992 87.0293 160.011 86.176C159.072 85.28 157.899 84.832 156.491 84.832C155.509 84.832 154.635 85.0453 153.867 85.472C153.099 85.856 152.48 86.4107 152.011 87.136C151.584 87.8613 151.371 88.7573 151.371 89.824L145.739 89.056C145.824 86.4107 146.443 84.1493 147.595 82.272C148.789 80.352 150.347 78.88 152.267 77.856C154.229 76.7893 156.427 76.256 158.859 76.256C161.248 76.256 163.36 76.768 165.195 77.792C167.072 78.7733 168.544 80.2027 169.611 82.08C170.72 83.9147 171.275 86.1333 171.275 88.736V108H161.483ZM38.1975 164.704C35.3388 164.704 32.8428 164.192 30.7095 163.168C28.6188 162.101 26.8268 160.629 25.3335 158.752L32.0535 152.288C32.8215 153.355 33.7175 154.165 34.7415 154.72C35.8082 155.275 37.0028 155.552 38.3255 155.552C39.6055 155.552 40.7148 155.296 41.6535 154.784C42.5922 154.229 43.3388 153.461 43.8935 152.48C44.4482 151.456 44.7255 150.197 44.7255 148.704V118.816H54.8375V148.128C54.8375 151.499 54.1548 154.421 52.7895 156.896C51.4242 159.371 49.5042 161.291 47.0295 162.656C44.5548 164.021 41.6108 164.704 38.1975 164.704ZM76.932 164.704C73.732 164.704 70.8307 164 68.228 162.592C65.668 161.141 63.6413 159.179 62.148 156.704C60.6547 154.229 59.908 151.456 59.908 148.384C59.908 145.312 60.6547 142.56 62.148 140.128C63.6413 137.696 65.668 135.776 68.228 134.368C70.788 132.917 73.6893 132.192 76.932 132.192C80.1747 132.192 83.076 132.896 85.636 134.304C88.196 135.712 90.2227 137.653 91.716 140.128C93.2093 142.56 93.956 145.312 93.956 148.384C93.956 151.456 93.2093 154.229 91.716 156.704C90.2227 159.179 88.196 161.141 85.636 162.592C83.076 164 80.1747 164.704 76.932 164.704ZM76.932 155.808C78.34 155.808 79.5773 155.509 80.644 154.912C81.7107 154.272 82.5213 153.397 83.076 152.288C83.6733 151.136 83.972 149.835 83.972 148.384C83.972 146.933 83.6733 145.675 83.076 144.608C82.4787 143.499 81.6467 142.645 80.58 142.048C79.556 141.408 78.34 141.088 76.932 141.088C75.5667 141.088 74.3507 141.408 73.284 142.048C72.2173 142.645 71.3853 143.499 70.788 144.608C70.1907 145.717 69.892 146.997 69.892 148.448C69.892 149.856 70.1907 151.136 70.788 152.288C71.3853 153.397 72.2173 154.272 73.284 154.912C74.3507 155.509 75.5667 155.808 76.932 155.808ZM98.831 164V132.896H108.623V164H98.831ZM108.623 146.912L104.527 143.712C105.338 140.085 106.703 137.269 108.623 135.264C110.543 133.259 113.21 132.256 116.623 132.256C118.116 132.256 119.418 132.491 120.527 132.96C121.679 133.387 122.682 134.069 123.535 135.008L117.711 142.368C117.284 141.899 116.751 141.536 116.111 141.28C115.471 141.024 114.746 140.896 113.935 140.896C112.314 140.896 111.012 141.408 110.031 142.432C109.092 143.413 108.623 144.907 108.623 146.912ZM138.517 164.64C135.573 164.64 132.949 163.936 130.645 162.528C128.383 161.12 126.591 159.2 125.269 156.768C123.989 154.336 123.349 151.563 123.349 148.448C123.349 145.333 123.989 142.56 125.269 140.128C126.591 137.696 128.383 135.776 130.645 134.368C132.949 132.96 135.573 132.256 138.517 132.256C140.65 132.256 142.57 132.661 144.277 133.472C146.026 134.283 147.455 135.413 148.565 136.864C149.717 138.272 150.357 139.893 150.485 141.728V154.848C150.357 156.683 149.738 158.347 148.629 159.84C147.519 161.291 146.09 162.464 144.341 163.36C142.591 164.213 140.65 164.64 138.517 164.64ZM140.245 155.808C141.653 155.808 142.869 155.509 143.893 154.912C144.917 154.272 145.727 153.397 146.325 152.288C146.922 151.179 147.221 149.899 147.221 148.448C147.221 146.997 146.922 145.739 146.325 144.672C145.77 143.563 144.959 142.688 143.893 142.048C142.869 141.408 141.674 141.088 140.309 141.088C138.943 141.088 137.727 141.408 136.661 142.048C135.637 142.688 134.805 143.563 134.165 144.672C133.567 145.781 133.269 147.04 133.269 148.448C133.269 149.856 133.567 151.115 134.165 152.224C134.762 153.333 135.594 154.208 136.661 154.848C137.727 155.488 138.922 155.808 140.245 155.808ZM156.437 164H146.837V155.616L148.309 148.064L146.645 140.512V117.536H156.437V164ZM176.323 164.64C173.464 164.64 170.904 163.936 168.643 162.528C166.424 161.12 164.654 159.2 163.331 156.768C162.051 154.336 161.411 151.563 161.411 148.448C161.411 145.333 162.051 142.56 163.331 140.128C164.654 137.696 166.424 135.776 168.643 134.368C170.904 132.96 173.464 132.256 176.323 132.256C178.414 132.256 180.291 132.661 181.955 133.472C183.662 134.283 185.048 135.413 186.115 136.864C187.182 138.272 187.779 139.893 187.907 141.728V155.168C187.779 157.003 187.182 158.645 186.115 160.096C185.091 161.504 183.726 162.613 182.019 163.424C180.312 164.235 178.414 164.64 176.323 164.64ZM178.307 155.808C180.398 155.808 182.083 155.125 183.363 153.76C184.643 152.352 185.283 150.581 185.283 148.448C185.283 146.997 184.984 145.717 184.387 144.608C183.832 143.499 183.022 142.645 181.955 142.048C180.931 141.408 179.736 141.088 178.371 141.088C177.006 141.088 175.79 141.408 174.723 142.048C173.699 142.645 172.867 143.499 172.227 144.608C171.63 145.717 171.331 146.997 171.331 148.448C171.331 149.856 171.63 151.115 172.227 152.224C172.824 153.333 173.656 154.208 174.723 154.848C175.79 155.488 176.984 155.808 178.307 155.808ZM184.899 164V155.616L186.371 148.064L184.899 140.512V132.896H194.499V164H184.899ZM221.938 164V146.272C221.938 144.651 221.426 143.349 220.402 142.368C219.42 141.344 218.162 140.832 216.626 140.832C215.559 140.832 214.62 141.067 213.81 141.536C212.999 141.963 212.359 142.603 211.89 143.456C211.42 144.267 211.186 145.205 211.186 146.272L207.41 144.416C207.41 141.984 207.943 139.851 209.01 138.016C210.076 136.181 211.548 134.773 213.426 133.792C215.346 132.768 217.5 132.256 219.89 132.256C222.194 132.256 224.22 132.811 225.97 133.92C227.762 134.987 229.17 136.416 230.194 138.208C231.218 140 231.729 141.963 231.729 144.096V164H221.938ZM201.394 164V132.896H211.186V164H201.394Z" fill="#161616"/>
<path d="M93.0707 52H90.0707V55H93.0707V52ZM93.0707 6.816V3.816H90.0707V6.816H93.0707ZM103.119 6.816H106.119V3.816H103.119V6.816ZM103.119 52V55H106.119V52H103.119ZM121.039 52H118.039V55H121.039V52ZM121.039 6.816V3.816H118.039V6.816H121.039ZM131.151 6.816H134.151V3.816H131.151V6.816ZM131.151 52V55H134.151V52H131.151ZM99.0867 33.12H96.0867V36.12H99.0867V33.12ZM99.0867 24.416V21.416H96.0867V24.416H99.0867ZM124.367 24.416H127.367V21.416H124.367V24.416ZM124.367 33.12V36.12H127.367V33.12H124.367ZM96.0707 52V6.816H90.0707V52H96.0707ZM93.0707 9.816H103.119V3.816H93.0707V9.816ZM100.119 6.816V52H106.119V6.816H100.119ZM103.119 49H93.0707V55H103.119V49ZM124.039 52V6.816H118.039V52H124.039ZM121.039 9.816H131.151V3.816H121.039V9.816ZM128.151 6.816V52H134.151V6.816H128.151ZM131.151 49H121.039V55H131.151V49ZM102.087 33.12V24.416H96.0867V33.12H102.087ZM99.0867 27.416H124.367V21.416H99.0867V27.416ZM121.367 24.416V33.12H127.367V24.416H121.367ZM124.367 30.12H99.0867V36.12H124.367V30.12ZM138.925 52H135.925V55H138.925V52ZM138.925 20.896V17.896H135.925V20.896H138.925ZM148.717 20.896H151.717V17.896H148.717V20.896ZM148.717 52V55H151.717V52H148.717ZM140.013 15.072L137.805 17.1032L137.847 17.1491L137.891 17.1933L140.013 15.072ZM140.013 7.392L137.891 5.27068L137.869 5.29324L137.847 5.31628L140.013 7.392ZM147.629 15.072L149.795 17.1477L149.816 17.1257L149.837 17.1032L147.629 15.072ZM141.925 52V20.896H135.925V52H141.925ZM138.925 23.896H148.717V17.896H138.925V23.896ZM145.717 20.896V52H151.717V20.896H145.717ZM148.717 49H138.925V55H148.717V49ZM143.853 13.608C143.059 13.608 142.559 13.3753 142.134 12.9507L137.891 17.1933C139.515 18.8167 141.575 19.608 143.853 19.608V13.608ZM142.221 13.0408C141.765 12.5462 141.541 11.9981 141.541 11.232H135.541C135.541 13.4526 136.297 15.4645 137.805 17.1032L142.221 13.0408ZM141.541 11.232C141.541 10.3992 141.779 9.88439 142.179 9.46772L137.847 5.31628C136.283 6.9476 135.541 8.99281 135.541 11.232H141.541ZM142.134 9.51332C142.559 9.08871 143.059 8.856 143.853 8.856V2.856C141.575 2.856 139.515 3.64729 137.891 5.27068L142.134 9.51332ZM143.853 8.856C144.646 8.856 145.097 9.08646 145.463 9.46772L149.795 5.31628C148.197 3.64954 146.131 2.856 143.853 2.856V8.856ZM145.463 9.46772C145.862 9.88439 146.101 10.3992 146.101 11.232H152.101C152.101 8.99281 151.358 6.9476 149.795 5.31628L145.463 9.46772ZM146.101 11.232C146.101 11.9981 145.876 12.5462 145.421 13.0408L149.837 17.1032C151.344 15.4645 152.101 13.4526 152.101 11.232H146.101ZM145.463 12.9963C145.097 13.3775 144.646 13.608 143.853 13.608V19.608C146.131 19.608 148.197 18.8145 149.795 17.1477L145.463 12.9963ZM155.612 59.68L152.969 58.2612L151.569 60.8695L154.158 62.3041L155.612 59.68ZM160.284 50.976L159.452 48.0939L158.238 48.4444L157.641 49.5572L160.284 50.976ZM163.164 50.144L165.883 51.4127L168.675 45.4293L162.332 47.2619L163.164 50.144ZM162.076 51.744L164.083 53.9739L164.142 53.9211L164.198 53.8653L162.076 51.744ZM157.212 50.784L155.091 52.9053L157.212 50.784ZM157.34 42.656L155.181 40.5736L155.161 40.5939L155.142 40.6146L157.34 42.656ZM165.66 42.656L163.501 44.7384L163.539 44.7777L163.578 44.8155L165.66 42.656ZM167.068 49.312L164.184 48.4878L167.068 49.312ZM165.532 52.832L168.164 54.2723L168.174 54.254L168.184 54.2357L165.532 52.832ZM160.348 62.304L158.894 64.9281L161.532 66.3896L162.98 63.7443L160.348 62.304ZM158.256 61.0988L162.928 52.3948L157.641 49.5572L152.969 58.2612L158.256 61.0988ZM161.117 53.8581L163.997 53.0261L162.332 47.2619L159.452 48.0939L161.117 53.8581ZM160.446 48.8753C160.27 49.2514 160.096 49.4814 159.955 49.6227L164.198 53.8653C164.91 53.1532 165.461 52.3166 165.883 51.4127L160.446 48.8753ZM160.069 49.5141C160.1 49.4864 160.176 49.429 160.295 49.3823C160.416 49.3349 160.527 49.32 160.604 49.32V55.32C161.928 55.32 163.127 54.8346 164.083 53.9739L160.069 49.5141ZM160.604 49.32C160.298 49.32 159.898 49.2275 159.334 48.6627L155.091 52.9053C156.574 54.3885 158.436 55.32 160.604 55.32V49.32ZM159.334 48.6627C158.909 48.2381 158.676 47.7379 158.676 46.944H152.676C152.676 49.2221 153.468 51.2819 155.091 52.9053L159.334 48.6627ZM158.676 46.944C158.676 46.0199 158.956 45.3245 159.539 44.6974L155.142 40.6146C153.506 42.3768 152.676 44.5401 152.676 46.944H158.676ZM159.5 44.7384C160.085 44.1319 160.712 43.864 161.564 43.864V37.864C159.088 37.864 156.9 38.7908 155.181 40.5736L159.5 44.7384ZM161.564 43.864C162.283 43.864 162.882 44.0965 163.501 44.7384L167.82 40.5736C166.135 38.8262 164.003 37.864 161.564 37.864V43.864ZM163.578 44.8155C164.168 45.3843 164.452 46.0259 164.452 46.944H170.452C170.452 44.4488 169.542 42.2317 167.743 40.4965L163.578 44.8155ZM164.452 46.944C164.452 47.2674 164.389 47.7695 164.184 48.4878L169.953 50.1362C170.26 49.0625 170.452 47.986 170.452 46.944H164.452ZM164.184 48.4878C164.013 49.0869 163.613 50.0455 162.881 51.4283L168.184 54.2357C168.988 52.7172 169.612 51.3291 169.953 50.1362L164.184 48.4878ZM162.901 51.3917L157.717 60.8637L162.98 63.7443L168.164 54.2723L162.901 51.3917ZM161.802 59.6799L157.066 57.0559L154.158 62.3041L158.894 64.9281L161.802 59.6799ZM89.2582 108H86.2582V111H89.2582V108ZM89.2582 62.816V59.816H86.2582V62.816H89.2582ZM99.3063 62.816H102.306V59.816H99.3063V62.816ZM99.3063 108V111H102.306V108H99.3063ZM92.2582 108V62.816H86.2582V108H92.2582ZM89.2582 65.816H99.3063V59.816H89.2582V65.816ZM96.3063 62.816V108H102.306V62.816H96.3063ZM99.3063 105H89.2582V111H99.3063V105ZM106.408 80.992L103.761 79.5812L102.358 82.2131L104.982 83.6311L106.408 80.992ZM111.08 72.224L110.307 69.3253L109.046 69.6615L108.433 70.8132L111.08 72.224ZM113.96 71.456L116.644 72.7976L119.622 66.8415L113.187 68.5573L113.96 71.456ZM112.872 72.992L110.751 70.8707L110.751 70.8707L112.872 72.992ZM108.008 72.096L110.13 69.9747L108.008 72.096ZM108.136 63.968L105.977 61.8856L105.975 61.8871L108.136 63.968ZM116.456 63.968L114.297 66.0504L114.335 66.0897L114.374 66.1275L116.456 63.968ZM117.864 70.624L120.749 71.4482L120.754 71.4308L120.759 71.4134L117.864 70.624ZM116.328 74.08L118.96 75.5203L118.962 75.5166L116.328 74.08ZM111.144 83.552L109.718 86.1911L112.343 87.6103L113.776 84.9923L111.144 83.552ZM109.056 82.4028L113.728 73.6348L108.433 70.8132L103.761 79.5812L109.056 82.4028ZM111.853 75.1227L114.733 74.3547L113.187 68.5573L110.307 69.3253L111.853 75.1227ZM111.277 70.1144C111.107 70.4539 110.927 70.695 110.751 70.8707L114.994 75.1133C115.671 74.4357 116.216 73.6528 116.644 72.7976L111.277 70.1144ZM110.751 70.8707C110.77 70.8517 110.847 70.7822 110.988 70.7208C111.134 70.6573 111.281 70.632 111.4 70.632V76.632C112.824 76.632 114.059 76.0481 114.994 75.1133L110.751 70.8707ZM111.4 70.632C111.094 70.632 110.694 70.5395 110.13 69.9747L105.887 74.2173C107.37 75.7005 109.232 76.632 111.4 76.632V70.632ZM110.13 69.9747C109.722 69.5668 109.472 69.054 109.472 68.192H103.472C103.472 70.4873 104.247 72.5772 105.887 74.2173L110.13 69.9747ZM109.472 68.192C109.472 67.2692 109.75 66.6173 110.297 66.0489L105.975 61.8871C104.304 63.6227 103.472 65.7868 103.472 68.192H109.472ZM110.296 66.0504C110.881 65.4438 111.508 65.176 112.36 65.176V59.176C109.884 59.176 107.696 60.1028 105.977 61.8856L110.296 66.0504ZM112.36 65.176C113.079 65.176 113.678 65.4085 114.297 66.0504L118.616 61.8856C116.931 60.1382 114.799 59.176 112.36 59.176V65.176ZM114.374 66.1275C114.98 66.7124 115.248 67.3401 115.248 68.192H121.248C121.248 65.7159 120.321 63.5276 118.539 61.8085L114.374 66.1275ZM115.248 68.192C115.248 68.5216 115.183 69.0538 114.97 69.8346L120.759 71.4134C121.058 70.3168 121.248 69.2277 121.248 68.192H115.248ZM114.98 69.7998C114.813 70.3844 114.421 71.3121 113.695 72.6434L118.962 75.5166C119.772 74.0319 120.404 72.6556 120.749 71.4482L114.98 69.7998ZM113.697 72.6397L108.513 82.1117L113.776 84.9923L118.96 75.5203L113.697 72.6397ZM112.571 80.9129L107.835 78.3529L104.982 83.6311L109.718 86.1911L112.571 80.9129ZM121.675 108H118.675V111H121.675V108ZM121.675 76.896V73.896H118.675V76.896H121.675ZM131.467 76.896H134.467V73.896H131.467V76.896ZM131.467 108V111H134.467V108H131.467ZM141.579 108H138.579V111H141.579V108ZM140.107 86.176L138.035 88.3461L138.086 88.3941L138.138 88.4398L140.107 86.176ZM133.963 85.472L135.304 88.1553L135.363 88.1261L135.42 88.0945L133.963 85.472ZM132.107 87.136L129.588 85.5062L129.553 85.5599L129.521 85.6149L132.107 87.136ZM131.467 89.824L130.257 92.5693L134.467 94.4244V89.824H131.467ZM127.691 88.16H124.691V90.1163L126.481 90.9053L127.691 88.16ZM129.291 81.824L131.852 83.3858L131.86 83.3722L131.869 83.3585L129.291 81.824ZM133.643 77.728L135.009 80.3987L135.034 80.3863L135.058 80.3734L133.643 77.728ZM145.675 77.728L144.179 80.3287L144.193 80.3366L144.207 80.3444L145.675 77.728ZM149.835 81.824L147.246 83.3395L149.835 81.824ZM151.371 108V111H154.371V108H151.371ZM161.483 108H158.483V111H161.483V108ZM160.011 86.176L157.939 88.3461L157.99 88.3941L158.042 88.4398L160.011 86.176ZM153.867 85.472L155.208 88.1553L155.267 88.1261L155.324 88.0945L153.867 85.472ZM152.011 87.136L149.492 85.5062L149.457 85.5599L149.425 85.6149L152.011 87.136ZM151.371 89.824L150.965 92.7965L154.371 93.2609V89.824H151.371ZM145.739 89.056L142.74 88.9593L142.653 91.663L145.333 92.0285L145.739 89.056ZM147.595 82.272L145.048 80.6871L145.043 80.695L145.038 80.7029L147.595 82.272ZM152.267 77.856L153.679 80.5031L153.689 80.4975L153.699 80.4919L152.267 77.856ZM165.195 77.792L163.733 80.4116L163.769 80.4316L163.805 80.4507L165.195 77.792ZM169.611 82.08L167.002 83.562L167.022 83.5974L167.044 83.6323L169.611 82.08ZM171.275 108V111H174.275V108H171.275ZM124.675 108V76.896H118.675V108H124.675ZM121.675 79.896H131.467V73.896H121.675V79.896ZM128.467 76.896V108H134.467V76.896H128.467ZM131.467 105H121.675V111H131.467V105ZM144.579 108V89.824H138.579V108H144.579ZM144.579 89.824C144.579 87.5797 143.851 85.456 142.075 83.9122L138.138 88.4398C138.325 88.6026 138.579 88.911 138.579 89.824H144.579ZM142.178 84.0059C140.632 82.5296 138.694 81.832 136.587 81.832V87.832C137.295 87.832 137.705 88.0304 138.035 88.3461L142.178 84.0059ZM136.587 81.832C135.156 81.832 133.77 82.1473 132.506 82.8495L135.42 88.0945C135.692 87.9433 136.054 87.832 136.587 87.832V81.832ZM132.621 82.7887C131.371 83.414 130.347 84.3338 129.588 85.5062L134.625 88.7658C134.805 88.4875 135.019 88.298 135.304 88.1553L132.621 82.7887ZM129.521 85.6149C128.76 86.9093 128.467 88.3634 128.467 89.824H134.467C134.467 89.1512 134.601 88.8134 134.693 88.6571L129.521 85.6149ZM132.677 87.0787L128.901 85.4147L126.481 90.9053L130.257 92.5693L132.677 87.0787ZM130.691 88.16C130.691 86.1214 131.127 84.5754 131.852 83.3858L126.729 80.2622C125.321 82.5713 124.691 85.2493 124.691 88.16H130.691ZM131.869 83.3585C132.65 82.0456 133.684 81.077 135.009 80.3987L132.276 75.0573C129.933 76.2563 128.065 78.0184 126.713 80.2896L131.869 83.3585ZM135.058 80.3734C136.412 79.649 137.986 79.256 139.851 79.256V73.256C137.107 73.256 134.543 73.8443 132.228 75.0826L135.058 80.3734ZM139.851 79.256C141.559 79.256 142.974 79.6359 144.179 80.3287L147.17 75.1273C144.962 73.8575 142.495 73.256 139.851 73.256V79.256ZM144.207 80.3444C145.486 81.0621 146.488 82.0452 147.246 83.3395L152.424 80.3085C151.133 78.1042 149.362 76.3566 147.143 75.1116L144.207 80.3444ZM147.246 83.3395C147.951 84.5451 148.371 86.09 148.371 88.096H154.371C154.371 85.238 153.766 82.6016 152.424 80.3085L147.246 83.3395ZM148.371 88.096V108H154.371V88.096H148.371ZM151.371 105H141.579V111H151.371V105ZM164.483 108V89.824H158.483V108H164.483ZM164.483 89.824C164.483 87.5797 163.755 85.456 161.979 83.9122L158.042 88.4398C158.229 88.6026 158.483 88.911 158.483 89.824H164.483ZM162.082 84.0059C160.536 82.5296 158.598 81.832 156.491 81.832V87.832C157.199 87.832 157.609 88.0304 157.939 88.3461L162.082 84.0059ZM156.491 81.832C155.06 81.832 153.674 82.1473 152.41 82.8495L155.324 88.0945C155.596 87.9433 155.958 87.832 156.491 87.832V81.832ZM152.525 82.7887C151.275 83.414 150.251 84.3338 149.492 85.5062L154.529 88.7658C154.709 88.4875 154.923 88.298 155.208 88.1553L152.525 82.7887ZM149.425 85.6149C148.664 86.9093 148.371 88.3634 148.371 89.824H154.371C154.371 89.1512 154.505 88.8134 154.597 88.6571L149.425 85.6149ZM151.776 86.8515L146.144 86.0835L145.333 92.0285L150.965 92.7965L151.776 86.8515ZM148.737 89.1527C148.809 86.9232 149.322 85.1926 150.152 83.841L145.038 80.7029C143.563 83.1061 142.839 85.8981 142.74 88.9593L148.737 89.1527ZM150.142 83.8569C151.069 82.3663 152.242 81.269 153.679 80.5031L150.855 75.2089C148.451 76.491 146.509 78.3377 145.048 80.6871L150.142 83.8569ZM153.699 80.4919C155.184 79.685 156.882 79.256 158.859 79.256V73.256C155.972 73.256 153.275 73.8937 150.834 75.2201L153.699 80.4919ZM158.859 79.256C160.807 79.256 162.403 79.6696 163.733 80.4116L166.657 75.1724C164.317 73.8664 161.689 73.256 158.859 73.256V79.256ZM163.805 80.4507C165.161 81.1596 166.215 82.1756 167.002 83.562L172.219 80.598C170.874 78.2297 168.983 76.3871 166.585 75.1333L163.805 80.4507ZM167.044 83.6323C167.815 84.9076 168.275 86.5633 168.275 88.736H174.275C174.275 85.7034 173.625 82.9218 172.178 80.5277L167.044 83.6323ZM168.275 88.736V108H174.275V88.736H168.275ZM171.275 105H161.483V111H171.275V105ZM30.7095 163.168L29.3461 165.84L29.3785 165.857L29.4113 165.873L30.7095 163.168ZM25.3335 158.752L23.2538 156.59L21.2859 158.483L22.9857 160.62L25.3335 158.752ZM32.0535 152.288L34.4881 150.535L32.4668 147.728L29.9738 150.126L32.0535 152.288ZM34.7415 154.72L33.3127 157.358L33.3349 157.37L33.3574 157.382L34.7415 154.72ZM41.6535 154.784L43.0901 157.418L43.1353 157.393L43.1797 157.367L41.6535 154.784ZM43.8935 152.48L46.5052 153.956L46.5185 153.933L46.5314 153.909L43.8935 152.48ZM44.7255 118.816V115.816H41.7255V118.816H44.7255ZM54.8375 118.816H57.8375V115.816H54.8375V118.816ZM47.0295 162.656L45.5803 160.029L47.0295 162.656ZM38.1975 161.704C35.6961 161.704 33.6603 161.257 32.0077 160.463L29.4113 165.873C32.0253 167.127 34.9815 167.704 38.1975 167.704V161.704ZM32.0729 160.496C30.3727 159.628 28.9138 158.434 27.6813 156.884L22.9857 160.62C24.7398 162.825 26.865 164.574 29.3461 165.84L32.0729 160.496ZM27.4132 160.914L34.1332 154.45L29.9738 150.126L23.2538 156.59L27.4132 160.914ZM29.6189 154.041C30.617 155.427 31.8425 156.562 33.3127 157.358L36.1703 152.082C35.5925 151.769 35.026 151.282 34.4881 150.535L29.6189 154.041ZM33.3574 157.382C34.8932 158.18 36.5701 158.552 38.3255 158.552V152.552C37.4355 152.552 36.7232 152.369 36.1256 152.058L33.3574 157.382ZM38.3255 158.552C40.0088 158.552 41.6316 158.213 43.0901 157.418L40.2169 152.15C39.7981 152.379 39.2022 152.552 38.3255 152.552V158.552ZM43.1797 157.367C44.5866 156.535 45.701 155.379 46.5052 153.956L41.2818 151.004C40.9766 151.544 40.5977 151.923 40.1273 152.201L43.1797 157.367ZM46.5314 153.909C47.3815 152.339 47.7255 150.559 47.7255 148.704H41.7255C41.7255 149.836 41.5149 150.573 41.2556 151.051L46.5314 153.909ZM47.7255 148.704V118.816H41.7255V148.704H47.7255ZM44.7255 121.816H54.8375V115.816H44.7255V121.816ZM51.8375 118.816V148.128H57.8375V118.816H51.8375ZM51.8375 148.128C51.8375 151.089 51.2401 153.494 50.1628 155.447L55.4162 158.345C57.0696 155.349 57.8375 151.908 57.8375 148.128H51.8375ZM50.1628 155.447C49.071 157.426 47.5592 158.937 45.5803 160.029L48.4787 165.283C51.4492 163.644 53.7774 161.316 55.4162 158.345L50.1628 155.447ZM45.5803 160.029C43.6329 161.104 41.2087 161.704 38.1975 161.704V167.704C42.0129 167.704 45.4768 166.939 48.4787 165.283L45.5803 160.029ZM68.228 162.592L66.749 165.202L66.7746 165.217L66.8005 165.231L68.228 162.592ZM62.148 156.704L64.7166 155.154L62.148 156.704ZM62.148 140.128L59.5915 138.558L62.148 140.128ZM68.228 134.368L69.6738 136.997L69.6905 136.987L69.707 136.978L68.228 134.368ZM91.716 140.128L89.1474 141.678L89.1534 141.688L89.1595 141.698L91.716 140.128ZM91.716 156.704L94.2846 158.254L91.716 156.704ZM85.636 162.592L87.0818 165.221L87.0985 165.211L87.115 165.202L85.636 162.592ZM80.644 154.912L82.1098 157.53L82.149 157.508L82.1875 157.484L80.644 154.912ZM83.076 152.288L80.4127 150.907L80.4026 150.927L80.3927 150.946L83.076 152.288ZM83.076 144.608L80.4346 146.03L80.4464 146.052L80.4585 146.074L83.076 144.608ZM80.58 142.048L78.99 144.592L79.0512 144.63L79.1142 144.666L80.58 142.048ZM73.284 142.048L74.7498 144.666L74.789 144.644L74.8275 144.62L73.284 142.048ZM70.788 144.608L73.4294 146.03L70.788 144.608ZM70.788 152.288L68.1247 153.669L68.1355 153.69L68.1466 153.71L70.788 152.288ZM73.284 154.912L71.7405 157.484L71.779 157.508L71.8182 157.53L73.284 154.912ZM76.932 161.704C74.1888 161.704 71.7845 161.105 69.6555 159.953L66.8005 165.231C69.8768 166.895 73.2752 167.704 76.932 167.704V161.704ZM69.707 159.982C67.5867 158.78 65.9388 157.179 64.7166 155.154L59.5794 158.254C61.3439 161.178 63.7493 163.502 66.749 165.202L69.707 159.982ZM64.7166 155.154C63.5234 153.177 62.908 150.945 62.908 148.384H56.908C56.908 151.967 57.7859 155.282 59.5794 158.254L64.7166 155.154ZM62.908 148.384C62.908 145.822 63.5234 143.621 64.7045 141.698L59.5915 138.558C57.786 141.499 56.908 144.802 56.908 148.384H62.908ZM64.7045 141.698C65.919 139.72 67.5582 138.16 69.6738 136.997L66.7822 131.739C63.7778 133.392 61.3637 135.672 59.5915 138.558L64.7045 141.698ZM69.707 136.978C71.7711 135.808 74.1535 135.192 76.932 135.192V129.192C73.2251 129.192 69.8049 130.026 66.749 131.758L69.707 136.978ZM76.932 135.192C79.7258 135.192 82.1203 135.794 84.1902 136.933L87.0818 131.675C84.0317 129.998 80.6235 129.192 76.932 129.192V135.192ZM84.1902 136.933C86.2928 138.089 87.93 139.661 89.1474 141.678L94.2846 138.578C92.5153 135.646 90.0992 133.335 87.0818 131.675L84.1902 136.933ZM89.1595 141.698C90.3406 143.621 90.956 145.822 90.956 148.384H96.956C96.956 144.802 96.078 141.499 94.2725 138.558L89.1595 141.698ZM90.956 148.384C90.956 150.945 90.3406 153.177 89.1474 155.154L94.2846 158.254C96.0781 155.282 96.956 151.967 96.956 148.384H90.956ZM89.1474 155.154C87.9252 157.179 86.2773 158.78 84.157 159.982L87.115 165.202C90.1147 163.502 92.5201 161.178 94.2846 158.254L89.1474 155.154ZM84.1902 159.963C82.1203 161.102 79.7258 161.704 76.932 161.704V167.704C80.6235 167.704 84.0317 166.898 87.0818 165.221L84.1902 159.963ZM76.932 158.808C78.7746 158.808 80.5313 158.413 82.1098 157.53L79.1782 152.294C78.6234 152.605 77.9054 152.808 76.932 152.808V158.808ZM82.1875 157.484C83.7419 156.552 84.9487 155.251 85.7593 153.63L80.3927 150.946C80.094 151.544 79.6795 151.992 79.1005 152.34L82.1875 157.484ZM85.7393 153.669C86.5829 152.042 86.972 150.258 86.972 148.384H80.972C80.972 149.411 80.7638 150.23 80.4127 150.907L85.7393 153.669ZM86.972 148.384C86.972 146.516 86.5847 144.734 85.6935 143.142L80.4585 146.074C80.762 146.616 80.972 147.351 80.972 148.384H86.972ZM85.7174 143.186C84.8585 141.591 83.6258 140.315 82.0458 139.43L79.1142 144.666C79.6676 144.975 80.0989 145.407 80.4346 146.03L85.7174 143.186ZM82.17 139.504C80.5946 138.519 78.8073 138.088 76.932 138.088V144.088C77.8727 144.088 78.5174 144.297 78.99 144.592L82.17 139.504ZM76.932 138.088C75.0777 138.088 73.3182 138.529 71.7405 139.476L74.8275 144.62C75.3831 144.287 76.0557 144.088 76.932 144.088V138.088ZM71.8182 139.43C70.2382 140.315 69.0055 141.591 68.1466 143.186L73.4294 146.03C73.7652 145.407 74.1964 144.975 74.7498 144.666L71.8182 139.43ZM68.1466 143.186C67.2804 144.794 66.892 146.577 66.892 148.448H72.892C72.892 147.418 73.1009 146.64 73.4294 146.03L68.1466 143.186ZM66.892 148.448C66.892 150.295 67.2877 152.055 68.1247 153.669L73.4513 150.907C73.0936 150.217 72.892 149.417 72.892 148.448H66.892ZM68.1466 153.71C68.9963 155.288 70.2049 156.563 71.7405 157.484L74.8275 152.34C74.2298 151.981 73.7744 151.506 73.4294 150.866L68.1466 153.71ZM71.8182 157.53C73.3832 158.406 75.1145 158.808 76.932 158.808V152.808C76.0188 152.808 75.3181 152.613 74.7498 152.294L71.8182 157.53ZM98.831 164H95.831V167H98.831V164ZM98.831 132.896V129.896H95.831V132.896H98.831ZM108.623 132.896H111.623V129.896H108.623V132.896ZM108.623 164V167H111.623V164H108.623ZM108.623 146.912L106.776 149.276L111.623 153.063V146.912H108.623ZM104.527 143.712L101.599 143.058L101.186 144.908L102.68 146.076L104.527 143.712ZM108.623 135.264L110.79 137.339L108.623 135.264ZM120.527 132.96L119.358 135.723L119.421 135.75L119.485 135.773L120.527 132.96ZM123.535 135.008L125.888 136.87L127.467 134.873L125.755 132.99L123.535 135.008ZM117.711 142.368L115.491 144.386L117.87 147.002L120.064 144.23L117.711 142.368ZM116.111 141.28L114.997 144.065L116.111 141.28ZM110.031 142.432L107.865 140.356L107.863 140.358L110.031 142.432ZM101.831 164V132.896H95.831V164H101.831ZM98.831 135.896H108.623V129.896H98.831V135.896ZM105.623 132.896V164H111.623V132.896H105.623ZM108.623 161H98.831V167H108.623V161ZM110.47 144.548L106.374 141.348L102.68 146.076L106.776 149.276L110.47 144.548ZM107.455 144.366C108.185 141.098 109.356 138.837 110.79 137.339L106.456 133.189C104.05 135.702 102.49 139.072 101.599 143.058L107.455 144.366ZM110.79 137.339C112.019 136.055 113.827 135.256 116.623 135.256V129.256C112.592 129.256 109.067 130.462 106.456 133.189L110.79 137.339ZM116.623 135.256C117.808 135.256 118.696 135.443 119.358 135.723L121.696 130.197C120.14 129.539 118.425 129.256 116.623 129.256V135.256ZM119.485 135.773C120.171 136.027 120.774 136.431 121.315 137.026L125.755 132.99C124.589 131.708 123.187 130.746 121.569 130.147L119.485 135.773ZM121.182 133.146L115.358 140.506L120.064 144.23L125.888 136.87L121.182 133.146ZM119.931 140.35C119.173 139.516 118.25 138.904 117.225 138.495L114.997 144.065C115.252 144.168 115.396 144.281 115.491 144.386L119.931 140.35ZM117.225 138.495C116.174 138.074 115.061 137.896 113.935 137.896V143.896C114.43 143.896 114.768 143.974 114.997 144.065L117.225 138.495ZM113.935 137.896C111.624 137.896 109.495 138.655 107.865 140.356L112.197 144.508C112.53 144.161 113.003 143.896 113.935 143.896V137.896ZM107.863 140.358C106.183 142.115 105.623 144.498 105.623 146.912H111.623C111.623 145.315 112.002 144.712 112.199 144.506L107.863 140.358ZM130.645 162.528L129.059 165.075L129.069 165.081L129.08 165.088L130.645 162.528ZM125.269 156.768L122.614 158.165L122.623 158.183L122.633 158.201L125.269 156.768ZM125.269 140.128L122.633 138.695L122.623 138.713L122.614 138.731L125.269 140.128ZM130.645 134.368L129.08 131.808L129.069 131.815L129.059 131.821L130.645 134.368ZM144.277 133.472L142.989 136.182L143.002 136.188L143.015 136.194L144.277 133.472ZM148.564 136.864L146.181 138.686L146.211 138.726L146.243 138.764L148.564 136.864ZM150.484 141.728H153.484V141.623L153.477 141.519L150.484 141.728ZM150.484 154.848L153.477 155.057L153.484 154.953V154.848H150.484ZM148.629 159.84L151.012 161.662L151.024 161.646L151.037 161.629L148.629 159.84ZM144.34 163.36L145.656 166.056L145.682 166.043L145.708 166.03L144.34 163.36ZM143.893 154.912L145.404 157.503L145.444 157.48L145.482 157.456L143.893 154.912ZM146.324 152.288L143.683 150.866V150.866L146.324 152.288ZM146.324 144.672L143.641 146.014L143.673 146.076L143.707 146.138L146.324 144.672ZM143.893 142.048L142.303 144.592L142.326 144.606L142.349 144.62L143.893 142.048ZM136.661 142.048L135.117 139.476L135.094 139.49L135.07 139.504L136.661 142.048ZM134.165 144.672L131.566 143.173L131.544 143.211L131.523 143.25L134.165 144.672ZM134.165 152.224L131.523 153.646L134.165 152.224ZM156.436 164V167H159.436V164H156.436ZM146.837 164H143.837V167H146.837V164ZM146.837 155.616L143.892 155.042L143.837 155.326V155.616H146.837ZM148.309 148.064L151.253 148.638L151.372 148.027L151.238 147.418L148.309 148.064ZM146.645 140.512H143.645V140.839L143.715 141.158L146.645 140.512ZM146.645 117.536V114.536H143.645V117.536H146.645ZM156.436 117.536H159.436V114.536H156.436V117.536ZM138.516 161.64C136.073 161.64 134 161.063 132.209 159.968L129.08 165.088C131.897 166.809 135.072 167.64 138.516 167.64V161.64ZM132.23 159.981C130.427 158.858 128.989 157.33 127.904 155.335L122.633 158.201C124.193 161.07 126.34 163.382 129.059 165.075L132.23 159.981ZM127.923 155.371C126.899 153.424 126.349 151.141 126.349 148.448H120.349C120.349 151.984 121.078 155.248 122.614 158.165L127.923 155.371ZM126.349 148.448C126.349 145.755 126.899 143.472 127.923 141.525L122.614 138.731C121.078 141.648 120.349 144.912 120.349 148.448H126.349ZM127.904 141.561C128.989 139.566 130.427 138.038 132.23 136.915L129.059 131.821C126.34 133.514 124.193 135.826 122.633 138.695L127.904 141.561ZM132.209 136.928C134 135.833 136.073 135.256 138.516 135.256V129.256C135.072 129.256 131.897 130.087 129.08 131.808L132.209 136.928ZM138.516 135.256C140.262 135.256 141.734 135.586 142.989 136.182L145.564 130.762C143.406 129.737 141.037 129.256 138.516 129.256V135.256ZM143.015 136.194C144.349 136.812 145.384 137.644 146.181 138.686L150.948 135.042C149.526 133.183 147.703 131.753 145.538 130.75L143.015 136.194ZM146.243 138.764C146.997 139.685 147.406 140.714 147.492 141.937L153.477 141.519C153.307 139.072 152.436 136.859 150.886 134.964L146.243 138.764ZM147.484 141.728V154.848H153.484V141.728H147.484ZM147.492 154.639C147.404 155.895 146.992 157.012 146.22 158.051L151.037 161.629C152.484 159.681 153.309 157.47 153.477 155.057L147.492 154.639ZM146.245 158.018C145.428 159.087 144.356 159.982 142.973 160.69L145.708 166.03C147.824 164.946 149.611 163.494 151.012 161.662L146.245 158.018ZM143.025 160.664C141.724 161.299 140.238 161.64 138.516 161.64V167.64C141.061 167.64 143.459 167.128 145.656 166.056L143.025 160.664ZM140.245 158.808C142.083 158.808 143.842 158.415 145.404 157.503L142.381 152.321C141.895 152.604 141.222 152.808 140.245 152.808V158.808ZM145.482 157.456C146.968 156.528 148.133 155.258 148.966 153.71L143.683 150.866C143.322 151.537 142.865 152.016 142.303 152.368L145.482 157.456ZM148.966 153.71C149.832 152.102 150.221 150.319 150.221 148.448H144.221C144.221 149.478 144.012 150.256 143.683 150.866L148.966 153.71ZM150.221 148.448C150.221 146.58 149.833 144.798 148.942 143.206L143.707 146.138C144.01 146.68 144.221 147.415 144.221 148.448H150.221ZM149.008 143.33C148.197 141.709 146.99 140.408 145.436 139.476L142.349 144.62C142.928 144.968 143.343 145.416 143.641 146.014L149.008 143.33ZM145.482 139.504C143.922 138.528 142.161 138.088 140.309 138.088V144.088C141.187 144.088 141.815 144.288 142.303 144.592L145.482 139.504ZM140.309 138.088C138.454 138.088 136.695 138.529 135.117 139.476L138.204 144.62C138.76 144.287 139.432 144.088 140.309 144.088V138.088ZM135.07 139.504C133.605 140.42 132.436 141.664 131.566 143.173L136.763 146.171C137.173 145.461 137.668 144.956 138.251 144.592L135.07 139.504ZM131.523 143.25C130.664 144.846 130.268 146.603 130.268 148.448H136.268C136.268 147.477 136.471 146.717 136.806 146.094L131.523 143.25ZM130.268 148.448C130.268 150.293 130.664 152.05 131.523 153.646L136.806 150.802C136.471 150.179 136.268 149.419 136.268 148.448H130.268ZM131.523 153.646C132.373 155.224 133.581 156.499 135.117 157.42L138.204 152.276C137.606 151.917 137.151 151.442 136.806 150.802L131.523 153.646ZM135.117 157.42C136.68 158.358 138.414 158.808 140.245 158.808V152.808C139.43 152.808 138.775 152.618 138.204 152.276L135.117 157.42ZM156.436 161H146.837V167H156.436V161ZM149.837 164V155.616H143.837V164H149.837ZM149.781 156.19L151.253 148.638L145.364 147.49L143.892 155.042L149.781 156.19ZM151.238 147.418L149.574 139.866L143.715 141.158L145.379 148.71L151.238 147.418ZM149.645 140.512V117.536H143.645V140.512H149.645ZM146.645 120.536H156.436V114.536H146.645V120.536ZM153.436 117.536V164H159.436V117.536H153.436ZM168.643 162.528L167.036 165.061L167.046 165.068L167.057 165.075L168.643 162.528ZM163.331 156.768L160.676 158.165L160.686 158.183L160.696 158.201L163.331 156.768ZM163.331 140.128L160.696 138.695L160.686 138.713L160.676 138.731L163.331 140.128ZM168.643 134.368L167.057 131.821L167.046 131.828L167.036 131.835L168.643 134.368ZM181.955 133.472L180.641 136.169L180.654 136.175L180.668 136.182L181.955 133.472ZM186.115 136.864L183.698 138.641L183.711 138.658L183.724 138.676L186.115 136.864ZM187.907 141.728H190.907V141.623L190.9 141.519L187.907 141.728ZM187.907 155.168L190.9 155.377L190.907 155.273V155.168H187.907ZM186.115 160.096L183.698 158.319L183.693 158.325L183.689 158.331L186.115 160.096ZM182.019 163.424L180.732 160.714L182.019 163.424ZM183.363 153.76L185.552 155.812L185.567 155.795L185.583 155.778L183.363 153.76ZM184.387 144.608L181.704 145.95L181.724 145.99L181.746 146.03L184.387 144.608ZM181.955 142.048L180.365 144.592L180.426 144.63L180.489 144.666L181.955 142.048ZM174.723 142.048L176.235 144.639L176.251 144.63L176.266 144.62L174.723 142.048ZM172.227 144.608L169.628 143.109L169.606 143.147L169.586 143.186L172.227 144.608ZM172.227 152.224L169.586 153.646L172.227 152.224ZM184.899 164H181.899V167H184.899V164ZM184.899 155.616L181.954 155.042L181.899 155.326V155.616H184.899ZM186.371 148.064L189.316 148.638L189.427 148.064L189.316 147.49L186.371 148.064ZM184.899 140.512H181.899V140.802L181.954 141.086L184.899 140.512ZM184.899 132.896V129.896H181.899V132.896H184.899ZM194.499 132.896H197.499V129.896H194.499V132.896ZM194.499 164V167H197.499V164H194.499ZM176.323 161.64C173.982 161.64 171.979 161.071 170.229 159.981L167.057 165.075C169.829 166.801 172.947 167.64 176.323 167.64V161.64ZM170.25 159.995C168.486 158.875 167.059 157.344 165.966 155.335L160.696 158.201C162.248 161.056 164.363 163.365 167.036 165.061L170.25 159.995ZM165.986 155.371C164.961 153.424 164.411 151.141 164.411 148.448H158.411C158.411 151.984 159.141 155.248 160.676 158.165L165.986 155.371ZM164.411 148.448C164.411 145.755 164.961 143.472 165.986 141.525L160.676 138.731C159.141 141.648 158.411 144.912 158.411 148.448H164.411ZM165.966 141.561C167.059 139.552 168.486 138.021 170.25 136.901L167.036 131.835C164.363 133.531 162.248 135.84 160.696 138.695L165.966 141.561ZM170.229 136.915C171.979 135.825 173.982 135.256 176.323 135.256V129.256C172.947 129.256 169.829 130.095 167.057 131.821L170.229 136.915ZM176.323 135.256C178.018 135.256 179.437 135.582 180.641 136.169L183.269 130.775C181.145 129.741 178.81 129.256 176.323 129.256V135.256ZM180.668 136.182C181.949 136.791 182.94 137.61 183.698 138.641L188.532 135.087C187.157 133.217 185.374 131.775 183.242 130.762L180.668 136.182ZM183.724 138.676C184.424 139.599 184.825 140.658 184.914 141.937L190.9 141.519C190.733 139.128 189.94 136.945 188.506 135.052L183.724 138.676ZM184.907 141.728V155.168H190.907V141.728H184.907ZM184.914 154.959C184.825 156.24 184.421 157.336 183.698 158.319L188.532 161.873C189.943 159.955 190.733 157.765 190.9 155.377L184.914 154.959ZM183.689 158.331C182.984 159.3 182.025 160.1 180.732 160.714L183.306 166.134C185.426 165.127 187.198 163.708 188.541 161.861L183.689 158.331ZM180.732 160.714C179.469 161.314 178.016 161.64 176.323 161.64V167.64C178.811 167.64 181.156 167.155 183.306 166.134L180.732 160.714ZM178.307 158.808C181.12 158.808 183.635 157.856 185.552 155.812L181.174 151.708C180.531 152.394 179.676 152.808 178.307 152.808V158.808ZM185.583 155.778C187.427 153.75 188.283 151.23 188.283 148.448H182.283C182.283 149.932 181.859 150.954 181.143 151.742L185.583 155.778ZM188.283 148.448C188.283 146.577 187.895 144.794 187.028 143.186L181.746 146.03C182.074 146.64 182.283 147.418 182.283 148.448H188.283ZM187.07 143.266C186.251 141.628 185.02 140.326 183.421 139.43L180.489 144.666C181.023 144.965 181.414 145.37 181.704 145.95L187.07 143.266ZM183.545 139.504C181.984 138.528 180.223 138.088 178.371 138.088V144.088C179.249 144.088 179.878 144.288 180.365 144.592L183.545 139.504ZM178.371 138.088C176.517 138.088 174.757 138.529 173.18 139.476L176.266 144.62C176.822 144.287 177.495 144.088 178.371 144.088V138.088ZM173.211 139.457C171.7 140.338 170.508 141.585 169.628 143.109L174.826 146.107C175.226 145.413 175.698 144.952 176.235 144.639L173.211 139.457ZM169.586 143.186C168.719 144.794 168.331 146.577 168.331 148.448H174.331C174.331 147.418 174.54 146.64 174.868 146.03L169.586 143.186ZM168.331 148.448C168.331 150.293 168.726 152.05 169.586 153.646L174.868 150.802C174.533 150.179 174.331 149.419 174.331 148.448H168.331ZM169.586 153.646C170.435 155.224 171.644 156.499 173.18 157.42L176.266 152.276C175.669 151.917 175.213 151.442 174.868 150.802L169.586 153.646ZM173.18 157.42C174.742 158.358 176.476 158.808 178.307 158.808V152.808C177.492 152.808 176.837 152.618 176.266 152.276L173.18 157.42ZM187.899 164V155.616H181.899V164H187.899ZM187.844 156.19L189.316 148.638L183.426 147.49L181.954 155.042L187.844 156.19ZM189.316 147.49L187.844 139.938L181.954 141.086L183.426 148.638L189.316 147.49ZM187.899 140.512V132.896H181.899V140.512H187.899ZM184.899 135.896H194.499V129.896H184.899V135.896ZM191.499 132.896V164H197.499V132.896H191.499ZM194.499 161H184.899V167H194.499V161ZM221.938 164H218.938V167H221.938V164ZM220.402 142.368L218.236 144.444L218.28 144.49L218.326 144.534L220.402 142.368ZM213.809 141.536L215.207 144.191L215.26 144.163L215.313 144.132L213.809 141.536ZM211.889 143.456L214.486 144.959L214.502 144.931L214.518 144.902L211.889 143.456ZM211.186 146.272L209.862 148.964L214.186 151.089V146.272H211.186ZM207.41 144.416H204.41V146.284L206.086 147.108L207.41 144.416ZM213.426 133.792L214.815 136.451L214.826 136.445L214.837 136.439L213.426 133.792ZM225.969 133.92L224.363 136.454L224.399 136.476L224.435 136.498L225.969 133.92ZM230.193 138.208L227.589 139.696L230.193 138.208ZM231.729 164V167H234.729V164H231.729ZM201.393 164H198.393V167H201.393V164ZM201.393 132.896V129.896H198.393V132.896H201.393ZM211.186 132.896H214.186V129.896H211.186V132.896ZM211.186 164V167H214.186V164H211.186ZM224.938 164V146.272H218.938V164H224.938ZM224.938 146.272C224.938 143.961 224.178 141.832 222.477 140.202L218.326 144.534C218.673 144.867 218.938 145.34 218.938 146.272H224.938ZM222.567 140.292C220.97 138.626 218.904 137.832 216.626 137.832V143.832C217.419 143.832 217.87 144.062 218.236 144.444L222.567 140.292ZM216.626 137.832C215.105 137.832 213.634 138.171 212.306 138.94L215.313 144.132C215.606 143.962 216.012 143.832 216.626 143.832V137.832ZM212.412 138.881C211.048 139.599 209.995 140.676 209.261 142.01L214.518 144.902C214.723 144.529 214.95 144.326 215.207 144.191L212.412 138.881ZM209.293 141.953C208.524 143.281 208.186 144.752 208.186 146.272H214.186C214.186 145.659 214.316 145.253 214.486 144.959L209.293 141.953ZM212.509 143.58L208.733 141.724L206.086 147.108L209.862 148.964L212.509 143.58ZM210.41 144.416C210.41 142.435 210.839 140.837 211.603 139.524L206.416 136.508C205.046 138.864 204.41 141.533 204.41 144.416H210.41ZM211.603 139.524C212.386 138.178 213.441 137.169 214.815 136.451L212.036 131.133C209.656 132.377 207.767 134.185 206.416 136.508L211.603 139.524ZM214.837 136.439C216.281 135.669 217.943 135.256 219.889 135.256V129.256C217.057 129.256 214.41 129.867 212.014 131.145L214.837 136.439ZM219.889 135.256C221.691 135.256 223.147 135.682 224.363 136.454L227.576 131.386C225.293 129.939 222.696 129.256 219.889 129.256V135.256ZM224.435 136.498C225.787 137.303 226.824 138.359 227.589 139.696L232.798 136.72C231.515 134.473 229.736 132.671 227.504 131.342L224.435 136.498ZM227.589 139.696C228.345 141.019 228.729 142.466 228.729 144.096H234.729C234.729 141.459 234.09 138.981 232.798 136.72L227.589 139.696ZM228.729 144.096V164H234.729V144.096H228.729ZM231.729 161H221.938V167H231.729V161ZM204.393 164V132.896H198.393V164H204.393ZM201.393 135.896H211.186V129.896H201.393V135.896ZM208.186 132.896V164H214.186V132.896H208.186ZM211.186 161H201.393V167H211.186V161Z" fill="url(#paint0_linear_66_174)" mask="url(#path-1-outside-1_66_174)"/>
<defs>
<linearGradient id="paint0_linear_66_174" x1="118.092" y1="-5.11427" x2="158.216" y2="146.754" gradientUnits="userSpaceOnUse">
<stop stop-color="#EE7C7D"/>
<stop offset="0.24" stop-color="#EE7C7D"/>
<stop offset="0.25" stop-color="#F5AC7F"/>
<stop offset="0.49" stop-color="#F5AC7F"/>
<stop offset="0.5" stop-color="#61C4E1"/>
<stop offset="0.74" stop-color="#61C4E1"/>
<stop offset="0.745" stop-color="#D973A3"/>
<stop offset="0.99" stop-color="#D973A3"/>
<stop offset="1" stop-color="#8054C4"/>
</linearGradient>
</defs>
</svg>
