<svg width="20" height="23" viewBox="0 0 20 23" fill="none" xmlns="http://www.w3.org/2000/svg">
<path d="M18.5714 0.773193H1.42411C0.638393 0.773193 0 1.4727 0 2.3314V20.8273C0 21.686 0.638393 22.3855 1.42411 22.3855H18.5714C19.3571 22.3855 20 21.686 20 20.8273V2.3314C20 1.4727 19.3571 0.773193 18.5714 0.773193ZM6.04464 19.2981H3.08036V8.98395H6.04911V19.2981H6.04464ZM4.5625 7.57529C3.61161 7.57529 2.84375 6.74071 2.84375 5.71798C2.84375 4.69525 3.61161 3.86067 4.5625 3.86067C5.50893 3.86067 6.28125 4.69525 6.28125 5.71798C6.28125 6.74553 5.51339 7.57529 4.5625 7.57529ZM17.1562 19.2981H14.192V14.2809C14.192 13.0845 14.1696 11.5456 12.6518 11.5456C11.1071 11.5456 10.8705 12.8481 10.8705 14.1941V19.2981H7.90625V8.98395H10.75V10.3926H10.7902C11.1875 9.58215 12.1563 8.72827 13.5982 8.72827C16.5982 8.72827 17.1562 10.8654 17.1562 13.6441V19.2981Z" fill="#161616"/>
</svg>
