<svg width="219" height="169" viewBox="0 0 219 169" fill="none" xmlns="http://www.w3.org/2000/svg">
<path shape-rendering="geometricPrecision" d="M71.8738 48.9324V1.01801H82.5354V48.9324H71.8738ZM101.55 48.9324V1.01801H112.279V48.9324H101.55ZM78.2572 28.9115V19.6816H105.081V28.9115H78.2572Z" fill="#161616"/>
<path shape-rendering="geometricPrecision" d="M120.528 48.9324V15.9489H130.918V48.9324H120.528ZM125.757 11.4017C124.127 11.4017 122.769 10.8588 121.682 9.77291C120.641 8.64179 120.12 7.28444 120.12 5.70087C120.12 4.07205 120.641 2.7147 121.682 1.62882C122.769 0.542939 124.127 0 125.757 0C127.387 0 128.722 0.542939 129.763 1.62882C130.805 2.7147 131.325 4.07205 131.325 5.70087C131.325 7.28444 130.805 8.64179 129.763 9.77291C128.722 10.8588 127.387 11.4017 125.757 11.4017Z" fill="#161616"/>
<path shape-rendering="geometricPrecision" d="M138.234 57.0765L143.192 47.8466L146.248 46.9643C145.931 47.643 145.546 48.2085 145.093 48.661C144.641 49.0682 144.12 49.2718 143.531 49.2718C142.218 49.2718 141.019 48.7288 139.932 47.643C138.846 46.5571 138.302 45.1997 138.302 43.5709C138.302 41.8064 138.891 40.2906 140.068 39.0238C141.29 37.7569 142.784 37.1235 144.55 37.1235C146.225 37.1235 147.674 37.7569 148.896 39.0238C150.164 40.2454 150.798 41.7611 150.798 43.5709C150.798 44.2948 150.662 45.1319 150.39 46.082C150.118 47.0322 149.575 48.2764 148.76 49.8147L143.26 59.8591L138.234 57.0765Z" fill="#161616"/>
<path shape-rendering="geometricPrecision" d="M67.8285 108.316V60.402H78.4901V108.316H67.8285Z" fill="#161616"/>
<path shape-rendering="geometricPrecision" d="M86.0258 79.6764L90.9831 70.3785L94.0389 69.5641C93.722 70.1976 93.3372 70.7405 92.8845 71.193C92.4318 71.6454 91.9111 71.8716 91.3226 71.8716C90.0097 71.8716 88.81 71.3287 87.7235 70.2428C86.6369 69.1569 86.0937 67.777 86.0937 66.1029C86.0937 64.3384 86.6822 62.8453 87.8593 61.6236C89.0816 60.3568 90.5756 59.7234 92.3412 59.7234C94.0163 59.7234 95.465 60.3568 96.6874 61.6236C97.955 62.8453 98.5888 64.3384 98.5888 66.1029C98.5888 66.8268 98.453 67.6865 98.1813 68.6819C97.9097 69.632 97.3664 70.8536 96.5515 72.3467L91.051 82.3911L86.0258 79.6764Z" fill="#161616"/>
<path shape-rendering="geometricPrecision" d="M102.225 108.316V75.3329H112.615V108.316H102.225ZM123.344 108.316V89.0421C123.344 87.368 122.823 86.0786 121.782 85.1737C120.786 84.2235 119.541 83.7484 118.047 83.7484C117.006 83.7484 116.078 83.9747 115.263 84.4271C114.448 84.8343 113.792 85.4225 113.294 86.1917C112.841 86.9608 112.615 87.911 112.615 89.0421L108.608 87.2775C108.608 84.6533 109.174 82.4137 110.306 80.5587C111.437 78.6584 112.977 77.2105 114.923 76.2152C116.87 75.1745 119.066 74.6542 121.51 74.6542C123.819 74.6542 125.879 75.1745 127.69 76.2152C129.546 77.2558 131.018 78.7036 132.104 80.5587C133.191 82.4137 133.734 84.6307 133.734 87.2097V108.316H123.344ZM144.463 108.316V89.0421C144.463 87.368 143.943 86.0786 142.902 85.1737C141.906 84.2235 140.661 83.7484 139.167 83.7484C138.125 83.7484 137.197 83.9747 136.382 84.4271C135.568 84.8343 134.911 85.4225 134.413 86.1917C133.96 86.9608 133.734 87.911 133.734 89.0421L127.758 88.2277C127.849 85.4225 128.505 83.0245 129.727 81.0337C130.995 78.9977 132.647 77.4368 134.685 76.3509C136.767 75.2198 139.099 74.6542 141.679 74.6542C144.215 74.6542 146.455 75.1971 148.402 76.283C150.394 77.3237 151.956 78.8394 153.088 80.8301C154.265 82.7757 154.853 85.1284 154.853 87.8884V108.316H144.463Z" fill="#161616"/>
<path shape-rendering="geometricPrecision" d="M13.6496 168.447C10.6163 168.447 7.96791 167.904 5.7043 166.818C3.48596 165.687 1.58453 164.126 0 162.135L7.13037 155.281C7.94527 156.412 8.89599 157.272 9.98252 157.86C11.1143 158.448 12.3819 158.742 13.7854 158.742C15.1436 158.742 16.3206 158.471 17.3166 157.928C18.3126 157.339 19.1049 156.525 19.6934 155.484C20.2819 154.398 20.5762 153.064 20.5762 151.48V119.786H31.3057V150.869C31.3057 154.444 30.5814 157.543 29.1327 160.167C27.6839 162.791 25.6467 164.827 23.0209 166.275C20.3951 167.723 17.2713 168.447 13.6496 168.447Z" fill="#161616"/>
<path shape-rendering="geometricPrecision" d="M54.7495 168.447C51.3541 168.447 48.2756 167.701 45.5139 166.207C42.7976 164.669 40.6472 162.588 39.0627 159.964C37.4781 157.339 36.6859 154.398 36.6859 151.141C36.6859 147.883 37.4781 144.965 39.0627 142.386C40.6472 139.807 42.7976 137.771 45.5139 136.278C48.2303 134.74 51.3088 133.97 54.7495 133.97C58.1902 133.97 61.2687 134.717 63.985 136.21C66.7013 137.703 68.8518 139.762 70.4363 142.386C72.0208 144.965 72.8131 147.883 72.8131 151.141C72.8131 154.398 72.0208 157.339 70.4363 159.964C68.8518 162.588 66.7013 164.669 63.985 166.207C61.2687 167.701 58.1902 168.447 54.7495 168.447ZM54.7495 159.013C56.2435 159.013 57.5563 158.697 58.6882 158.063C59.82 157.385 60.6801 156.457 61.2687 155.281C61.9025 154.059 62.2194 152.679 62.2194 151.141C62.2194 149.602 61.9025 148.268 61.2687 147.137C60.6349 145.96 59.7521 145.055 58.6202 144.422C57.5337 143.743 56.2435 143.404 54.7495 143.404C53.3008 143.404 52.0105 143.743 50.8787 144.422C49.7469 145.055 48.8641 145.96 48.2303 147.137C47.5965 148.313 47.2796 149.67 47.2796 151.209C47.2796 152.702 47.5965 154.059 48.2303 155.281C48.8641 156.457 49.7469 157.385 50.8787 158.063C52.0105 158.697 53.3008 159.013 54.7495 159.013Z" fill="#161616"/>
<path shape-rendering="geometricPrecision" d="M77.9858 167.7V134.717H88.3757V167.7H77.9858ZM88.3757 149.58L84.0296 146.187C84.8898 142.341 86.3385 139.355 88.3757 137.228C90.413 135.102 93.2425 134.038 96.8643 134.038C98.4488 134.038 99.8296 134.287 101.007 134.785C102.229 135.237 103.293 135.961 104.198 136.957L98.0187 144.761C97.566 144.264 97.0001 143.879 96.321 143.608C95.6419 143.336 94.8723 143.2 94.0121 143.2C92.2918 143.2 90.911 143.743 89.8697 144.829C88.8737 145.87 88.3757 147.453 88.3757 149.58Z" fill="#161616"/>
<path shape-rendering="geometricPrecision" d="M120.095 168.379C116.971 168.379 114.187 167.633 111.742 166.14C109.343 164.646 107.441 162.61 106.038 160.031C104.68 157.452 104 154.512 104 151.209C104 147.906 104.68 144.965 106.038 142.386C107.441 139.807 109.343 137.771 111.742 136.278C114.187 134.785 116.971 134.038 120.095 134.038C122.358 134.038 124.396 134.468 126.207 135.328C128.063 136.187 129.579 137.386 130.756 138.925C131.979 140.418 132.658 142.137 132.794 144.083V157.995C132.658 159.941 132.001 161.706 130.824 163.289C129.647 164.827 128.131 166.072 126.274 167.022C124.418 167.927 122.358 168.379 120.095 168.379ZM121.928 159.013C123.422 159.013 124.713 158.697 125.799 158.063C126.886 157.385 127.746 156.457 128.38 155.281C129.013 154.104 129.33 152.747 129.33 151.209C129.33 149.67 129.013 148.336 128.38 147.205C127.791 146.028 126.931 145.101 125.799 144.422C124.713 143.743 123.445 143.404 121.996 143.404C120.547 143.404 119.257 143.743 118.125 144.422C117.039 145.101 116.156 146.028 115.477 147.205C114.843 148.381 114.526 149.716 114.526 151.209C114.526 152.702 114.843 154.036 115.477 155.213C116.111 156.389 116.994 157.317 118.125 157.995C119.257 158.674 120.525 159.013 121.928 159.013ZM139.109 167.7H128.923V158.81L130.485 150.801L128.719 142.793V118.429H139.109V167.7Z" fill="#161616"/>
<path shape-rendering="geometricPrecision" d="M160.21 168.379C157.177 168.379 154.46 167.633 152.061 166.14C149.707 164.646 147.828 162.61 146.425 160.031C145.066 157.452 144.387 154.512 144.387 151.209C144.387 147.906 145.066 144.965 146.425 142.386C147.828 139.807 149.707 137.771 152.061 136.278C154.46 134.785 157.177 134.038 160.21 134.038C162.428 134.038 164.42 134.468 166.186 135.328C167.997 136.187 169.468 137.386 170.6 138.925C171.732 140.418 172.366 142.137 172.501 144.083V158.335C172.366 160.28 171.732 162.022 170.6 163.561C169.513 165.054 168.065 166.23 166.254 167.09C164.443 167.949 162.428 168.379 160.21 168.379ZM162.315 159.013C164.533 159.013 166.322 158.29 167.68 156.842C169.038 155.349 169.717 153.471 169.717 151.209C169.717 149.67 169.4 148.313 168.766 147.137C168.178 145.96 167.318 145.055 166.186 144.422C165.099 143.743 163.832 143.404 162.383 143.404C160.934 143.404 159.644 143.743 158.512 144.422C157.426 145.055 156.543 145.96 155.864 147.137C155.23 148.313 154.913 149.67 154.913 151.209C154.913 152.702 155.23 154.036 155.864 155.213C156.498 156.389 157.38 157.317 158.512 157.995C159.644 158.674 160.912 159.013 162.315 159.013ZM169.31 167.7V158.81L170.872 150.801L169.31 142.793V134.717H179.496V167.7H169.31Z" fill="#161616"/>
<path shape-rendering="geometricPrecision" d="M208.61 167.7V148.901C208.61 147.182 208.067 145.802 206.98 144.761C205.939 143.675 204.603 143.132 202.974 143.132C201.842 143.132 200.846 143.381 199.986 143.879C199.126 144.331 198.446 145.01 197.948 145.915C197.45 146.775 197.201 147.77 197.201 148.901L193.195 146.933C193.195 144.354 193.761 142.092 194.893 140.146C196.024 138.201 197.586 136.708 199.578 135.667C201.615 134.581 203.902 134.038 206.437 134.038C208.882 134.038 211.032 134.626 212.888 135.803C214.79 136.934 216.284 138.45 217.37 140.35C218.457 142.25 219 144.331 219 146.594V167.7H208.61ZM186.811 167.7V134.717H197.201V167.7H186.811Z" fill="#161616"/>
</svg>
