<svg width="95" height="17" viewBox="0 0 95 17" fill="none" xmlns="http://www.w3.org/2000/svg">
<path d="M11.5684 13.1698H7.24835L3.74435 5.1218H3.68035C3.68035 5.1218 3.68568 5.2178 3.69635 5.4098C3.70702 5.59113 3.72302 5.83113 3.74435 6.1298C3.76569 6.42847 3.78169 6.74847 3.79235 7.0898C3.81368 7.42047 3.82435 7.7298 3.82435 8.0178V13.1698H0.944351V1.7458H5.24835L8.73635 9.6818H8.78435C8.78435 9.6818 8.77902 9.59113 8.76835 9.4098C8.75769 9.22847 8.74169 8.9938 8.72035 8.7058C8.70969 8.4178 8.69902 8.1138 8.68835 7.7938C8.67769 7.4738 8.67235 7.18047 8.67235 6.9138V1.7458H11.5684V13.1698ZM17.4707 4.1618C18.3027 4.1618 19.0227 4.31113 19.6307 4.6098C20.2387 4.90847 20.7027 5.35647 21.0227 5.9538C21.3534 6.55113 21.5187 7.30313 21.5187 8.2098V9.5698H16.4947C16.5161 10.0285 16.6601 10.4071 16.9267 10.7058C17.2041 11.0045 17.6201 11.1538 18.1747 11.1538C18.6974 11.1538 19.1721 11.1005 19.5987 10.9938C20.0361 10.8871 20.4841 10.7165 20.9427 10.4818V12.6738C20.5481 12.8978 20.1001 13.0631 19.5987 13.1698C19.1081 13.2765 18.4734 13.3298 17.6947 13.3298C16.8521 13.3298 16.0947 13.1751 15.4227 12.8658C14.7507 12.5458 14.2174 12.0498 13.8227 11.3778C13.4281 10.7058 13.2307 9.84713 13.2307 8.8018C13.2307 7.73513 13.4067 6.86047 13.7587 6.1778C14.1214 5.49513 14.6174 4.98847 15.2467 4.6578C15.8867 4.32713 16.6281 4.1618 17.4707 4.1618ZM17.6147 6.2418C17.3267 6.2418 17.0867 6.3538 16.8947 6.5778C16.7027 6.8018 16.5907 7.15913 16.5587 7.6498H18.6387C18.6387 7.38313 18.5961 7.14847 18.5107 6.9458C18.4254 6.73247 18.3081 6.5618 18.1587 6.4338C18.0094 6.3058 17.8281 6.2418 17.6147 6.2418ZM24.5455 8.6578L22.0495 4.3218H25.7295L26.8015 6.8018L27.9215 4.3218H31.5855L29.0255 8.6578L31.6815 13.1698H28.0175L26.8015 10.4818L25.5855 13.1698H21.9215L24.5455 8.6578ZM37.0754 10.9138C37.342 10.9138 37.5767 10.8871 37.7794 10.8338C37.982 10.7698 38.2007 10.6951 38.4354 10.6098V12.8338C38.0834 12.9725 37.7314 13.0898 37.3794 13.1858C37.038 13.2818 36.5634 13.3298 35.9554 13.3298C35.39 13.3298 34.894 13.2391 34.4674 13.0578C34.0514 12.8765 33.726 12.5671 33.4914 12.1298C33.2674 11.6818 33.1554 11.0578 33.1554 10.2578V6.6098H32.1794V5.3618L33.4754 4.4018L34.2754 2.5458H36.4034V4.3218H38.3074V6.6098H36.4034V10.0498C36.4034 10.3378 36.4567 10.5565 36.5634 10.7058C36.6807 10.8445 36.8514 10.9138 37.0754 10.9138ZM46.552 13.1698L46.168 11.0258H42.92L42.504 13.1698H38.904L42.248 1.6978H46.728L50.12 13.1698H46.552ZM45.096 6.5938C45.0426 6.3378 44.9786 6.0498 44.904 5.7298C44.8293 5.4098 44.7546 5.07913 44.68 4.7378C44.616 4.3858 44.5626 4.05513 44.52 3.7458C44.4773 4.05513 44.424 4.38047 44.36 4.7218C44.296 5.06313 44.232 5.3938 44.168 5.7138C44.104 6.0338 44.04 6.3218 43.976 6.5778L43.528 8.4978H45.544L45.096 6.5938ZM59.4187 4.3218V13.1698H57.0027L56.6027 12.0658H56.4107C56.2401 12.3645 56.0214 12.6098 55.7547 12.8018C55.4987 12.9831 55.2107 13.1165 54.8907 13.2018C54.5814 13.2871 54.2614 13.3298 53.9307 13.3298C53.3974 13.3298 52.9121 13.2178 52.4747 12.9938C52.0374 12.7698 51.6854 12.4178 51.4187 11.9378C51.1521 11.4578 51.0187 10.8391 51.0187 10.0818V4.3218H54.2507V9.1538C54.2507 9.7298 54.3094 10.1671 54.4267 10.4658C54.5441 10.7645 54.7521 10.9138 55.0507 10.9138C55.3601 10.9138 55.5947 10.8125 55.7547 10.6098C55.9254 10.3965 56.0374 10.0871 56.0907 9.6818C56.1547 9.27647 56.1867 8.78047 56.1867 8.1938V4.3218H59.4187ZM65.6222 10.9138C65.8889 10.9138 66.1236 10.8871 66.3262 10.8338C66.5289 10.7698 66.7476 10.6951 66.9822 10.6098V12.8338C66.6302 12.9725 66.2782 13.0898 65.9262 13.1858C65.5849 13.2818 65.1102 13.3298 64.5022 13.3298C63.9369 13.3298 63.4409 13.2391 63.0142 13.0578C62.5982 12.8765 62.2729 12.5671 62.0382 12.1298C61.8142 11.6818 61.7022 11.0578 61.7022 10.2578V6.6098H60.7262V5.3618L62.0222 4.4018L62.8222 2.5458H64.9502V4.3218H66.8542V6.6098H64.9502V10.0498C64.9502 10.3378 65.0036 10.5565 65.1102 10.7058C65.2276 10.8445 65.3982 10.9138 65.6222 10.9138ZM71.5789 2.7378C71.5789 3.38847 71.5629 3.9378 71.5309 4.3858C71.4989 4.8338 71.4722 5.17513 71.4509 5.4098H71.5949C71.7762 5.10047 71.9735 4.85513 72.1869 4.6738C72.4109 4.49247 72.6562 4.36447 72.9229 4.2898C73.2002 4.20447 73.4989 4.1618 73.8189 4.1618C74.3415 4.1618 74.8269 4.2738 75.2749 4.4978C75.7335 4.7218 76.0962 5.0738 76.3629 5.5538C76.6402 6.02313 76.7789 6.6418 76.7789 7.4098V13.1698H73.5149V8.3378C73.5149 7.75113 73.4509 7.30847 73.3229 7.0098C73.1949 6.71113 72.9922 6.5618 72.7149 6.5618C72.4269 6.5618 72.1975 6.66847 72.0269 6.8818C71.8669 7.09513 71.7495 7.40447 71.6749 7.8098C71.6109 8.20447 71.5789 8.69513 71.5789 9.2818V13.1698H68.3469V1.0098H71.5789V2.7378ZM78.1504 11.8738C78.1504 11.3191 78.321 10.9298 78.6624 10.7058C79.0037 10.4818 79.4037 10.3698 79.8624 10.3698C80.2997 10.3698 80.6784 10.4818 80.9984 10.7058C81.329 10.9298 81.4944 11.3191 81.4944 11.8738C81.4944 12.3965 81.329 12.7751 80.9984 13.0098C80.6784 13.2445 80.2997 13.3618 79.8624 13.3618C79.4037 13.3618 79.0037 13.2445 78.6624 13.0098C78.321 12.7751 78.1504 12.3965 78.1504 11.8738ZM82.957 17.0098C82.7436 17.0098 82.477 16.9885 82.157 16.9458C81.8476 16.9138 81.5863 16.8711 81.373 16.8178V14.4338C81.5223 14.4765 81.661 14.5085 81.789 14.5298C81.9063 14.5618 82.0343 14.5778 82.173 14.5778C82.365 14.5778 82.5356 14.4871 82.685 14.3058C82.845 14.1351 82.925 13.7831 82.925 13.2498V4.3218H86.141V13.8898C86.141 14.4231 86.0396 14.9245 85.837 15.3938C85.645 15.8738 85.3143 16.2631 84.845 16.5618C84.3863 16.8605 83.757 17.0098 82.957 17.0098ZM82.861 2.1138C82.861 1.5698 83.0263 1.20713 83.357 1.0258C83.6876 0.844466 84.0876 0.753799 84.557 0.753799C85.005 0.753799 85.3996 0.844466 85.741 1.0258C86.0823 1.20713 86.253 1.5698 86.253 2.1138C86.253 2.63647 86.0823 2.9938 85.741 3.1858C85.3996 3.36713 85.005 3.4578 84.557 3.4578C84.0876 3.4578 83.6876 3.36713 83.357 3.1858C83.0263 2.9938 82.861 2.63647 82.861 2.1138ZM94.4039 10.4498C94.4039 11.0045 94.2919 11.5005 94.0679 11.9378C93.8545 12.3751 93.4919 12.7165 92.9799 12.9618C92.4679 13.2071 91.7692 13.3298 90.8839 13.3298C90.2759 13.3298 89.7212 13.2925 89.2199 13.2178C88.7292 13.1538 88.2225 13.0258 87.6999 12.8338V10.3858C88.2759 10.6418 88.8412 10.8285 89.3959 10.9458C89.9612 11.0525 90.3772 11.1058 90.6439 11.1058C90.9105 11.1058 91.1025 11.0685 91.2199 10.9938C91.3479 10.9191 91.4119 10.8071 91.4119 10.6578C91.4119 10.5298 91.3532 10.4178 91.2359 10.3218C91.1185 10.2258 90.9319 10.1191 90.6759 10.0018C90.4199 9.88447 90.0732 9.72447 89.6359 9.5218C89.2092 9.31913 88.8519 9.10047 88.5639 8.8658C88.2759 8.62047 88.0572 8.33247 87.9079 8.0018C87.7585 7.66047 87.6839 7.2498 87.6839 6.7698C87.6839 5.9058 88.0092 5.25513 88.6599 4.8178C89.3105 4.38047 90.1639 4.1618 91.2199 4.1618C91.7852 4.1618 92.3132 4.2258 92.8039 4.3538C93.3052 4.4818 93.8225 4.66847 94.3559 4.9138L93.5239 6.8818C93.2465 6.74313 92.9532 6.6258 92.6439 6.5298C92.3452 6.4338 92.0679 6.35913 91.8119 6.3058C91.5665 6.25247 91.3799 6.2258 91.2519 6.2258C91.0812 6.2258 90.9479 6.2578 90.8519 6.3218C90.7559 6.3858 90.7079 6.47647 90.7079 6.5938C90.7079 6.70047 90.7505 6.79647 90.8359 6.8818C90.9212 6.96713 91.0812 7.06847 91.3159 7.1858C91.5612 7.29247 91.9079 7.4418 92.3559 7.6338C92.8465 7.83647 93.2412 8.06047 93.5399 8.3058C93.8385 8.54047 94.0572 8.82847 94.1959 9.1698C94.3345 9.50047 94.4039 9.92713 94.4039 10.4498Z" fill="#282828"/>
</svg>
