<svg width="105" height="23" viewBox="0 0 105 23" fill="none" xmlns="http://www.w3.org/2000/svg">
<g clip-path="url(#clip0_63_17)">
<path d="M69.8109 0.926758H87.9149V4.34693H80.7262V22.2826H77.1318V4.34693H69.8109V0.926758ZM39.9458 0.926758V4.34693H25.4097V9.84075H37.1179V13.234H25.4097V18.8894H39.9458V22.2826H21.8418V0.926758H39.9987H39.9458ZM49.0111 0.926758H44.3067L61.1685 22.3096H65.8994L57.442 11.6182L65.8994 0.953688H61.1685L55.0898 8.65581L49.0111 0.953688V0.926758ZM53.8476 16.1964L51.469 13.234L44.3067 22.3096H49.0111L53.8476 16.1964Z" fill="#282828"/>
<path d="M21.9741 22.2826L5.05938 0.926758H0.566406V22.2826H4.16079V5.50494L17.4283 22.2826H21.9741ZM88.7344 22.1749C88.4701 22.1749 88.2587 22.0672 88.0737 21.9056C87.8887 21.744 87.783 21.4747 87.783 21.2054C87.783 20.9361 87.8622 20.7207 88.0472 20.5322C88.2323 20.3436 88.4701 20.2629 88.7344 20.2629C88.9987 20.2629 89.2101 20.3436 89.3951 20.5322C89.5499 20.6761 89.6505 20.8706 89.6794 21.082C89.7084 21.2935 89.6639 21.5086 89.5537 21.6902C89.4711 21.8313 89.3554 21.9495 89.217 22.0341C89.0787 22.1187 88.922 22.167 88.7608 22.1749H88.7344ZM94.866 13.1532H96.4517V19.428C96.4517 19.9936 96.346 20.5052 96.1082 20.9092C95.8698 21.3156 95.521 21.643 95.1039 21.8518C94.681 22.0672 94.1788 22.2019 93.5974 22.2019C93.0688 22.2019 92.6195 22.0941 92.1966 21.9325C91.7738 21.771 91.4566 21.4478 91.2188 21.0708C90.9809 20.7207 90.8487 20.2629 90.8487 19.7242H92.4345C92.4609 19.9397 92.5138 20.1551 92.6195 20.3167C92.7252 20.4783 92.8838 20.6399 93.0424 20.7207C93.2274 20.8284 93.4388 20.8553 93.6767 20.8553C93.941 20.8553 94.1524 20.8015 94.311 20.6937C94.4975 20.5803 94.6451 20.411 94.7338 20.209C94.8131 19.9936 94.866 19.7242 94.866 19.4011V13.1801V13.1532ZM103.033 15.6039C103.017 15.4246 102.961 15.2513 102.869 15.0973C102.777 14.9433 102.653 14.8126 102.504 14.7152C102.163 14.5019 101.767 14.3986 101.368 14.4189C101.024 14.4189 100.733 14.4728 100.495 14.5536C100.258 14.6613 100.073 14.8229 99.9668 14.9845C99.8469 15.1341 99.7749 15.3177 99.7607 15.5104C99.7465 15.703 99.7908 15.8955 99.8876 16.0617C99.9668 16.1964 100.073 16.3041 100.231 16.3849L100.707 16.6542L101.235 16.7888L102.081 17.0043C102.425 17.0851 102.742 17.1928 103.059 17.3274C103.362 17.4474 103.647 17.6106 103.905 17.8122C104.16 18.0225 104.364 18.2898 104.501 18.5933C104.639 18.8968 104.706 19.2285 104.698 19.5627C104.698 20.1013 104.566 20.5591 104.301 20.9361C104.01 21.3572 103.606 21.6843 103.138 21.8787C102.663 22.0941 102.055 22.2019 101.341 22.2019C100.654 22.2019 100.046 22.0941 99.544 21.8787C99.0154 21.6632 98.6454 21.3401 98.3547 20.9361C98.0606 20.4903 97.9042 19.9651 97.9054 19.428H99.4911C99.5005 19.7067 99.5945 19.9755 99.7601 20.1974C99.9258 20.4193 100.155 20.5833 100.416 20.6668C100.68 20.7745 100.998 20.8284 101.315 20.8284C101.658 20.8284 101.975 20.7745 102.24 20.6668C102.504 20.5591 102.715 20.3975 102.874 20.209C103.011 20.0225 103.085 19.7957 103.085 19.5627C103.085 19.3203 103.033 19.1318 102.9 18.9702C102.73 18.8232 102.544 18.6967 102.345 18.5932L101.5 18.3239L100.495 18.0546C99.7554 17.866 99.174 17.5967 98.7511 17.1928C98.5401 17.001 98.3737 16.7637 98.264 16.4982C98.1542 16.2327 98.104 15.9456 98.1168 15.6577C98.1127 15.17 98.2711 14.6953 98.5661 14.3112C98.8502 13.8942 99.2441 13.5674 99.7026 13.3686C100.231 13.1532 100.76 13.0455 101.394 13.0455C102.002 13.0455 102.557 13.1532 103.033 13.3686C103.508 13.5841 103.878 13.9073 104.169 14.2843C104.433 14.6613 104.566 15.0922 104.566 15.6308H103.033V15.6039Z" fill="#282828"/>
</g>
<defs>
<clipPath id="clip0_63_17">
<rect width="104.131" height="21.5444" fill="white" transform="translate(0.566406 0.926758)"/>
</clipPath>
</defs>
</svg>
