<svg width="161" height="83" viewBox="0 0 161 83" fill="none" xmlns="http://www.w3.org/2000/svg">
<path d="M6.06497 80.5726C14.0724 81.409 110.886 73.1246 158.292 68.8778L147.733 35.8869C142.657 35.1571 131.394 32.7067 126.953 28.7435C122.512 24.7802 127.842 19.3877 131.063 17.1868L120.567 6.90576L115.348 5.76187L113.514 10.4012L104.414 5.1171C103.378 10.8384 98.3446 18.6578 95.9575 21.8524L92.9612 20.5144L87.899 32.1542L80.843 28.2913C71.2759 50.6265 60.308 60.5852 56.02 62.7726L48.896 61.7951L42.0494 63.9927L37.9744 57.63L20.1992 73.8993L6.06497 80.5726Z" fill="#BEE28F" stroke="black" stroke-width="3"/>
<path d="M106.229 22.2349L115.694 6.0515C121.409 5.55237 132.568 16.0955 129.476 17.3253C127.002 18.3092 125.788 23.9395 125.49 26.6317L125.878 31.0769L131.112 36.0586L126.848 42.1898L115.014 34.905L119.139 27.1863L112.058 30.3641L106.229 22.2349Z" fill="#E8C5F4" stroke="black" stroke-width="3"/>
</svg>
