<svg width="107" height="37" viewBox="0 0 107 37" fill="none" xmlns="http://www.w3.org/2000/svg">
<path d="M27.6169 26.9824C27.852 25.0241 27.7816 24.7369 29.2402 25.0541L29.6105 25.0867C30.7321 25.1377 32.1993 24.9063 33.0613 24.5058C34.9168 23.6449 36.0171 22.2074 34.1874 22.5851C30.014 23.446 29.727 22.0329 29.727 22.0329C34.134 15.4941 35.9763 7.19366 34.3861 5.16189C30.0489 -0.380041 22.5413 2.24061 22.4157 2.30865L22.3757 2.31604C21.5511 2.14494 20.6282 2.04271 19.5915 2.02595C17.7029 1.99492 16.2698 2.52107 15.1827 3.34561C15.1827 3.34561 1.78961 -2.17217 2.41269 10.2848C2.5452 12.9347 6.21111 30.3365 10.5834 25.0804C12.1814 23.1584 13.7258 21.5333 13.7258 21.5333C14.4927 22.0427 15.4108 22.3026 16.3738 22.2093L16.4482 22.1458C16.4249 22.3844 16.4352 22.6179 16.478 22.8942C15.3518 24.1527 15.6827 24.3736 13.4308 24.8372C11.1525 25.3067 12.491 26.1427 13.3647 26.3612C14.4241 26.6261 16.875 27.0014 18.5315 24.6831L18.4655 24.9476C18.9074 25.3011 18.8775 27.4883 18.9401 29.051C19.0029 30.6137 19.1075 32.0721 19.4261 32.9319C19.7446 33.7915 20.1205 36.0061 23.08 35.3719C25.5535 34.8418 27.4446 34.079 27.6169 26.9824Z" fill="black" stroke="#313131" stroke-width="3"/>
<path d="M34.1883 22.5849C30.0144 23.4459 29.7274 22.0327 29.7274 22.0327C34.1344 15.4935 35.9767 7.19291 34.3868 5.16139C30.0496 -0.38021 22.5417 2.24061 22.4164 2.30865L22.3761 2.31587C21.5515 2.14469 20.6286 2.04271 19.5914 2.02578C17.7028 1.99483 16.2702 2.5209 15.1831 3.34528C15.1831 3.34528 1.78977 -2.17226 2.41267 10.2846C2.54519 12.9347 6.21102 30.3365 10.5835 25.0804C12.1816 23.1584 13.7257 21.5333 13.7257 21.5333C14.4927 22.0427 15.4108 22.3026 16.3733 22.2093L16.4481 22.1458C16.4249 22.3844 16.4355 22.6179 16.4781 22.8942C15.3516 24.1527 15.6826 24.3736 13.4309 24.8372C11.1524 25.3067 12.4909 26.1427 13.3649 26.3612C14.4243 26.6261 16.8753 27.0014 18.5315 24.6831L18.4654 24.9476C18.9068 25.3011 19.2167 27.247 19.1648 29.0109C19.1128 30.7749 19.0781 31.9859 19.4259 32.9319C19.7736 33.8778 20.1202 36.0061 23.0803 35.3719C25.5538 34.8418 26.8355 33.4682 27.0139 31.177C27.1404 29.5481 27.4267 29.7889 27.4448 28.3325L27.6745 27.6431C27.9394 25.435 27.7166 24.7226 29.2404 25.054L29.6108 25.0865C30.7324 25.1375 32.2003 24.9061 33.0619 24.5057C34.917 23.6447 36.0173 22.2072 34.1881 22.5849H34.1883Z" fill="#575757"/>
<path d="M18.7102 23.8506C18.5952 27.9593 18.739 32.0966 19.1411 33.1021C19.5433 34.1076 20.4042 36.0633 23.3646 35.4291C25.8378 34.8989 26.7377 33.8728 27.1282 31.608C27.4157 29.9417 27.9702 25.3139 28.0413 24.3657" stroke="white" stroke-width="0.8" stroke-linecap="round" stroke-linejoin="round"/>
<path d="M15.1618 3.25365C15.1618 3.25365 1.75933 -2.22414 2.3824 10.2327C2.51491 12.8828 6.18099 30.2852 10.5534 25.0288C12.1512 23.1066 13.5962 21.599 13.5962 21.599" stroke="white" stroke-width="0.8" stroke-linecap="round" stroke-linejoin="round"/>
<path d="M22.4013 2.25364C21.9374 2.39909 29.8566 -0.641338 34.3572 5.10944C35.947 7.14104 34.1047 15.4416 29.6978 21.981" stroke="white" stroke-width="0.8" stroke-linecap="round" stroke-linejoin="round"/>
<path d="M29.698 21.9812C29.698 21.9812 29.9852 23.3948 34.1592 22.5332C35.988 22.1555 34.8874 23.5932 33.0326 24.4545C31.5104 25.161 28.0977 25.3421 28.0419 24.3658C27.8984 21.8471 29.838 22.6123 29.698 21.9812ZM29.698 21.9812C29.5715 21.4128 28.7042 20.8549 28.1304 19.4638C27.6294 18.2496 21.2602 8.93831 29.8967 10.3212C30.2131 10.2557 27.6442 2.10634 19.5617 1.97383C11.481 1.84132 11.7461 11.9113 11.7461 11.9113" stroke="white" stroke-width="0.8" stroke-linecap="round" stroke-linejoin="bevel"/>
<path d="M16.4485 22.8425C15.3219 24.1009 15.6532 24.3219 13.4013 24.7855C11.1229 25.2552 12.4615 26.091 13.3352 26.3094C14.3946 26.5745 16.8457 26.9498 18.5018 24.6309C19.0062 23.9248 18.4988 22.7982 17.8061 22.5111C17.4713 22.3724 17.0238 22.1987 16.4485 22.8425Z" stroke="white" stroke-width="0.8" stroke-linecap="round" stroke-linejoin="round"/>
<path d="M16.3739 22.8205C16.2603 22.0806 16.617 21.2001 16.9992 20.17C17.5735 18.6245 18.8988 17.0787 17.8386 12.1761C17.0485 8.52276 11.7485 11.4158 11.7452 11.9112C11.7419 12.4064 11.9849 14.4221 11.6566 16.7693C11.2283 19.8322 13.6056 22.4227 16.3431 22.1576" stroke="white" stroke-width="0.8" stroke-linecap="round" stroke-linejoin="round"/>
<path d="M15.1135 11.8369C15.0896 12.0061 15.4233 12.4576 15.8583 12.5179C16.2926 12.5785 16.6643 12.2256 16.6879 12.0566C16.7115 11.8874 16.3782 11.7011 15.943 11.6405C15.5085 11.5798 15.1366 11.6681 15.1136 11.8369H15.1135Z" fill="white"/>
<path d="M28.3427 11.4919C28.3663 11.6611 28.033 12.1126 27.5979 12.1729C27.1633 12.2335 26.7915 11.8806 26.7677 11.7116C26.7447 11.5424 27.0781 11.3561 27.5128 11.2955C27.9475 11.2349 28.3191 11.3231 28.3427 11.492V11.4919Z" fill="white"/>
<path d="M29.8963 10.3212C29.968 11.6483 29.6105 12.5522 29.5654 13.965C29.4987 16.0185 30.5445 18.3689 28.9688 20.7222" stroke="white" stroke-width="0.8" stroke-linecap="round" stroke-linejoin="round"/>
<path d="M47.5753 17.9757H44.533V14.9159H47.7408C48.9146 14.9159 49.5021 15.4404 49.5021 16.4697C49.5021 17.4739 48.8598 17.9762 47.5759 17.9762M49.7626 14.8803C49.3459 14.5073 48.7625 14.3208 48.0124 14.3208L43.6553 14.3441V21.6643H44.533L44.5248 18.548H47.7671C48.5801 18.548 49.22 18.3615 49.6869 17.9885C50.1537 17.6155 50.3874 17.0968 50.3874 16.4347C50.3874 15.7726 50.1788 15.2539 49.7621 14.8809L49.7626 14.8803ZM55.4434 20.128C55.3597 20.3676 55.2162 20.5818 55.0267 20.7505C54.6333 21.1351 54.0335 21.3257 53.2199 21.3257C52.4914 21.3257 51.9377 21.1392 51.5414 20.7662C51.1451 20.3932 50.9557 19.8937 50.9557 19.2684C50.9557 18.942 51.007 18.6535 51.1089 18.4011C51.2057 18.1568 51.3577 17.9381 51.5531 17.7623C51.9564 17.3952 52.5124 17.2104 53.2199 17.2104C54.7935 17.2104 55.5704 17.8964 55.5704 19.2678C55.5704 19.5941 55.5256 19.8797 55.4364 20.1268M55.5955 17.4266C55.0605 16.9388 54.2684 16.6946 53.2193 16.6946C52.2285 16.6946 51.4621 16.9441 50.9219 17.4424C50.434 17.8935 50.1904 18.5019 50.1904 19.2678C50.1904 20.0283 50.4422 20.6421 50.9458 21.1095C51.2238 21.3613 51.5478 21.5437 51.9173 21.6562C52.2868 21.7686 52.7216 21.831 53.2193 21.831C54.2684 21.831 55.0575 21.5897 55.6089 21.1071C56.0967 20.6665 56.3403 20.0557 56.3403 19.2742C56.3403 18.4874 56.0938 17.8737 55.6002 17.4325L55.5955 17.4266ZM62.2396 20.339C62.2396 21.3298 61.3567 21.817 59.5913 21.817C59.0516 21.817 58.597 21.7821 58.2275 21.7144C57.858 21.6468 57.5584 21.532 57.3276 21.3741C57.1513 21.2544 57.0059 21.0946 56.9033 20.9078C56.7984 20.7196 56.7302 20.4707 56.6993 20.1764L57.5153 20.1688C57.5153 20.5564 57.6593 20.842 57.9466 21.0256C58.2555 21.2459 58.8016 21.356 59.5861 21.356C60.8199 21.356 61.4371 21.0471 61.4371 20.4282C61.4371 20.0668 61.2302 19.818 60.8164 19.6822C60.7325 19.6559 60.2336 19.5866 59.3185 19.4741C58.4035 19.3616 57.8347 19.2602 57.6091 19.171C57.1219 18.9769 56.8783 18.629 56.8783 18.1254C56.8693 17.8985 56.9262 17.6739 57.042 17.4785C57.1578 17.2832 57.3276 17.1255 57.531 17.0245C57.7467 16.9254 58.0148 16.8479 58.3377 16.7925C58.6605 16.7372 59.0341 16.7098 59.459 16.7098C61.1585 16.7098 62.0082 17.2431 62.0082 18.3096H61.2273C61.2273 17.5601 60.6299 17.1848 59.4351 17.1848C58.8272 17.1848 58.3744 17.2605 58.0754 17.4179C57.7764 17.5753 57.6266 17.8026 57.6266 18.1173C57.6266 18.411 57.8283 18.6232 58.2316 18.7543C58.4676 18.8225 59.0096 18.9012 59.8588 18.9903C60.6188 19.0585 61.1398 19.1553 61.4231 19.2818C61.9628 19.4916 62.239 19.8471 62.239 20.3506L62.2396 20.339ZM65.4661 21.6795L65.1322 21.7261L64.9235 21.7418C64.3885 21.7418 64.0027 21.6643 63.7666 21.5087C63.5306 21.3531 63.4169 21.0821 63.4169 20.6928V17.3532H62.4436V16.8619H63.4111L63.4187 15.2836H64.1676V16.8619H65.4719V17.3614L64.1676 17.3532V20.6036C64.1676 20.8455 64.2259 21.0127 64.3599 21.1048C64.494 21.1969 64.7178 21.2429 65.0476 21.2429C65.0943 21.2488 65.1467 21.2464 65.205 21.2371C65.2633 21.2278 65.349 21.208 65.4644 21.1777L65.4725 21.6789L65.4661 21.6795ZM70.6456 20.5651C70.4377 20.7347 70.2007 20.8653 69.9462 20.9504C69.684 21.0395 69.3832 21.0844 69.0429 21.0844C67.4763 21.0844 66.6941 20.4433 66.6941 19.1436C66.6941 18.5416 66.8946 18.0701 67.2944 17.7297C67.6942 17.3893 68.2596 17.2192 68.9875 17.2192C69.7207 17.2192 70.2773 17.3905 70.6573 17.7338C71.0373 18.0771 71.2273 18.5363 71.2273 19.1127C71.2273 19.741 71.0332 20.2201 70.6456 20.5663M71.9762 16.8596H71.2273L71.2191 17.6854C70.8892 17.3503 70.6538 17.1376 70.5116 17.049C70.0919 16.8188 69.5499 16.7034 68.8843 16.7034C67.9093 16.7034 67.165 16.926 66.6521 17.3713C66.1649 17.7792 65.9213 18.372 65.9213 19.1471C65.9213 19.5295 65.9831 19.8716 66.106 20.1729C66.229 20.4742 66.4091 20.7295 66.6452 20.9387C67.1598 21.3683 67.8866 21.5833 68.8261 21.5833C69.9544 21.5833 70.7494 21.2744 71.2273 20.6508V21.5058C71.2273 22.0507 71.0553 22.4733 70.7121 22.7717C70.3688 23.0701 69.804 23.2204 69.0178 23.2204C68.2788 23.2204 67.7519 23.1185 67.4442 22.9151C67.2082 22.7589 67.0456 22.4873 66.957 22.1009H66.1906C66.2745 22.64 66.5024 23.0304 66.8748 23.2712C67.3049 23.5486 68.0311 23.6873 69.0534 23.6873C71.0093 23.6873 71.9873 22.9605 71.9873 21.5064V16.8537L71.9762 16.8596ZM76.0268 17.3462C75.8192 17.3111 75.6091 17.2928 75.3985 17.2914C74.1676 17.2914 73.5521 17.9663 73.5521 19.3167V21.6643H72.812L72.8038 16.8601L73.5527 16.8677V17.7245H73.5918C73.7177 17.3864 73.9164 17.13 74.1892 16.9563C74.4876 16.7815 74.9328 16.7028 75.525 16.7028H76.028V17.3456L76.0268 17.3462ZM76.7238 18.9583C76.8183 18.4122 77.0304 17.9896 77.3603 17.6901C77.5759 17.517 77.819 17.387 78.0911 17.2996C78.3633 17.2122 78.6705 17.1696 79.0108 17.1696C79.6764 17.1696 80.2196 17.352 80.6416 17.7175C81.0635 18.0829 81.2797 18.4961 81.2797 18.9589H76.7297M81.3532 17.4768C81.0793 17.207 80.7448 17.0069 80.3775 16.8934C79.9894 16.7669 79.5359 16.7039 79.0167 16.7039C78.0463 16.7039 77.2938 16.9295 76.7588 17.38C76.2238 17.8305 75.9563 18.4448 75.9563 19.2217C75.9563 19.9986 76.2127 20.6205 76.7268 21.0704C77.2822 21.574 78.0661 21.8258 79.0784 21.8258C79.4817 21.8258 79.8553 21.7791 80.1986 21.6888C80.5419 21.5985 80.842 21.4673 81.0991 21.3012C81.5502 20.9772 81.8352 20.5785 81.9558 20.1029H81.1399C80.8619 20.9189 80.1706 21.335 79.065 21.335C78.284 21.335 77.6838 21.1345 77.2583 20.7324C76.8969 20.3827 76.7163 19.9421 76.7163 19.3942H82.0549C82.0549 18.5795 81.8218 17.9401 81.3392 17.4709L81.3532 17.4768Z" fill="#282828"/>
<path d="M89.9817 19.7015C89.9817 21.1276 88.8312 21.8404 86.5314 21.8404C85.1531 21.8404 84.1465 21.5956 83.5124 21.1031C82.9879 20.6992 82.7344 20.0832 82.7344 19.2556H83.6669C83.6669 20.5873 84.6227 21.2529 86.5373 21.2529C87.4546 21.2529 88.1185 21.1165 88.527 20.8449C88.8732 20.6042 89.0515 20.2272 89.0515 19.7143C89.0515 19.2061 88.8155 18.85 88.3434 18.6454C88.0753 18.5288 87.4226 18.3965 86.3852 18.2287C85.0796 18.0293 84.2328 17.8306 83.8452 17.6319C83.2846 17.3387 83.0036 16.841 83.0036 16.1387C83.0036 15.4842 83.2368 14.9964 83.7193 14.677C84.2322 14.3261 85.114 14.1507 86.3618 14.1507C88.6174 14.1507 89.7439 14.8996 89.7439 16.3975H88.8044C88.8044 15.2755 87.9669 14.7149 86.2983 14.7149C85.4591 14.7149 84.8448 14.8279 84.4566 15.0529C84.0894 15.2942 83.9058 15.6474 83.9058 16.1148C83.9058 16.6026 84.1419 16.9459 84.614 17.1452C84.8646 17.2606 85.6048 17.4203 86.8322 17.6255C87.9862 17.7986 88.7642 18.0002 89.1635 18.2316C89.7142 18.5148 89.9893 19.005 89.9893 19.7026L89.9817 19.7015ZM97.5048 20.43C97.1558 20.7087 96.7582 20.9204 96.3321 21.0542C95.8962 21.1929 95.4084 21.2622 94.8681 21.2622C93.7607 21.2622 92.8748 20.9708 92.1953 20.3705C91.5157 19.7702 91.1753 18.9852 91.1753 17.9961C91.1753 16.9645 91.5122 16.162 92.1865 15.5862C92.8609 15.0103 93.7601 14.7224 94.8675 14.7224C95.9958 14.7224 96.8829 15.0232 97.5281 15.6258C97.869 15.919 98.1208 16.2669 98.284 16.6545C98.4472 17.0421 98.5288 17.4937 98.5288 17.9967C98.5288 19.0225 98.1872 19.8338 97.5053 20.4306M97.9978 20.9161C98.4804 20.5757 98.8371 20.1584 99.0685 19.6787C99.2998 19.1991 99.4152 18.6297 99.4152 18.0014C99.4152 16.8649 99.0376 15.9533 98.2822 15.2621C97.8783 14.885 97.3905 14.6047 96.8252 14.4217C96.2599 14.2387 95.6013 14.1466 94.8669 14.1466C93.4408 14.1466 92.3212 14.4922 91.5081 15.184C90.6951 15.8758 90.2889 16.813 90.2889 17.9967C90.2889 19.1489 90.6986 20.0785 91.5128 20.7855C92.327 21.4925 93.4536 21.8462 94.8745 21.8462C95.4299 21.8462 95.9148 21.8083 96.3292 21.7337C96.7436 21.6591 97.0945 21.5432 97.3829 21.3876L98.7514 22.3358L99.3226 21.8113L97.9978 20.9126V20.9161ZM106.35 21.6638H100.021V14.3349L100.892 14.3191V21.0507H106.358L106.35 21.6626L106.35 21.6638Z" fill="#282828"/>
</svg>
