<svg width="96" height="32" viewBox="0 0 96 32" fill="none" xmlns="http://www.w3.org/2000/svg">
<path fill-rule="evenodd" clip-rule="evenodd" d="M1.11013 20.1137C0.807959 20.6066 0.812636 21.2288 1.12218 21.7171L6.72484 30.5578C7.08847 31.1315 7.78936 31.3932 8.43987 31.1979L24.6079 26.3461C25.4902 26.0814 25.9341 25.0968 25.5484 24.26L15.1549 1.70743C14.648 0.60759 13.12 0.517312 12.4872 1.54981L1.11013 20.1137ZM14.8787 6.86318C14.6578 6.35187 13.9098 6.43063 13.8001 6.97674L9.79868 26.9065C9.7143 27.3268 10.1076 27.6856 10.5182 27.5631L21.6889 24.2274C22.015 24.1302 22.183 23.7699 22.048 23.4575L14.8787 6.86318Z" fill="#282828"/>
<path fill-rule="evenodd" clip-rule="evenodd" d="M35.3751 15.9865H36.3598C37.2802 15.9865 37.9683 15.8048 38.4255 15.441C38.8826 15.0772 39.1109 14.5477 39.1109 13.8524C39.1109 13.1511 38.9194 12.6328 38.5366 12.298C38.1534 11.9632 37.5536 11.7958 36.7362 11.7958H35.3751V15.9865ZM42.1325 13.7464C42.1325 15.2657 41.6579 16.4273 40.7083 17.232C39.7594 18.0371 38.4096 18.439 36.6593 18.439H35.3752V23.4602H32.3828V9.34326H36.8906C38.6028 9.34326 39.9043 9.71184 40.7956 10.4486C41.6869 11.1858 42.1325 12.2851 42.1325 13.7464Z" fill="#282828"/>
<path fill-rule="evenodd" clip-rule="evenodd" d="M50.0645 12.4617C50.4637 12.4617 50.7951 12.4907 51.0589 12.5486L50.8369 15.31C50.5986 15.2459 50.3094 15.2135 49.9681 15.2135C49.0284 15.2135 48.2965 15.4549 47.7717 15.9377C47.2475 16.4205 46.9853 17.0967 46.9853 17.9657V23.46H44.041V12.6645H46.2709L46.7055 14.4798H46.85C47.1847 13.8749 47.6366 13.387 48.2066 13.0167C48.7758 12.6468 49.3951 12.4617 50.0645 12.4617Z" fill="#282828"/>
<path fill-rule="evenodd" clip-rule="evenodd" d="M52.62 23.4599H55.5643V12.6646H52.62V23.4599ZM52.4951 9.87369C52.4951 8.91457 53.0292 8.43518 54.0975 8.43518C55.1654 8.43518 55.6999 8.91457 55.6999 9.87369C55.6999 10.3309 55.5663 10.6865 55.2994 10.9409C55.0322 11.1952 54.6316 11.3221 54.0975 11.3221C53.0292 11.3221 52.4951 10.8393 52.4951 9.87369Z" fill="#282828"/>
<path fill-rule="evenodd" clip-rule="evenodd" d="M65.9303 20.2539C65.9303 21.3613 65.5457 22.2046 64.7764 22.7838C64.0073 23.3631 62.857 23.6529 61.3256 23.6529C60.5403 23.6529 59.8715 23.5997 59.3179 23.4934C58.7644 23.3873 58.2462 23.2311 57.7636 23.0252V20.5918C58.3107 20.8495 58.9266 21.065 59.6125 21.2389C60.2976 21.4124 60.9009 21.4994 61.422 21.4994C62.4902 21.4994 63.0247 21.1906 63.0247 20.5728C63.0247 20.3409 62.9539 20.1527 62.8123 20.0078C62.6706 19.8628 62.4262 19.6988 62.0785 19.5151C61.7312 19.3316 61.2675 19.1178 60.6884 18.873C59.8585 18.5256 59.2484 18.2038 58.8594 17.9075C58.4698 17.6114 58.1866 17.2719 58.0101 16.8887C57.8328 16.5058 57.7441 16.0342 57.7441 15.474C57.7441 14.5149 58.1156 13.7733 58.8594 13.2486C59.6026 12.7239 60.6562 12.4617 62.0206 12.4617C63.3207 12.4617 64.5852 12.745 65.8143 13.3113L64.9263 15.4355C64.3858 15.2037 63.8803 15.0141 63.4106 14.8658C62.9408 14.7178 62.4613 14.6438 61.9725 14.6438C61.1036 14.6438 60.6691 14.8787 60.6691 15.3486C60.6691 15.6128 60.8095 15.8412 61.089 16.0342C61.3691 16.2272 61.9821 16.5139 62.9279 16.8937C63.7713 17.2351 64.3892 17.5535 64.7815 17.8495C65.1739 18.1457 65.4636 18.4868 65.6503 18.873C65.8371 19.2594 65.9303 19.7196 65.9303 20.2539Z" fill="#282828"/>
<path fill-rule="evenodd" clip-rule="evenodd" d="M77.5936 23.46H74.6494V17.1545C74.6494 16.3759 74.5188 15.7915 74.2587 15.4021C73.9976 15.0127 73.5876 14.8177 73.0275 14.8177C72.2749 14.8177 71.7279 15.0946 71.3866 15.6483C71.0454 16.202 70.8749 17.1127 70.8749 18.3811V23.46H67.9307V12.6645H70.1801L70.5758 14.0454H70.74C71.0294 13.5497 71.4481 13.1617 71.9948 12.8817C72.5418 12.6018 73.1693 12.4617 73.8773 12.4617C75.4927 12.4617 76.5864 12.9898 77.1594 14.0454H77.4198C77.7096 13.5432 78.1359 13.1538 78.699 12.877C79.2622 12.6001 79.8975 12.4617 80.6056 12.4617C81.8281 12.4617 82.7535 12.7757 83.3808 13.4031C84.0083 14.0308 84.3219 15.0366 84.3219 16.4205V23.46H81.368V17.1545C81.368 16.3759 81.2375 15.7915 80.9774 15.4021C80.7163 15.0127 80.3062 14.8177 79.7462 14.8177C79.0257 14.8177 78.4867 15.0755 78.1292 15.5903C77.7723 16.1055 77.5936 16.9228 77.5936 18.0428V23.46Z" fill="#282828"/>
<path fill-rule="evenodd" clip-rule="evenodd" d="M92.8907 18.4581L91.7516 18.4967C90.8957 18.5226 90.2587 18.677 89.8403 18.9603C89.4218 19.2437 89.2129 19.6747 89.2129 20.2543C89.2129 21.0845 89.689 21.4999 90.6413 21.4999C91.3234 21.4999 91.8692 21.3034 92.2775 20.9107C92.6861 20.5182 92.8907 19.9969 92.8907 19.3464V18.4581ZM93.7594 23.4598L93.1899 21.992H93.1125C92.6169 22.6167 92.107 23.0494 91.5823 23.2907C91.0581 23.532 90.3744 23.6529 89.5314 23.6529C88.4949 23.6529 87.6796 23.3569 87.0841 22.7646C86.489 22.1724 86.1914 21.3292 86.1914 20.2347C86.1914 19.0892 86.5918 18.2442 87.3929 17.7C88.1945 17.1563 89.4026 16.8551 91.0179 16.7972L92.8906 16.7392V16.266C92.8906 15.1718 92.3305 14.6246 91.2108 14.6246C90.3485 14.6246 89.3348 14.8851 88.17 15.4068L87.1952 13.4176C88.4372 12.7674 89.8147 12.4421 91.3268 12.4421C92.7747 12.4421 93.8849 12.7579 94.6573 13.3886C95.4292 14.0194 95.8155 14.9785 95.8155 16.266V23.4598H93.7594Z" fill="#282828"/>
</svg>
