<svg width="503" height="437" viewBox="0 0 503 437" fill="none" xmlns="http://www.w3.org/2000/svg">
<rect x="1" y="1.2395" width="129.139" height="161.475" rx="4" fill="#E4DEED" stroke="#8054C4" stroke-width="2"/>
<path d="M42.5518 73.4578V72.8484H48.2939V73.4578H46.4424V81.4968C46.4424 82.5125 46.5518 83.3718 46.7705 84.075C47.2705 85.6843 48.4736 86.489 50.3799 86.489C50.5674 86.489 50.7549 86.4812 50.9424 86.4656C53.1924 86.2312 54.3174 84.5984 54.3174 81.5671V73.4578H52.4424V72.8484H57.0127V73.4578H55.1377V81.4265C55.1377 82.3015 55.0518 83.0828 54.8799 83.7703C54.3018 86.0203 52.6377 87.1453 49.8877 87.1453C46.2783 87.1296 44.458 85.2937 44.4268 81.6375V73.4578H42.5518ZM61.583 86.5125C62.6611 86.5125 63.3877 86.1843 63.7627 85.5281C63.9033 85.2937 63.9736 85.0359 63.9736 84.7546C63.9736 84.0984 63.4971 83.5359 62.5439 83.0671C62.3408 82.9578 62.0049 82.8015 61.5361 82.5984C60.2549 82.0671 59.4033 81.5671 58.9814 81.0984C58.5283 80.5828 58.3018 79.9812 58.3018 79.2937C58.3018 78.2156 58.8955 77.4578 60.083 77.0203C60.6299 76.8171 61.2236 76.7156 61.8643 76.7156C62.8955 76.7156 63.7861 76.9343 64.5361 77.3718C64.5361 76.9187 64.6455 76.6609 64.8643 76.5984C64.958 76.5828 65.0596 76.575 65.1689 76.575V79.5046H64.5596C64.5283 78.0671 63.7314 77.3406 62.1689 77.325C60.9971 77.325 60.2705 77.6687 59.9893 78.3562C59.9111 78.5437 59.8721 78.739 59.8721 78.9421C59.8721 79.614 60.3564 80.1843 61.3252 80.6531C61.5439 80.7625 61.8877 80.9109 62.3564 81.0984C63.6221 81.614 64.4658 82.1062 64.8877 82.575C65.3408 83.075 65.5674 83.6687 65.5674 84.3562C65.5674 85.6218 64.8955 86.4656 63.5518 86.8875C63.0361 87.0593 62.4736 87.1453 61.8643 87.1453C60.7393 87.1296 59.7627 86.8484 58.9346 86.3015C58.9346 86.7078 58.833 86.9421 58.6299 87.0046C58.5361 87.0203 58.4268 87.0281 58.3018 87.0281V83.4656H58.958C58.9893 85.4812 59.8643 86.4968 61.583 86.5125ZM72.3408 77.3015C71.9346 77.3015 71.5518 77.3953 71.1924 77.5828C70.0986 78.1296 69.5127 79.3015 69.4346 81.0984L71.9189 81.1687C72.6377 81.1843 73.1924 81.1531 73.583 81.075C74.333 80.9031 74.708 80.4265 74.708 79.6453C74.708 79.3015 74.6455 78.9812 74.5205 78.6843C74.1611 77.7625 73.4346 77.3015 72.3408 77.3015ZM76.4189 84.6609C76.3252 84.8796 76.2158 85.0984 76.0908 85.3171C75.2939 86.5359 74.0518 87.1453 72.3643 87.1453C71.3018 87.1453 70.3564 86.8718 69.5283 86.325C68.1377 85.3875 67.4424 83.95 67.4424 82.0125C67.4424 80.95 67.6611 79.9968 68.0986 79.1531C68.9424 77.5281 70.3408 76.7156 72.2939 76.7156C73.2939 76.7156 74.1768 76.9421 74.9424 77.3953C76.0205 78.0203 76.5596 78.864 76.5596 79.9265C76.5596 80.5046 76.3486 80.95 75.9268 81.2625C75.3799 81.6531 74.1533 81.8328 72.2471 81.8015L69.4346 81.7546C69.4502 82.4109 69.5205 83.0125 69.6455 83.5593C70.0674 85.5125 71.0986 86.489 72.7393 86.489C72.8799 86.489 73.0283 86.4812 73.1846 86.4656C74.4033 86.3093 75.2861 85.6375 75.833 84.45L76.4189 84.6609ZM83.333 86.325C83.4268 86.325 83.5049 86.3328 83.5674 86.3484C83.8018 86.3796 83.9189 86.5671 83.9189 86.9109H78.1299V86.325C78.6611 86.325 79.0439 86.2859 79.2783 86.2078C79.6846 86.0671 79.8877 85.6375 79.8877 84.9187V77.5359H78.1299V76.95H81.5283L81.6221 79.2703C81.8252 78.8015 82.0986 78.3796 82.4424 78.0046C83.1768 77.2078 84.0127 76.8093 84.9502 76.8093C85.0908 76.8093 85.2393 76.825 85.3955 76.8562C86.1143 77.0125 86.4736 77.4421 86.4736 78.1453C86.4736 78.239 86.458 78.3328 86.4268 78.4265C86.3018 78.8796 86.0049 79.1062 85.5361 79.1062C85.4424 79.1062 85.3486 79.0906 85.2549 79.0593C85.0361 78.9968 84.8018 78.7468 84.5518 78.3093C84.333 77.9187 84.0908 77.7234 83.8252 77.7234C83.5908 77.739 83.3018 77.9109 82.958 78.239C82.083 79.0984 81.6455 80.239 81.6455 81.6609V86.325H83.333Z" fill="#161616"/>
<rect x="186.032" y="1.2395" width="129.139" height="161.475" rx="4" fill="#E4DEED" stroke="#8054C4" stroke-width="2"/>
<path d="M230.635 76.0359C230.635 76.3796 230.557 76.739 230.4 77.114C229.979 78.114 229.205 78.825 228.08 79.2468C228.752 79.3718 229.346 79.5828 229.861 79.8796C230.971 80.5671 231.525 81.5359 231.525 82.7859C231.525 83.5828 231.283 84.3171 230.799 84.989C229.861 86.2703 228.385 86.9109 226.369 86.9109H219.713V86.3015H221.588V73.4578H219.713V72.8484H226.299C227.33 72.8484 228.213 73.0281 228.947 73.3875C230.072 73.9656 230.635 74.8484 230.635 76.0359ZM225.736 73.4578H223.604V78.9656H225.689C226.314 78.9656 226.861 78.8171 227.33 78.5203C228.127 78.0046 228.525 77.239 228.525 76.2234C228.525 76.0046 228.51 75.7937 228.479 75.5906C228.26 74.1687 227.346 73.4578 225.736 73.4578ZM226.135 79.5984H223.604V86.3015H226.252C226.971 86.3015 227.588 86.0828 228.104 85.6453C228.885 84.9734 229.275 84.0359 229.275 82.8328C229.275 82.3171 229.182 81.8406 228.994 81.4031C228.51 80.2 227.557 79.5984 226.135 79.5984ZM235.51 81.9187C235.51 82.5906 235.564 83.2 235.674 83.7468C236.08 85.6218 237.072 86.5593 238.65 86.5593C238.947 86.5593 239.236 86.5203 239.518 86.4421C240.955 85.989 241.674 84.45 241.674 81.825C241.674 81.3718 241.65 80.9578 241.604 80.5828C241.322 78.3953 240.314 77.3015 238.58 77.3015C238.205 77.3015 237.846 77.364 237.502 77.489C236.174 78.0203 235.51 79.4968 235.51 81.9187ZM238.65 76.7156C239.682 76.7156 240.627 76.989 241.486 77.5359C242.939 78.489 243.666 79.95 243.666 81.9187C243.666 83.3718 243.213 84.5828 242.307 85.5515C241.322 86.614 240.08 87.1453 238.58 87.1453C237.518 87.1453 236.549 86.8484 235.674 86.2546C234.236 85.2703 233.518 83.7937 233.518 81.825C233.518 80.4031 233.979 79.2156 234.9 78.2625C235.9 77.2312 237.15 76.7156 238.65 76.7156ZM253.768 87.1453C252.674 87.1296 252.033 86.4265 251.846 85.0359C251.705 85.364 251.494 85.6765 251.213 85.9734C250.432 86.7546 249.471 87.1453 248.33 87.1453C247.861 87.1453 247.416 87.0593 246.994 86.8875C245.947 86.45 245.424 85.6375 245.424 84.45C245.424 84.1062 245.471 83.7859 245.564 83.489C246.096 81.9578 248.197 81.1921 251.869 81.1921V79.7156C251.822 78.2 251.064 77.3953 249.596 77.3015C248.971 77.3015 248.51 77.4968 248.213 77.8875C248.135 77.9968 247.986 78.3406 247.768 78.9187C247.596 79.3718 247.33 79.5984 246.971 79.5984C246.893 79.5984 246.814 79.5906 246.736 79.575C246.283 79.4968 246.057 79.2156 246.057 78.7312C246.057 78.4656 246.15 78.2 246.338 77.9343C246.932 77.1218 248.104 76.7156 249.854 76.7156C249.994 76.7156 250.135 76.7156 250.275 76.7156C252.51 76.8406 253.627 78.0203 253.627 80.2546V85.2C253.643 85.9812 253.854 86.3875 254.26 86.4187C254.76 86.4031 255.064 85.825 255.174 84.6843L255.783 84.7078C255.783 84.7859 255.775 84.8718 255.76 84.9656C255.635 86.4187 254.971 87.1453 253.768 87.1453ZM249.104 86.2078C249.447 86.2078 249.799 86.1296 250.158 85.9734C251.064 85.5359 251.635 84.7781 251.869 83.7V81.825C250.65 81.8406 249.721 81.9187 249.08 82.0593C247.877 82.3406 247.275 83.0046 247.275 84.0515C247.275 84.3171 247.299 84.5593 247.346 84.7781C247.564 85.7312 248.15 86.2078 249.104 86.2078ZM261.854 86.325C261.947 86.325 262.025 86.3328 262.088 86.3484C262.322 86.3796 262.439 86.5671 262.439 86.9109H256.65V86.325C257.182 86.325 257.564 86.2859 257.799 86.2078C258.205 86.0671 258.408 85.6375 258.408 84.9187V77.5359H256.65V76.95H260.049L260.143 79.2703C260.346 78.8015 260.619 78.3796 260.963 78.0046C261.697 77.2078 262.533 76.8093 263.471 76.8093C263.611 76.8093 263.76 76.825 263.916 76.8562C264.635 77.0125 264.994 77.4421 264.994 78.1453C264.994 78.239 264.979 78.3328 264.947 78.4265C264.822 78.8796 264.525 79.1062 264.057 79.1062C263.963 79.1062 263.869 79.0906 263.775 79.0593C263.557 78.9968 263.322 78.7468 263.072 78.3093C262.854 77.9187 262.611 77.7234 262.346 77.7234C262.111 77.739 261.822 77.9109 261.479 78.239C260.604 79.0984 260.166 80.239 260.166 81.6609V86.325H261.854ZM274.041 86.9109L273.854 84.4265C273.088 86.2078 271.854 87.114 270.15 87.1453C269.322 87.1453 268.564 86.9031 267.877 86.4187C266.658 85.5281 266.049 84.114 266.049 82.1765C266.049 81.0046 266.314 79.95 266.846 79.0125C267.721 77.4812 269.018 76.7156 270.736 76.7156C272.033 76.7156 273.064 77.1375 273.83 77.9812V72.2625H271.604V71.6765H275.588L275.635 86.325H276.807C276.9 86.325 276.979 86.3328 277.041 86.3484C277.275 86.3796 277.393 86.5671 277.393 86.9109H274.041ZM268.041 81.8953C268.041 82.6296 268.119 83.2859 268.275 83.864C268.666 85.4265 269.502 86.2078 270.783 86.2078C271.424 86.2078 271.994 85.9812 272.494 85.5281C273.432 84.6843 273.9 83.325 273.9 81.45C273.9 80.5593 273.768 79.7859 273.502 79.1296C273.018 77.9109 272.205 77.3015 271.064 77.3015C270.611 77.3015 270.197 77.4031 269.822 77.6062C268.635 78.2625 268.041 79.6921 268.041 81.8953Z" fill="black"/>
<rect x="372.86" y="1.2395" width="129.139" height="161.475" rx="4" fill="#E4DEED" stroke="#8054C4" stroke-width="2"/>
<path d="M410.465 85.24C409.027 86.0994 407.52 86.5369 405.941 86.5525C403.785 86.5525 402.035 85.8337 400.691 84.3962C399.426 83.0056 398.793 81.2869 398.793 79.24C398.793 77.5525 399.246 76.0603 400.152 74.7634C401.465 72.9353 403.355 72.0212 405.824 72.0212C406.574 72.0212 407.309 72.1072 408.027 72.2791C409.121 72.5603 409.895 72.9275 410.348 73.3806C410.348 72.9587 410.371 72.6541 410.418 72.4666C410.496 72.2478 410.707 72.1384 411.051 72.1384L411.121 76.4509H410.559C410.449 76.1072 410.316 75.7712 410.16 75.4431C409.285 73.5994 407.871 72.6775 405.918 72.6775C405.059 72.6775 404.277 72.8962 403.574 73.3337C401.965 74.3806 401.16 76.365 401.16 79.2869C401.16 80.6462 401.34 81.8259 401.699 82.8259C402.434 84.8728 403.816 85.8962 405.848 85.8962C408.238 85.8806 409.832 84.5837 410.629 82.0056H411.191V86.4353C411.004 86.4353 410.855 86.4119 410.746 86.365C410.559 86.2712 410.465 85.8962 410.465 85.24ZM415.176 81.3259C415.176 81.9978 415.23 82.6072 415.34 83.1541C415.746 85.0291 416.738 85.9666 418.316 85.9666C418.613 85.9666 418.902 85.9275 419.184 85.8494C420.621 85.3962 421.34 83.8572 421.34 81.2322C421.34 80.7791 421.316 80.365 421.27 79.99C420.988 77.8025 419.98 76.7087 418.246 76.7087C417.871 76.7087 417.512 76.7712 417.168 76.8962C415.84 77.4275 415.176 78.9041 415.176 81.3259ZM418.316 76.1228C419.348 76.1228 420.293 76.3962 421.152 76.9431C422.605 77.8962 423.332 79.3572 423.332 81.3259C423.332 82.7791 422.879 83.99 421.973 84.9587C420.988 86.0212 419.746 86.5525 418.246 86.5525C417.184 86.5525 416.215 86.2556 415.34 85.6619C413.902 84.6775 413.184 83.2009 413.184 81.2322C413.184 79.8103 413.645 78.6228 414.566 77.6697C415.566 76.6384 416.816 76.1228 418.316 76.1228ZM429.824 85.7322C429.918 85.7322 429.996 85.74 430.059 85.7556C430.293 85.7869 430.41 85.9744 430.41 86.3181H425.043V85.7322C425.574 85.7322 425.957 85.6931 426.191 85.615C426.598 85.4744 426.801 85.0447 426.801 84.3259V71.6697H425.043V71.0837H428.559V85.7322H429.824ZM443.113 85.7322C443.207 85.7322 443.285 85.74 443.348 85.7556C443.582 85.7869 443.699 85.9744 443.699 86.3181H440.395L440.23 83.9275C440.059 84.365 439.832 84.7634 439.551 85.1228C438.801 86.0759 437.84 86.5525 436.668 86.5525C434.449 86.5369 433.332 85.1931 433.316 82.5212V76.9431H431.512V76.3572H435.074V82.8728C435.074 83.1228 435.09 83.3572 435.121 83.5759C435.324 84.8884 436.066 85.5447 437.348 85.5447C437.816 85.5447 438.27 85.3962 438.707 85.0994C439.691 84.4431 440.184 83.4119 440.184 82.0056V76.9431H438.262V76.3572H441.941V85.7322H443.113ZM449.605 85.7322C449.684 85.7322 449.762 85.74 449.84 85.7556C450.074 85.8025 450.191 85.99 450.191 86.3181H445.035V85.7322C445.566 85.7322 445.949 85.6931 446.184 85.615C446.59 85.4744 446.793 85.0447 446.793 84.3259V76.9431H445.035V76.3572H448.434L448.527 78.7009C448.684 78.2791 448.895 77.8962 449.16 77.5525C449.895 76.5994 450.824 76.1228 451.949 76.1228C452.246 76.1228 452.535 76.1775 452.816 76.2869C453.77 76.6462 454.387 77.4431 454.668 78.6775C454.793 78.365 454.949 78.0681 455.137 77.7869C455.855 76.6775 456.809 76.1228 457.996 76.1228C458.543 76.1228 459.051 76.2634 459.52 76.5447C460.566 77.1853 461.09 78.3103 461.09 79.9197V85.7322H462.285C462.379 85.7322 462.457 85.74 462.52 85.7556C462.754 85.7869 462.871 85.9744 462.871 86.3181H457.691V85.7322C458.223 85.7322 458.598 85.6931 458.816 85.615C459.16 85.4744 459.332 85.0447 459.332 84.3259V79.6853C459.332 79.1853 459.254 78.74 459.098 78.3494C458.77 77.5212 458.207 77.1072 457.41 77.1072C457.113 77.1072 456.801 77.1853 456.473 77.3416C455.613 77.7947 455.059 78.5916 454.809 79.7322V79.9197V85.7322H455.863C455.957 85.7322 456.035 85.74 456.098 85.7556C456.332 85.7869 456.449 85.9744 456.449 86.3181H451.41V85.7322C451.941 85.7322 452.316 85.6931 452.535 85.615C452.879 85.4744 453.051 85.0447 453.051 84.3259V79.6853C453.051 79.2166 452.988 78.7947 452.863 78.4197C452.566 77.5603 452.027 77.1306 451.246 77.1306C450.824 77.1306 450.402 77.2869 449.98 77.5994C449.074 78.2712 448.598 79.2947 448.551 80.6697V85.7322H449.605ZM468.73 85.7322C468.824 85.7322 468.902 85.74 468.965 85.7556C469.199 85.7869 469.316 85.9744 469.316 86.3181H464.16V85.7322C464.691 85.7322 465.074 85.6931 465.309 85.615C465.715 85.4744 465.918 85.0447 465.918 84.3259V76.9431H464.16V76.3572H467.559L467.652 78.7009C467.824 78.2634 468.051 77.865 468.332 77.5056C469.082 76.5837 470.035 76.1228 471.191 76.1228C471.77 76.1228 472.309 76.2712 472.809 76.5681C473.887 77.24 474.426 78.3572 474.426 79.9197V85.7322H475.598C475.691 85.7322 475.77 85.74 475.832 85.7556C476.066 85.7869 476.184 85.9744 476.184 86.3181H470.91V85.7322C471.441 85.7322 471.824 85.6931 472.059 85.615C472.465 85.4744 472.668 85.0447 472.668 84.3259V79.6853C472.668 79.2322 472.598 78.8259 472.457 78.4666C472.113 77.5759 471.465 77.1306 470.512 77.1306C470.074 77.1306 469.645 77.2634 469.223 77.5291C468.238 78.1697 467.723 79.2166 467.676 80.6697V85.7322H468.73Z" fill="black"/>
<rect x="1" y="274.297" width="129.139" height="161.475" rx="4" fill="#E4DEED" stroke="#8054C4" stroke-width="2"/>
<path d="M51.6152 362.968H45.1699V362.359H47.3965V349.515H46.1309C44.9277 349.609 44.0762 350.421 43.5762 351.952L43.2012 353.523H42.5449L42.6621 348.906H54.2402L54.3574 353.523H53.7012L53.3262 351.952C53.3105 351.921 53.3027 351.874 53.3027 351.812C52.8809 350.281 52.0371 349.515 50.7715 349.515H49.4121V362.359H51.0059C51.084 362.359 51.1621 362.366 51.2402 362.382C51.4902 362.429 51.6152 362.624 51.6152 362.968ZM64.3418 363.202C63.248 363.187 62.6074 362.484 62.4199 361.093C62.2793 361.421 62.0684 361.734 61.7871 362.031C61.0059 362.812 60.0449 363.202 58.9043 363.202C58.4355 363.202 57.9902 363.116 57.5684 362.945C56.5215 362.507 55.998 361.695 55.998 360.507C55.998 360.163 56.0449 359.843 56.1387 359.546C56.6699 358.015 58.7715 357.249 62.4434 357.249V355.773C62.3965 354.257 61.6387 353.452 60.1699 353.359C59.5449 353.359 59.084 353.554 58.7871 353.945C58.709 354.054 58.5605 354.398 58.3418 354.976C58.1699 355.429 57.9043 355.656 57.5449 355.656C57.4668 355.656 57.3887 355.648 57.3105 355.632C56.8574 355.554 56.6309 355.273 56.6309 354.788C56.6309 354.523 56.7246 354.257 56.9121 353.991C57.5059 353.179 58.6777 352.773 60.4277 352.773C60.5684 352.773 60.709 352.773 60.8496 352.773C63.084 352.898 64.2012 354.077 64.2012 356.312V361.257C64.2168 362.038 64.4277 362.445 64.834 362.476C65.334 362.46 65.6387 361.882 65.748 360.741L66.3574 360.765C66.3574 360.843 66.3496 360.929 66.334 361.023C66.209 362.476 65.5449 363.202 64.3418 363.202ZM59.6777 362.265C60.0215 362.265 60.373 362.187 60.7324 362.031C61.6387 361.593 62.209 360.835 62.4434 359.757V357.882C61.2246 357.898 60.2949 357.976 59.6543 358.116C58.4512 358.398 57.8496 359.062 57.8496 360.109C57.8496 360.374 57.873 360.616 57.9199 360.835C58.1387 361.788 58.7246 362.265 59.6777 362.265ZM70.9277 362.57C72.0059 362.57 72.7324 362.241 73.1074 361.585C73.248 361.351 73.3184 361.093 73.3184 360.812C73.3184 360.156 72.8418 359.593 71.8887 359.124C71.6855 359.015 71.3496 358.859 70.8809 358.656C69.5996 358.124 68.748 357.624 68.3262 357.156C67.873 356.64 67.6465 356.038 67.6465 355.351C67.6465 354.273 68.2402 353.515 69.4277 353.077C69.9746 352.874 70.5684 352.773 71.209 352.773C72.2402 352.773 73.1309 352.991 73.8809 353.429C73.8809 352.976 73.9902 352.718 74.209 352.656C74.3027 352.64 74.4043 352.632 74.5137 352.632V355.562H73.9043C73.873 354.124 73.0762 353.398 71.5137 353.382C70.3418 353.382 69.6152 353.726 69.334 354.413C69.2559 354.601 69.2168 354.796 69.2168 354.999C69.2168 355.671 69.7012 356.241 70.6699 356.71C70.8887 356.82 71.2324 356.968 71.7012 357.156C72.9668 357.671 73.8105 358.163 74.2324 358.632C74.6855 359.132 74.9121 359.726 74.9121 360.413C74.9121 361.679 74.2402 362.523 72.8965 362.945C72.3809 363.116 71.8184 363.202 71.209 363.202C70.084 363.187 69.1074 362.906 68.2793 362.359C68.2793 362.765 68.1777 362.999 67.9746 363.062C67.8809 363.077 67.7715 363.085 67.6465 363.085V359.523H68.3027C68.334 361.538 69.209 362.554 70.9277 362.57ZM81.1465 362.382C81.2402 362.382 81.3184 362.39 81.3809 362.406C81.6152 362.437 81.7324 362.624 81.7324 362.968H76.5762V362.382C77.1074 362.382 77.4902 362.343 77.7246 362.265C78.1309 362.124 78.334 361.695 78.334 360.976V348.32H76.5762V347.734H80.0918V357.976L84.8262 353.593H83.0684V353.007H87.0527C87.0527 353.085 87.0449 353.163 87.0293 353.241C86.998 353.476 86.8105 353.593 86.4668 353.593C86.3105 353.593 86.1699 353.609 86.0449 353.64C85.7637 353.702 85.3496 353.991 84.8027 354.507L82.5996 356.57L86.373 362.382H87.2168C87.3105 362.382 87.3887 362.39 87.4512 362.406C87.6855 362.437 87.8027 362.624 87.8027 362.968H84.6855L81.3809 357.718L80.0918 358.913V362.382H81.1465Z" fill="black"/>
<rect x="186.032" y="274.297" width="129.139" height="161.475" rx="4" fill="#E4DEED" stroke="#8054C4" stroke-width="2"/>
<path d="M224.184 359.288C224.184 360.241 223.848 361.062 223.176 361.749C222.191 362.718 220.801 363.202 219.004 363.202C217.473 363.202 216.105 362.804 214.902 362.007C214.902 362.335 214.887 362.562 214.855 362.687C214.793 362.906 214.574 363.015 214.199 363.015V358.163H214.902C215.168 361.054 216.496 362.515 218.887 362.546C219.496 362.546 220.051 362.437 220.551 362.218C221.613 361.734 222.145 360.945 222.145 359.851C222.145 359.429 222.043 359.038 221.84 358.679C221.465 358.038 220.574 357.406 219.168 356.781C217.652 356.124 216.762 355.726 216.496 355.585C215.027 354.757 214.293 353.687 214.293 352.374C214.293 351.499 214.605 350.734 215.23 350.077C216.168 349.14 217.48 348.671 219.168 348.671C220.559 348.671 221.809 348.976 222.918 349.585C222.918 349.398 222.934 349.249 222.965 349.14C223.027 348.906 223.246 348.788 223.621 348.788V352.89H222.918C222.934 352.015 222.715 351.273 222.262 350.663C221.574 349.773 220.574 349.327 219.262 349.327C218.73 349.327 218.246 349.413 217.809 349.585C216.793 349.991 216.285 350.718 216.285 351.765C216.285 352.156 216.379 352.523 216.566 352.866C216.926 353.491 217.801 354.101 219.191 354.695C220.723 355.366 221.637 355.781 221.934 355.937C223.434 356.781 224.184 357.898 224.184 359.288ZM237.426 362.382C237.52 362.382 237.598 362.39 237.66 362.406C237.895 362.437 238.012 362.624 238.012 362.968H234.707L234.543 360.577C234.371 361.015 234.145 361.413 233.863 361.773C233.113 362.726 232.152 363.202 230.98 363.202C228.762 363.187 227.645 361.843 227.629 359.171V353.593H225.824V353.007H229.387V359.523C229.387 359.773 229.402 360.007 229.434 360.226C229.637 361.538 230.379 362.195 231.66 362.195C232.129 362.195 232.582 362.046 233.02 361.749C234.004 361.093 234.496 360.062 234.496 358.656V353.593H232.574V353.007H236.254V362.382H237.426ZM245.816 363.202C245.707 363.202 245.59 363.195 245.465 363.179C244.105 363.085 243.09 362.499 242.418 361.421L242.207 362.968H239.254V362.382C239.785 362.382 240.168 362.343 240.402 362.265C240.809 362.124 241.012 361.695 241.012 360.976V348.32H239.254V347.734H242.77V355.491C242.816 355.351 242.879 355.21 242.957 355.07C243.676 353.538 244.887 352.773 246.59 352.773C247.621 352.773 248.488 353.124 249.191 353.827C250.129 354.796 250.598 356.14 250.598 357.859C250.598 359.39 250.16 360.656 249.285 361.656C248.348 362.687 247.191 363.202 245.816 363.202ZM245.863 353.71C245.223 353.71 244.652 353.929 244.152 354.366C243.215 355.21 242.746 356.577 242.746 358.468C242.746 359.327 242.863 360.085 243.098 360.741C243.582 361.991 244.41 362.616 245.582 362.616C246.035 362.616 246.449 362.515 246.824 362.312C248.012 361.656 248.605 360.226 248.605 358.023C248.605 357.288 248.527 356.632 248.371 356.054C247.98 354.491 247.145 353.71 245.863 353.71ZM252.004 353.593V353.007H253.645V350.781L255.402 350.288V353.007H259.035V353.593H255.402V360.718C255.418 361.89 255.848 362.491 256.691 362.523C257.441 362.413 258.012 361.71 258.402 360.413L259.035 360.531C259.035 360.546 259.035 360.562 259.035 360.577C258.676 362.343 257.777 363.226 256.34 363.226C254.652 363.163 253.754 362.156 253.645 360.202V353.593H252.004ZM268.316 363.202C267.223 363.187 266.582 362.484 266.395 361.093C266.254 361.421 266.043 361.734 265.762 362.031C264.98 362.812 264.02 363.202 262.879 363.202C262.41 363.202 261.965 363.116 261.543 362.945C260.496 362.507 259.973 361.695 259.973 360.507C259.973 360.163 260.02 359.843 260.113 359.546C260.645 358.015 262.746 357.249 266.418 357.249V355.773C266.371 354.257 265.613 353.452 264.145 353.359C263.52 353.359 263.059 353.554 262.762 353.945C262.684 354.054 262.535 354.398 262.316 354.976C262.145 355.429 261.879 355.656 261.52 355.656C261.441 355.656 261.363 355.648 261.285 355.632C260.832 355.554 260.605 355.273 260.605 354.788C260.605 354.523 260.699 354.257 260.887 353.991C261.48 353.179 262.652 352.773 264.402 352.773C264.543 352.773 264.684 352.773 264.824 352.773C267.059 352.898 268.176 354.077 268.176 356.312V361.257C268.191 362.038 268.402 362.445 268.809 362.476C269.309 362.46 269.613 361.882 269.723 360.741L270.332 360.765C270.332 360.843 270.324 360.929 270.309 361.023C270.184 362.476 269.52 363.202 268.316 363.202ZM263.652 362.265C263.996 362.265 264.348 362.187 264.707 362.031C265.613 361.593 266.184 360.835 266.418 359.757V357.882C265.199 357.898 264.27 357.976 263.629 358.116C262.426 358.398 261.824 359.062 261.824 360.109C261.824 360.374 261.848 360.616 261.895 360.835C262.113 361.788 262.699 362.265 263.652 362.265ZM274.902 362.57C275.98 362.57 276.707 362.241 277.082 361.585C277.223 361.351 277.293 361.093 277.293 360.812C277.293 360.156 276.816 359.593 275.863 359.124C275.66 359.015 275.324 358.859 274.855 358.656C273.574 358.124 272.723 357.624 272.301 357.156C271.848 356.64 271.621 356.038 271.621 355.351C271.621 354.273 272.215 353.515 273.402 353.077C273.949 352.874 274.543 352.773 275.184 352.773C276.215 352.773 277.105 352.991 277.855 353.429C277.855 352.976 277.965 352.718 278.184 352.656C278.277 352.64 278.379 352.632 278.488 352.632V355.562H277.879C277.848 354.124 277.051 353.398 275.488 353.382C274.316 353.382 273.59 353.726 273.309 354.413C273.23 354.601 273.191 354.796 273.191 354.999C273.191 355.671 273.676 356.241 274.645 356.71C274.863 356.82 275.207 356.968 275.676 357.156C276.941 357.671 277.785 358.163 278.207 358.632C278.66 359.132 278.887 359.726 278.887 360.413C278.887 361.679 278.215 362.523 276.871 362.945C276.355 363.116 275.793 363.202 275.184 363.202C274.059 363.187 273.082 362.906 272.254 362.359C272.254 362.765 272.152 362.999 271.949 363.062C271.855 363.077 271.746 363.085 271.621 363.085V359.523H272.277C272.309 361.538 273.184 362.554 274.902 362.57ZM285.121 362.382C285.215 362.382 285.293 362.39 285.355 362.406C285.59 362.437 285.707 362.624 285.707 362.968H280.551V362.382C281.082 362.382 281.465 362.343 281.699 362.265C282.105 362.124 282.309 361.695 282.309 360.976V348.32H280.551V347.734H284.066V357.976L288.801 353.593H287.043V353.007H291.027C291.027 353.085 291.02 353.163 291.004 353.241C290.973 353.476 290.785 353.593 290.441 353.593C290.285 353.593 290.145 353.609 290.02 353.64C289.738 353.702 289.324 353.991 288.777 354.507L286.574 356.57L290.348 362.382H291.191C291.285 362.382 291.363 362.39 291.426 362.406C291.66 362.437 291.777 362.624 291.777 362.968H288.66L285.355 357.718L284.066 358.913V362.382H285.121Z" fill="black"/>
<path d="M178.554 81.7857C178.944 81.3952 178.944 80.762 178.554 80.3715L172.19 74.0075C171.799 73.617 171.166 73.617 170.776 74.0075C170.385 74.3981 170.385 75.0312 170.776 75.4218L176.432 81.0786L170.776 86.7355C170.385 87.126 170.385 87.7592 170.776 88.1497C171.166 88.5402 171.799 88.5402 172.19 88.1497L178.554 81.7857ZM134.732 82.0786H177.847V80.0786H134.732V82.0786Z" fill="#8054C4"/>
<path d="M367.178 79.9896C367.568 79.5991 367.568 78.9659 367.178 78.5754L360.814 72.2114C360.423 71.8209 359.79 71.8209 359.4 72.2114C359.009 72.6019 359.009 73.2351 359.4 73.6256L365.057 79.2825L359.4 84.9393C359.009 85.3298 359.009 85.963 359.4 86.3535C359.79 86.7441 360.423 86.7441 360.814 86.3535L367.178 79.9896ZM323.356 80.2825H366.471V78.2825H323.356V80.2825Z" fill="#8054C4"/>
<path d="M178.554 356.825C178.944 356.435 178.944 355.801 178.554 355.411L172.19 349.047C171.799 348.656 171.166 348.656 170.776 349.047C170.385 349.437 170.385 350.071 170.776 350.461L176.432 356.118L170.776 361.775C170.385 362.165 170.385 362.798 170.776 363.189C171.166 363.58 171.799 363.58 172.19 363.189L178.554 356.825ZM134.732 357.118H177.847V355.118H134.732V357.118Z" fill="#8054C4"/>
<path d="M241.619 211.485L241.619 212.485L241.619 212.485L241.619 211.485ZM67.5576 259.635C67.9481 260.025 68.5812 260.025 68.9718 259.635L75.3357 253.271C75.7263 252.88 75.7263 252.247 75.3357 251.857C74.9452 251.466 74.312 251.466 73.9215 251.857L68.2647 257.513L62.6078 251.857C62.2173 251.466 61.5841 251.466 61.1936 251.857C60.8031 252.247 60.8031 252.88 61.1936 253.271L67.5576 259.635ZM437.329 170.903C437.329 177.424 435.55 183.042 430.402 187.882C425.201 192.773 416.475 196.952 402.392 200.325C374.228 207.071 325.162 210.484 241.619 210.485L241.619 212.485C325.145 212.484 374.434 209.078 402.858 202.27C417.068 198.866 426.195 194.583 431.772 189.339C437.403 184.044 439.329 177.853 439.329 170.903L437.329 170.903ZM241.619 210.485C198.28 210.485 165.754 210.867 141.349 212.088C116.963 213.308 100.602 215.368 89.6388 218.756C78.632 222.157 72.9147 226.946 70.0527 233.692C67.2471 240.305 67.2647 248.671 67.2647 258.928L69.2647 258.928C69.2647 248.524 69.2822 240.629 71.8939 234.473C74.4493 228.45 79.5667 223.961 90.2292 220.666C100.935 217.358 117.078 215.305 141.449 214.086C165.799 212.867 198.281 212.485 241.619 212.485L241.619 210.485Z" fill="#8054C4"/>
</svg>
