<svg width="44" height="43" viewBox="0 0 44 43" fill="none" xmlns="http://www.w3.org/2000/svg">
<path d="M14.7169 34.5794C14.7169 34.757 14.5129 34.8991 14.2556 34.8991C13.9629 34.9257 13.7589 34.7836 13.7589 34.5794C13.7589 34.4018 13.9629 34.2597 14.2202 34.2597C14.4863 34.2331 14.7169 34.3752 14.7169 34.5794ZM11.9581 34.1798C11.896 34.3574 12.0734 34.5616 12.3395 34.6149C12.5702 34.7037 12.8363 34.6149 12.8895 34.4373C12.9427 34.2597 12.7742 34.0555 12.5081 33.9756C12.2774 33.9134 12.0202 34.0022 11.9581 34.1798ZM15.879 34.0288C15.6218 34.091 15.4444 34.2597 15.471 34.464C15.4976 34.6416 15.7282 34.757 15.9944 34.6949C16.2516 34.6327 16.429 34.464 16.4024 34.2864C16.3758 34.1176 16.1363 34.0022 15.879 34.0288ZM21.7161 -0.00012207C9.4121 -0.00012207 0 9.35074 0 21.6676C0 31.5157 6.19194 39.9431 15.0363 42.909C16.1718 43.1133 16.571 42.4118 16.571 41.8345C16.571 41.284 16.5444 38.2469 16.5444 36.3821C16.5444 36.3821 10.3347 37.7141 9.03065 33.7358C9.03065 33.7358 8.01935 31.1516 6.56452 30.4856C6.56452 30.4856 4.53306 29.0914 6.70645 29.1181C6.70645 29.1181 8.91532 29.2957 10.1306 31.4092C12.0734 34.8369 15.329 33.8512 16.5976 33.2651C16.8016 31.8443 17.3782 30.8586 18.0169 30.2725C13.0581 29.7219 8.05484 29.0026 8.05484 20.4599C8.05484 18.0178 8.72903 16.7924 10.1484 15.2294C9.91774 14.6522 9.16371 12.2723 10.379 9.19977C12.2331 8.62256 16.5 11.5974 16.5 11.5974C18.2742 11.1001 20.1815 10.8426 22.071 10.8426C23.9605 10.8426 25.8677 11.1001 27.6419 11.5974C27.6419 11.5974 31.9089 8.61368 33.7629 9.19977C34.9782 12.2812 34.2242 14.6522 33.9935 15.2294C35.4129 16.8012 36.2823 18.0267 36.2823 20.4599C36.2823 29.0293 31.0573 29.7131 26.0984 30.2725C26.9145 30.974 27.6065 32.3061 27.6065 34.3929C27.6065 37.3856 27.5798 41.0886 27.5798 41.8168C27.5798 42.394 27.9879 43.0955 29.1145 42.8913C37.9855 39.9431 44 31.5157 44 21.6676C44 9.35074 34.0202 -0.00012207 21.7161 -0.00012207ZM8.62258 30.6277C8.50726 30.7165 8.53387 30.9208 8.68468 31.0895C8.82661 31.2316 9.03064 31.2937 9.14597 31.1783C9.26129 31.0895 9.23468 30.8852 9.08387 30.7165C8.94194 30.5744 8.7379 30.5123 8.62258 30.6277ZM7.66452 29.9084C7.60242 30.0239 7.69113 30.1659 7.86855 30.2547C8.01048 30.3435 8.1879 30.3169 8.25 30.1926C8.3121 30.0771 8.22339 29.9351 8.04597 29.8463C7.86855 29.793 7.72661 29.8196 7.66452 29.9084ZM10.5387 33.0698C10.3968 33.1852 10.45 33.4516 10.654 33.6203C10.8581 33.8246 11.1153 33.8512 11.2306 33.7091C11.346 33.5937 11.2927 33.3273 11.1153 33.1586C10.9202 32.9543 10.654 32.9277 10.5387 33.0698ZM9.52742 31.7644C9.38548 31.8532 9.38548 32.0841 9.52742 32.2883C9.66935 32.4926 9.90887 32.5814 10.0242 32.4926C10.1661 32.3771 10.1661 32.1462 10.0242 31.942C9.9 31.7377 9.66935 31.6489 9.52742 31.7644Z" fill="#E2ECEF"/>
</svg>
