<svg width="45" height="52" viewBox="0 0 45 52" fill="none" xmlns="http://www.w3.org/2000/svg">
<path d="M0 6.5C0 2.91484 2.88281 0 6.42857 0H38.5714C42.1172 0 45 2.91484 45 6.5V45.5C45 49.0852 42.1172 52 38.5714 52H6.42857C2.88281 52 0 49.0852 0 45.5V6.5ZM25.7143 45.5C25.7143 44.638 25.3756 43.8114 24.7728 43.2019C24.17 42.5924 23.3525 42.25 22.5 42.25C21.6475 42.25 20.83 42.5924 20.2272 43.2019C19.6244 43.8114 19.2857 44.638 19.2857 45.5C19.2857 46.362 19.6244 47.1886 20.2272 47.7981C20.83 48.4076 21.6475 48.75 22.5 48.75C23.3525 48.75 24.17 48.4076 24.7728 47.7981C25.3756 47.1886 25.7143 46.362 25.7143 45.5ZM38.5714 6.5H6.42857V39H38.5714V6.5Z" fill="#F1D7D7"/>
</svg>
