<svg width="55" height="49" viewBox="0 0 55 49" fill="none" xmlns="http://www.w3.org/2000/svg">
<path d="M6.875 0C3.08301 0 0 3.08301 0 6.875V13.75C0 17.542 3.08301 20.625 6.875 20.625H48.125C51.917 20.625 55 17.542 55 13.75V6.875C55 3.08301 51.917 0 48.125 0H6.875ZM36.9531 7.73438C37.6369 7.73438 38.2926 8.006 38.7761 8.48949C39.2596 8.97298 39.5312 9.62874 39.5312 10.3125C39.5312 10.9963 39.2596 11.652 38.7761 12.1355C38.2926 12.619 37.6369 12.8906 36.9531 12.8906C36.2694 12.8906 35.6136 12.619 35.1301 12.1355C34.6466 11.652 34.375 10.9963 34.375 10.3125C34.375 9.62874 34.6466 8.97298 35.1301 8.48949C35.6136 8.006 36.2694 7.73438 36.9531 7.73438ZM42.1094 10.3125C42.1094 9.62874 42.381 8.97298 42.8645 8.48949C43.348 8.006 44.0037 7.73438 44.6875 7.73438C45.3713 7.73438 46.027 8.006 46.5105 8.48949C46.994 8.97298 47.2656 9.62874 47.2656 10.3125C47.2656 10.9963 46.994 11.652 46.5105 12.1355C46.027 12.619 45.3713 12.8906 44.6875 12.8906C44.0037 12.8906 43.348 12.619 42.8645 12.1355C42.381 11.652 42.1094 10.9963 42.1094 10.3125ZM6.875 27.5C3.08301 27.5 0 30.583 0 34.375V41.25C0 45.042 3.08301 48.125 6.875 48.125H48.125C51.917 48.125 55 45.042 55 41.25V34.375C55 30.583 51.917 27.5 48.125 27.5H6.875ZM36.9531 35.2344C37.6369 35.2344 38.2926 35.506 38.7761 35.9895C39.2596 36.473 39.5312 37.1287 39.5312 37.8125C39.5312 38.4963 39.2596 39.152 38.7761 39.6355C38.2926 40.119 37.6369 40.3906 36.9531 40.3906C36.2694 40.3906 35.6136 40.119 35.1301 39.6355C34.6466 39.152 34.375 38.4963 34.375 37.8125C34.375 37.1287 34.6466 36.473 35.1301 35.9895C35.6136 35.506 36.2694 35.2344 36.9531 35.2344ZM42.9688 37.8125C42.9688 37.1287 43.2404 36.473 43.7239 35.9895C44.2074 35.506 44.8631 35.2344 45.5469 35.2344C46.2306 35.2344 46.8864 35.506 47.3699 35.9895C47.8534 36.473 48.125 37.1287 48.125 37.8125C48.125 38.4963 47.8534 39.152 47.3699 39.6355C46.8864 40.119 46.2306 40.3906 45.5469 40.3906C44.8631 40.3906 44.2074 40.119 43.7239 39.6355C43.2404 39.152 42.9688 38.4963 42.9688 37.8125Z" fill="#F0E1D7"/>
</svg>
