<svg width="536" height="400" viewBox="0 0 536 400" fill="none" xmlns="http://www.w3.org/2000/svg">
<path d="M153.44 232.574C153.44 233.126 153.887 233.574 154.44 233.574L163.44 233.574C163.992 233.574 164.44 233.126 164.44 232.574C164.44 232.022 163.992 231.574 163.44 231.574L155.44 231.574L155.44 223.574C155.44 223.022 154.992 222.574 154.44 222.574C153.887 222.574 153.44 223.022 153.44 223.574L153.44 232.574ZM210.673 174.927L153.732 231.867L155.147 233.281L212.087 176.341L210.673 174.927Z" fill="#EE7C7D"/>
<path d="M381.56 233.574C382.113 233.574 382.56 233.126 382.56 232.574L382.56 223.574C382.56 223.022 382.113 222.574 381.56 222.574C381.008 222.574 380.56 223.022 380.56 223.574L380.56 231.574L372.56 231.574C372.008 231.574 371.56 232.022 371.56 232.574C371.56 233.126 372.008 233.574 372.56 233.574L381.56 233.574ZM323.913 176.341L380.853 233.281L382.268 231.867L325.327 174.927L323.913 176.341Z" fill="#EE7C7D"/>
<rect x="149.986" y="1" width="230.995" height="151.84" rx="6" fill="#F1D7D7" stroke="#EE7C7D" stroke-width="2" stroke-dasharray="3 3"/>
<path d="M217.855 75.6719H223.691V76.2812H221.934V82L219.941 81.2734C219.863 81.3359 219.762 81.3984 219.637 81.4609C218.684 81.9766 217.621 82.2344 216.449 82.2344C214.84 82.2344 213.387 81.7344 212.09 80.7344C210.309 79.3281 209.418 77.375 209.418 74.875C209.418 72.6875 210.152 70.9141 211.621 69.5547C212.965 68.3203 214.574 67.7031 216.449 67.7031C217.559 67.7031 218.605 67.9453 219.59 68.4297L221.629 68.0078L221.746 72.5547H221.137C220.762 71.2578 220.34 70.3047 219.871 69.6953C219.152 68.8047 217.988 68.3594 216.379 68.3594C215.941 68.3594 215.527 68.4062 215.137 68.5C212.887 69.0938 211.762 71.25 211.762 74.9688C211.777 79.3125 213.34 81.5 216.449 81.5312C216.574 81.5312 216.699 81.5234 216.824 81.5078C218.137 81.3984 219.184 80.875 219.965 79.9375V76.2812H217.855V75.6719ZM233.559 82.2344C232.465 82.2188 231.824 81.5156 231.637 80.125C231.496 80.4531 231.285 80.7656 231.004 81.0625C230.223 81.8438 229.262 82.2344 228.121 82.2344C227.652 82.2344 227.207 82.1484 226.785 81.9766C225.738 81.5391 225.215 80.7266 225.215 79.5391C225.215 79.1953 225.262 78.875 225.355 78.5781C225.887 77.0469 227.988 76.2812 231.66 76.2812V74.8047C231.613 73.2891 230.855 72.4844 229.387 72.3906C228.762 72.3906 228.301 72.5859 228.004 72.9766C227.926 73.0859 227.777 73.4297 227.559 74.0078C227.387 74.4609 227.121 74.6875 226.762 74.6875C226.684 74.6875 226.605 74.6797 226.527 74.6641C226.074 74.5859 225.848 74.3047 225.848 73.8203C225.848 73.5547 225.941 73.2891 226.129 73.0234C226.723 72.2109 227.895 71.8047 229.645 71.8047C229.785 71.8047 229.926 71.8047 230.066 71.8047C232.301 71.9297 233.418 73.1094 233.418 75.3438V80.2891C233.434 81.0703 233.645 81.4766 234.051 81.5078C234.551 81.4922 234.855 80.9141 234.965 79.7734L235.574 79.7969C235.574 79.875 235.566 79.9609 235.551 80.0547C235.426 81.5078 234.762 82.2344 233.559 82.2344ZM228.895 81.2969C229.238 81.2969 229.59 81.2188 229.949 81.0625C230.855 80.625 231.426 79.8672 231.66 78.7891V76.9141C230.441 76.9297 229.512 77.0078 228.871 77.1484C227.668 77.4297 227.066 78.0938 227.066 79.1406C227.066 79.4062 227.09 79.6484 227.137 79.8672C227.355 80.8203 227.941 81.2969 228.895 81.2969ZM240.965 81.4141C241.043 81.4141 241.121 81.4219 241.199 81.4375C241.434 81.4844 241.551 81.6719 241.551 82H236.395V81.4141C236.926 81.4141 237.309 81.375 237.543 81.2969C237.949 81.1562 238.152 80.7266 238.152 80.0078V72.625H236.395V72.0391H239.793L239.887 74.3828C240.043 73.9609 240.254 73.5781 240.52 73.2344C241.254 72.2812 242.184 71.8047 243.309 71.8047C243.605 71.8047 243.895 71.8594 244.176 71.9688C245.129 72.3281 245.746 73.125 246.027 74.3594C246.152 74.0469 246.309 73.75 246.496 73.4688C247.215 72.3594 248.168 71.8047 249.355 71.8047C249.902 71.8047 250.41 71.9453 250.879 72.2266C251.926 72.8672 252.449 73.9922 252.449 75.6016V81.4141H253.645C253.738 81.4141 253.816 81.4219 253.879 81.4375C254.113 81.4688 254.23 81.6562 254.23 82H249.051V81.4141C249.582 81.4141 249.957 81.375 250.176 81.2969C250.52 81.1562 250.691 80.7266 250.691 80.0078V75.3672C250.691 74.8672 250.613 74.4219 250.457 74.0312C250.129 73.2031 249.566 72.7891 248.77 72.7891C248.473 72.7891 248.16 72.8672 247.832 73.0234C246.973 73.4766 246.418 74.2734 246.168 75.4141V75.6016V81.4141H247.223C247.316 81.4141 247.395 81.4219 247.457 81.4375C247.691 81.4688 247.809 81.6562 247.809 82H242.77V81.4141C243.301 81.4141 243.676 81.375 243.895 81.2969C244.238 81.1562 244.41 80.7266 244.41 80.0078V75.3672C244.41 74.8984 244.348 74.4766 244.223 74.1016C243.926 73.2422 243.387 72.8125 242.605 72.8125C242.184 72.8125 241.762 72.9688 241.34 73.2812C240.434 73.9531 239.957 74.9766 239.91 76.3516V81.4141H240.965ZM260.652 72.3906C260.246 72.3906 259.863 72.4844 259.504 72.6719C258.41 73.2188 257.824 74.3906 257.746 76.1875L260.23 76.2578C260.949 76.2734 261.504 76.2422 261.895 76.1641C262.645 75.9922 263.02 75.5156 263.02 74.7344C263.02 74.3906 262.957 74.0703 262.832 73.7734C262.473 72.8516 261.746 72.3906 260.652 72.3906ZM264.73 79.75C264.637 79.9688 264.527 80.1875 264.402 80.4062C263.605 81.625 262.363 82.2344 260.676 82.2344C259.613 82.2344 258.668 81.9609 257.84 81.4141C256.449 80.4766 255.754 79.0391 255.754 77.1016C255.754 76.0391 255.973 75.0859 256.41 74.2422C257.254 72.6172 258.652 71.8047 260.605 71.8047C261.605 71.8047 262.488 72.0312 263.254 72.4844C264.332 73.1094 264.871 73.9531 264.871 75.0156C264.871 75.5938 264.66 76.0391 264.238 76.3516C263.691 76.7422 262.465 76.9219 260.559 76.8906L257.746 76.8438C257.762 77.5 257.832 78.1016 257.957 78.6484C258.379 80.6016 259.41 81.5781 261.051 81.5781C261.191 81.5781 261.34 81.5703 261.496 81.5547C262.715 81.3984 263.598 80.7266 264.145 79.5391L264.73 79.75ZM281.652 78.3203C281.652 79.2734 281.316 80.0938 280.645 80.7812C279.66 81.75 278.27 82.2344 276.473 82.2344C274.941 82.2344 273.574 81.8359 272.371 81.0391C272.371 81.3672 272.355 81.5938 272.324 81.7188C272.262 81.9375 272.043 82.0469 271.668 82.0469V77.1953H272.371C272.637 80.0859 273.965 81.5469 276.355 81.5781C276.965 81.5781 277.52 81.4688 278.02 81.25C279.082 80.7656 279.613 79.9766 279.613 78.8828C279.613 78.4609 279.512 78.0703 279.309 77.7109C278.934 77.0703 278.043 76.4375 276.637 75.8125C275.121 75.1562 274.23 74.7578 273.965 74.6172C272.496 73.7891 271.762 72.7188 271.762 71.4062C271.762 70.5312 272.074 69.7656 272.699 69.1094C273.637 68.1719 274.949 67.7031 276.637 67.7031C278.027 67.7031 279.277 68.0078 280.387 68.6172C280.387 68.4297 280.402 68.2812 280.434 68.1719C280.496 67.9375 280.715 67.8203 281.09 67.8203V71.9219H280.387C280.402 71.0469 280.184 70.3047 279.73 69.6953C279.043 68.8047 278.043 68.3594 276.73 68.3594C276.199 68.3594 275.715 68.4453 275.277 68.6172C274.262 69.0234 273.754 69.75 273.754 70.7969C273.754 71.1875 273.848 71.5547 274.035 71.8984C274.395 72.5234 275.27 73.1328 276.66 73.7266C278.191 74.3984 279.105 74.8125 279.402 74.9688C280.902 75.8125 281.652 76.9297 281.652 78.3203ZM288.66 72.3906C288.254 72.3906 287.871 72.4844 287.512 72.6719C286.418 73.2188 285.832 74.3906 285.754 76.1875L288.238 76.2578C288.957 76.2734 289.512 76.2422 289.902 76.1641C290.652 75.9922 291.027 75.5156 291.027 74.7344C291.027 74.3906 290.965 74.0703 290.84 73.7734C290.48 72.8516 289.754 72.3906 288.66 72.3906ZM292.738 79.75C292.645 79.9688 292.535 80.1875 292.41 80.4062C291.613 81.625 290.371 82.2344 288.684 82.2344C287.621 82.2344 286.676 81.9609 285.848 81.4141C284.457 80.4766 283.762 79.0391 283.762 77.1016C283.762 76.0391 283.98 75.0859 284.418 74.2422C285.262 72.6172 286.66 71.8047 288.613 71.8047C289.613 71.8047 290.496 72.0312 291.262 72.4844C292.34 73.1094 292.879 73.9531 292.879 75.0156C292.879 75.5938 292.668 76.0391 292.246 76.3516C291.699 76.7422 290.473 76.9219 288.566 76.8906L285.754 76.8438C285.77 77.5 285.84 78.1016 285.965 78.6484C286.387 80.6016 287.418 81.5781 289.059 81.5781C289.199 81.5781 289.348 81.5703 289.504 81.5547C290.723 81.3984 291.605 80.7266 292.152 79.5391L292.738 79.75ZM299.652 81.4141C299.746 81.4141 299.824 81.4219 299.887 81.4375C300.121 81.4688 300.238 81.6562 300.238 82H294.449V81.4141C294.98 81.4141 295.363 81.375 295.598 81.2969C296.004 81.1562 296.207 80.7266 296.207 80.0078V72.625H294.449V72.0391H297.848L297.941 74.3594C298.145 73.8906 298.418 73.4688 298.762 73.0938C299.496 72.2969 300.332 71.8984 301.27 71.8984C301.41 71.8984 301.559 71.9141 301.715 71.9453C302.434 72.1016 302.793 72.5312 302.793 73.2344C302.793 73.3281 302.777 73.4219 302.746 73.5156C302.621 73.9688 302.324 74.1953 301.855 74.1953C301.762 74.1953 301.668 74.1797 301.574 74.1484C301.355 74.0859 301.121 73.8359 300.871 73.3984C300.652 73.0078 300.41 72.8125 300.145 72.8125C299.91 72.8281 299.621 73 299.277 73.3281C298.402 74.1875 297.965 75.3281 297.965 76.75V81.4141H299.652ZM307.527 72.625H305.887L308.887 80.6172L311.863 72.625H310.105V72.0391H313.715C313.715 72.1172 313.707 72.1953 313.691 72.2734C313.66 72.5078 313.473 72.625 313.129 72.625C313.066 72.625 312.996 72.6328 312.918 72.6484C312.652 72.6953 312.426 72.9609 312.238 73.4453L308.934 82.1172H308.629C308.348 82.1172 308.113 82.0781 307.926 82C307.551 81.8594 307.207 81.3516 306.895 80.4766L304.035 72.625H302.98V72.0391H307.527V72.625ZM319.621 72.3906C319.215 72.3906 318.832 72.4844 318.473 72.6719C317.379 73.2188 316.793 74.3906 316.715 76.1875L319.199 76.2578C319.918 76.2734 320.473 76.2422 320.863 76.1641C321.613 75.9922 321.988 75.5156 321.988 74.7344C321.988 74.3906 321.926 74.0703 321.801 73.7734C321.441 72.8516 320.715 72.3906 319.621 72.3906ZM323.699 79.75C323.605 79.9688 323.496 80.1875 323.371 80.4062C322.574 81.625 321.332 82.2344 319.645 82.2344C318.582 82.2344 317.637 81.9609 316.809 81.4141C315.418 80.4766 314.723 79.0391 314.723 77.1016C314.723 76.0391 314.941 75.0859 315.379 74.2422C316.223 72.6172 317.621 71.8047 319.574 71.8047C320.574 71.8047 321.457 72.0312 322.223 72.4844C323.301 73.1094 323.84 73.9531 323.84 75.0156C323.84 75.5938 323.629 76.0391 323.207 76.3516C322.66 76.7422 321.434 76.9219 319.527 76.8906L316.715 76.8438C316.73 77.5 316.801 78.1016 316.926 78.6484C317.348 80.6016 318.379 81.5781 320.02 81.5781C320.16 81.5781 320.309 81.5703 320.465 81.5547C321.684 81.3984 322.566 80.7266 323.113 79.5391L323.699 79.75ZM330.613 81.4141C330.707 81.4141 330.785 81.4219 330.848 81.4375C331.082 81.4688 331.199 81.6562 331.199 82H325.41V81.4141C325.941 81.4141 326.324 81.375 326.559 81.2969C326.965 81.1562 327.168 80.7266 327.168 80.0078V72.625H325.41V72.0391H328.809L328.902 74.3594C329.105 73.8906 329.379 73.4688 329.723 73.0938C330.457 72.2969 331.293 71.8984 332.23 71.8984C332.371 71.8984 332.52 71.9141 332.676 71.9453C333.395 72.1016 333.754 72.5312 333.754 73.2344C333.754 73.3281 333.738 73.4219 333.707 73.5156C333.582 73.9688 333.285 74.1953 332.816 74.1953C332.723 74.1953 332.629 74.1797 332.535 74.1484C332.316 74.0859 332.082 73.8359 331.832 73.3984C331.613 73.0078 331.371 72.8125 331.105 72.8125C330.871 72.8281 330.582 73 330.238 73.3281C329.363 74.1875 328.926 75.3281 328.926 76.75V81.4141H330.613Z" fill="black"/>
<rect x="1" y="257.16" width="181.7" height="141.437" rx="4" fill="#F1D7D7" stroke="#EE7C7D" stroke-width="2" stroke-dasharray="3 3"/>
<path d="M67.6602 333.922C66.2227 334.781 64.7148 335.219 63.1367 335.234C60.9805 335.234 59.2305 334.516 57.8867 333.078C56.6211 331.688 55.9883 329.969 55.9883 327.922C55.9883 326.234 56.4414 324.742 57.3477 323.445C58.6602 321.617 60.5508 320.703 63.0195 320.703C63.7695 320.703 64.5039 320.789 65.2227 320.961C66.3164 321.242 67.0898 321.609 67.543 322.062C67.543 321.641 67.5664 321.336 67.6133 321.148C67.6914 320.93 67.9023 320.82 68.2461 320.82L68.3164 325.133H67.7539C67.6445 324.789 67.5117 324.453 67.3555 324.125C66.4805 322.281 65.0664 321.359 63.1133 321.359C62.2539 321.359 61.4727 321.578 60.7695 322.016C59.1602 323.062 58.3555 325.047 58.3555 327.969C58.3555 329.328 58.5352 330.508 58.8945 331.508C59.6289 333.555 61.0117 334.578 63.043 334.578C65.4336 334.562 67.0273 333.266 67.8242 330.688H68.3867V335.117C68.1992 335.117 68.0508 335.094 67.9414 335.047C67.7539 334.953 67.6602 334.578 67.6602 333.922ZM74.9961 334.414C75.0898 334.414 75.168 334.422 75.2305 334.438C75.4648 334.469 75.582 334.656 75.582 335H70.2148V334.414C70.7461 334.414 71.1289 334.375 71.3633 334.297C71.7695 334.156 71.9727 333.727 71.9727 333.008V320.352H70.2148V319.766H73.7305V334.414H74.9961ZM81.7227 334.414C81.8008 334.414 81.8789 334.422 81.957 334.438C82.1914 334.469 82.3086 334.656 82.3086 335H76.918V334.414C77.4492 334.414 77.832 334.383 78.0664 334.32C78.5508 334.164 78.793 333.727 78.793 333.008V325.625H76.918V325.039H80.5508V334.414H81.7227ZM80.832 321.617C80.832 321.805 80.793 321.984 80.7148 322.156C80.4961 322.656 80.1133 322.906 79.5664 322.906C79.3945 322.906 79.2227 322.875 79.0508 322.812C78.5352 322.594 78.2773 322.195 78.2773 321.617C78.2773 321.43 78.3164 321.25 78.3945 321.078C78.6289 320.578 79.0195 320.328 79.5664 320.328C79.7383 320.328 79.918 320.367 80.1055 320.445C80.5898 320.68 80.832 321.07 80.832 321.617ZM88.8477 325.391C88.4414 325.391 88.0586 325.484 87.6992 325.672C86.6055 326.219 86.0195 327.391 85.9414 329.188L88.4258 329.258C89.1445 329.273 89.6992 329.242 90.0898 329.164C90.8398 328.992 91.2148 328.516 91.2148 327.734C91.2148 327.391 91.1523 327.07 91.0273 326.773C90.668 325.852 89.9414 325.391 88.8477 325.391ZM92.9258 332.75C92.832 332.969 92.7227 333.188 92.5977 333.406C91.8008 334.625 90.5586 335.234 88.8711 335.234C87.8086 335.234 86.8633 334.961 86.0352 334.414C84.6445 333.477 83.9492 332.039 83.9492 330.102C83.9492 329.039 84.168 328.086 84.6055 327.242C85.4492 325.617 86.8477 324.805 88.8008 324.805C89.8008 324.805 90.6836 325.031 91.4492 325.484C92.5273 326.109 93.0664 326.953 93.0664 328.016C93.0664 328.594 92.8555 329.039 92.4336 329.352C91.8867 329.742 90.6602 329.922 88.7539 329.891L85.9414 329.844C85.957 330.5 86.0273 331.102 86.1523 331.648C86.5742 333.602 87.6055 334.578 89.2461 334.578C89.3867 334.578 89.5352 334.57 89.6914 334.555C90.9102 334.398 91.793 333.727 92.3398 332.539L92.9258 332.75ZM99.1602 334.414C99.2539 334.414 99.332 334.422 99.3945 334.438C99.6289 334.469 99.7461 334.656 99.7461 335H94.5898V334.414C95.1211 334.414 95.5039 334.375 95.7383 334.297C96.1445 334.156 96.3477 333.727 96.3477 333.008V325.625H94.5898V325.039H97.9883L98.082 327.383C98.2539 326.945 98.4805 326.547 98.7617 326.188C99.5117 325.266 100.465 324.805 101.621 324.805C102.199 324.805 102.738 324.953 103.238 325.25C104.316 325.922 104.855 327.039 104.855 328.602V334.414H106.027C106.121 334.414 106.199 334.422 106.262 334.438C106.496 334.469 106.613 334.656 106.613 335H101.34V334.414C101.871 334.414 102.254 334.375 102.488 334.297C102.895 334.156 103.098 333.727 103.098 333.008V328.367C103.098 327.914 103.027 327.508 102.887 327.148C102.543 326.258 101.895 325.812 100.941 325.812C100.504 325.812 100.074 325.945 99.6523 326.211C98.668 326.852 98.1523 327.898 98.1055 329.352V334.414H99.1602ZM107.668 325.625V325.039H109.309V322.812L111.066 322.32V325.039H114.699V325.625H111.066V332.75C111.082 333.922 111.512 334.523 112.355 334.555C113.105 334.445 113.676 333.742 114.066 332.445L114.699 332.562C114.699 332.578 114.699 332.594 114.699 332.609C114.34 334.375 113.441 335.258 112.004 335.258C110.316 335.195 109.418 334.188 109.309 332.234V325.625H107.668ZM124.566 322.578H125.809V334.18L128.223 334.367C128.285 334.367 128.348 334.375 128.41 334.391C128.691 334.453 128.832 334.656 128.832 335H120.723V334.391L123.934 334.18V324.031L120.277 326.375L119.855 325.695L124.566 322.578Z" fill="black"/>
<rect x="353.301" y="257.16" width="181.7" height="141.437" rx="4" fill="#F1D7D7" stroke="#EE7C7D" stroke-width="2" stroke-dasharray="3 3"/>
<path d="M421.574 331.922C420.137 332.781 418.629 333.219 417.051 333.234C414.895 333.234 413.145 332.516 411.801 331.078C410.535 329.688 409.902 327.969 409.902 325.922C409.902 324.234 410.355 322.742 411.262 321.445C412.574 319.617 414.465 318.703 416.934 318.703C417.684 318.703 418.418 318.789 419.137 318.961C420.23 319.242 421.004 319.609 421.457 320.062C421.457 319.641 421.48 319.336 421.527 319.148C421.605 318.93 421.816 318.82 422.16 318.82L422.23 323.133H421.668C421.559 322.789 421.426 322.453 421.27 322.125C420.395 320.281 418.98 319.359 417.027 319.359C416.168 319.359 415.387 319.578 414.684 320.016C413.074 321.062 412.27 323.047 412.27 325.969C412.27 327.328 412.449 328.508 412.809 329.508C413.543 331.555 414.926 332.578 416.957 332.578C419.348 332.562 420.941 331.266 421.738 328.688H422.301V333.117C422.113 333.117 421.965 333.094 421.855 333.047C421.668 332.953 421.574 332.578 421.574 331.922ZM428.91 332.414C429.004 332.414 429.082 332.422 429.145 332.438C429.379 332.469 429.496 332.656 429.496 333H424.129V332.414C424.66 332.414 425.043 332.375 425.277 332.297C425.684 332.156 425.887 331.727 425.887 331.008V318.352H424.129V317.766H427.645V332.414H428.91ZM435.637 332.414C435.715 332.414 435.793 332.422 435.871 332.438C436.105 332.469 436.223 332.656 436.223 333H430.832V332.414C431.363 332.414 431.746 332.383 431.98 332.32C432.465 332.164 432.707 331.727 432.707 331.008V323.625H430.832V323.039H434.465V332.414H435.637ZM434.746 319.617C434.746 319.805 434.707 319.984 434.629 320.156C434.41 320.656 434.027 320.906 433.48 320.906C433.309 320.906 433.137 320.875 432.965 320.812C432.449 320.594 432.191 320.195 432.191 319.617C432.191 319.43 432.23 319.25 432.309 319.078C432.543 318.578 432.934 318.328 433.48 318.328C433.652 318.328 433.832 318.367 434.02 318.445C434.504 318.68 434.746 319.07 434.746 319.617ZM442.762 323.391C442.355 323.391 441.973 323.484 441.613 323.672C440.52 324.219 439.934 325.391 439.855 327.188L442.34 327.258C443.059 327.273 443.613 327.242 444.004 327.164C444.754 326.992 445.129 326.516 445.129 325.734C445.129 325.391 445.066 325.07 444.941 324.773C444.582 323.852 443.855 323.391 442.762 323.391ZM446.84 330.75C446.746 330.969 446.637 331.188 446.512 331.406C445.715 332.625 444.473 333.234 442.785 333.234C441.723 333.234 440.777 332.961 439.949 332.414C438.559 331.477 437.863 330.039 437.863 328.102C437.863 327.039 438.082 326.086 438.52 325.242C439.363 323.617 440.762 322.805 442.715 322.805C443.715 322.805 444.598 323.031 445.363 323.484C446.441 324.109 446.98 324.953 446.98 326.016C446.98 326.594 446.77 327.039 446.348 327.352C445.801 327.742 444.574 327.922 442.668 327.891L439.855 327.844C439.871 328.5 439.941 329.102 440.066 329.648C440.488 331.602 441.52 332.578 443.16 332.578C443.301 332.578 443.449 332.57 443.605 332.555C444.824 332.398 445.707 331.727 446.254 330.539L446.84 330.75ZM453.074 332.414C453.168 332.414 453.246 332.422 453.309 332.438C453.543 332.469 453.66 332.656 453.66 333H448.504V332.414C449.035 332.414 449.418 332.375 449.652 332.297C450.059 332.156 450.262 331.727 450.262 331.008V323.625H448.504V323.039H451.902L451.996 325.383C452.168 324.945 452.395 324.547 452.676 324.188C453.426 323.266 454.379 322.805 455.535 322.805C456.113 322.805 456.652 322.953 457.152 323.25C458.23 323.922 458.77 325.039 458.77 326.602V332.414H459.941C460.035 332.414 460.113 332.422 460.176 332.438C460.41 332.469 460.527 332.656 460.527 333H455.254V332.414C455.785 332.414 456.168 332.375 456.402 332.297C456.809 332.156 457.012 331.727 457.012 331.008V326.367C457.012 325.914 456.941 325.508 456.801 325.148C456.457 324.258 455.809 323.812 454.855 323.812C454.418 323.812 453.988 323.945 453.566 324.211C452.582 324.852 452.066 325.898 452.02 327.352V332.414H453.074ZM461.582 323.625V323.039H463.223V320.812L464.98 320.32V323.039H468.613V323.625H464.98V330.75C464.996 331.922 465.426 332.523 466.27 332.555C467.02 332.445 467.59 331.742 467.98 330.445L468.613 330.562C468.613 330.578 468.613 330.594 468.613 330.609C468.254 332.375 467.355 333.258 465.918 333.258C464.23 333.195 463.332 332.188 463.223 330.234V323.625H461.582ZM475.176 331.359H480.473C480.801 331.359 481.059 331.344 481.246 331.312C481.684 331.203 481.988 330.875 482.16 330.328L482.535 329.062H482.98L482.934 333H474.004V332.531C474.004 332.078 474.09 331.641 474.262 331.219C474.574 330.469 475.324 329.695 476.512 328.898C477.777 328.039 478.48 327.555 478.621 327.445C479.949 326.383 480.613 325.125 480.613 323.672C480.613 323.391 480.59 323.125 480.543 322.875C480.277 321.594 479.449 320.953 478.059 320.953C477.543 320.953 477.145 321.07 476.863 321.305C476.551 321.57 476.348 322.125 476.254 322.969C476.223 323.281 476.191 323.516 476.16 323.672C476.02 324.297 475.645 324.609 475.035 324.609C474.941 324.609 474.84 324.594 474.73 324.562C474.262 324.406 474.027 324.008 474.027 323.367C474.027 322.648 474.309 322.023 474.871 321.492C475.699 320.727 476.832 320.344 478.27 320.344C479.066 320.344 479.785 320.461 480.426 320.695C481.879 321.242 482.605 322.242 482.605 323.695C482.605 324.617 482.207 325.508 481.41 326.367C480.77 327.07 479.574 327.945 477.824 328.992C477.387 329.273 477.066 329.477 476.863 329.602C475.738 330.32 475.176 330.906 475.176 331.359Z" fill="black"/>
</svg>
