<svg width="73" height="14" viewBox="0 0 73 14" fill="none" xmlns="http://www.w3.org/2000/svg">
<path d="M8.44019 9.528C8.44019 10.1467 8.29619 10.7333 8.00819 11.288C7.73085 11.8427 7.27219 12.296 6.63219 12.648C5.99219 12.9893 5.14419 13.16 4.08819 13.16C3.53352 13.16 3.06419 13.1333 2.68019 13.08C2.30685 13.0373 1.96552 12.9627 1.65619 12.856C1.34685 12.7493 1.00552 12.6107 0.632188 12.44V9.688C1.25085 9.99733 1.86952 10.2373 2.48819 10.408C3.10685 10.568 3.64019 10.648 4.08819 10.648C4.32285 10.648 4.52019 10.6107 4.68019 10.536C4.84019 10.4613 4.95752 10.36 5.03219 10.232C5.11752 10.104 5.16019 9.96 5.16019 9.8C5.16019 9.59733 5.11219 9.42667 5.01619 9.288C4.92019 9.14933 4.73885 9.00533 4.47219 8.856C4.20552 8.70667 3.81619 8.52533 3.30419 8.312C2.82419 8.10933 2.41352 7.90133 2.07219 7.688C1.74152 7.47467 1.47485 7.23467 1.27219 6.968C1.06952 6.70133 0.920188 6.392 0.824188 6.04C0.728188 5.67733 0.680188 5.25067 0.680188 4.76C0.680188 4.024 0.861521 3.41067 1.22419 2.92C1.59752 2.41867 2.10419 2.04533 2.74419 1.8C3.38419 1.544 4.12019 1.416 4.95219 1.416C5.74152 1.416 6.42952 1.50133 7.01619 1.672C7.61352 1.832 8.09885 2.01867 8.47219 2.232L7.49619 4.616C7.06952 4.392 6.61619 4.216 6.13619 4.088C5.65619 3.94933 5.22952 3.88 4.85619 3.88C4.63219 3.88 4.45085 3.912 4.31219 3.976C4.17352 4.04 4.07219 4.13067 4.00819 4.248C3.94419 4.35467 3.91219 4.47733 3.91219 4.616C3.91219 4.79733 3.97085 4.95733 4.08819 5.096C4.21619 5.23467 4.43485 5.38933 4.74419 5.56C5.06419 5.72 5.50685 5.93867 6.07219 6.216C6.58419 6.45067 7.01619 6.712 7.36819 7C7.72019 7.288 7.98685 7.63467 8.16819 8.04C8.34952 8.43467 8.44019 8.93067 8.44019 9.528ZM17.9868 8.552C17.9868 9.288 17.8908 9.944 17.6988 10.52C17.5068 11.096 17.2241 11.5813 16.8508 11.976C16.4881 12.36 16.0401 12.6533 15.5068 12.856C14.9841 13.0587 14.3921 13.16 13.7308 13.16C13.1121 13.16 12.5415 13.0587 12.0188 12.856C11.4961 12.6533 11.0481 12.36 10.6748 11.976C10.3015 11.5813 10.0081 11.096 9.79481 10.52C9.59215 9.944 9.49081 9.288 9.49081 8.552C9.49081 7.57067 9.66148 6.744 10.0028 6.072C10.3441 5.38933 10.8348 4.872 11.4748 4.52C12.1255 4.168 12.8935 3.992 13.7788 3.992C14.5895 3.992 15.3095 4.168 15.9388 4.52C16.5788 4.872 17.0801 5.38933 17.4428 6.072C17.8055 6.744 17.9868 7.57067 17.9868 8.552ZM12.7708 8.552C12.7708 9.05333 12.8028 9.48 12.8668 9.832C12.9308 10.184 13.0375 10.4507 13.1868 10.632C13.3361 10.8027 13.5281 10.888 13.7628 10.888C14.0081 10.888 14.1948 10.8027 14.3228 10.632C14.4615 10.4507 14.5575 10.184 14.6108 9.832C14.6748 9.48 14.7068 9.05333 14.7068 8.552C14.7068 8.05067 14.6748 7.62933 14.6108 7.288C14.5575 6.94667 14.4561 6.69067 14.3068 6.52C14.1681 6.34933 13.9815 6.264 13.7468 6.264C13.3948 6.264 13.1441 6.456 12.9948 6.84C12.8455 7.224 12.7708 7.79467 12.7708 8.552ZM23.5612 13.16C22.7079 13.16 21.9505 13 21.2892 12.68C20.6385 12.36 20.1319 11.864 19.7692 11.192C19.4065 10.52 19.2252 9.66133 19.2252 8.616C19.2252 7.53867 19.4225 6.664 19.8172 5.992C20.2225 5.30933 20.7719 4.808 21.4652 4.488C22.1585 4.15733 22.9372 3.992 23.8012 3.992C24.2705 3.992 24.7452 4.05067 25.2252 4.168C25.7159 4.28533 26.1585 4.45067 26.5532 4.664L25.7052 6.888C25.4172 6.728 25.1452 6.60533 24.8892 6.52C24.6439 6.43467 24.3879 6.392 24.1212 6.392C23.8332 6.392 23.5665 6.472 23.3212 6.632C23.0759 6.792 22.8785 7.03733 22.7292 7.368C22.5799 7.688 22.5052 8.09867 22.5052 8.6C22.5052 9.112 22.5745 9.52267 22.7132 9.832C22.8625 10.1413 23.0599 10.3707 23.3052 10.52C23.5612 10.6587 23.8385 10.728 24.1372 10.728C24.4785 10.728 24.8412 10.6587 25.2252 10.52C25.6199 10.3813 25.9825 10.1893 26.3132 9.944V12.376C25.9612 12.6107 25.5559 12.8027 25.0972 12.952C24.6385 13.0907 24.1265 13.16 23.5612 13.16ZM31.0737 5.624C31.0737 5.98667 31.0577 6.38667 31.0257 6.824C30.9937 7.26133 30.9457 7.66133 30.8817 8.024H30.9617C31.015 7.91733 31.079 7.78933 31.1537 7.64C31.239 7.49067 31.335 7.33067 31.4417 7.16C31.5484 6.98933 31.6604 6.81867 31.7777 6.648L33.4257 4.152H37.0097L34.3217 7.912L37.1697 13H33.5057L31.9857 9.832L31.0737 10.584V13H27.8257V0.839999H31.0737V5.624ZM42.0121 3.992C42.8441 3.992 43.5641 4.14133 44.1721 4.44C44.7801 4.73867 45.2441 5.18667 45.5641 5.784C45.8947 6.38133 46.0601 7.13333 46.0601 8.04V9.4H41.0361C41.0574 9.85867 41.2014 10.2373 41.4681 10.536C41.7454 10.8347 42.1614 10.984 42.7161 10.984C43.2387 10.984 43.7134 10.9307 44.1401 10.824C44.5774 10.7173 45.0254 10.5467 45.4841 10.312V12.504C45.0894 12.728 44.6414 12.8933 44.1401 13C43.6494 13.1067 43.0147 13.16 42.2361 13.16C41.3934 13.16 40.6361 13.0053 39.9641 12.696C39.2921 12.376 38.7587 11.88 38.3641 11.208C37.9694 10.536 37.7721 9.67733 37.7721 8.632C37.7721 7.56533 37.9481 6.69067 38.3001 6.008C38.6627 5.32533 39.1587 4.81867 39.7881 4.488C40.4281 4.15733 41.1694 3.992 42.0121 3.992ZM42.1561 6.072C41.8681 6.072 41.6281 6.184 41.4361 6.408C41.2441 6.632 41.1321 6.98933 41.1001 7.48H43.1801C43.1801 7.21333 43.1374 6.97867 43.0521 6.776C42.9667 6.56267 42.8494 6.392 42.7001 6.264C42.5507 6.136 42.3694 6.072 42.1561 6.072ZM51.9917 10.744C52.2584 10.744 52.493 10.7173 52.6957 10.664C52.8984 10.6 53.117 10.5253 53.3517 10.44V12.664C52.9997 12.8027 52.6477 12.92 52.2957 13.016C51.9544 13.112 51.4797 13.16 50.8717 13.16C50.3064 13.16 49.8104 13.0693 49.3837 12.888C48.9677 12.7067 48.6424 12.3973 48.4077 11.96C48.1837 11.512 48.0717 10.888 48.0717 10.088V6.44H47.0957V5.192L48.3917 4.232L49.1917 2.376H51.3197V4.152H53.2237V6.44H51.3197V9.88C51.3197 10.168 51.373 10.3867 51.4797 10.536C51.597 10.6747 51.7677 10.744 51.9917 10.744ZM54.3323 11.704C54.3323 11.1493 54.503 10.76 54.8443 10.536C55.1856 10.312 55.5856 10.2 56.0443 10.2C56.4816 10.2 56.8603 10.312 57.1803 10.536C57.511 10.76 57.6763 11.1493 57.6763 11.704C57.6763 12.2267 57.511 12.6053 57.1803 12.84C56.8603 13.0747 56.4816 13.192 56.0443 13.192C55.5856 13.192 55.1856 13.0747 54.8443 12.84C54.503 12.6053 54.3323 12.2267 54.3323 11.704ZM62.3549 4.152V13H59.1229V4.152H62.3549ZM60.7549 0.584C61.2136 0.584 61.6083 0.674666 61.9389 0.855999C62.2803 1.03733 62.4509 1.4 62.4509 1.944C62.4509 2.46667 62.2803 2.824 61.9389 3.016C61.6083 3.19733 61.2136 3.288 60.7549 3.288C60.2856 3.288 59.8856 3.19733 59.5549 3.016C59.2243 2.824 59.0589 2.46667 59.0589 1.944C59.0589 1.4 59.2243 1.03733 59.5549 0.855999C59.8856 0.674666 60.2856 0.584 60.7549 0.584ZM72.3774 8.552C72.3774 9.288 72.2814 9.944 72.0894 10.52C71.8974 11.096 71.6148 11.5813 71.2414 11.976C70.8788 12.36 70.4308 12.6533 69.8974 12.856C69.3748 13.0587 68.7828 13.16 68.1214 13.16C67.5028 13.16 66.9321 13.0587 66.4094 12.856C65.8868 12.6533 65.4388 12.36 65.0654 11.976C64.6921 11.5813 64.3988 11.096 64.1854 10.52C63.9828 9.944 63.8814 9.288 63.8814 8.552C63.8814 7.57067 64.0521 6.744 64.3934 6.072C64.7348 5.38933 65.2254 4.872 65.8654 4.52C66.5161 4.168 67.2841 3.992 68.1694 3.992C68.9801 3.992 69.7001 4.168 70.3294 4.52C70.9694 4.872 71.4708 5.38933 71.8334 6.072C72.1961 6.744 72.3774 7.57067 72.3774 8.552ZM67.1614 8.552C67.1614 9.05333 67.1934 9.48 67.2574 9.832C67.3214 10.184 67.4281 10.4507 67.5774 10.632C67.7268 10.8027 67.9188 10.888 68.1534 10.888C68.3988 10.888 68.5854 10.8027 68.7134 10.632C68.8521 10.4507 68.9481 10.184 69.0014 9.832C69.0654 9.48 69.0974 9.05333 69.0974 8.552C69.0974 8.05067 69.0654 7.62933 69.0014 7.288C68.9481 6.94667 68.8468 6.69067 68.6974 6.52C68.5588 6.34933 68.3721 6.264 68.1374 6.264C67.7854 6.264 67.5348 6.456 67.3854 6.84C67.2361 7.224 67.1614 7.79467 67.1614 8.552Z" fill="#282828"/>
</svg>
