<svg width="384" height="193" viewBox="0 0 384 193" fill="none" xmlns="http://www.w3.org/2000/svg">
<path fill-rule="evenodd" clip-rule="evenodd" d="M290.546 29.2727V27.5012H267.023V89.9932H290.546V53.9491C290.546 52.4003 290.849 51.2981 291.299 50.5078C291.882 49.6264 292.623 48.9706 293.557 48.5035L293.612 48.4762L293.665 48.4465C294.605 47.9243 295.725 47.6297 297.099 47.6297C299.019 47.6297 300.449 48.2152 301.596 49.3103L301.644 49.3553L301.693 49.398C302.744 50.3119 303.419 51.6857 303.419 53.9491V89.9932H326.941V53.9491C326.941 52.4003 327.244 51.2981 327.695 50.5078C328.277 49.6264 329.018 48.9706 329.952 48.5035L330.007 48.4762L330.06 48.4465C331 47.9243 332.12 47.6297 333.494 47.6297C335.414 47.6297 336.844 48.2152 337.992 49.3103L338.039 49.3553L338.088 49.398C339.139 50.3119 339.814 51.6857 339.814 53.9491V89.9932H363.336V51.9597C363.336 46.8126 362.24 42.2399 359.908 38.3684C357.704 34.5033 354.639 31.5201 350.745 29.4769C346.926 27.3532 342.592 26.3309 337.824 26.3309C332.956 26.3309 328.474 27.4019 324.44 29.5915C322.74 30.4995 321.178 31.5784 319.757 32.8238C318.374 31.5006 316.822 30.3543 315.105 29.3893C311.517 27.3296 307.48 26.3309 303.068 26.3309C298.505 26.3309 294.311 27.293 290.546 29.2727Z" fill="black"/>
<path fill-rule="evenodd" clip-rule="evenodd" d="M238.126 38.9427L245.3 25.4792C244.438 24.942 243.622 24.2842 242.857 23.5188C240.408 21.0696 239.226 17.9518 239.226 14.3942C239.226 10.6576 240.499 7.37516 243.054 4.72231L243.055 4.72092C245.693 1.98584 248.998 0.585129 252.801 0.585129C256.476 0.585129 259.678 2.00615 262.277 4.68468C264.988 7.31615 266.376 10.6085 266.376 14.3942C266.376 15.9731 266.083 17.7161 265.575 19.5802L265.57 19.5965L265.566 19.6128C265.014 21.5428 263.966 23.8592 262.522 26.5056L251.7 46.2799L238.126 38.9427Z" fill="black"/>
<path fill-rule="evenodd" clip-rule="evenodd" d="M207.749 89.9932V1.75539H231.739V89.9932H207.749Z" fill="black"/>
<path fill-rule="evenodd" clip-rule="evenodd" d="M156.907 88.9275L149.707 102.341L163.26 109.851L174.104 90.0373L174.113 90.02C175.551 87.3039 176.593 84.9574 177.14 83.0411C177.656 81.2364 177.95 79.5242 177.95 77.9395C177.95 74.0977 176.578 70.7594 173.851 68.1125C171.252 65.4342 168.051 64.0134 164.375 64.0134C160.572 64.0134 157.267 65.4141 154.63 68.1492L154.612 68.1682L154.594 68.1876C152.072 70.9034 150.8 74.2041 150.8 77.9395C150.8 81.4429 151.998 84.5135 154.432 86.9471C155.207 87.722 156.032 88.3867 156.907 88.9275Z" fill="black"/>
<path fill-rule="evenodd" clip-rule="evenodd" d="M120.169 89.9932V27.5012H143.692V89.9932H120.169ZM122.94 21.6051L122.9 21.562C120.613 19.0761 119.467 16.0503 119.467 12.6388C119.467 9.17188 120.6 6.11495 122.94 3.67395L122.96 3.65238L122.981 3.63126C125.415 1.19769 128.486 0 131.989 0C135.493 0 138.55 1.19979 140.921 3.67395C143.261 6.11495 144.394 9.17188 144.394 12.6388C144.394 16.0503 143.248 19.0761 140.96 21.562L140.941 21.5831L140.921 21.6037C138.55 24.0779 135.493 25.2777 131.989 25.2777C128.486 25.2777 125.415 24.08 122.981 21.6464L122.94 21.6051Z" fill="black"/>
<path fill-rule="evenodd" clip-rule="evenodd" d="M36.3237 89.9932V1.75539H60.3141V33.9376H87.4642V1.75539H111.572V89.9932H87.4642V55.4705H60.3141V89.9932H36.3237Z" fill="black"/>
<path d="M279.879 189.934C274.651 189.934 269.97 188.646 265.835 186.072C261.778 183.497 258.541 179.986 256.122 175.539C253.782 171.092 252.611 166.021 252.611 160.326C252.611 154.631 253.782 149.56 256.122 145.113C258.541 140.666 261.778 137.155 265.835 134.58C269.97 132.006 274.651 130.718 279.879 130.718C283.701 130.718 287.134 131.46 290.177 132.942C293.298 134.424 295.833 136.492 297.784 139.144C299.734 141.719 300.826 144.683 301.06 148.038V172.614C300.826 175.969 299.734 178.972 297.784 181.625C295.911 184.199 293.415 186.228 290.294 187.71C287.173 189.192 283.701 189.934 279.879 189.934ZM283.506 173.784C287.329 173.784 290.411 172.536 292.751 170.039C295.092 167.465 296.262 164.227 296.262 160.326C296.262 157.673 295.716 155.333 294.624 153.304C293.61 151.276 292.127 149.716 290.177 148.623C288.304 147.453 286.12 146.868 283.623 146.868C281.127 146.868 278.903 147.453 276.953 148.623C275.08 149.716 273.559 151.276 272.389 153.304C271.297 155.333 270.75 157.673 270.75 160.326C270.75 162.901 271.297 165.202 272.389 167.231C273.481 169.259 275.002 170.858 276.953 172.029C278.903 173.199 281.088 173.784 283.506 173.784ZM295.56 188.763V173.433L298.252 159.624L295.56 145.815V131.889H313.114V188.763H295.56Z" fill="black"/>
<path d="M210.748 189.934C205.365 189.934 200.566 188.646 196.354 186.072C192.219 183.497 188.942 179.986 186.523 175.539C184.183 171.092 183.013 166.021 183.013 160.326C183.013 154.631 184.183 149.56 186.523 145.113C188.942 140.666 192.219 137.155 196.354 134.58C200.566 132.006 205.365 130.718 210.748 130.718C214.649 130.718 218.159 131.46 221.28 132.942C224.479 134.424 227.092 136.492 229.121 139.144C231.227 141.719 232.398 144.683 232.632 148.038V172.029C232.398 175.383 231.266 178.426 229.238 181.157C227.209 183.809 224.596 185.955 221.397 187.593C218.198 189.153 214.649 189.934 210.748 189.934ZM213.907 173.784C216.482 173.784 218.706 173.238 220.578 172.146C222.45 170.975 223.933 169.376 225.025 167.348C226.117 165.319 226.663 162.979 226.663 160.326C226.663 157.673 226.117 155.372 225.025 153.421C224.011 151.393 222.528 149.794 220.578 148.623C218.706 147.453 216.521 146.868 214.025 146.868C211.528 146.868 209.304 147.453 207.354 148.623C205.482 149.794 203.96 151.393 202.79 153.421C201.698 155.45 201.152 157.751 201.152 160.326C201.152 162.901 201.698 165.202 202.79 167.231C203.882 169.259 205.404 170.858 207.354 172.029C209.304 173.199 211.489 173.784 213.907 173.784ZM243.515 188.763H225.961V173.433L228.653 159.624L225.61 145.815V103.802H243.515V188.763Z" fill="black"/>
<path fill-rule="evenodd" clip-rule="evenodd" d="M346.435 156.347V191.572H322.912V129.08H346.435V131.03C350.382 128.933 354.772 127.91 359.541 127.91C364.211 127.91 368.439 129.037 372.13 131.368C375.802 133.561 378.712 136.518 380.821 140.208C382.945 143.924 384 147.996 384 152.368V191.572H360.478V156.347C360.478 154.028 359.773 152.423 358.534 151.236L358.491 151.195L358.45 151.152C357.232 149.881 355.687 149.209 353.573 149.209C352.047 149.209 350.829 149.54 349.831 150.118L349.782 150.146L349.732 150.173C348.768 150.68 347.985 151.441 347.374 152.551L347.359 152.578L347.344 152.605C346.766 153.603 346.435 154.821 346.435 156.347Z" fill="black"/>
<path fill-rule="evenodd" clip-rule="evenodd" d="M265.835 186.072C269.97 188.646 274.651 189.934 279.879 189.934C283.701 189.934 287.173 189.192 290.294 187.71C291.161 187.298 291.981 186.844 292.752 186.348C293.773 185.69 294.709 184.959 295.56 184.154L295.56 188.763H313.114V131.889H295.56L295.56 136.612C294.702 135.791 293.766 135.049 292.752 134.384C291.943 133.854 291.085 133.373 290.177 132.942C287.134 131.46 283.701 130.718 279.879 130.718C274.651 130.718 269.97 132.006 265.835 134.58C261.778 137.155 258.541 140.666 256.122 145.113C253.782 149.56 252.611 154.631 252.611 160.326C252.611 166.021 253.782 171.092 256.122 175.539C258.541 179.986 261.778 183.497 265.835 186.072ZM296.23 159.23C296.099 157.024 295.563 155.049 294.624 153.304C294.41 152.877 294.176 152.471 293.921 152.085C292.965 150.64 291.717 149.486 290.177 148.623C288.304 147.453 286.12 146.868 283.623 146.868C281.127 146.868 278.903 147.453 276.953 148.623C275.08 149.716 273.559 151.276 272.389 153.304C271.297 155.333 270.75 157.673 270.75 160.326C270.75 162.901 271.297 165.202 272.389 167.231C273.481 169.259 275.002 170.858 276.953 172.029C278.903 173.199 281.088 173.784 283.506 173.784C287.329 173.784 290.411 172.536 292.751 170.039C293.034 169.729 293.299 169.408 293.548 169.079C295.358 166.674 296.262 163.756 296.262 160.326C296.262 160.221 296.262 160.116 296.26 160.012C296.256 159.748 296.246 159.487 296.23 159.23ZM290.688 168.134C292.491 166.143 293.454 163.611 293.454 160.326C293.454 158.067 292.992 156.197 292.151 154.636L292.131 154.599L292.112 154.56C291.346 153.028 290.257 151.887 288.805 151.074L288.746 151.041L288.689 151.005C287.319 150.149 285.665 149.677 283.624 149.677C281.585 149.677 279.87 150.149 278.398 151.032L278.383 151.041L278.369 151.049C276.963 151.87 275.786 153.051 274.843 154.672C274.015 156.226 273.56 158.085 273.56 160.326C273.56 162.491 274.015 164.326 274.862 165.899C275.718 167.489 276.887 168.713 278.398 169.62C279.884 170.512 281.564 170.975 283.507 170.975C286.645 170.975 288.945 169.985 290.688 168.134ZM291.395 130.411C287.925 128.723 284.067 127.91 279.879 127.91C274.167 127.91 268.964 129.324 264.351 132.196L264.341 132.202L264.331 132.209C259.849 135.053 256.289 138.928 253.655 143.771L253.646 143.788L253.637 143.804C251.058 148.706 249.803 154.236 249.803 160.326C249.803 166.416 251.058 171.946 253.637 176.848L253.646 176.864L253.655 176.881C256.289 181.724 259.849 185.599 264.331 188.443L264.341 188.45L264.351 188.456C268.964 191.328 274.167 192.742 279.879 192.742C284.074 192.742 287.964 191.927 291.499 190.247C291.926 190.044 292.344 189.832 292.752 189.61V191.572H315.923V129.08H292.752V131.107C292.31 130.863 291.858 130.631 291.395 130.411Z" fill="black"/>
<path fill-rule="evenodd" clip-rule="evenodd" d="M194.879 188.462L194.869 188.456C190.306 185.615 186.697 181.737 184.056 176.881L184.047 176.864L184.038 176.848C181.459 171.946 180.204 166.416 180.204 160.326C180.204 154.236 181.459 148.706 184.038 143.804L184.047 143.788L184.056 143.771C186.697 138.915 190.306 135.038 194.869 132.196L194.879 132.19L194.889 132.184C199.583 129.315 204.896 127.91 210.748 127.91C215.007 127.91 218.933 128.72 222.473 130.399C222.584 130.45 222.693 130.502 222.802 130.554V100.994H246.324V191.572H223.153V189.844C222.996 189.928 222.838 190.011 222.678 190.093L222.654 190.105L222.629 190.117C219.011 191.882 215.034 192.742 210.748 192.742C204.896 192.742 199.583 191.337 194.889 188.468L194.879 188.462ZM223.153 186.607C224.156 185.991 225.092 185.317 225.962 184.585L225.961 188.763H243.515V103.802H225.61L225.611 135.581C224.739 134.894 223.803 134.273 222.802 133.715C222.31 133.442 221.803 133.184 221.28 132.942C218.159 131.46 214.649 130.718 210.748 130.718C205.365 130.718 200.566 132.006 196.354 134.58C192.219 137.155 188.942 140.666 186.523 145.113C184.183 149.56 183.013 154.631 183.013 160.326C183.013 166.021 184.183 171.092 186.523 175.539C188.942 179.986 192.219 183.497 196.354 186.072C200.566 188.646 205.365 189.934 210.748 189.934C214.649 189.934 218.198 189.153 221.397 187.593C222.003 187.283 222.589 186.954 223.153 186.607ZM224.055 151.806C223.137 150.524 221.978 149.463 220.578 148.623C218.706 147.453 216.521 146.868 214.025 146.868C211.528 146.868 209.304 147.453 207.354 148.623C205.482 149.794 203.96 151.393 202.79 153.421C201.698 155.45 201.152 157.751 201.152 160.326C201.152 162.901 201.698 165.202 202.79 167.231C203.882 169.259 205.404 170.858 207.354 172.029C209.304 173.199 211.489 173.784 213.907 173.784C216.482 173.784 218.706 173.238 220.578 172.146C221.899 171.32 223.026 170.281 223.959 169.028C224.348 168.505 224.703 167.945 225.025 167.348C226.117 165.319 226.663 162.979 226.663 160.326C226.663 160.238 226.663 160.15 226.662 160.063C226.658 159.781 226.648 159.503 226.631 159.23C226.5 157.034 225.964 155.098 225.025 153.421C224.739 152.849 224.416 152.311 224.055 151.806ZM219.127 169.741C220.55 168.843 221.689 167.62 222.552 166.016C223.393 164.455 223.855 162.585 223.855 160.326C223.855 158.064 223.392 156.253 222.575 154.794L222.543 154.736L222.513 154.678C221.739 153.128 220.627 151.928 219.133 151.032L219.111 151.019L219.09 151.005C217.72 150.149 216.066 149.677 214.025 149.677C211.996 149.677 210.288 150.144 208.821 151.019C207.383 151.923 206.191 153.16 205.244 154.789C204.409 156.354 203.961 158.177 203.961 160.326C203.961 162.491 204.416 164.326 205.263 165.899C206.119 167.489 207.288 168.713 208.799 169.62C210.286 170.512 211.965 170.975 213.908 170.975C216.06 170.975 217.764 170.526 219.127 169.741Z" fill="black"/>
<path fill-rule="evenodd" clip-rule="evenodd" d="M158.896 130.594V129.08H135.373V191.572H158.896V157.517C158.896 154.235 159.668 152.338 160.689 151.269C161.877 150.03 163.481 149.326 165.8 149.326C166.987 149.326 167.951 149.513 168.736 149.827C169.546 150.151 170.157 150.581 170.627 151.098L172.853 153.547L187.035 135.625L185.432 133.861C183.594 131.839 181.406 130.337 178.889 129.394C176.457 128.376 173.71 127.91 170.715 127.91C166.251 127.91 162.276 128.777 158.896 130.594Z" fill="black"/>
<path fill-rule="evenodd" clip-rule="evenodd" d="M103.518 169.716C102.054 170.527 100.289 170.975 98.1391 170.975C96.0828 170.975 94.3534 170.533 92.8775 169.715C91.3897 168.815 90.236 167.603 89.3878 166.035C88.5266 164.366 88.0749 162.481 88.0749 160.326C88.0749 158.067 88.537 156.197 89.3775 154.636C90.2248 153.062 91.371 151.897 92.8409 151.074L92.8776 151.053L92.9136 151.032C94.3856 150.149 96.1004 149.677 98.1391 149.677C100.276 149.677 101.965 150.157 103.321 151.005L103.378 151.041L103.437 151.074C104.907 151.897 106.053 153.062 106.901 154.636L106.912 154.656L106.923 154.677C107.74 156.136 108.203 157.947 108.203 160.209C108.203 162.465 107.742 164.393 106.88 166.055L106.871 166.073L106.862 166.092C106.093 167.628 104.993 168.822 103.518 169.716ZM80.8629 188.646L80.8389 188.632C75.7461 185.747 71.6858 181.819 68.7013 176.874C65.6897 171.883 64.2015 166.304 64.2015 160.209C64.2015 154.114 65.6897 148.566 68.7126 143.643C71.7013 138.776 75.7646 134.931 80.8545 132.128C85.996 129.218 91.7816 127.793 98.1391 127.793C104.489 127.793 110.268 129.175 115.408 132.002C120.515 134.811 124.583 138.704 127.572 143.653C130.591 148.573 132.077 154.118 132.077 160.209C132.077 166.304 130.589 171.883 127.577 176.874C124.592 181.819 120.532 185.747 115.439 188.632L115.424 188.641L115.408 188.65C110.268 191.477 104.489 192.859 98.1391 192.859C91.8601 192.859 86.0896 191.474 80.8871 188.659L80.8629 188.646Z" fill="black"/>
<path fill-rule="evenodd" clip-rule="evenodd" d="M12.3735 189.759L12.3431 189.744C8.15474 187.607 4.5661 184.655 1.59132 180.916L0 178.915L16.4641 163.078L18.3564 165.706C19.5397 167.35 20.8624 168.526 22.3091 169.314C23.8154 170.092 25.5416 170.507 27.5457 170.507C29.4864 170.507 31.0213 170.125 32.2442 169.469C33.4957 168.72 34.4988 167.694 35.2692 166.339C35.9998 164.98 36.4397 163.173 36.4397 160.794V103.334H60.5471V159.741C60.5471 166.287 59.219 172.117 56.4528 177.13C53.7002 182.119 49.8072 186.012 44.8181 188.765C39.7994 191.534 33.9295 192.859 27.3116 192.859C21.7499 192.859 16.7551 191.863 12.4042 189.774L12.3735 189.759Z" fill="black"/>
</svg>
