<svg width="113" height="99" viewBox="0 0 113 99" fill="none" xmlns="http://www.w3.org/2000/svg">
<path d="M80.921 31.9746C78.2993 29.5154 78.025 25.2607 80.3018 22.4329C80.3019 22.4328 80.302 22.4327 80.3021 22.4325L80.921 31.9746ZM80.921 31.9746C80.9211 31.9747 80.9213 31.9749 80.9214 31.975M80.921 31.9746L80.9214 31.975M80.9214 31.975L96.3043 46.4183L82.8632 62.9882C80.5694 65.816 80.839 70.0848 83.4671 72.5496C86.1359 75.0526 90.225 74.751 92.5544 71.8794L110.131 50.211C112.425 47.3832 112.156 43.1144 109.527 40.6496L89.3892 21.7627C86.7264 19.2654 82.6495 19.56 80.3175 22.4135C80.3163 22.4151 80.315 22.4167 80.3138 22.4182L80.9214 31.975ZM58.751 6.58367L58.7505 6.58582L42.3221 89.2837L43.3 89.4709L42.3217 89.2858L42.3219 89.2849C41.5955 92.9032 43.7375 96.5351 47.2238 97.3427C50.7573 98.1612 54.125 95.7095 54.8542 92.0803L54.8546 92.0781L71.283 9.38029C71.2831 9.37999 71.2831 9.37969 71.2832 9.3794C72.0098 5.76096 69.8677 2.1289 66.3813 1.32126C62.8479 0.502721 59.4801 2.95441 58.751 6.58367ZM32.6994 66.6696L32.699 66.6693L17.3015 52.2448L30.742 35.6758C33.0358 32.848 32.7662 28.5791 30.1381 26.1144C27.4693 23.6114 23.3801 23.913 21.0507 26.7846L3.47381 48.453C1.17998 51.2807 1.44959 55.5496 4.07768 58.0144L24.216 76.9012C26.8848 79.4042 30.974 79.1026 33.3033 76.231C35.5971 73.4033 35.3275 69.1344 32.6994 66.6696Z" fill="#161616" stroke="#F1D7D7" stroke-width="2"/>
</svg>
