<svg width="107" height="15" viewBox="0 0 107 15" fill="none" xmlns="http://www.w3.org/2000/svg">
<g clip-path="url(#clip0_63_62)">
<mask id="mask0_63_62" style="mask-type:luminance" maskUnits="userSpaceOnUse" x="0" y="0" width="107" height="15">
<path d="M0.566406 0.0501709H106.493V14.152H0.566406V0.0501709Z" fill="white"/>
</mask>
<g mask="url(#mask0_63_62)">
<path fill-rule="evenodd" clip-rule="evenodd" d="M11.4825 0.0501709C8.57155 0.0501709 6.7522 1.61704 6.02446 4.75077C7.11607 3.1839 8.38962 2.59633 9.8451 2.98804C10.6755 3.21132 11.269 3.86027 11.926 4.57798C12.9962 5.74747 14.235 7.10107 16.9406 7.10107C19.8515 7.10107 21.6709 5.5342 22.3986 2.40047C21.307 3.96733 20.0335 4.55491 18.578 4.16319C17.7475 3.93991 17.154 3.29097 16.497 2.57326C15.4269 1.40377 14.1881 0.0501709 11.4825 0.0501709ZM6.02446 7.10107C3.1135 7.10107 1.29415 8.66793 0.566406 11.8017C1.65802 10.2348 2.93156 9.64722 4.38704 10.0389C5.21748 10.2627 5.81099 10.9112 6.46798 11.6289C7.53816 12.7984 8.77693 14.152 11.4825 14.152C14.3935 14.152 16.2128 12.5851 16.9406 9.45136C15.849 11.0182 14.5754 11.6058 13.1199 11.2141C12.2895 10.9908 11.696 10.3419 11.039 9.62416C9.96881 8.45466 8.73004 7.10107 6.02446 7.10107Z" fill="#282828"/>
<path fill-rule="evenodd" clip-rule="evenodd" d="M33.3127 5.99209H31.4076V9.96148C31.4076 11.02 32.0529 11.0034 33.3127 10.9373V12.5416C30.7624 12.8724 29.7484 12.1116 29.7484 9.96148V5.99209H28.335V4.27202H29.7484V2.05055L31.4076 1.5213V4.27202H33.3127V5.99209ZM40.5747 4.27202H42.234V12.5416H40.5747V11.3508C39.9909 12.2273 39.0845 12.7566 37.8861 12.7566C35.7967 12.7566 34.0607 10.8546 34.0607 8.4068C34.0607 5.94247 35.7967 4.05701 37.8861 4.05701C39.0845 4.05701 39.9909 4.58626 40.5747 5.4463V4.27202ZM38.1473 11.0531C39.53 11.0531 40.5747 9.94494 40.5747 8.4068C40.5747 6.86866 39.53 5.76054 38.1473 5.76054C36.7646 5.76054 35.7199 6.86866 35.7199 8.4068C35.7199 9.94494 36.7646 11.0531 38.1473 11.0531ZM44.9994 3.03158C44.4156 3.03158 43.9393 2.50233 43.9393 1.89038C43.9399 1.58789 44.0517 1.29796 44.2504 1.08407C44.4491 0.870176 44.7184 0.749758 44.9994 0.749183C45.2804 0.749758 45.5497 0.870176 45.7484 1.08407C45.9471 1.29796 46.0589 1.58789 46.0595 1.89038C46.0595 2.50233 45.5832 3.03158 44.9994 3.03158ZM44.1698 12.5416V4.27202H45.829V12.5416H44.1698ZM47.7495 12.5416V0.468018H49.4087V12.5416H47.7495ZM60.1785 4.27202H61.9299L59.5178 12.5416H57.8893L56.2915 6.9679L54.6784 12.5416H53.0498L50.6378 4.27202H52.3892L53.8795 9.97802L55.4926 4.27202H57.075L58.6728 9.97802L60.1785 4.27202ZM63.9886 3.03158C63.4048 3.03158 62.9285 2.50233 62.9285 1.89038C62.929 1.58789 63.0409 1.29796 63.2396 1.08407C63.4383 0.870176 63.7076 0.749758 63.9886 0.749183C64.2696 0.749758 64.5389 0.870176 64.7376 1.08407C64.9363 1.29796 65.0481 1.58789 65.0487 1.89038C65.0487 2.50233 64.5724 3.03158 63.9886 3.03158ZM63.159 12.5416V4.27202H64.8182V12.5416H63.159ZM70.7792 4.05701C72.4999 4.05701 73.729 5.31399 73.729 7.46407V12.5416H72.0697V7.646C72.0697 6.38903 71.3937 5.72746 70.349 5.72746C69.2582 5.72746 68.3979 6.42211 68.3979 8.1091V12.5416H66.7386V4.27202H68.3979V5.33052C68.9049 4.47049 69.7345 4.05701 70.7792 4.05701ZM81.595 0.964192H83.2543V12.5416H81.595V11.3508C81.0112 12.2273 80.1048 12.7566 78.9064 12.7566C76.817 12.7566 75.081 10.8546 75.081 8.4068C75.081 5.94247 76.817 4.05701 78.9064 4.05701C80.1048 4.05701 81.0112 4.58626 81.595 5.4463V0.964192ZM79.1676 11.0531C80.5503 11.0531 81.595 9.94494 81.595 8.4068C81.595 6.86866 80.5503 5.76054 79.1676 5.76054C77.7849 5.76054 76.7402 6.86866 76.7402 8.4068C76.7402 9.94494 77.7849 11.0531 79.1676 11.0531ZM88.8158 12.7566C86.496 12.7566 84.7599 10.8546 84.7599 8.4068C84.7599 5.94247 86.496 4.05701 88.8158 4.05701C90.3215 4.05701 91.6273 4.90051 92.2419 6.19056L90.8131 7.08367C90.4751 6.30633 89.7223 5.81016 88.8005 5.81016C87.4485 5.81016 86.4192 6.91828 86.4192 8.4068C86.4192 9.89533 87.4485 11.0034 88.8005 11.0034C89.7223 11.0034 90.4751 10.4907 90.8438 9.72993L92.2726 10.6065C91.6273 11.9131 90.3215 12.7566 88.8158 12.7566ZM95.0073 6.55442C95.0073 8.05948 99.1401 7.14983 99.1401 10.2096C99.1401 11.8635 97.8034 12.7566 96.1442 12.7566C94.6078 12.7566 93.5017 12.0123 93.01 10.8215L94.4389 9.9284C94.6847 10.6727 95.2992 11.1192 96.1442 11.1192C96.8816 11.1192 97.4501 10.8546 97.4501 10.193C97.4501 8.72105 93.3173 9.548 93.3173 6.5875C93.3173 5.03282 94.5618 4.05701 96.1288 4.05701C97.3886 4.05701 98.4333 4.6855 98.9711 5.77708L97.573 6.62058C97.2964 5.97555 96.7587 5.67785 96.1288 5.67785C95.5297 5.67785 95.0073 5.95901 95.0073 6.55442ZM102.09 6.55442C102.09 8.05948 106.223 7.14983 106.223 10.2096C106.223 11.8635 104.886 12.7566 103.227 12.7566C101.69 12.7566 100.584 12.0123 100.093 10.8215L101.521 9.9284C101.767 10.6727 102.382 11.1192 103.227 11.1192C103.964 11.1192 104.533 10.8546 104.533 10.193C104.533 8.72105 100.4 9.548 100.4 6.5875C100.4 5.03282 101.644 4.05701 103.211 4.05701C104.471 4.05701 105.516 4.6855 106.054 5.77708L104.656 6.62058C104.379 5.97555 103.841 5.67785 103.211 5.67785C102.612 5.67785 102.09 5.95901 102.09 6.55442Z" fill="#282828"/>
</g>
</g>
<defs>
<clipPath id="clip0_63_62">
<rect width="105.927" height="14.3629" fill="white" transform="translate(0.566406 0.0501709)"/>
</clipPath>
</defs>
</svg>
