<svg width="73" height="30" viewBox="0 0 73 30" fill="none" xmlns="http://www.w3.org/2000/svg">
<path d="M6.67903 12.5405H3.41503V3.64453H0.967025V1.11653H9.12703V3.64453H6.67903V12.5405ZM13.6763 3.53253C14.7109 3.53253 15.5216 3.80986 16.1083 4.36453C16.7056 4.91919 17.0043 5.70853 17.0043 6.73253V12.5405H14.7803L14.1563 11.3725H14.0923C13.8576 11.6819 13.6176 11.9379 13.3723 12.1405C13.1269 12.3325 12.8443 12.4712 12.5243 12.5565C12.2043 12.6525 11.8149 12.7005 11.3563 12.7005C10.8763 12.7005 10.4443 12.5992 10.0603 12.3965C9.67628 12.1832 9.37228 11.8685 9.14828 11.4525C8.93494 11.0259 8.82828 10.4872 8.82828 9.83653C8.82828 8.88719 9.13761 8.18319 9.75628 7.72453C10.3749 7.25519 11.2549 6.99919 12.3963 6.95653L13.7563 6.90853V6.78053C13.7563 6.38586 13.6763 6.10853 13.5163 5.94853C13.3669 5.77786 13.1589 5.69253 12.8923 5.69253C12.6043 5.69253 12.2523 5.75653 11.8363 5.88453C11.4203 6.00186 11.0043 6.15653 10.5883 6.34853L9.70828 4.33253C10.2203 4.06586 10.7963 3.86853 11.4363 3.74053C12.0869 3.60186 12.8336 3.53253 13.6763 3.53253ZM13.2443 8.62053C12.8283 8.64186 12.5296 8.74319 12.3483 8.92453C12.1776 9.09519 12.0923 9.34053 12.0923 9.66053C12.0923 9.95919 12.1563 10.1832 12.2843 10.3325C12.4123 10.4712 12.5776 10.5405 12.7803 10.5405C13.0469 10.5405 13.2816 10.4232 13.4843 10.1885C13.6869 9.95386 13.7883 9.64986 13.7883 9.27653V8.58853L13.2443 8.62053ZM24.2635 3.53253C25.1169 3.53253 25.8155 3.78853 26.3595 4.30053C26.9142 4.81253 27.1915 5.63919 27.1915 6.78053V12.5405H23.9595V7.70853C23.9595 7.12186 23.8955 6.67919 23.7675 6.38053C23.6395 6.08186 23.4262 5.93253 23.1275 5.93253C22.6689 5.93253 22.3649 6.16719 22.2155 6.63653C22.0662 7.10586 21.9915 7.78319 21.9915 8.66853V12.5405H18.7595V3.69253H21.1755L21.6235 4.86053H21.7195C21.9009 4.58319 22.1089 4.34853 22.3435 4.15653C22.5782 3.95386 22.8502 3.79919 23.1595 3.69253C23.4795 3.58586 23.8475 3.53253 24.2635 3.53253ZM36.499 9.06853C36.499 9.68719 36.355 10.2739 36.067 10.8285C35.7897 11.3832 35.331 11.8365 34.691 12.1885C34.051 12.5299 33.203 12.7005 32.147 12.7005C31.5924 12.7005 31.123 12.6739 30.739 12.6205C30.3657 12.5779 30.0244 12.5032 29.715 12.3965C29.4057 12.2899 29.0644 12.1512 28.691 11.9805V9.22853C29.3097 9.53786 29.9284 9.77786 30.547 9.94853C31.1657 10.1085 31.699 10.1885 32.147 10.1885C32.3817 10.1885 32.579 10.1512 32.739 10.0765C32.899 10.0019 33.0164 9.90053 33.091 9.77253C33.1764 9.64453 33.219 9.50053 33.219 9.34053C33.219 9.13786 33.171 8.96719 33.075 8.82853C32.979 8.68986 32.7977 8.54586 32.531 8.39653C32.2644 8.24719 31.875 8.06586 31.363 7.85253C30.883 7.64986 30.4724 7.44186 30.131 7.22853C29.8004 7.01519 29.5337 6.77519 29.331 6.50853C29.1284 6.24186 28.979 5.93253 28.883 5.58053C28.787 5.21786 28.739 4.79119 28.739 4.30053C28.739 3.56453 28.9204 2.95119 29.283 2.46053C29.6564 1.95919 30.163 1.58586 30.803 1.34053C31.443 1.08453 32.179 0.956527 33.011 0.956527C33.8004 0.956527 34.4884 1.04186 35.075 1.21253C35.6724 1.37253 36.1577 1.55919 36.531 1.77253L35.555 4.15653C35.1284 3.93253 34.675 3.75653 34.195 3.62853C33.715 3.48986 33.2884 3.42053 32.915 3.42053C32.691 3.42053 32.5097 3.45253 32.371 3.51653C32.2324 3.58053 32.131 3.67119 32.067 3.78853C32.003 3.89519 31.971 4.01786 31.971 4.15653C31.971 4.33786 32.0297 4.49786 32.147 4.63653C32.275 4.77519 32.4937 4.92986 32.803 5.10053C33.123 5.26053 33.5657 5.47919 34.131 5.75653C34.643 5.99119 35.075 6.25253 35.427 6.54053C35.779 6.82853 36.0457 7.17519 36.227 7.58053C36.4084 7.97519 36.499 8.47119 36.499 9.06853ZM42.2537 10.2845C42.5203 10.2845 42.755 10.2579 42.9577 10.2045C43.1603 10.1405 43.379 10.0659 43.6137 9.98053V12.2045C43.2617 12.3432 42.9097 12.4605 42.5577 12.5565C42.2163 12.6525 41.7417 12.7005 41.1337 12.7005C40.5683 12.7005 40.0723 12.6099 39.6457 12.4285C39.2297 12.2472 38.9043 11.9379 38.6697 11.5005C38.4457 11.0525 38.3337 10.4285 38.3337 9.62853V5.98053H37.3577V4.73253L38.6537 3.77253L39.4537 1.91653H41.5817V3.69253H43.4857V5.98053H41.5817V9.42053C41.5817 9.70853 41.635 9.92719 41.7417 10.0765C41.859 10.2152 42.0297 10.2845 42.2537 10.2845ZM49.4263 3.53253C50.4609 3.53253 51.2716 3.80986 51.8583 4.36453C52.4556 4.91919 52.7543 5.70853 52.7543 6.73253V12.5405H50.5303L49.9063 11.3725H49.8423C49.6076 11.6819 49.3676 11.9379 49.1223 12.1405C48.8769 12.3325 48.5943 12.4712 48.2743 12.5565C47.9543 12.6525 47.5649 12.7005 47.1063 12.7005C46.6263 12.7005 46.1943 12.5992 45.8103 12.3965C45.4263 12.1832 45.1223 11.8685 44.8983 11.4525C44.6849 11.0259 44.5783 10.4872 44.5783 9.83653C44.5783 8.88719 44.8876 8.18319 45.5063 7.72453C46.1249 7.25519 47.0049 6.99919 48.1463 6.95653L49.5063 6.90853V6.78053C49.5063 6.38586 49.4263 6.10853 49.2663 5.94853C49.1169 5.77786 48.9089 5.69253 48.6423 5.69253C48.3543 5.69253 48.0023 5.75653 47.5863 5.88453C47.1703 6.00186 46.7543 6.15653 46.3383 6.34853L45.4583 4.33253C45.9703 4.06586 46.5463 3.86853 47.1863 3.74053C47.8369 3.60186 48.5836 3.53253 49.4263 3.53253ZM48.9943 8.62053C48.5783 8.64186 48.2796 8.74319 48.0983 8.92453C47.9276 9.09519 47.8423 9.34053 47.8423 9.66053C47.8423 9.95919 47.9063 10.1832 48.0343 10.3325C48.1623 10.4712 48.3276 10.5405 48.5303 10.5405C48.7969 10.5405 49.0316 10.4232 49.2343 10.1885C49.4369 9.95386 49.5383 9.64986 49.5383 9.27653V8.58853L48.9943 8.62053ZM58.5575 12.7005C57.7042 12.7005 56.9469 12.5405 56.2855 12.2205C55.6349 11.9005 55.1282 11.4045 54.7655 10.7325C54.4029 10.0605 54.2215 9.20186 54.2215 8.15653C54.2215 7.07919 54.4189 6.20453 54.8135 5.53253C55.2189 4.84986 55.7682 4.34853 56.4615 4.02853C57.1549 3.69786 57.9335 3.53253 58.7975 3.53253C59.2669 3.53253 59.7415 3.59119 60.2215 3.70853C60.7122 3.82586 61.1549 3.99119 61.5495 4.20453L60.7015 6.42853C60.4135 6.26853 60.1415 6.14586 59.8855 6.06053C59.6402 5.97519 59.3842 5.93253 59.1175 5.93253C58.8295 5.93253 58.5629 6.01253 58.3175 6.17253C58.0722 6.33253 57.8749 6.57786 57.7255 6.90853C57.5762 7.22853 57.5015 7.63919 57.5015 8.14053C57.5015 8.65253 57.5709 9.06319 57.7095 9.37253C57.8589 9.68186 58.0562 9.91119 58.3015 10.0605C58.5575 10.1992 58.8349 10.2685 59.1335 10.2685C59.4749 10.2685 59.8375 10.1992 60.2215 10.0605C60.6162 9.92186 60.9789 9.72986 61.3095 9.48453V11.9165C60.9575 12.1512 60.5522 12.3432 60.0935 12.4925C59.6349 12.6312 59.1229 12.7005 58.5575 12.7005ZM66.07 5.16453C66.07 5.52719 66.054 5.92719 66.022 6.36453C65.99 6.80186 65.942 7.20186 65.878 7.56453H65.958C66.0114 7.45786 66.0754 7.32986 66.15 7.18053C66.2354 7.03119 66.3314 6.87119 66.438 6.70053C66.5447 6.52986 66.6567 6.35919 66.774 6.18853L68.422 3.69253H72.006L69.318 7.45253L72.166 12.5405H68.502L66.982 9.37253L66.07 10.1245V12.5405H62.822V0.380527H66.07V5.16453ZM23.4244 19.8125C23.4244 20.6019 23.3551 21.3379 23.2164 22.0205C23.0777 22.6925 22.8484 23.2845 22.5284 23.7965C22.2191 24.3085 21.8084 24.7245 21.2964 25.0445L23.9204 28.2605H19.9204L18.2084 25.7005C18.2191 25.7005 18.2084 25.7005 18.1764 25.7005C18.1444 25.7005 18.1337 25.7005 18.1444 25.7005C17.2271 25.7005 16.4324 25.5619 15.7604 25.2845C15.0991 25.0072 14.5551 24.6072 14.1284 24.0845C13.7017 23.5619 13.3817 22.9432 13.1684 22.2285C12.9657 21.5032 12.8644 20.6925 12.8644 19.7965C12.8644 18.6125 13.0511 17.5832 13.4244 16.7085C13.7977 15.8232 14.3737 15.1405 15.1524 14.6605C15.9311 14.1805 16.9337 13.9405 18.1604 13.9405C19.4191 13.9405 20.4324 14.1859 21.2004 14.6765C21.9791 15.1565 22.5444 15.8392 22.8964 16.7245C23.2484 17.5992 23.4244 18.6285 23.4244 19.8125ZM16.2884 19.8125C16.2884 20.4952 16.3471 21.0872 16.4644 21.5885C16.5924 22.0792 16.7897 22.4579 17.0564 22.7245C17.3337 22.9912 17.6964 23.1245 18.1444 23.1245C18.6137 23.1245 18.9817 22.9912 19.2484 22.7245C19.5151 22.4579 19.7071 22.0792 19.8244 21.5885C19.9417 21.0872 20.0004 20.4952 20.0004 19.8125C20.0004 18.7779 19.8671 17.9619 19.6004 17.3645C19.3337 16.7672 18.8537 16.4685 18.1604 16.4685C17.7017 16.4685 17.3337 16.6072 17.0564 16.8845C16.7791 17.1512 16.5817 17.5352 16.4644 18.0365C16.3471 18.5272 16.2884 19.1192 16.2884 19.8125ZM33.4408 16.6925V25.5405H31.0248L30.6248 24.4365H30.4328C30.2621 24.7352 30.0434 24.9805 29.7768 25.1725C29.5208 25.3539 29.2328 25.4872 28.9128 25.5725C28.6034 25.6579 28.2834 25.7005 27.9528 25.7005C27.4194 25.7005 26.9341 25.5885 26.4968 25.3645C26.0594 25.1405 25.7074 24.7885 25.4408 24.3085C25.1741 23.8285 25.0408 23.2099 25.0408 22.4525V16.6925H28.2728V21.5245C28.2728 22.1005 28.3314 22.5379 28.4488 22.8365C28.5661 23.1352 28.7741 23.2845 29.0728 23.2845C29.3821 23.2845 29.6168 23.1832 29.7768 22.9805C29.9474 22.7672 30.0594 22.4579 30.1128 22.0525C30.1768 21.6472 30.2088 21.1512 30.2088 20.5645V16.6925H33.4408ZM39.1803 16.5325C40.0123 16.5325 40.7323 16.6819 41.3403 16.9805C41.9483 17.2792 42.4123 17.7272 42.7323 18.3245C43.0629 18.9219 43.2283 19.6739 43.2283 20.5805V21.9405H38.2043C38.2256 22.3992 38.3696 22.7779 38.6363 23.0765C38.9136 23.3752 39.3296 23.5245 39.8843 23.5245C40.4069 23.5245 40.8816 23.4712 41.3083 23.3645C41.7456 23.2579 42.1936 23.0872 42.6523 22.8525V25.0445C42.2576 25.2685 41.8096 25.4339 41.3083 25.5405C40.8176 25.6472 40.1829 25.7005 39.4043 25.7005C38.5616 25.7005 37.8043 25.5459 37.1323 25.2365C36.4603 24.9165 35.9269 24.4205 35.5323 23.7485C35.1376 23.0765 34.9403 22.2179 34.9403 21.1725C34.9403 20.1059 35.1163 19.2312 35.4683 18.5485C35.8309 17.8659 36.3269 17.3592 36.9563 17.0285C37.5963 16.6979 38.3376 16.5325 39.1803 16.5325ZM39.3243 18.6125C39.0363 18.6125 38.7963 18.7245 38.6043 18.9485C38.4123 19.1725 38.3003 19.5299 38.2683 20.0205H40.3483C40.3483 19.7539 40.3056 19.5192 40.2203 19.3165C40.1349 19.1032 40.0176 18.9325 39.8683 18.8045C39.7189 18.6765 39.5376 18.6125 39.3243 18.6125ZM50.0079 16.5325C50.1892 16.5325 50.3706 16.5432 50.5519 16.5645C50.7439 16.5859 50.8772 16.6072 50.9519 16.6285L50.6479 19.5085C50.5412 19.4872 50.4079 19.4659 50.2479 19.4445C50.0986 19.4232 49.8479 19.4125 49.4959 19.4125C49.3786 19.4125 49.2346 19.4339 49.0639 19.4765C48.8932 19.5085 48.7226 19.5832 48.5519 19.7005C48.3919 19.8179 48.2532 19.9939 48.1359 20.2285C48.0292 20.4632 47.9759 20.7832 47.9759 21.1885V25.5405H44.7439V16.6925H47.1279L47.6399 18.1005H47.7999C47.9492 17.8125 48.1412 17.5512 48.3759 17.3165C48.6106 17.0712 48.8666 16.8792 49.1439 16.7405C49.4319 16.6019 49.7199 16.5325 50.0079 16.5325ZM51.0194 16.6925H54.3634L55.6594 21.7645C55.6807 21.8392 55.6967 21.9299 55.7074 22.0365C55.7287 22.1432 55.7394 22.2552 55.7394 22.3725C55.7501 22.4899 55.7554 22.6072 55.7554 22.7245H55.8354C55.8567 22.5325 55.8727 22.3512 55.8834 22.1805C55.8941 22.0099 55.9154 21.8712 55.9474 21.7645L57.3234 16.6925H60.5714L57.3234 26.0845C57.0781 26.8099 56.7901 27.4179 56.4594 27.9085C56.1287 28.3992 55.6967 28.7672 55.1634 29.0125C54.6407 29.2579 53.9581 29.3805 53.1154 29.3805C52.8487 29.3805 52.6194 29.3645 52.4274 29.3325C52.2461 29.3112 52.0807 29.2845 51.9314 29.2525V26.8525C52.0381 26.8739 52.1661 26.8952 52.3154 26.9165C52.4754 26.9379 52.6407 26.9485 52.8114 26.9485C53.1314 26.9485 53.3821 26.8899 53.5634 26.7725C53.7554 26.6552 53.8994 26.4899 53.9954 26.2765C54.1021 26.0739 54.1874 25.8499 54.2514 25.6045L54.2994 25.4125L51.0194 16.6925Z" fill="#282828"/>
</svg>
