<svg width="41" height="41" viewBox="0 0 41 41" fill="none" xmlns="http://www.w3.org/2000/svg">
<g clip-path="url(#clip0_63_22)">
<path d="M36.3352 0.949951H4.55157C2.42128 0.949951 0.694336 2.67689 0.694336 4.80718V36.5908C0.694336 38.7211 2.42128 40.448 4.55157 40.448H36.3352C38.4655 40.448 40.1924 38.7211 40.1924 36.5908V4.80718C40.1924 2.67689 38.4655 0.949951 36.3352 0.949951Z" fill="#282828"/>
<path d="M36.3352 0.949951H4.55157C2.42128 0.949951 0.694336 2.67689 0.694336 4.80718V36.5908C0.694336 38.7211 2.42128 40.448 4.55157 40.448H36.3352C38.4655 40.448 40.1924 38.7211 40.1924 36.5908V4.80718C40.1924 2.67689 38.4655 0.949951 36.3352 0.949951Z" fill="#282828"/>
<path fill-rule="evenodd" clip-rule="evenodd" d="M25.1449 32.3806V36.2425C25.7727 36.5644 26.5153 36.8057 27.3725 36.9666C28.2297 37.1275 29.1332 37.208 30.083 37.208C31.0086 37.208 31.8879 37.1195 32.721 36.9425C33.5541 36.7655 34.2846 36.4738 34.9124 36.0675C35.5402 35.6612 36.0372 35.1302 36.4034 34.4744C36.7696 33.8187 36.9528 33.0082 36.9528 32.0427C36.9528 31.3427 36.8482 30.7292 36.6389 30.2022C36.4296 29.6753 36.1278 29.2066 35.7334 28.7963C35.339 28.386 34.8661 28.0178 34.3147 27.692C33.7634 27.3661 33.1416 27.0584 32.4494 26.7688C31.9423 26.5596 31.4875 26.3564 31.0851 26.1593C30.6826 25.9621 30.3406 25.761 30.0588 25.5559C29.7771 25.3507 29.5598 25.1335 29.4069 24.9042C29.254 24.6748 29.1774 24.4154 29.1774 24.1257C29.1774 23.8603 29.2459 23.6209 29.3827 23.4077C29.5196 23.1944 29.7127 23.0114 29.9622 22.8585C30.2118 22.7057 30.5176 22.587 30.8798 22.5025C31.2421 22.418 31.6445 22.3758 32.0872 22.3758C32.4091 22.3758 32.7492 22.4 33.1073 22.4482C33.4655 22.4965 33.8257 22.5709 34.188 22.6715C34.5502 22.7721 34.9023 22.8988 35.2444 23.0516C35.5865 23.2045 35.9024 23.3815 36.1921 23.5827V19.9742C35.6046 19.7489 34.9627 19.582 34.2664 19.4734C33.5702 19.3647 32.7713 19.3104 31.8699 19.3104C30.9522 19.3104 30.083 19.409 29.262 19.6061C28.441 19.8032 27.7186 20.111 27.0948 20.5293C26.471 20.9477 25.978 21.4807 25.6158 22.1284C25.2536 22.7761 25.0725 23.5505 25.0725 24.4516C25.0725 25.6021 25.4045 26.5837 26.0686 27.3963C26.7326 28.2089 27.7407 28.8968 29.093 29.46C29.6242 29.6773 30.1192 29.8904 30.578 30.0996C31.0368 30.3089 31.4332 30.5261 31.7672 30.7514C32.1012 30.9766 32.3648 31.222 32.5581 31.4876C32.7512 31.753 32.8478 32.0547 32.8478 32.3927C32.8478 32.6421 32.7874 32.8734 32.6667 33.0866C32.546 33.2998 32.3628 33.4848 32.1173 33.6417C31.8719 33.7987 31.566 33.9213 31.1998 34.0098C30.8335 34.0984 30.405 34.1426 29.9139 34.1426C29.0768 34.1426 28.2479 33.9958 27.4268 33.7021C26.6058 33.4085 25.8452 32.968 25.1449 32.3806ZM18.6525 22.8654H23.6067V19.6961H9.79785V22.8654H14.7279V36.9766H18.6525V22.8654Z" fill="#E2E2E2"/>
</g>
<defs>
<clipPath id="clip0_63_22">
<rect width="39.4981" height="39.4981" fill="white" transform="translate(0.694336 0.949951)"/>
</clipPath>
</defs>
</svg>
