<svg width="111" height="87" viewBox="0 0 111 87" fill="none" xmlns="http://www.w3.org/2000/svg">
<path d="M97.0814 5.67834L97.0809 5.67829C94.0347 5.33649 90.8658 4.12755 88.2482 2.33705C85.7407 0.559331 82.3936 0.848085 80.1698 3.04372C76.8109 6.28273 72.3088 8.81929 67.9241 9.40727C63.4386 10.0088 58.6758 8.75457 54.5906 6.47204C52.1209 5.04325 49.0777 5.45133 47.0061 7.4891C43.5611 10.7814 39.2264 13.2555 34.7409 13.857C30.3572 14.4448 25.434 13.173 21.406 10.9209C18.7621 9.40438 15.4491 9.98082 13.4157 12.373C11.3027 14.7943 8.48664 16.8082 5.62353 17.9622C2.18128 19.3257 0.50865 23.3659 1.72168 26.9232C2.94137 30.5 6.69219 32.4392 10.1634 31.0662L10.1635 31.0662C14.1305 29.4967 17.3295 27.1556 19.5128 25.2981C24.8152 27.4037 30.6183 28.5043 36.3349 27.7377C42.0553 26.9706 46.9497 24.3804 50.2448 22.2066C51.0399 21.6952 51.7512 21.1841 52.3782 20.7166C53.1023 21.0023 53.9076 21.2967 54.7644 21.5936L54.7644 21.5937L54.7733 21.5967C58.4604 22.8348 63.7948 24.0554 69.5181 23.288C75.233 22.5216 80.61 19.923 85.2735 16.4646C87.809 17.7075 91.4513 19.1111 95.6464 19.5844L95.6465 19.5844C99.323 19.9989 102.521 17.1278 102.895 13.3374C103.267 9.56648 100.729 6.0896 97.0814 5.67834ZM103.228 59.2002L103.227 59.2002C100.181 58.8584 97.012 57.6494 94.3943 55.8589C91.8868 54.0812 88.5398 54.37 86.316 56.5656C82.9571 59.8046 78.455 62.3412 74.0702 62.9292C69.5847 63.5306 64.822 62.2765 60.7368 59.9939C58.2671 58.5651 55.2238 58.9732 53.1522 61.011C49.7072 64.3033 45.3726 66.7774 40.8871 67.3789C36.503 67.9668 31.5797 66.6947 27.5711 64.4588C24.9219 62.9396 21.6151 63.5429 19.5842 65.9077C17.4507 68.3362 14.6506 70.3463 11.7733 71.4826L11.7728 71.4828C8.32845 72.8451 6.65444 76.8867 7.86784 80.4451C9.08753 84.0219 12.8383 85.961 16.3096 84.5881L16.3097 84.5881C20.2766 83.0186 23.4757 80.6775 25.659 78.82C30.9613 80.9256 36.7644 82.0262 42.4811 81.2596C48.2014 80.4925 53.0958 77.9023 56.3909 75.7285C57.186 75.2171 57.8973 74.706 58.5243 74.2385C59.2484 74.5242 60.0537 74.8186 60.9106 75.1156L60.9195 75.1185C64.6065 76.3567 69.9409 77.5773 75.6642 76.8098C81.3791 76.0435 86.7561 73.4449 91.4197 69.9865C93.9552 71.2294 97.5974 72.6329 101.793 73.1063L101.793 73.1063C105.469 73.5208 108.668 70.6497 109.041 66.8593C109.413 63.0884 106.876 59.6115 103.228 59.2002ZM100.154 32.4393L100.154 32.4392C97.1078 32.0974 93.939 30.8885 91.3213 29.098C88.8138 27.3203 85.4667 27.609 83.2429 29.8047C79.884 33.0437 75.3819 35.5802 70.9971 36.1682C66.5116 36.7697 61.7489 35.5155 57.6637 33.233C55.194 31.8042 52.1508 32.2123 50.0791 34.2501C46.6342 37.5423 42.2995 40.0164 37.814 40.6179C33.43 41.2058 28.5068 39.9338 24.4982 37.698C21.8548 36.1819 18.5428 36.7579 16.5094 39.1488C14.3761 41.5764 11.5768 43.5857 8.70022 44.7217L8.69974 44.7219C5.25537 46.0842 3.58136 50.1258 4.79476 53.6842C6.01445 57.2609 9.76527 59.2001 13.2365 57.8272L13.2366 57.8271C17.2035 56.2577 20.4026 53.9166 22.5859 52.0591C27.8883 54.1646 33.6913 55.2652 39.408 54.4986C45.1283 53.7316 50.0227 51.1413 53.3178 48.9676C54.1129 48.4561 54.8242 47.945 55.4513 47.4775C56.1754 47.7633 56.9807 48.0576 57.8375 48.3546L57.8375 48.3546L57.8464 48.3576C61.5335 49.5958 66.8679 50.8164 72.5911 50.0489C78.3061 49.2826 83.6831 46.6839 88.3466 43.2255C90.8821 44.4685 94.5243 45.872 98.7195 46.3453L98.7196 46.3454C102.396 46.7598 105.594 43.8888 105.968 40.0983C106.34 36.3274 103.803 32.8505 100.154 32.4393Z" fill="#161616" stroke="#E2ECEF" stroke-width="2"/>
</svg>
